<svg width="400" height="222" viewBox="0 0 400 222" fill="none" xmlns="http://www.w3.org/2000/svg">
<rect y="54" width="399.997" height="128" rx="12" fill="white"/>
<rect y="54" width="399.997" height="128" rx="12" fill="#FFD9AB" fill-opacity="0.25"/>
<g clip-path="url(#clip0_5873_121497)">
<path opacity="0.35" d="M48.6404 121.153C54.183 115.937 62.6726 106.189 67.6288 97.9121C67.8953 97.467 68.0286 97.2445 68.2409 97.1423C68.4533 97.0401 68.7057 97.0741 69.2105 97.1422L85.7041 99.3667C86.435 99.4653 86.8005 99.5146 86.9929 99.8532C87.1853 100.192 87.0526 100.503 86.7872 101.125C84.6927 106.032 77.1653 119.587 71.3534 126.497C70.6385 127.347 70.281 127.772 69.6958 127.974C69.1106 128.175 68.5166 128.05 67.3288 127.799L49.4009 124.017C48.0002 123.721 47.2999 123.574 47.1712 123.115C47.0426 122.657 47.5752 122.156 48.6404 121.153Z" fill="#FFD9AB"/>
<path opacity="0.35" d="M340.803 71.1522C346.346 65.9362 354.836 56.1881 359.792 47.9111C360.058 47.4661 360.192 47.2435 360.404 47.1413C360.616 47.0391 360.869 47.0731 361.374 47.1412L377.867 49.3657C378.598 49.4643 378.964 49.5136 379.156 49.8522C379.348 50.1908 379.216 50.5017 378.95 51.1236C376.856 56.0312 369.328 69.586 363.516 76.4961C362.802 77.3461 362.444 77.7711 361.859 77.9728C361.274 78.1744 360.68 78.0491 359.492 77.7985L341.564 74.016C340.163 73.7204 339.463 73.5727 339.334 73.1143C339.206 72.6558 339.738 72.1546 340.803 71.1522Z" fill="#FFD9AB"/>
<path opacity="0.35" d="M239.803 189.152C245.346 183.936 253.836 174.188 258.792 165.911C259.058 165.466 259.192 165.244 259.404 165.141C259.616 165.039 259.869 165.073 260.374 165.141L276.867 167.366C277.598 167.464 277.964 167.514 278.156 167.852C278.348 168.191 278.216 168.502 277.95 169.124C275.856 174.031 268.328 187.586 262.516 194.496C261.802 195.346 261.444 195.771 260.859 195.973C260.274 196.174 259.68 196.049 258.492 195.798L240.564 192.016C239.163 191.72 238.463 191.573 238.334 191.114C238.206 190.656 238.738 190.155 239.803 189.152Z" fill="#FFD9AB"/>
<path opacity="0.35" d="M116.803 58.1522C122.346 52.9362 130.836 43.1881 135.792 34.9111C136.058 34.4661 136.192 34.2435 136.404 34.1413C136.616 34.0391 136.869 34.0731 137.374 34.1412L153.867 36.3657C154.598 36.4643 154.964 36.5136 155.156 36.8522C155.348 37.1908 155.216 37.5017 154.95 38.1236C152.856 43.0312 145.328 56.586 139.516 63.4961C138.802 64.3461 138.444 64.7711 137.859 64.9728C137.274 65.1744 136.68 65.0491 135.492 64.7985L117.564 61.016C116.163 60.7204 115.463 60.5727 115.334 60.1143C115.206 59.6558 115.738 59.1546 116.803 58.1522Z" fill="#FFD9AB"/>
<path opacity="0.35" d="M357.026 142.152C351.483 136.936 342.993 127.188 338.037 118.911C337.771 118.466 337.637 118.244 337.425 118.141C337.213 118.039 336.96 118.073 336.456 118.141L319.962 120.366C319.231 120.464 318.866 120.514 318.673 120.852C318.481 121.191 318.613 121.502 318.879 122.124C320.973 127.031 328.501 140.586 334.313 147.496C335.028 148.346 335.385 148.771 335.97 148.973C336.555 149.174 337.149 149.049 338.337 148.798L356.265 145.016C357.666 144.72 358.366 144.573 358.495 144.114C358.623 143.656 358.091 143.155 357.026 142.152Z" fill="#FFD9AB"/>
<path opacity="0.35" d="M215.026 102.152C209.483 96.9362 200.993 87.1881 196.037 78.9111C195.771 78.4661 195.637 78.2435 195.425 78.1413C195.213 78.0391 194.96 78.0731 194.456 78.1412L177.962 80.3657C177.231 80.4643 176.866 80.5136 176.673 80.8522C176.481 81.1908 176.613 81.5017 176.879 82.1236C178.973 87.0312 186.501 100.586 192.313 107.496C193.028 108.346 193.385 108.771 193.97 108.973C194.555 109.174 195.149 109.049 196.337 108.798L214.265 105.016C215.666 104.72 216.366 104.573 216.495 104.114C216.623 103.656 216.091 103.155 215.026 102.152Z" fill="#FFD9AB"/>
<path opacity="0.35" d="M287.026 62.1522C281.483 56.9362 272.993 47.1881 268.037 38.9111C267.771 38.4661 267.637 38.2435 267.425 38.1413C267.213 38.0391 266.96 38.0731 266.456 38.1412L249.962 40.3657C249.231 40.4643 248.866 40.5136 248.673 40.8522C248.481 41.1908 248.613 41.5017 248.879 42.1236C250.973 47.0312 258.501 60.586 264.313 67.4961C265.028 68.3461 265.385 68.7711 265.97 68.9728C266.555 69.1744 267.149 69.0491 268.337 68.7985L286.265 65.016C287.666 64.7204 288.366 64.5727 288.495 64.1143C288.623 63.6558 288.091 63.1546 287.026 62.1522Z" fill="#FFD9AB"/>
<path opacity="0.35" d="M307.202 117.542C304.666 115.155 300.781 110.694 298.513 106.906C298.391 106.703 298.33 106.601 298.233 106.554C298.136 106.507 298.02 106.523 297.789 106.554L290.242 107.572C289.907 107.617 289.74 107.64 289.652 107.794C289.564 107.949 289.624 108.092 289.746 108.376C290.704 110.622 294.149 116.825 296.809 119.987C297.136 120.376 297.299 120.571 297.567 120.663C297.835 120.755 298.107 120.698 298.65 120.583L306.854 118.852L306.854 118.852C307.495 118.717 307.816 118.649 307.875 118.44C307.934 118.23 307.69 118 307.202 117.542Z" fill="#FFD9AB"/>
<path opacity="0.35" d="M226.039 176.031C223.503 173.644 219.618 169.183 217.35 165.395C217.228 165.192 217.167 165.09 217.07 165.043C216.973 164.996 216.857 165.012 216.626 165.043L209.078 166.061C208.744 166.106 208.577 166.129 208.489 166.284C208.401 166.439 208.461 166.581 208.583 166.866C209.541 169.111 212.986 175.314 215.646 178.476C215.973 178.865 216.136 179.06 216.404 179.152C216.672 179.244 216.944 179.187 217.487 179.072L225.691 177.341L225.691 177.341C226.332 177.206 226.653 177.139 226.712 176.929C226.771 176.719 226.527 176.49 226.039 176.031Z" fill="#FFD9AB"/>
<path opacity="0.35" d="M154.876 106.741C152.34 109.127 148.455 113.588 146.187 117.376C146.065 117.58 146.004 117.682 145.907 117.728C145.81 117.775 145.694 117.759 145.463 117.728L137.915 116.71C137.581 116.665 137.414 116.643 137.326 116.488C137.238 116.333 137.298 116.191 137.42 115.906C138.378 113.66 141.823 107.457 144.482 104.295C144.81 103.906 144.973 103.712 145.241 103.619C145.509 103.527 145.781 103.584 146.324 103.699L154.528 105.43L154.528 105.43C155.169 105.565 155.49 105.633 155.549 105.843C155.607 106.052 155.364 106.282 154.876 106.741Z" fill="#FFD9AB"/>
<path opacity="0.35" d="M198.3 56.5202C200.837 54.1333 204.722 49.6724 206.99 45.8847C207.112 45.6811 207.173 45.5792 207.27 45.5324C207.367 45.4857 207.483 45.5012 207.714 45.5324L215.261 46.5504C215.596 46.5955 215.763 46.618 215.851 46.773C215.939 46.9279 215.879 47.0702 215.757 47.3548C214.799 49.6006 211.354 55.8035 208.694 58.9657C208.367 59.3547 208.204 59.5492 207.936 59.6414C207.668 59.7337 207.396 59.6763 206.853 59.5617L198.648 57.8307L198.648 57.8307C198.007 57.6955 197.687 57.6279 197.628 57.4181C197.569 57.2083 197.813 56.979 198.3 56.5202Z" fill="#FFD9AB"/>
<path opacity="0.35" d="M252.663 87.9999C251.16 89.4145 248.858 92.0581 247.514 94.3027C247.441 94.4234 247.405 94.4838 247.348 94.5115C247.29 94.5392 247.221 94.53 247.085 94.5115L242.612 93.9082C242.413 93.8815 242.314 93.8681 242.262 93.7763C242.21 93.6845 242.246 93.6002 242.318 93.4315C242.886 92.1006 244.927 88.4247 246.503 86.5507C246.697 86.3202 246.794 86.2049 246.953 86.1502C247.112 86.0956 247.273 86.1296 247.595 86.1975L252.457 87.2233C252.837 87.3034 253.027 87.3435 253.061 87.4678C253.096 87.5922 252.952 87.7281 252.663 87.9999Z" fill="#FFD9AB"/>
<path opacity="0.35" d="M318.826 157.082C317.323 158.496 315.021 161.14 313.677 163.385C313.604 163.505 313.568 163.566 313.511 163.594C313.453 163.621 313.385 163.612 313.248 163.594L308.775 162.99C308.577 162.964 308.477 162.95 308.425 162.858C308.373 162.767 308.409 162.682 308.481 162.514C309.049 161.183 311.09 157.507 312.667 155.633C312.86 155.402 312.957 155.287 313.116 155.232C313.275 155.178 313.436 155.212 313.758 155.28L318.62 156.305C319 156.385 319.19 156.426 319.225 156.55C319.259 156.674 319.115 156.81 318.826 157.082Z" fill="#FFD9AB"/>
<path opacity="0.35" d="M365.166 96.164C366.669 97.5785 368.971 100.222 370.316 102.467C370.388 102.587 370.424 102.648 370.482 102.676C370.539 102.703 370.608 102.694 370.745 102.676L375.217 102.072C375.416 102.046 375.515 102.032 375.567 101.94C375.619 101.849 375.583 101.764 375.511 101.596C374.943 100.265 372.902 96.5887 371.326 94.7148C371.132 94.4842 371.035 94.369 370.876 94.3143C370.717 94.2596 370.556 94.2936 370.234 94.3616L365.372 95.3874C364.992 95.4675 364.803 95.5076 364.768 95.6319C364.733 95.7562 364.877 95.8921 365.166 96.164Z" fill="#FFD9AB"/>
<path opacity="0.35" d="M309.003 75.5499C310.506 74.1353 312.808 71.4917 314.152 69.2471C314.225 69.1264 314.261 69.066 314.318 69.0383C314.376 69.0106 314.445 69.0198 314.581 69.0383L319.054 69.6416C319.253 69.6683 319.352 69.6817 319.404 69.7735C319.456 69.8653 319.42 69.9496 319.348 70.1183C318.78 71.4492 316.739 75.1251 315.163 76.9991C314.969 77.2296 314.872 77.3449 314.713 77.3996C314.554 77.4542 314.393 77.4203 314.071 77.3523L309.209 76.3265C308.829 76.2464 308.639 76.2063 308.605 76.082C308.57 75.9576 308.714 75.8217 309.003 75.5499Z" fill="#FFD9AB"/>
<path opacity="0.35" d="M115.826 84.5499C114.323 83.1353 112.021 80.4917 110.677 78.2471C110.604 78.1264 110.568 78.066 110.511 78.0383C110.453 78.0106 110.385 78.0198 110.248 78.0383L105.775 78.6416C105.577 78.6683 105.477 78.6817 105.425 78.7735C105.373 78.8653 105.409 78.9496 105.481 79.1183C106.049 80.4492 108.09 84.1251 109.667 85.9991C109.86 86.2296 109.957 86.3449 110.116 86.3996C110.275 86.4542 110.436 86.4203 110.758 86.3523L115.62 85.3265C116 85.2464 116.19 85.2063 116.225 85.082C116.259 84.9576 116.115 84.8217 115.826 84.5499Z" fill="#FFD9AB"/>
<path opacity="0.35" d="M84.8261 152.939C83.323 154.354 81.0207 156.998 79.6766 159.242C79.6044 159.363 79.5682 159.423 79.5106 159.451C79.453 159.479 79.3846 159.469 79.2477 159.451L74.7748 158.848C74.5765 158.821 74.4774 158.808 74.4252 158.716C74.3731 158.624 74.4091 158.54 74.481 158.371C75.049 157.04 77.0904 153.364 78.6665 151.49C78.8604 151.26 78.9574 151.144 79.1161 151.09C79.2748 151.035 79.4359 151.069 79.758 151.137L84.6199 152.163C84.9997 152.243 85.1897 152.283 85.2245 152.407C85.2594 152.532 85.115 152.668 84.8261 152.939Z" fill="#FFD9AB"/>
<path opacity="0.35" d="M16.003 111.939C17.5061 113.354 19.8084 115.998 21.1525 118.242C21.2247 118.363 21.2609 118.423 21.3185 118.451C21.3761 118.479 21.4445 118.469 21.5814 118.451L26.0543 117.848C26.2526 117.821 26.3517 117.808 26.4039 117.716C26.456 117.624 26.42 117.54 26.3481 117.371C25.7801 116.04 23.7387 112.364 22.1626 110.49C21.9687 110.26 21.8717 110.144 21.713 110.09C21.5543 110.035 21.3932 110.069 21.0711 110.137L16.2092 111.163C15.8294 111.243 15.6394 111.283 15.6046 111.407C15.5697 111.532 15.7141 111.668 16.003 111.939Z" fill="#FFD9AB"/>
<path opacity="0.35" d="M124.826 175.939C123.323 177.354 121.021 179.998 119.677 182.242C119.604 182.363 119.568 182.423 119.511 182.451C119.453 182.479 119.385 182.469 119.248 182.451L114.775 181.848C114.577 181.821 114.477 181.808 114.425 181.716C114.373 181.624 114.409 181.54 114.481 181.371C115.049 180.04 117.09 176.364 118.667 174.49C118.86 174.26 118.957 174.144 119.116 174.09C119.275 174.035 119.436 174.069 119.758 174.137L124.62 175.163C125 175.243 125.19 175.283 125.225 175.407C125.259 175.532 125.115 175.668 124.826 175.939Z" fill="#FFD9AB"/>
<path opacity="0.35" d="M221.826 131.939C220.323 133.354 218.021 135.998 216.677 138.242C216.604 138.363 216.568 138.423 216.511 138.451C216.453 138.479 216.385 138.469 216.248 138.451L211.775 137.848C211.577 137.821 211.477 137.808 211.425 137.716C211.373 137.624 211.409 137.54 211.481 137.371C212.049 136.04 214.09 132.364 215.667 130.49C215.86 130.26 215.957 130.144 216.116 130.09C216.275 130.035 216.436 130.069 216.758 130.137L221.62 131.163C222 131.243 222.19 131.283 222.225 131.407C222.259 131.532 222.115 131.668 221.826 131.939Z" fill="#FFD9AB"/>
<path opacity="0.35" d="M168.3 146.741C170.837 149.127 174.722 153.588 176.99 157.376C177.112 157.58 177.173 157.682 177.27 157.728C177.367 157.775 177.483 157.759 177.714 157.728L185.261 156.71C185.596 156.665 185.763 156.643 185.851 156.488C185.939 156.333 185.879 156.191 185.757 155.906C184.799 153.66 181.354 147.457 178.694 144.295C178.367 143.906 178.204 143.712 177.936 143.619C177.668 143.527 177.396 143.584 176.853 143.699L168.648 145.43L168.648 145.43C168.007 145.565 167.687 145.633 167.628 145.843C167.569 146.052 167.813 146.282 168.3 146.741Z" fill="#FFD9AB"/>
<path opacity="0.35" d="M48.3004 74.5202C50.8368 72.1333 54.7218 67.6724 56.9899 63.8847C57.1118 63.6811 57.1728 63.5792 57.27 63.5324C57.3672 63.4857 57.4827 63.5012 57.7137 63.5324L65.2614 64.5504C65.5959 64.5955 65.7632 64.618 65.8512 64.773C65.9392 64.9279 65.8785 65.0702 65.7571 65.3548C64.7986 67.6006 61.3539 73.8035 58.6943 76.9657C58.3671 77.3547 58.2035 77.5492 57.9357 77.6414C57.6679 77.7337 57.3961 77.6763 56.8526 77.5617L48.6485 75.8307L48.6484 75.8307C48.0075 75.6955 47.687 75.6279 47.6281 75.4181C47.5693 75.2083 47.813 74.979 48.3004 74.5202Z" fill="#FFD9AB"/>
<path opacity="0.35" d="M10.7132 139.555C8.17682 141.942 4.29186 146.403 2.02381 150.19C1.90185 150.394 1.84088 150.496 1.74369 150.543C1.64651 150.59 1.53101 150.574 1.30001 150.543L-6.24773 149.525C-6.58224 149.48 -6.74949 149.457 -6.83752 149.302C-6.92556 149.147 -6.86484 149.005 -6.74339 148.72C-5.7849 146.475 -2.34025 140.272 0.319367 137.11C0.646538 136.721 0.810123 136.526 1.07793 136.434C1.34573 136.342 1.61752 136.399 2.16111 136.514L10.3652 138.244L10.3652 138.244C11.0062 138.38 11.3267 138.447 11.3855 138.657C11.4444 138.867 11.2007 139.096 10.7132 139.555Z" fill="#FFD9AB"/>
<path opacity="0.35" d="M244.791 123.164C248.794 126.931 254.925 133.972 258.505 139.949C258.697 140.271 258.793 140.432 258.947 140.505C259.1 140.579 259.283 140.555 259.647 140.505L271.559 138.899C272.087 138.828 272.351 138.792 272.49 138.548C272.629 138.303 272.533 138.078 272.341 137.629C270.829 134.085 265.392 124.295 261.195 119.305C260.678 118.691 260.42 118.384 259.998 118.238C259.575 118.093 259.146 118.183 258.288 118.364L245.34 121.096L245.34 121.096C244.329 121.31 243.823 121.416 243.73 121.747C243.637 122.078 244.022 122.44 244.791 123.164Z" fill="#FFD9AB"/>
<path opacity="0.35" d="M410.951 103.164C406.948 106.931 400.817 113.972 397.237 119.949C397.045 120.271 396.949 120.432 396.795 120.505C396.642 120.579 396.46 120.555 396.095 120.505L384.183 118.899C383.655 118.828 383.391 118.792 383.252 118.548C383.113 118.303 383.209 118.078 383.401 117.629C384.914 114.085 390.35 104.295 394.547 99.3049C395.064 98.691 395.322 98.384 395.745 98.2384C396.167 98.0928 396.596 98.1833 397.454 98.3643L410.402 101.096L410.402 101.096C411.414 101.31 411.919 101.416 412.012 101.747C412.105 102.078 411.72 102.44 410.951 103.164Z" fill="#FFD9AB"/>
<path opacity="0.35" d="M390.791 162.443C394.794 158.676 400.925 151.636 404.505 145.658C404.697 145.337 404.793 145.176 404.947 145.102C405.1 145.028 405.283 145.053 405.647 145.102L417.559 146.709C418.087 146.78 418.351 146.815 418.49 147.06C418.629 147.304 418.533 147.529 418.341 147.978C416.829 151.522 411.392 161.312 407.195 166.303C406.678 166.916 406.42 167.223 405.998 167.369C405.575 167.515 405.146 167.424 404.288 167.243L391.34 164.511L391.34 164.511C390.329 164.298 389.823 164.191 389.73 163.86C389.637 163.529 390.022 163.167 390.791 162.443Z" fill="#FFD9AB"/>
<path opacity="0.35" d="M138.026 149.152C132.483 143.936 123.993 134.188 119.037 125.911C118.771 125.466 118.637 125.244 118.425 125.141C118.213 125.039 117.96 125.073 117.456 125.141L100.962 127.366C100.231 127.464 99.8655 127.514 99.6731 127.852C99.4807 128.191 99.6134 128.502 99.8788 129.124C101.973 134.031 109.501 147.586 115.313 154.496C116.028 155.346 116.385 155.771 116.97 155.973C117.555 156.174 118.149 156.049 119.337 155.798L137.265 152.016C138.666 151.72 139.366 151.573 139.495 151.114C139.623 150.656 139.091 150.155 138.026 149.152Z" fill="#FFD9AB"/>
<path opacity="0.35" d="M21.0256 82.1522C15.483 76.9362 6.99343 67.1881 2.03721 58.9111C1.77071 58.4661 1.63746 58.2435 1.42509 58.1413C1.21272 58.0391 0.960325 58.0731 0.455532 58.1412L-16.0381 60.3657C-16.769 60.4643 -17.1345 60.5136 -17.3269 60.8522C-17.5193 61.1908 -17.3866 61.5017 -17.1212 62.1236C-15.0266 67.0312 -7.49927 80.586 -1.68739 87.4961C-0.972446 88.3461 -0.614975 88.7711 -0.0297623 88.9728C0.555452 89.1744 1.14939 89.0491 2.33726 88.7985L20.2651 85.016C21.6658 84.7204 22.3661 84.5727 22.4948 84.1143C22.6234 83.6558 22.0908 83.1546 21.0256 82.1522Z" fill="#FFD9AB"/>
<path opacity="0.35" d="M14.8035 171.151C20.3461 176.367 28.8357 186.115 33.7919 194.392C34.0584 194.837 34.1916 195.059 34.404 195.161C34.6164 195.264 34.8688 195.23 35.3736 195.162L51.8672 192.937C52.5981 192.838 52.9636 192.789 53.156 192.451C53.3484 192.112 53.2157 191.801 52.9503 191.179C50.8558 186.271 43.3284 172.717 37.5165 165.807C36.8015 164.957 36.4441 164.532 35.8589 164.33C35.2736 164.128 34.6797 164.254 33.4918 164.504L15.564 168.287C14.1633 168.582 13.463 168.73 13.3343 169.188C13.2057 169.647 13.7383 170.148 14.8035 171.151Z" fill="#FFD9AB"/>
</g>
<path opacity="0.7" d="M336.287 179.319C341.227 181.73 349.17 186.636 354.361 191.283C354.64 191.533 354.78 191.658 354.948 191.683C355.117 191.708 355.283 191.63 355.617 191.475L366.517 186.409C367 186.185 367.242 186.072 367.302 185.798C367.362 185.523 367.204 185.337 366.888 184.965C364.392 182.028 356.297 174.291 350.809 170.769C350.134 170.336 349.796 170.12 349.349 170.106C348.903 170.092 348.52 170.306 347.754 170.733L336.199 177.181L336.199 177.181C335.296 177.685 334.844 177.937 334.854 178.28C334.863 178.624 335.338 178.856 336.287 179.319Z" fill="#FFD9AB"/>
<path opacity="0.7" d="M105.58 194.616C100.16 189.516 91.8591 179.984 87.013 171.891C86.7524 171.456 86.6221 171.238 86.4145 171.138C86.2068 171.038 85.96 171.072 85.4665 171.138L69.3393 173.313C68.6246 173.41 68.2672 173.458 68.0791 173.789C67.891 174.12 68.0208 174.424 68.2803 175.032C70.3282 179.831 77.6884 193.084 83.3711 199.841C84.0702 200.672 84.4197 201.088 84.9919 201.285C85.5642 201.482 86.1449 201.359 87.3064 201.114L87.3064 201.114L104.836 197.416C106.206 197.127 106.89 196.982 107.016 196.534C107.142 196.086 106.621 195.596 105.58 194.616Z" fill="#FFD9AB"/>
<path opacity="0.7" d="M178.54 176.342C173.077 178.393 164.189 182.778 158.236 187.168C157.916 187.404 157.756 187.522 157.575 187.532C157.395 187.541 157.226 187.442 156.889 187.245L145.88 180.795C145.392 180.509 145.148 180.366 145.112 180.069C145.076 179.773 145.262 179.592 145.633 179.231C148.566 176.379 157.898 169.016 164.053 165.846C164.81 165.456 165.188 165.261 165.662 165.291C166.136 165.322 166.519 165.586 167.285 166.114L178.849 174.091C179.752 174.714 180.204 175.026 180.159 175.388C180.115 175.75 179.59 175.947 178.54 176.342Z" fill="#FFD9AB"/>
<path d="M45.334 209L355.334 209" stroke="#3C5D87" stroke-width="2" stroke-linecap="round"/>
<path d="M37.334 209L35.334 209" stroke="#3C5D87" stroke-width="2" stroke-linecap="round"/>
<path d="M365.334 209L363.334 209" stroke="#3C5D87" stroke-width="2" stroke-linecap="round"/>
<circle cx="93.7516" cy="109.906" r="13.886" transform="rotate(-2 93.7516 109.906)" fill="#083156" stroke="#083156" stroke-width="1.61134"/>
<path fill-rule="evenodd" clip-rule="evenodd" d="M138.872 79.0322C128.831 80.0492 115.91 82.4491 105.711 88.239L118.806 106.785C124.735 103.419 133.616 101.458 142.49 100.559C146.762 100.127 150.714 99.9705 153.822 99.9575C155.374 99.951 156.677 99.9803 157.667 100.024C158.52 100.061 159.279 99.4452 159.377 98.5973L161.405 81.058C161.556 79.7512 160.636 78.5689 159.323 78.4799C154.857 78.1771 147.188 78.1899 138.872 79.0322Z" fill="#083156"/>
<path fill-rule="evenodd" clip-rule="evenodd" d="M165.413 92.1635C164.176 91.4435 163.758 89.8577 164.478 88.6217C165.992 86.0232 166.64 83.554 165.908 79.5324C165.652 78.1251 166.585 76.7765 167.992 76.5204C169.4 76.2643 170.748 77.1976 171.004 78.605C171.963 83.8711 171.074 87.5905 168.954 91.229C168.234 92.4651 166.649 92.8835 165.413 92.1635Z" fill="#FFE999" stroke="#083156" stroke-width="1.61134" stroke-linecap="round"/>
<path d="M108.738 100.085C108.923 105.394 104.77 109.848 99.4606 110.034C94.2882 110.214 90.6686 105.785 90.478 100.326C90.4286 98.9116 90.4954 97.9291 90.7055 97.1656C90.9074 96.4316 91.2505 95.8695 91.824 95.3134C92.4206 94.7349 93.2652 94.1636 94.4886 93.4308C95.0535 93.0924 95.6862 92.7271 96.4006 92.3146C96.4538 92.2838 96.5074 92.2529 96.5615 92.2216C97.291 91.8003 98.0995 91.3324 98.9918 90.8026C104.211 90.7283 108.555 94.8434 108.738 100.085Z" fill="white" stroke="#083156" stroke-width="1.61134"/>
<path d="M158.456 108.545C154.514 102.116 156.253 96.1598 159.276 94.3066C162.298 92.4535 168.395 93.6044 172.338 100.034C176.28 106.464 174.541 112.42 171.518 114.273C168.496 116.126 162.399 114.975 158.456 108.545ZM156.538 89.8422C150.09 93.7963 149.203 103.473 153.992 111.283C158.78 119.092 167.807 122.691 174.256 118.737C180.704 114.783 181.591 105.106 176.802 97.2966C172.014 89.4871 162.987 85.8881 156.538 89.8422Z" fill="white"/>
<path d="M158.456 108.545C154.514 102.116 156.253 96.1598 159.276 94.3066C162.298 92.4535 168.395 93.6044 172.338 100.034C176.28 106.464 174.541 112.42 171.518 114.273C168.496 116.126 162.399 114.975 158.456 108.545ZM156.538 89.8422C150.09 93.7963 149.203 103.473 153.992 111.283C158.78 119.092 167.807 122.691 174.256 118.737C180.704 114.783 181.591 105.106 176.802 97.2966C172.014 89.4871 162.987 85.8881 156.538 89.8422Z" fill="#3C5D87" fill-opacity="0.3"/>
<path d="M158.456 108.545C154.514 102.116 156.253 96.1598 159.276 94.3066C162.298 92.4535 168.395 93.6044 172.338 100.034C176.28 106.464 174.541 112.42 171.518 114.273C168.496 116.126 162.399 114.975 158.456 108.545ZM156.538 89.8422C150.09 93.7963 149.203 103.473 153.992 111.283C158.78 119.092 167.807 122.691 174.256 118.737C180.704 114.783 181.591 105.106 176.802 97.2966C172.014 89.4871 162.987 85.8881 156.538 89.8422Z" stroke="#083156" stroke-width="1.61134"/>
<path fill-rule="evenodd" clip-rule="evenodd" d="M121.156 93.0018C123.09 95.4432 126.637 95.8545 129.079 93.9204C134.675 89.4875 138.685 87.9044 141.974 88.2484C145.111 88.5766 149.499 90.8947 155.237 99.3108C156.991 101.884 160.5 102.548 163.073 100.794C165.647 99.0391 166.311 95.5305 164.556 92.9569C158.115 83.5096 151.198 77.8724 143.147 77.0303C135.249 76.204 128.189 80.2355 122.075 85.0791C119.633 87.0132 119.222 90.5603 121.156 93.0018Z" fill="#C29980" stroke="#083156" stroke-width="1.61134" stroke-linecap="round"/>
<circle cx="108.543" cy="96.758" r="15.3401" transform="rotate(-2 108.543 96.758)" fill="#FFE999" stroke="#083156" stroke-width="1.61134"/>
<path d="M151.249 132.545C147.339 132.763 143.912 131.788 141.543 130.253C139.172 128.717 138.122 126.842 138.026 125.13C137.931 123.417 138.765 121.437 140.95 119.647C143.134 117.857 146.43 116.506 150.34 116.287C154.25 116.069 157.676 117.044 160.046 118.579C162.416 120.115 163.467 121.99 163.562 123.703C163.658 125.415 162.823 127.395 160.639 129.186C158.455 130.975 155.159 132.326 151.249 132.545ZM132.798 125.422C133.009 129.208 135.3 132.448 138.696 134.648C142.092 136.848 146.641 138.047 151.541 137.774C156.441 137.5 160.828 135.801 163.958 133.236C167.087 130.672 169.003 127.196 168.791 123.41C168.58 119.625 166.289 116.384 162.893 114.184C159.497 111.984 154.948 110.785 150.048 111.059C145.148 111.333 140.761 113.031 137.631 115.596C134.502 118.16 132.586 121.636 132.798 125.422Z" fill="white"/>
<path d="M151.249 132.545C147.339 132.763 143.912 131.788 141.543 130.253C139.172 128.717 138.122 126.842 138.026 125.13C137.931 123.417 138.765 121.437 140.95 119.647C143.134 117.857 146.43 116.506 150.34 116.287C154.25 116.069 157.676 117.044 160.046 118.579C162.416 120.115 163.467 121.99 163.562 123.703C163.658 125.415 162.823 127.395 160.639 129.186C158.455 130.975 155.159 132.326 151.249 132.545ZM132.798 125.422C133.009 129.208 135.3 132.448 138.696 134.648C142.092 136.848 146.641 138.047 151.541 137.774C156.441 137.5 160.828 135.801 163.958 133.236C167.087 130.672 169.003 127.196 168.791 123.41C168.58 119.625 166.289 116.384 162.893 114.184C159.497 111.984 154.948 110.785 150.048 111.059C145.148 111.333 140.761 113.031 137.631 115.596C134.502 118.16 132.586 121.636 132.798 125.422Z" fill="#3C5D87" fill-opacity="0.3"/>
<path d="M151.249 132.545C147.339 132.763 143.912 131.788 141.543 130.253C139.172 128.717 138.122 126.842 138.026 125.13C137.931 123.417 138.765 121.437 140.95 119.647C143.134 117.857 146.43 116.506 150.34 116.287C154.25 116.069 157.676 117.044 160.046 118.579C162.416 120.115 163.467 121.99 163.562 123.703C163.658 125.415 162.823 127.395 160.639 129.186C158.455 130.975 155.159 132.326 151.249 132.545ZM132.798 125.422C133.009 129.208 135.3 132.448 138.696 134.648C142.092 136.848 146.641 138.047 151.541 137.774C156.441 137.5 160.828 135.801 163.958 133.236C167.087 130.672 169.003 127.196 168.791 123.41C168.58 119.625 166.289 116.384 162.893 114.184C159.497 111.984 154.948 110.785 150.048 111.059C145.148 111.333 140.761 113.031 137.631 115.596C134.502 118.16 132.586 121.636 132.798 125.422Z" stroke="#083156" stroke-width="1.61134"/>
<path d="M239.616 158.86L166.745 116.177C176.101 131.761 187.1 145.067 199.27 153.194C211.664 161.469 225.244 164.363 239.616 158.86Z" fill="white"/>
<path d="M239.616 158.86L166.745 116.177C176.101 131.761 187.1 145.067 199.27 153.194C211.664 161.469 225.244 164.363 239.616 158.86Z" fill="#3C5D87" fill-opacity="0.3"/>
<path d="M239.616 158.86L166.745 116.177C176.101 131.761 187.1 145.067 199.27 153.194C211.664 161.469 225.244 164.363 239.616 158.86Z" stroke="#083156" stroke-width="1.61134"/>
<path d="M178.188 124.672L225.447 152.46" stroke="white" stroke-width="1.61134" stroke-linecap="round"/>
<path d="M98.119 26.1465C94.4237 34.3063 99.4378 44.5485 109.318 49.023C119.199 53.4975 130.204 50.5099 133.899 42.35C137.595 34.1901 132.581 23.9479 122.7 19.4734C112.82 14.999 101.814 17.9866 98.119 26.1465Z" fill="#083156"/>
<path d="M126.715 46.3994C126.986 54.8484 132.823 61.5172 139.753 61.2948C146.682 61.0724 152.08 54.0429 151.809 45.594C151.538 37.1451 145.7 30.4762 138.771 30.6986C131.841 30.921 126.443 37.9505 126.715 46.3994Z" fill="#083156"/>
<path d="M85.5669 38.2467C83.2927 45.4408 89.3857 53.7817 99.1759 56.8765C108.966 59.9713 118.746 56.6481 121.02 49.4539C123.295 42.2598 117.202 33.9189 107.411 30.8241C97.6212 27.7293 87.8411 31.0525 85.5669 38.2467Z" fill="#083156"/>
<path d="M140.653 42.4688L107.089 40.6726L105.99 61.2089L139.554 63.0051L140.653 42.4688Z" fill="#083156"/>
<path d="M105.895 58.5018C101.22 58.2517 99.9792 60.7165 99.7387 65.2113L99.7232 85.6143C99.4406 90.8957 100.925 95.7473 106.418 96.0412L129.884 97.9427C135.376 98.2366 140.058 94.1934 140.34 88.912L141.429 68.5654C141.67 64.0705 138.075 60.224 133.401 59.9738L105.895 58.5018Z" fill="#C29980"/>
<path d="M108.307 60.0593C104.293 59.8445 100.854 62.9481 100.637 67.004L99.5485 87.3506C99.2893 92.193 102.976 96.3175 107.771 96.574L131.207 97.8282C136.002 98.0848 140.108 94.3774 140.367 89.5349L141.456 69.1884C141.673 65.1325 138.585 61.6796 134.572 61.4648L108.307 60.0593Z" stroke="#083156" stroke-width="1.61134"/>
<path d="M93.2058 77.0897C93.0555 79.8992 95.4055 82.3089 98.4548 82.4721C101.504 82.6353 104.098 80.4901 104.248 77.6807C104.399 74.8712 102.049 72.4615 98.9993 72.2983C95.95 72.1351 93.3562 74.2803 93.2058 77.0897Z" fill="#C29980"/>
<path d="M145.448 59.3291L141.253 72.4452L130.39 64.0513L99.5551 71.9717L97.6041 56.2577L145.448 59.3291Z" fill="#FFE999" stroke="#083156" stroke-width="1.61134"/>
<path d="M131.749 55.5023C129.155 47.9479 120.928 43.9264 113.374 46.5201L114.698 50.3781C117.292 57.9325 125.519 61.954 133.073 59.3603L131.749 55.5023Z" fill="#FFE999"/>
<path d="M137.561 49.745C138.251 54.8874 134.641 59.6153 129.499 60.3051L129.147 57.6789C128.457 52.5365 132.066 47.8086 137.209 47.1188L137.561 49.745Z" fill="#FFE999"/>
<path d="M112.417 75.1728C111.465 77.6852 112.083 80.5969 114.151 81.0783C118.643 81.8915 121.186 80.1013 122.138 77.5888C123.09 75.0764 121.421 71.8351 119.267 71.019C117.114 70.2029 113.369 72.6603 112.417 75.1728Z" fill="white"/>
<path d="M128.622 75.8241C127.893 78.4098 129.098 81.0132 131.314 81.6389C133.531 82.2646 136.695 80.8945 137.424 78.3088C138.154 75.7231 136.174 72.9009 133.957 72.2752C131.741 71.6495 129.352 73.2384 128.622 75.8241Z" fill="white"/>
<path d="M122.014 78.1755C122.697 76.314 122.055 74.3657 120.578 73.8239C119.102 73.282 117.327 74.3533 117.86 77.2016C116.085 79.9328 117.021 80.6993 118.497 81.2411C119.973 81.7829 121.331 80.037 122.014 78.1755Z" fill="#083156"/>
<path d="M137.371 79.0175C138.229 77.1405 137.945 75.1712 136.736 74.619C135.528 74.0669 133.602 74.6704 133.742 77.3066C131.82 79.3459 132.422 80.8641 133.63 81.4163C134.838 81.9685 136.513 80.8945 137.371 79.0175Z" fill="#083156"/>
<path fill-rule="evenodd" clip-rule="evenodd" d="M127.965 80.0942C127.778 80.3928 127.869 80.7862 128.168 80.9729C128.425 81.134 128.707 81.2964 128.968 81.4469C129.132 81.541 129.287 81.6304 129.423 81.7117C129.808 81.9423 130.116 82.1515 130.347 82.3767C130.57 82.5942 130.707 82.8123 130.77 83.0627C130.833 83.3166 130.835 83.663 130.687 84.1587C130.54 84.6493 130.094 85.0258 129.429 85.198C128.765 85.37 127.991 85.3011 127.39 84.9992C127.075 84.8412 126.692 84.9682 126.534 85.2829C126.375 85.5977 126.502 85.9809 126.817 86.139C127.713 86.5886 128.806 86.6769 129.749 86.4326C130.692 86.1885 131.595 85.5752 131.909 84.5235C132.104 83.8693 132.139 83.2839 132.007 82.7541C131.874 82.2208 131.586 81.8033 131.237 81.4629C130.895 81.1302 130.482 80.8594 130.078 80.6175C129.898 80.5099 129.729 80.4127 129.562 80.317C129.325 80.1808 129.093 80.0476 128.844 79.8915C128.545 79.7048 128.152 79.7955 127.965 80.0942Z" fill="#083156"/>
<path d="M101.424 72.5347C98.6536 71.7708 93.9578 71.5859 93.4051 77.4795C93.3347 80.7577 95.5129 83.4799 100.023 82.5933" stroke="#083156" stroke-width="1.61134" stroke-linecap="round"/>
<path d="M122.201 77.5909C124.307 71.6769 115.984 65.9543 112.477 75.5495" stroke="#083156" stroke-width="1.61134" stroke-linecap="round"/>
<path d="M137.576 78.2907C139.159 72.2161 130.37 67.239 127.711 77.1028" stroke="#083156" stroke-width="1.61134" stroke-linecap="round"/>
<path fill-rule="evenodd" clip-rule="evenodd" d="M125.454 87.375C123.376 86.7595 121.461 85.6902 119.846 84.2442L119.765 84.1716C118.778 83.2878 117.49 82.6646 116.182 82.5495C114.84 82.4314 113.427 82.8583 112.466 84.1347C111.601 85.2843 111.008 86.8781 111.567 88.8044C112.062 90.5101 113.217 91.6895 114.298 92.4613C115.38 93.2342 116.473 93.6605 117.012 93.8433C117.276 93.9328 117.534 93.9962 117.779 94.0454C118.359 94.1621 119.629 94.385 121.066 94.4283C122.467 94.4704 124.202 94.3494 125.607 93.6451C125.993 93.4515 126.357 93.2233 126.691 92.9839C127.829 92.1702 128.166 90.8897 127.853 89.7546C127.551 88.661 126.666 87.7337 125.454 87.375Z" fill="#083156"/>
<path d="M113.296 85.7405C113.432 85.457 113.598 85.193 113.782 84.9488C115.11 83.1855 117.665 83.6864 119.309 85.159L119.39 85.2316C120.49 86.2168 121.72 87.0406 123.041 87.6819C121.924 88.9442 120.066 89.3731 118.468 88.6134C117.546 88.1752 116.876 87.4205 116.527 86.541C115.76 86.7395 114.922 86.68 114.151 86.3135C113.831 86.1615 113.545 85.9672 113.296 85.7405Z" fill="white"/>
<path d="M99.0513 55.1982L100.378 65.0321" stroke="white" stroke-width="1.61134" stroke-linecap="round"/>
<path fill-rule="evenodd" clip-rule="evenodd" d="M102.906 57.3789L97.3648 57.1261L96.6582 52.9404L102.526 55.199L102.906 57.3789Z" fill="#083156"/>
<path d="M195.548 176.426C214.701 157.098 243.817 121.21 260.492 91.0184C261.389 89.395 261.837 88.5833 262.583 88.1916C263.329 87.7999 264.235 87.89 266.047 88.0703L325.255 93.9602C327.879 94.2213 329.191 94.3518 329.92 95.5376C330.65 96.7234 330.214 97.8509 329.344 100.106C322.473 117.902 297.269 167.271 277.366 192.685C274.918 195.811 273.694 197.374 271.628 198.168C269.562 198.961 267.424 198.587 263.149 197.84L198.623 186.563C193.581 185.681 191.061 185.241 190.544 183.619C190.027 181.997 191.867 180.14 195.548 176.426Z" fill="#FFD9AB"/>
<path d="M204.507 175.977C219 163.377 248.575 126.927 263.509 98.6839L318.767 103.983C317.698 111.369 288.146 167.36 269.848 187.226L204.507 175.977Z" fill="#3C5D87" stroke="#083156" stroke-width="1.61134"/>
<path d="M327.127 95.2835L262.86 88.9161C247.543 121.275 202.558 175.004 190.591 182.602" stroke="white" stroke-width="1.61134" stroke-linecap="round"/>
<path d="M195.722 176.764C214.874 157.437 243.991 121.548 260.666 91.3573C261.563 89.7339 262.011 88.9222 262.757 88.5305C263.503 88.1387 264.409 88.2289 266.221 88.4091L325.428 94.2991C328.052 94.5601 329.364 94.6906 330.094 95.8765C330.824 97.0623 330.388 98.1898 329.518 100.445C322.646 118.241 297.443 167.609 277.54 193.024C275.092 196.15 273.867 197.713 271.802 198.507C269.736 199.3 267.598 198.926 263.323 198.179L198.796 186.901C193.755 186.02 191.234 185.58 190.718 183.958C190.201 182.336 192.041 180.479 195.722 176.764Z" stroke="#083156" stroke-width="1.61134"/>
<path d="M279.058 149.526C276.127 153.677 272.207 156.505 268.271 157.744C264.335 158.983 260.429 158.626 257.416 156.498C254.403 154.37 252.759 150.809 252.61 146.686C252.461 142.561 253.815 137.921 256.746 133.77C259.678 129.619 263.597 126.79 267.534 125.551C271.47 124.312 275.375 124.67 278.389 126.798C281.402 128.925 283.045 132.486 283.195 136.61C283.344 140.734 281.99 145.374 279.058 149.526Z" fill="#FFD9AB" stroke="#083156" stroke-width="1.61134"/>
<path d="M277.571 128.202C274.277 125.751 267.096 124.478 258.989 133.421C255.969 137.068 251.699 145.249 255.896 152.774" stroke="white" stroke-width="1.61134" stroke-linecap="round"/>
<path d="M251.625 172.589C250.288 174.187 248.603 175.197 246.989 175.563C245.375 175.93 243.88 175.65 242.806 174.75C241.732 173.851 241.193 172.429 241.271 170.776C241.348 169.122 242.046 167.286 243.384 165.689C244.721 164.091 246.406 163.081 248.02 162.715C249.634 162.348 251.128 162.628 252.203 163.528C253.277 164.427 253.815 165.849 253.738 167.502C253.661 169.156 252.963 170.992 251.625 172.589Z" fill="#FFD9AB" stroke="#083156" stroke-width="1.61134"/>
<path d="M288.148 117.247C286.81 118.844 285.125 119.854 283.511 120.221C281.897 120.587 280.403 120.307 279.328 119.407C278.254 118.508 277.716 117.086 277.793 115.433C277.87 113.779 278.568 111.943 279.906 110.346C281.243 108.749 282.928 107.739 284.542 107.372C286.156 107.005 287.651 107.285 288.725 108.185C289.799 109.084 290.338 110.506 290.26 112.159C290.183 113.813 289.485 115.649 288.148 117.247Z" fill="#FFD9AB" stroke="#083156" stroke-width="1.61134"/>
<path d="M318.067 109.497C316.202 110.624 314.219 111.077 312.546 110.942C310.872 110.806 309.591 110.097 308.918 108.983C308.244 107.87 308.212 106.406 308.87 104.86C309.527 103.316 310.85 101.77 312.714 100.643C314.579 99.5155 316.562 99.0626 318.235 99.1984C319.91 99.3342 321.191 100.043 321.864 101.157C322.537 102.27 322.569 103.734 321.912 105.28C321.254 106.824 319.932 108.37 318.067 109.497Z" fill="#FFD9AB" stroke="#FFD9AB" stroke-width="2.01417"/>
<path d="M309.821 102.871C303.073 108.399 308.604 113.617 316.675 110.439" stroke="#083156" stroke-width="1.61134"/>
<path d="M261.439 102.76C263.183 104.623 266.437 105.112 268.712 103.82C270.988 102.528 271.384 99.9657 269.641 98.1033C267.897 96.2409 264.643 95.7512 262.368 97.0433C260.092 98.3353 259.696 100.898 261.439 102.76Z" fill="#FFD9AB" stroke="#FFD9AB" stroke-width="2.01417"/>
<path d="M270.448 99.0237C274.462 104.96 264.172 109.236 261.041 102.597" stroke="#083156" stroke-width="1.61134"/>
<path d="M273.13 184.093C271.227 181.595 268.005 180.678 266.029 181.548C264.054 182.418 263.498 185 265.401 187.498C267.304 189.996 270.526 190.914 272.501 190.044C274.477 189.173 275.033 186.591 273.13 184.093Z" fill="#FFD9AB" stroke="#FFD9AB" stroke-width="2.01417"/>
<path d="M264.687 186.676C261.295 180.363 270.716 176.974 273.157 183.896" stroke="#083156" stroke-width="1.61134"/>
<path d="M212.244 178.601C214.421 177.709 216.182 176.365 217.282 174.966C218.396 173.549 218.725 172.236 218.434 171.254C218.143 170.272 217.192 169.484 215.571 169.189C213.97 168.897 211.88 169.133 209.704 170.025C207.527 170.918 205.766 172.262 204.666 173.661C203.552 175.078 203.223 176.391 203.514 177.373C203.805 178.354 204.756 179.142 206.378 179.438C207.978 179.729 210.068 179.494 212.244 178.601Z" fill="#FFD9AB" stroke="#FFD9AB" stroke-width="2.01417"/>
<path d="M211.353 169.224C220.405 166.723 223.366 175.311 214.388 177.736" stroke="#083156" stroke-width="1.61134"/>
<path d="M93.626 101.587L94.8308 103.667L90.0436 106.44L88.8388 104.359L93.626 101.587Z" fill="#083156"/>
<path fill-rule="evenodd" clip-rule="evenodd" d="M83.1728 142.036C80.2673 132.25 77.6115 119.144 79.3832 106.968L102.903 110.39C101.873 117.468 103.389 126.623 105.957 135.271C107.193 139.435 108.579 143.172 109.778 146.06C110.377 147.501 110.914 148.695 111.344 149.593C111.711 150.361 111.451 151.326 110.724 151.769L93.8053 162.072C92.6652 162.766 91.185 162.404 90.5788 161.214C88.5371 157.209 85.571 150.113 83.1728 142.036Z" fill="#083156"/>
<path fill-rule="evenodd" clip-rule="evenodd" d="M105.227 99.1242C108.339 98.9917 110.969 101.407 111.101 104.519C111.405 111.651 112.829 115.721 115.239 117.985C117.538 120.144 122.161 121.949 132.281 120.789C135.375 120.435 138.171 122.656 138.526 125.75C138.88 128.845 136.659 131.641 133.565 131.996C122.205 133.297 113.417 131.748 107.517 126.207C101.728 120.769 100.164 112.792 99.8323 104.999C99.6998 101.887 102.115 99.2566 105.227 99.1242Z" fill="#C29980" stroke="#083156" stroke-width="1.61134" stroke-linecap="round"/>
<path fill-rule="evenodd" clip-rule="evenodd" d="M103.268 162.129C103.207 160.699 104.317 159.492 105.746 159.431C108.75 159.304 111.179 158.517 114.17 155.731C115.217 154.756 116.856 154.814 117.831 155.861C118.806 156.908 118.748 158.547 117.701 159.522C113.784 163.17 110.173 164.428 105.966 164.607C104.536 164.667 103.329 163.558 103.268 162.129Z" fill="#FFE999" stroke="#083156" stroke-width="1.61134" stroke-linecap="round"/>
<path d="M181.805 123.695L177.979 123.81C192.237 115.354 206.801 109.21 220.312 107.151C234.636 104.968 247.715 107.381 258.042 116.43C259.004 117.273 259.147 118.381 258.758 119.308C258.362 120.251 257.401 121.025 256.076 121.071L181.807 123.695L181.805 123.695Z" fill="white"/>
<path d="M181.805 123.695L177.979 123.81C192.237 115.354 206.801 109.21 220.312 107.151C234.636 104.968 247.715 107.381 258.042 116.43C259.004 117.273 259.147 118.381 258.758 119.308C258.362 120.251 257.401 121.025 256.076 121.071L181.807 123.695L181.805 123.695Z" fill="#3C5D87" fill-opacity="0.3"/>
<path d="M181.805 123.695L177.979 123.81C192.237 115.354 206.801 109.21 220.312 107.151C234.636 104.968 247.715 107.381 258.042 116.43C259.004 117.273 259.147 118.381 258.758 119.308C258.362 120.251 257.401 121.025 256.076 121.071L181.807 123.695L181.805 123.695Z" stroke="#083156" stroke-width="1.61134"/>
<path d="M168.4 124.955L165.112 115.935C174.641 120.904 187.921 118.338 197.033 114.404L192.302 123.372L168.4 124.955Z" fill="white"/>
<path d="M168.4 124.955L165.112 115.935C174.641 120.904 187.921 118.338 197.033 114.404L192.302 123.372L168.4 124.955Z" fill="#3C5D87" fill-opacity="0.3"/>
<path d="M168.4 124.955L165.112 115.935C174.641 120.904 187.921 118.338 197.033 114.404L192.302 123.372L168.4 124.955Z" stroke="#083156" stroke-width="1.61134" stroke-linecap="round"/>
<path d="M163.187 115.586L167.045 117.722L169.579 124.026C167.915 124.219 168.087 124.314 167.718 126.302L163.187 115.586Z" fill="white"/>
<path d="M163.187 115.586L167.045 117.722L169.579 124.026C167.915 124.219 168.087 124.314 167.718 126.302L163.187 115.586Z" fill="#3C5D87" fill-opacity="0.3"/>
<path d="M190.298 117.674L199.333 114L205.833 122L189.881 122.722L190.298 117.674Z" fill="white"/>
<path d="M190.298 117.674L199.333 114L205.833 122L189.881 122.722L190.298 117.674Z" fill="#3C5D87" fill-opacity="0.3"/>
<g opacity="0.2">
<path d="M217.728 97.4648L208.839 84.1309" stroke="#083156" stroke-width="2.61216" stroke-linecap="round"/>
<path d="M234.871 96.3752L242.712 82.3994" stroke="#083156" stroke-width="2.61216" stroke-linecap="round"/>
<path d="M225.962 93.4013L225.065 77.6289" stroke="#083156" stroke-width="2.61216" stroke-linecap="round"/>
</g>
<path d="M88.0756 98.4643C83.5391 101.288 80.9864 104.506 80.9219 112.619C80.6454 127.925 85.8424 147.998 92.169 159.272" stroke="white" stroke-width="1.61134" stroke-linecap="round"/>
<path d="M185.194 119.534C189.019 119.639 202.981 113.374 209.561 111.482C215.99 109.18 226.186 107.716 236.469 108.742C243.02 109.685 247.378 110.949 255.33 116.685" stroke="white" stroke-width="1.61134" stroke-linecap="round"/>
<defs>
<clipPath id="clip0_5873_121497">
<rect y="54" width="399.997" height="128" rx="12" fill="white"/>
</clipPath>
</defs>
</svg>
