<svg width="575" height="331" viewBox="0 0 575 331" fill="none" xmlns="http://www.w3.org/2000/svg"><g opacity="0.1"><rect x="13.75" y="150.675" width="157.484" height="157.484" rx="27.9557" transform="rotate(-10.2116 13.75 150.675)" fill="#FFC800"/><rect x="525.047" y="26.8474" width="29.9695" height="29.9695" rx="8.22334" transform="rotate(42.1745 525.047 26.8474)" fill="#FFC800"/><rect x="141.852" y="32.3999" width="17.6515" height="17.6515" rx="4.8434" transform="rotate(81.2798 141.852 32.3999)" fill="#FFC800"/><rect x="498.367" y="230.605" width="17.6515" height="17.6515" rx="4.8434" transform="rotate(63.2172 498.367 230.605)" fill="#FFC800"/><rect x="559.707" y="95.6015" width="13.0465" height="13.0465" rx="4.74144" transform="rotate(106.381 559.707 95.6015)" fill="#FFC800"/><rect x="93.5117" y="68.439" width="13.0465" height="13.0465" rx="4.74144" transform="rotate(-73.6192 93.5117 68.439)" fill="#FFC800"/><rect width="13.0465" height="13.0465" rx="4.74144" transform="matrix(0.28202 0.959409 0.959409 -0.28202 43.5117 119.601)" fill="#FFC800"/><rect width="13.0465" height="13.0465" rx="4.74144" transform="matrix(0.28202 0.959409 0.959409 -0.28202 473.512 299.602)" fill="#FFC800"/><rect x="365.641" y="275.734" width="26.8442" height="26.8442" rx="7.3658" transform="rotate(108.152 365.641 275.734)" fill="#FFC800"/><rect width="290.509" height="290.509" rx="36.2428" transform="matrix(-0.989342 -0.145612 -0.145612 0.989342 496.833 43.1551)" fill="#FFC800"/></g><g opacity="0.7"><path d="M158.501 272.324C154.266 262.215 162.35 251.243 173.26 252.293V252.293C181.422 253.079 187.308 260.472 186.245 268.602L185.307 275.77H159.945L158.501 272.324Z" fill="white"/><path d="M162.928 267.358C160.352 259.206 167.096 251.132 175.577 252.214V252.214C181.863 253.016 186.37 258.673 185.748 264.979L184.691 275.693H165.562L162.928 267.358Z" fill="#FFD9AB"/><path d="M158.501 272.324C154.266 262.215 162.35 251.243 173.26 252.293V252.293C181.422 253.079 187.308 260.472 186.245 268.602L185.307 275.77H159.945L158.501 272.324Z" stroke="#FFD9AB" stroke-width="1.8" stroke-linecap="round"/><rect x="69.0469" y="178.075" width="55.9313" height="15.2239" fill="#FFD9AB" stroke="#FFD9AB" stroke-width="1.8" stroke-linecap="round" stroke-linejoin="round"/><rect x="68.6914" y="178.075" width="6.75444" height="15.2239" fill="white"/><rect x="81.6367" y="178.075" width="6.75444" height="15.2239" fill="white"/><rect x="93.6016" y="178.075" width="6.75444" height="15.2239" fill="white"/><rect x="105.281" y="178.075" width="6.75444" height="15.2239" fill="white"/><rect x="118.227" y="178.075" width="6.75444" height="15.2239" fill="white"/><rect x="118.227" y="178.075" width="6.75444" height="15.2239" stroke="#FFD9AB" stroke-width="1.8" stroke-linecap="round" stroke-linejoin="round"/><rect x="105.281" y="178.075" width="6.75444" height="15.2239" stroke="#FFD9AB" stroke-width="1.8" stroke-linecap="round" stroke-linejoin="round"/><rect x="81.6367" y="178.075" width="6.75444" height="15.2239" stroke="#FFD9AB" stroke-width="1.8" stroke-linecap="round" stroke-linejoin="round"/><rect x="93.6016" y="178.075" width="6.75444" height="15.2239" stroke="#FFD9AB" stroke-width="1.8" stroke-linecap="round" stroke-linejoin="round"/><rect x="68.6914" y="178.075" width="6.75444" height="15.2239" stroke="#FFD9AB" stroke-width="1.8" stroke-linecap="round" stroke-linejoin="round"/><path d="M124.837 173.11H69.2109C71.5225 167.484 80.4247 156.231 97.5404 156.231C114.656 156.231 122.87 167.484 124.837 173.11Z" fill="white"/><path d="M124.978 173.11H73.8242C75.95 167.484 84.1364 156.231 99.8759 156.231C115.616 156.231 123.169 167.484 124.978 173.11Z" fill="#FFD9AB"/><path d="M124.837 173.11H69.2109C71.5225 167.484 80.4247 156.231 97.5404 156.231C114.656 156.231 122.87 167.484 124.837 173.11Z" stroke="#FFD9AB" stroke-width="1.8" stroke-linecap="round" stroke-linejoin="round"/><rect x="66.0703" y="173.11" width="61.8885" height="4.96432" rx="1.06286" fill="white" stroke="#FFD9AB" stroke-width="1.8" stroke-linecap="round" stroke-linejoin="round"/><path d="M92.7148 144.315L94.7006 156.064" stroke="#FFD9AB" stroke-width="1.8" stroke-linecap="round"/><path d="M103.95 147.202L92.2148 142.001L94.2006 151.599L103.777 149.205C105.022 148.893 105.645 148.738 105.677 148.36C105.71 147.982 105.123 147.722 103.95 147.202Z" fill="#FFD9AB" stroke="#FFD9AB" stroke-width="1.8" stroke-linecap="round" stroke-linejoin="round"/><rect opacity="0.6" x="32.3086" y="214.813" width="43.355" height="60.8956" fill="#FFD9AB"/><rect x="32.3086" y="214.813" width="43.355" height="60.8956" stroke="#FFD9AB" stroke-width="1.8" stroke-linecap="round" stroke-linejoin="round"/><path d="M148.141 210.177H173.293V275.706H148.141V210.177Z" fill="#C5CEDB"/><path d="M75.6641 210.177H173.296V227.386H75.6641V210.177Z" fill="#C5CEDB"/><rect x="75.6641" y="213.487" width="97.6316" height="62.2194" fill="white" stroke="#FFD9AB" stroke-width="1.8" stroke-linecap="round" stroke-linejoin="round"/><path opacity="0.5" d="M162.7 253.204H153.804C153.804 253.204 151.77 237.649 157.235 237.649C162.7 237.649 162.7 253.204 162.7 253.204Z" fill="#FFD9AB"/><path d="M162.7 253.204H153.804C153.804 253.204 151.77 237.649 157.235 237.649C162.7 237.649 162.7 253.204 162.7 253.204Z" stroke="#FFD9AB" stroke-width="1.8" stroke-linecap="round" stroke-linejoin="round"/><path d="M157.738 238.313L157.738 252.875" stroke="#FFD9AB" stroke-width="1.8" stroke-linecap="round" stroke-linejoin="round"/><path d="M154.094 248.241H161.706" stroke="#FFD9AB" stroke-width="1.8" stroke-linecap="round" stroke-linejoin="round"/><path d="M17.1911 275.708C11.441 265.622 18.6023 252.872 30.2119 252.872V252.872C38.5674 252.872 45.3408 259.645 45.3408 268.001V275.708H17.1911V275.708Z" fill="white"/><path d="M20.9837 268.396C20.6567 262.347 24.8227 256.976 30.7631 255.788V255.788C38.3045 254.279 45.3405 260.047 45.3405 267.738V275.708H21.382C21.3803 275.708 21.3789 275.707 21.3788 275.705L20.9837 268.396Z" fill="#FFD9AB"/><path d="M17.1911 275.708C11.441 265.622 18.6023 252.872 30.2119 252.872V252.872C38.5674 252.872 45.3408 259.645 45.3408 268.001V275.708H17.1911V275.708Z" stroke="#FFD9AB" stroke-width="1.8" stroke-linecap="round"/><path d="M53.7581 189.329H148.535L177.932 214.813H23.6992L53.7581 189.329Z" fill="white"/><path d="M52.3315 190.586C53.0667 189.964 53.4344 189.653 53.8769 189.491C54.3195 189.329 54.8011 189.329 55.7641 189.329H146.19C147.153 189.329 147.635 189.329 148.077 189.491C148.52 189.653 148.887 189.964 149.623 190.586L176.04 212.938C176.967 213.723 177.431 214.115 177.303 214.464C177.175 214.813 176.568 214.813 175.353 214.813H26.6009C25.3861 214.813 24.7787 214.813 24.651 214.464C24.5233 214.115 24.987 213.723 25.9143 212.938L52.3315 190.586Z" fill="#FFD9AB"/><path d="M52.271 190.59C53.0067 189.966 53.3746 189.654 53.8177 189.492C54.2609 189.329 54.7431 189.329 55.7076 189.329H146.552C147.533 189.329 148.023 189.329 148.472 189.497C148.922 189.664 149.292 189.986 150.033 190.628L175.779 212.947C176.683 213.73 177.134 214.121 177.005 214.467C176.876 214.813 176.279 214.813 175.083 214.813H26.5965C25.3833 214.813 24.7768 214.813 24.6489 214.464C24.5211 214.116 24.9838 213.724 25.9092 212.939L52.271 190.59Z" stroke="#FFD9AB" stroke-width="1.8" stroke-linecap="round" stroke-linejoin="round"/><path fill-rule="evenodd" clip-rule="evenodd" d="M50.2626 213.265C45.3659 211.47 39.5119 215.154 37.1873 221.494C36.7481 222.692 36.4664 223.899 36.3312 225.081C34.1976 224.709 32.2541 225.083 30.8718 226.311C27.6008 229.217 28.7103 235.806 33.3498 241.028C33.5776 241.285 33.8097 241.533 34.0455 241.773C31.8227 243.1 30.4949 245.034 30.7388 247.01C31.1312 250.188 35.4397 252.272 40.3622 251.664C42.6211 251.386 44.6168 250.588 46.0772 249.5C48.5553 250.688 51.8304 251.117 55.2631 250.497C61.9086 249.298 66.6279 244.625 65.804 240.06C65.4578 238.142 64.1883 236.548 62.3395 235.434C63.8669 231.222 63.3022 227.061 60.5598 225.004C59.2384 224.013 57.5896 223.644 55.8312 223.824C56.1896 218.983 54.0808 214.665 50.2626 213.265Z" fill="white"/><path fill-rule="evenodd" clip-rule="evenodd" d="M51.7569 215.373C47.8937 213.956 43.0083 217.591 40.8451 223.491C40.6117 224.128 40.4195 224.765 40.2673 225.396C38.326 225.169 36.5627 225.586 35.2741 226.731C32.0032 229.637 33.0289 236.132 37.5652 241.238C37.768 241.466 37.9744 241.688 38.184 241.903C36.2237 243.17 35.0777 244.907 35.2956 246.672C35.6717 249.719 39.967 251.696 44.8895 251.088C46.3285 250.911 47.6618 250.532 48.8188 250.008C50.9943 250.863 53.6513 251.134 56.4084 250.637C62.6271 249.514 67.0005 244.904 66.1766 240.339C65.8441 238.496 64.7155 236.943 63.0788 235.819C64.0326 232.352 63.4887 229.159 61.3441 227.55C59.7601 226.362 57.5907 226.254 55.3313 227.039C56.7316 221.695 55.2743 216.662 51.7569 215.373Z" fill="#FFD9AB"/><path d="M37.1873 221.494L38.0323 221.804L37.1873 221.494ZM50.2626 213.265L49.9528 214.11L50.2626 213.265ZM36.3312 225.081L36.1767 225.968C36.4209 226.01 36.6718 225.95 36.8703 225.802C37.0688 225.653 37.1972 225.43 37.2254 225.183L36.3312 225.081ZM30.8718 226.311L30.274 225.638H30.274L30.8718 226.311ZM33.3498 241.028L32.6769 241.626L32.6769 241.626L33.3498 241.028ZM34.0455 241.773L34.5067 242.546C34.7438 242.405 34.9028 242.162 34.9381 241.888C34.9734 241.615 34.8811 241.34 34.6877 241.143L34.0455 241.773ZM30.7388 247.01L29.8456 247.12H29.8456L30.7388 247.01ZM40.3622 251.664L40.2519 250.771L40.3622 251.664ZM46.0772 249.5L46.4664 248.689C46.1647 248.544 45.8077 248.579 45.5395 248.778L46.0772 249.5ZM55.2631 250.497L55.423 251.383L55.423 251.383L55.2631 250.497ZM65.804 240.06L64.9183 240.22H64.9183L65.804 240.06ZM62.3395 235.434L61.4934 235.127C61.3468 235.531 61.5066 235.983 61.8748 236.205L62.3395 235.434ZM60.5598 225.004L60.0198 225.724V225.724L60.5598 225.004ZM55.8312 223.824L54.9336 223.757C54.914 224.023 55.0129 224.283 55.2037 224.469C55.3946 224.654 55.6578 224.746 55.9226 224.719L55.8312 223.824ZM38.0323 221.804C40.265 215.715 45.7128 212.556 49.9528 214.11L50.5724 212.42C45.019 210.384 38.7588 214.594 36.3423 221.184L38.0323 221.804ZM37.2254 225.183C37.3524 224.073 37.6175 222.935 38.0323 221.804L36.3423 221.184C35.8788 222.449 35.5804 223.726 35.437 224.979L37.2254 225.183ZM36.4858 224.195C34.1708 223.791 31.9205 224.176 30.274 225.638L31.4696 226.984C32.5877 225.991 34.2245 225.627 36.1767 225.968L36.4858 224.195ZM30.274 225.638C28.3236 227.371 27.7786 230.111 28.2569 232.951C28.7375 235.805 30.2628 238.909 32.6769 241.626L34.0226 240.431C31.7972 237.926 30.4481 235.124 30.0319 232.652C29.6132 230.166 30.149 228.157 31.4696 226.984L30.274 225.638ZM32.6769 241.626C32.9147 241.894 33.157 242.153 33.4034 242.404L34.6877 241.143C34.4624 240.913 34.2405 240.676 34.0226 240.431L32.6769 241.626ZM33.5844 241C31.2143 242.415 29.5391 244.637 29.8456 247.12L31.6321 246.9C31.4507 245.431 32.4311 243.785 34.5067 242.546L33.5844 241ZM29.8456 247.12C30.0918 249.115 31.5505 250.644 33.4598 251.567C35.3791 252.495 37.8651 252.879 40.4724 252.558L40.2519 250.771C37.9368 251.057 35.8073 250.703 34.2436 249.947C32.67 249.186 31.7782 248.084 31.6321 246.9L29.8456 247.12ZM40.4724 252.558C42.8675 252.262 45.015 251.414 46.615 250.222L45.5395 248.778C44.2187 249.763 42.3748 250.509 40.2519 250.771L40.4724 252.558ZM45.6881 250.312C48.3592 251.592 51.8301 252.031 55.423 251.383L55.1033 249.612C51.8307 250.202 48.7513 249.784 46.4664 248.689L45.6881 250.312ZM55.423 251.383C58.9016 250.755 61.9152 249.213 63.9678 247.18C66.0169 245.151 67.1695 242.559 66.6897 239.9L64.9183 240.22C65.2624 242.126 64.4673 244.153 62.7013 245.901C60.9388 247.646 58.2701 249.04 55.1033 249.612L55.423 251.383ZM66.6897 239.9C66.2871 237.67 64.8186 235.877 62.8041 234.663L61.8748 236.205C63.5579 237.219 64.6286 238.615 64.9183 240.22L66.6897 239.9ZM63.1856 235.741C64.776 231.355 64.3006 226.685 61.0998 224.284L60.0198 225.724C62.3037 227.437 62.9578 231.089 61.4934 235.127L63.1856 235.741ZM61.0998 224.284C59.5654 223.133 57.6798 222.73 55.7397 222.928L55.9226 224.719C57.4994 224.558 58.9115 224.893 60.0198 225.724L61.0998 224.284ZM49.9528 214.11C53.2664 215.325 55.2737 219.165 54.9336 223.757L56.7287 223.89C57.1054 218.802 54.8952 214.005 50.5724 212.42L49.9528 214.11Z" fill="#FFD9AB"/><path d="M46.2031 250.354L46.2031 272.673" stroke="#FFD9AB" stroke-width="1.8" stroke-linecap="round"/><path d="M36.793 232.19L41.3643 235.955" stroke="#FFD9AB" stroke-width="1.8" stroke-linecap="round"/><path d="M55.8867 237.302L50.2398 243.755" stroke="#FFD9AB" stroke-width="1.8" stroke-linecap="round"/><path d="M49.7031 224.396L48.0897 230.042" stroke="#FFD9AB" stroke-width="1.8" stroke-linecap="round"/><path opacity="0.5" d="M115.79 235.331H135.292C135.292 235.331 138.036 223.417 126.056 223.417C114.076 223.417 115.79 235.331 115.79 235.331Z" fill="#FFD9AB"/><path d="M115.79 235.331H135.292C135.292 235.331 138.036 223.417 126.056 223.417C114.076 223.417 115.79 235.331 115.79 235.331Z" stroke="#FFD9AB" stroke-width="1.8" stroke-linecap="round" stroke-linejoin="round"/><path d="M126.297 223.417L126.297 235.331" stroke="#FFD9AB" stroke-width="1.8" stroke-linecap="round"/><path d="M134.898 230.366H116.696" stroke="#FFD9AB" stroke-width="1.8" stroke-linecap="round"/><path d="M168.73 229.651H162.533V270.133H168.73V229.651Z" fill="white"/><path d="M169.938 270.132H161.285L160.049 275.705H170.309L169.938 270.132Z" fill="white"/><path d="M161.081 229.651L169.734 229.651L170.97 224.078L159.387 224.078L161.081 229.651Z" fill="white"/><path d="M168.566 229.651H162.369L162.369 269.381H168.566L168.566 229.651Z" stroke="#FFD9AB" stroke-width="1.8" stroke-linecap="round" stroke-linejoin="round"/><path d="M169.971 269.876C169.952 269.597 169.72 269.38 169.441 269.38H161.712C161.462 269.38 161.247 269.553 161.193 269.796L160.192 274.307C160.119 274.639 160.371 274.953 160.711 274.953H169.741C170.048 274.953 170.291 274.693 170.271 274.387L169.971 269.876Z" stroke="#FFD9AB" stroke-width="1.8" stroke-linecap="round" stroke-linejoin="round"/><path d="M160.623 228.144C160.844 228.87 160.954 229.233 161.236 229.442C161.518 229.651 161.898 229.651 162.657 229.651L168.028 229.651C168.846 229.651 169.255 229.651 169.546 229.417C169.838 229.183 169.926 228.784 170.103 227.986L170.97 224.078L159.387 224.078L160.623 228.144Z" stroke="#FFD9AB" stroke-width="1.8" stroke-linecap="round" stroke-linejoin="round"/><path d="M154.172 229.651H147.975V270.133H154.172V229.651Z" fill="white"/><path d="M155.379 270.132H146.727L145.49 275.705H155.75L155.379 270.132Z" fill="white"/><path d="M146.523 229.651L155.175 229.651L156.412 224.078L144.828 224.078L146.523 229.651Z" fill="white"/><path d="M154.008 229.651H147.811L147.811 269.381H154.008L154.008 229.651Z" stroke="#FFD9AB" stroke-width="1.8" stroke-linecap="round" stroke-linejoin="round"/><path d="M155.412 269.876C155.394 269.597 155.162 269.38 154.882 269.38H147.153C146.904 269.38 146.688 269.553 146.634 269.796L145.634 274.307C145.56 274.639 145.813 274.953 146.153 274.953H155.182C155.489 274.953 155.733 274.693 155.712 274.387L155.412 269.876Z" stroke="#FFD9AB" stroke-width="1.8" stroke-linecap="round" stroke-linejoin="round"/><path d="M146.064 228.144C146.285 228.87 146.396 229.233 146.678 229.442C146.96 229.651 147.339 229.651 148.098 229.651L153.47 229.651C154.287 229.651 154.696 229.651 154.988 229.417C155.279 229.183 155.368 228.784 155.545 227.986L156.412 224.078L144.828 224.078L146.064 228.144Z" stroke="#FFD9AB" stroke-width="1.8" stroke-linecap="round" stroke-linejoin="round"/><path opacity="0.5" d="M93.8644 253.204H84.9678C84.9678 253.204 82.9343 237.649 88.3994 237.649C93.8644 237.649 93.8644 253.204 93.8644 253.204Z" fill="#FFD9AB"/><path d="M93.8644 253.204H84.9678C84.9678 253.204 82.9343 237.649 88.3994 237.649C93.8644 237.649 93.8644 253.204 93.8644 253.204Z" stroke="#FFD9AB" stroke-width="1.8" stroke-linecap="round" stroke-linejoin="round"/><path d="M88.9023 238.313L88.9023 252.875" stroke="#FFD9AB" stroke-width="1.8" stroke-linecap="round" stroke-linejoin="round"/><path d="M85.2578 248.241H92.8698" stroke="#FFD9AB" stroke-width="1.8" stroke-linecap="round" stroke-linejoin="round"/><path d="M201.133 275.38C204.645 270.767 201.355 264.128 195.557 264.128H190.225C184.896 264.128 180.575 268.448 180.575 273.778V275.38H201.133V275.38Z" fill="white"/><path d="M201.723 273.139C202.437 268.395 198.763 264.128 193.965 264.128H193.3C187.525 264.128 183.937 270.404 186.867 275.38V275.38H201.387L201.723 273.139Z" fill="#FFD9AB"/><path d="M201.133 275.38C204.645 270.767 201.355 264.128 195.557 264.128H190.225C184.896 264.128 180.575 268.448 180.575 273.778V275.38H201.133V275.38Z" stroke="#FFD9AB" stroke-width="1.8" stroke-linecap="round"/><path d="M191.093 275.381C197.604 270.274 193.884 259.819 185.611 259.973L181.412 260.051C174.614 260.177 169.908 266.886 172.104 273.321L172.808 275.381H191.093V275.381Z" fill="white"/><path opacity="0.5" d="M193.614 272.881C196.563 266.793 191.993 259.75 185.231 259.962V259.962C179.563 260.14 175.47 265.453 176.744 270.979L177.758 275.381H192.403L193.614 272.881Z" fill="#FFD9AB"/><path d="M190.847 275.381C197.189 270.128 193.361 259.822 185.127 259.983L181.89 260.046C175.3 260.175 170.701 266.627 172.729 272.899L173.531 275.381H190.847V275.381Z" stroke="#FFD9AB" stroke-width="1.8" stroke-linecap="round"/><path d="M19.7734 275.708L239.046 275.708" stroke="#FFD9AB" stroke-width="1.8" stroke-linecap="round"/><path d="M141.416 191.162C142.416 190.287 142.916 189.849 143.515 189.849C144.114 189.849 144.614 190.287 145.615 191.162L176.843 218.487C179.526 220.835 180.867 222.008 180.479 223.042C180.091 224.075 178.308 224.075 174.744 224.075H112.287C108.722 224.075 106.94 224.075 106.551 223.042C106.163 222.008 107.504 220.835 110.187 218.487L141.416 191.162Z" fill="white"/><path opacity="0.7" d="M143.38 192.196C144.392 191.284 144.898 190.828 145.509 190.827C146.12 190.826 146.628 191.281 147.642 192.19L179.422 220.658C181.166 222.219 182.037 223 181.776 223.683C181.515 224.367 180.344 224.367 178.004 224.367H115.984C112.487 224.367 110.739 224.367 110.346 223.344C109.953 222.321 111.252 221.151 113.85 218.809L143.38 192.196Z" fill="#FFD9AB"/><path d="M140.016 192.387C141.683 190.928 142.517 190.199 143.515 190.199C144.514 190.199 145.347 190.928 147.015 192.387L178.972 220.35C180.761 221.915 181.655 222.697 181.396 223.386C181.137 224.075 179.949 224.075 177.572 224.075H109.458C107.082 224.075 105.893 224.075 105.634 223.386C105.376 222.697 106.27 221.915 108.058 220.35L140.016 192.387Z" stroke="#FFD9AB" stroke-width="1.8" stroke-linecap="round" stroke-linejoin="round"/><path d="M143.675 196.276L170.978 219.774H116.371L143.675 196.276Z" fill="white"/><path opacity="0.6" d="M145.846 197.89L170.151 219.775H120.508L145.846 197.89Z" fill="#FFD9AB"/><path d="M143.675 196.276L170.978 219.774H116.371L143.675 196.276Z" stroke="#FFD9AB" stroke-width="1.8" stroke-linecap="round" stroke-linejoin="round"/><ellipse cx="143.243" cy="209.796" rx="5.24363" ry="5.43116" transform="rotate(15.626 143.243 209.796)" fill="white" stroke="#FFD9AB" stroke-width="1.8" stroke-linecap="round" stroke-linejoin="round"/><path d="M143.516 204.878L143.516 214.807" stroke="#FFD9AB" stroke-width="1.8" stroke-linecap="round" stroke-linejoin="round"/><path d="M138.219 210.175L148.147 210.175" stroke="#FFD9AB" stroke-width="1.8" stroke-linecap="round" stroke-linejoin="round"/><path d="M113.731 189.852C114.028 189.592 114.177 189.461 114.358 189.393C114.539 189.325 114.737 189.325 115.132 189.325H137.859C140.233 189.325 141.42 189.325 141.679 190.014C141.938 190.703 141.045 191.485 139.26 193.05L104.451 223.549C104.154 223.809 104.005 223.939 103.824 224.007C103.643 224.075 103.446 224.075 103.05 224.075H80.3236C77.9491 224.075 76.7619 224.075 76.5029 223.387C76.2439 222.698 77.1368 221.916 78.9227 220.351L113.731 189.852Z" fill="white"/><path d="M119.297 189.325H143.511L103.85 224.075H79.6367L119.297 189.325Z" fill="#FFD9AB"/><path d="M113.731 189.852C114.028 189.592 114.177 189.461 114.358 189.393C114.539 189.325 114.737 189.325 115.132 189.325H137.859C140.233 189.325 141.42 189.325 141.679 190.014C141.938 190.703 141.045 191.485 139.26 193.05L104.451 223.549C104.154 223.809 104.005 223.939 103.824 224.007C103.643 224.075 103.446 224.075 103.05 224.075H80.3236C77.9491 224.075 76.7619 224.075 76.5029 223.387C76.2439 222.698 77.1368 221.916 78.9227 220.351L113.731 189.852Z" stroke="#FFD9AB" stroke-width="1.8" stroke-linecap="round" stroke-linejoin="round"/><path d="M115.384 271.405H133.677C133.677 271.405 137.558 241.288 124.911 241.288C112.263 241.288 115.384 271.405 115.384 271.405Z" fill="#FFD9AB" stroke="#FFD9AB" stroke-width="1.8" stroke-linecap="round"/><path d="M124.973 241.288L124.973 271.405" stroke="#FFD9AB" stroke-width="1.8" stroke-linecap="round"/><ellipse cx="130.597" cy="261.476" rx="1.32382" ry="1.65477" fill="#FFD9AB"/><ellipse cx="118.683" cy="261.476" rx="1.32382" ry="1.65477" fill="#FFD9AB"/><path d="M119.43 229.651H113.233V270.133H119.43V229.651Z" fill="white"/><path d="M120.637 270.132H111.984L110.748 275.705H121.008L120.637 270.132Z" fill="white"/><path d="M111.781 229.651L120.433 229.651L121.669 224.078L110.086 224.078L111.781 229.651Z" fill="white"/><path d="M119.266 229.651H113.069L113.069 269.381H119.266L119.266 229.651Z" stroke="#FFD9AB" stroke-width="1.8" stroke-linecap="round" stroke-linejoin="round"/><path d="M120.67 269.876C120.651 269.597 120.42 269.38 120.14 269.38H112.411C112.162 269.38 111.946 269.553 111.892 269.796L110.892 274.307C110.818 274.639 111.071 274.953 111.41 274.953H120.44C120.747 274.953 120.991 274.693 120.97 274.387L120.67 269.876Z" stroke="#FFD9AB" stroke-width="1.8" stroke-linecap="round" stroke-linejoin="round"/><path d="M111.322 228.144C111.543 228.87 111.654 229.233 111.935 229.442C112.217 229.651 112.597 229.651 113.356 229.651L118.727 229.651C119.545 229.651 119.954 229.651 120.246 229.417C120.537 229.183 120.626 228.784 120.803 227.986L121.669 224.078L110.086 224.078L111.322 228.144Z" stroke="#FFD9AB" stroke-width="1.8" stroke-linecap="round" stroke-linejoin="round"/><path d="M104.863 229.651H98.6663V270.133H104.863V229.651Z" fill="white"/><path d="M106.071 270.132H97.4179L96.1818 275.705H106.441L106.071 270.132Z" fill="white"/><path d="M97.2142 229.651L105.867 229.651L107.103 224.078L95.5195 224.078L97.2142 229.651Z" fill="white"/><path d="M104.699 229.651H98.5022L98.5022 269.381H104.699L104.699 229.651Z" stroke="#FFD9AB" stroke-width="1.8" stroke-linecap="round" stroke-linejoin="round"/><path d="M106.104 269.876C106.085 269.597 105.853 269.38 105.573 269.38H97.8444C97.5952 269.38 97.3795 269.553 97.3256 269.796L96.3252 274.307C96.2516 274.639 96.5041 274.953 96.844 274.953H105.873C106.181 274.953 106.424 274.693 106.404 274.387L106.104 269.876Z" stroke="#FFD9AB" stroke-width="1.8" stroke-linecap="round" stroke-linejoin="round"/><path d="M96.7559 228.144C96.9767 228.87 97.0871 229.233 97.369 229.442C97.651 229.651 98.0305 229.651 98.7897 229.651L104.161 229.651C104.979 229.651 105.388 229.651 105.679 229.417C105.971 229.183 106.059 228.784 106.236 227.986L107.103 224.078L95.5195 224.078L96.7559 228.144Z" stroke="#FFD9AB" stroke-width="1.8" stroke-linecap="round" stroke-linejoin="round"/><rect x="107.762" y="271.407" width="71.8171" height="4.30241" fill="white" stroke="#FFD9AB" stroke-width="1.8" stroke-linecap="round" stroke-linejoin="round"/><rect x="84.5977" y="271.407" width="23.2574" height="4.30241" fill="#FFD9AB" stroke="#FFD9AB" stroke-width="1.8" stroke-linecap="round" stroke-linejoin="round"/><path d="M52.05 275.769C47.3683 267.024 54.1853 256.556 64.0766 257.301L65.6351 257.418C73.5079 258.011 79.1729 265.235 77.8716 273.023L77.4126 275.769H52.05V275.769Z" fill="white"/><path opacity="0.2" d="M56.3554 272.46C53.2459 264.759 59.4296 256.511 67.6934 257.336V257.336C73.8738 257.953 78.33 263.544 77.5532 269.706L76.7967 275.709H57.6672L56.3554 272.46Z" fill="#FFD9AB"/><path d="M52.05 275.769C47.3683 267.024 54.1853 256.556 64.0766 257.301L65.6351 257.418C73.5079 258.011 79.1729 265.235 77.8716 273.023L77.4126 275.769H52.05V275.769Z" stroke="#FFD9AB" stroke-width="1.8" stroke-linecap="round"/><path d="M37.0008 275.766C33.0707 269.408 37.6443 261.204 45.1192 261.204H49.5615C57.0833 261.204 61.2252 269.945 56.4621 275.766V275.766H37.0008V275.766Z" fill="white"/><path opacity="0.5" d="M41.9421 274.496C38.3549 268.692 42.5295 261.204 49.3522 261.204V261.204C55.4346 261.204 59.6446 267.279 57.5089 272.974L56.462 275.766H42.7274L41.9421 274.496Z" fill="#FFD9AB"/><path d="M37.0008 275.766C33.0707 269.408 37.6443 261.204 45.1192 261.204H49.5615C57.0833 261.204 61.2252 269.945 56.4621 275.766V275.766H37.0008V275.766Z" stroke="#FFD9AB" stroke-width="1.8" stroke-linecap="round"/></g><g opacity="0.87"><path d="M452.865 273.139C456.097 265.424 449.928 257.052 441.602 257.853V257.853C435.373 258.452 430.881 264.094 431.693 270.299L432.408 275.769H451.764L452.865 273.139Z" fill="white"/><path d="M449.484 269.349C451.45 263.128 446.303 256.966 439.831 257.792V257.792C435.034 258.404 431.594 262.721 432.069 267.534L432.875 275.71H447.474L449.484 269.349Z" fill="#FFD9AB"/><path d="M452.865 273.139C456.097 265.424 449.928 257.052 441.602 257.853V257.853C435.373 258.452 430.881 264.094 431.693 270.299L432.408 275.769H451.764L452.865 273.139Z" stroke="#FFD9AB" stroke-width="1.29617" stroke-linecap="round"/><rect width="42.6846" height="11.6183" transform="matrix(-1 0 0 1 521.137 201.214)" fill="#FFD9AB" stroke="#FFD9AB" stroke-width="1.29617" stroke-linecap="round" stroke-linejoin="round"/><rect width="5.15472" height="11.6183" transform="matrix(-1 0 0 1 521.402 201.212)" fill="white"/><rect width="5.15472" height="11.6183" transform="matrix(-1 0 0 1 511.524 201.212)" fill="white"/><rect width="5.15472" height="11.6183" transform="matrix(-1 0 0 1 502.395 201.212)" fill="white"/><rect width="5.15472" height="11.6183" transform="matrix(-1 0 0 1 493.48 201.212)" fill="white"/><rect width="5.15472" height="11.6183" transform="matrix(-1 0 0 1 483.602 201.212)" fill="white"/><rect width="5.15472" height="11.6183" transform="matrix(-1 0 0 1 483.602 201.212)" stroke="#FFD9AB" stroke-width="1.29617" stroke-linecap="round" stroke-linejoin="round"/><rect width="5.15472" height="11.6183" transform="matrix(-1 0 0 1 493.48 201.212)" stroke="#FFD9AB" stroke-width="1.29617" stroke-linecap="round" stroke-linejoin="round"/><rect width="5.15472" height="11.6183" transform="matrix(-1 0 0 1 511.524 201.212)" stroke="#FFD9AB" stroke-width="1.29617" stroke-linecap="round" stroke-linejoin="round"/><rect width="5.15472" height="11.6183" transform="matrix(-1 0 0 1 502.395 201.212)" stroke="#FFD9AB" stroke-width="1.29617" stroke-linecap="round" stroke-linejoin="round"/><rect width="5.15472" height="11.6183" transform="matrix(-1 0 0 1 521.402 201.212)" stroke="#FFD9AB" stroke-width="1.29617" stroke-linecap="round" stroke-linejoin="round"/><path d="M478.556 197.423H521.008C519.244 193.129 512.45 184.542 499.388 184.542C486.326 184.542 480.058 193.129 478.556 197.423Z" fill="white"/><path d="M478.446 197.423H517.484C515.862 193.129 509.615 184.542 497.603 184.542C485.591 184.542 479.827 193.129 478.446 197.423Z" fill="#FFD9AB"/><path d="M478.556 197.423H521.008C519.244 193.129 512.45 184.542 499.388 184.542C486.326 184.542 480.058 193.129 478.556 197.423Z" stroke="#FFD9AB" stroke-width="1.29617" stroke-linecap="round" stroke-linejoin="round"/><rect width="47.2308" height="3.78857" rx="0.765358" transform="matrix(-1 0 0 1 523.402 197.425)" fill="white" stroke="#FFD9AB" stroke-width="1.29617" stroke-linecap="round" stroke-linejoin="round"/><path d="M503.066 175.448L501.551 184.415" stroke="#FFD9AB" stroke-width="1.29617" stroke-linecap="round"/><path d="M494.372 177.706L503.449 173.683L501.934 181.007L494.496 179.148C493.6 178.924 493.151 178.812 493.128 178.539C493.104 178.267 493.527 178.08 494.372 177.706Z" fill="#FFD9AB" stroke="#FFD9AB" stroke-width="1.29617" stroke-linecap="round" stroke-linejoin="round"/><rect opacity="0.6" width="33.0868" height="46.4731" transform="matrix(-1 0 0 1 549.172 229.249)" fill="#FFD9AB"/><rect width="33.0868" height="46.4731" transform="matrix(-1 0 0 1 549.172 229.249)" stroke="#FFD9AB" stroke-width="1.29617" stroke-linecap="round" stroke-linejoin="round"/><path d="M460.77 225.712H441.574V275.721H460.77V225.712Z" fill="#C5CEDB"/><path d="M516.082 225.712H441.573V238.846H516.082V225.712Z" fill="#C5CEDB"/><rect width="74.5085" height="47.4834" transform="matrix(-1 0 0 1 516.082 228.237)" fill="white" stroke="#FFD9AB" stroke-width="1.29617" stroke-linecap="round" stroke-linejoin="round"/><path opacity="0.5" d="M449.658 258.548H456.448C456.448 258.548 458 246.677 453.829 246.677C449.658 246.677 449.658 258.548 449.658 258.548Z" fill="#FFD9AB"/><path d="M449.658 258.548H456.448C456.448 258.548 458 246.677 453.829 246.677C449.658 246.677 449.658 258.548 449.658 258.548Z" stroke="#FFD9AB" stroke-width="1.29617" stroke-linecap="round" stroke-linejoin="round"/><path d="M453.445 247.183L453.445 258.296" stroke="#FFD9AB" stroke-width="1.29617" stroke-linecap="round" stroke-linejoin="round"/><path d="M456.227 254.759H450.417" stroke="#FFD9AB" stroke-width="1.29617" stroke-linecap="round" stroke-linejoin="round"/><path d="M560.705 275.721C565.093 268.024 559.628 258.294 550.768 258.294V258.294C544.391 258.294 539.222 263.463 539.222 269.84V275.721H560.705V275.721Z" fill="white"/><path d="M557.811 270.141C558.061 265.525 554.882 261.426 550.348 260.519V260.519C544.593 259.368 539.223 263.77 539.223 269.639V275.721H557.507C557.509 275.721 557.51 275.72 557.51 275.719L557.811 270.141Z" fill="#FFD9AB"/><path d="M560.705 275.721C565.093 268.024 559.628 258.294 550.768 258.294V258.294C544.391 258.294 539.222 263.463 539.222 269.84V275.721H560.705V275.721Z" stroke="#FFD9AB" stroke-width="1.29617" stroke-linecap="round"/><path d="M532.799 209.802H460.469L438.034 229.25H555.738L532.799 209.802Z" fill="white"/><path d="M533.823 210.707C533.294 210.259 533.029 210.035 532.71 209.918C532.392 209.802 532.045 209.802 531.351 209.802H462.174C461.481 209.802 461.134 209.802 460.815 209.918C460.497 210.035 460.232 210.259 459.703 210.707L439.383 227.9C438.715 228.465 438.381 228.748 438.473 228.999C438.565 229.25 439.002 229.25 439.877 229.25H553.649C554.524 229.25 554.961 229.25 555.053 228.999C555.145 228.748 554.811 228.465 554.143 227.9L533.823 210.707Z" fill="#FFD9AB"/><path d="M533.869 210.71C533.34 210.26 533.075 210.036 532.756 209.919C532.437 209.802 532.089 209.802 531.395 209.802H461.896C461.19 209.802 460.837 209.802 460.514 209.922C460.19 210.043 459.923 210.274 459.39 210.737L439.584 227.906C438.934 228.47 438.608 228.752 438.701 229.001C438.794 229.25 439.225 229.25 440.085 229.25H553.652C554.526 229.25 554.962 229.25 555.054 228.999C555.146 228.748 554.813 228.466 554.147 227.901L533.869 210.71Z" stroke="#FFD9AB" stroke-width="1.29617" stroke-linecap="round" stroke-linejoin="round"/><path fill-rule="evenodd" clip-rule="evenodd" d="M535.471 228.069C539.208 226.698 543.676 229.51 545.45 234.349C545.785 235.263 546 236.184 546.103 237.085C547.731 236.802 549.214 237.087 550.269 238.024C552.765 240.242 551.919 245.271 548.378 249.256C548.204 249.452 548.026 249.642 547.846 249.825C549.543 250.838 550.556 252.314 550.37 253.822C550.071 256.248 546.783 257.838 543.026 257.374C541.301 257.161 539.778 256.552 538.663 255.721C536.772 256.628 534.273 256.955 531.653 256.482C526.582 255.567 522.98 252.001 523.609 248.517C523.873 247.054 524.841 245.838 526.252 244.987C525.085 241.772 525.516 238.596 527.609 237.026C528.619 236.269 529.878 235.988 531.221 236.126C530.948 232.432 532.557 229.137 535.471 228.069Z" fill="white"/><path fill-rule="evenodd" clip-rule="evenodd" d="M534.329 229.679C537.277 228.598 541.005 231.372 542.656 235.875C542.834 236.361 542.981 236.848 543.097 237.33C544.58 237.156 545.926 237.474 546.91 238.348C549.406 240.566 548.623 245.523 545.161 249.419C545.007 249.593 544.85 249.762 544.691 249.925C546.187 250.892 547.061 252.217 546.895 253.565C546.608 255.89 543.33 257.398 539.573 256.935C538.475 256.799 537.458 256.51 536.575 256.111C534.914 256.763 532.886 256.97 530.782 256.591C526.036 255.734 522.698 252.216 523.327 248.732C523.581 247.326 524.442 246.14 525.69 245.283C524.963 242.637 525.378 240.201 527.014 238.973C528.223 238.067 529.877 237.984 531.601 238.582C530.532 234.504 531.644 230.663 534.329 229.679Z" fill="#FFD9AB"/><path d="M545.45 234.348L546.058 234.125L545.45 234.348ZM535.471 228.068L535.694 228.677L535.471 228.068ZM546.103 237.085L546.214 237.724C546.039 237.754 545.858 237.711 545.715 237.604C545.572 237.497 545.48 237.336 545.459 237.159L546.103 237.085ZM550.27 238.024L550.7 237.54H550.7L550.27 238.024ZM548.378 249.256L548.863 249.686L548.863 249.686L548.378 249.256ZM547.846 249.825L547.514 250.382C547.344 250.28 547.229 250.105 547.204 249.908C547.178 249.711 547.245 249.513 547.384 249.371L547.846 249.825ZM550.371 253.822L549.727 253.742L550.371 253.822ZM543.026 257.374L542.947 258.017L543.026 257.374ZM538.663 255.721L538.383 255.137C538.601 255.033 538.858 255.058 539.051 255.202L538.663 255.721ZM531.653 256.482L531.769 255.844L531.653 256.482ZM523.609 248.517L522.971 248.402L523.609 248.517ZM526.252 244.987L526.861 244.766C526.967 245.057 526.852 245.382 526.587 245.542L526.252 244.987ZM527.61 237.026L527.998 237.544L527.61 237.026ZM531.222 236.125L531.868 236.077C531.882 236.269 531.811 236.456 531.673 236.59C531.536 236.724 531.346 236.79 531.155 236.77L531.222 236.125ZM544.841 234.572C543.134 229.914 538.959 227.48 535.694 228.677L535.248 227.46C539.458 225.916 544.218 229.106 546.058 234.125L544.841 234.572ZM545.459 237.159C545.362 236.308 545.159 235.438 544.841 234.572L546.058 234.125C546.411 235.087 546.638 236.058 546.747 237.012L545.459 237.159ZM545.992 236.447C547.751 236.14 549.455 236.433 550.7 237.54L549.839 238.508C548.974 237.74 547.712 237.463 546.214 237.724L545.992 236.447ZM550.7 237.54C552.175 238.85 552.591 240.925 552.227 243.085C551.861 245.255 550.701 247.617 548.863 249.686L547.894 248.825C549.596 246.909 550.63 244.764 550.949 242.869C551.269 240.964 550.86 239.416 549.839 238.508L550.7 237.54ZM548.863 249.686C548.682 249.89 548.497 250.088 548.309 250.279L547.384 249.371C547.557 249.195 547.727 249.013 547.894 248.825L548.863 249.686ZM548.178 249.268C549.981 250.344 551.245 252.028 551.014 253.901L549.727 253.742C549.868 252.599 549.105 251.331 547.514 250.382L548.178 249.268ZM551.014 253.901C550.828 255.406 549.727 256.564 548.277 257.265C546.82 257.969 544.931 258.262 542.947 258.017L543.106 256.731C544.879 256.95 546.512 256.679 547.713 256.098C548.921 255.514 549.614 254.664 549.727 253.742L551.014 253.901ZM542.947 258.017C541.124 257.792 539.491 257.147 538.276 256.241L539.051 255.202C540.065 255.958 541.479 256.53 543.106 256.731L542.947 258.017ZM538.944 256.306C536.914 257.279 534.273 257.613 531.538 257.12L531.769 255.844C534.273 256.296 536.631 255.977 538.383 255.137L538.944 256.306ZM531.538 257.12C528.89 256.642 526.598 255.468 525.038 253.923C523.48 252.381 522.608 250.414 522.971 248.402L524.247 248.632C523.981 250.103 524.596 251.662 525.95 253.002C527.301 254.34 529.345 255.407 531.769 255.844L531.538 257.12ZM522.971 248.402C523.276 246.713 524.388 245.354 525.917 244.432L526.587 245.542C525.296 246.32 524.47 247.394 524.247 248.632L522.971 248.402ZM525.643 245.208C524.431 241.868 524.797 238.325 527.221 236.507L527.998 237.544C526.235 238.867 525.74 241.676 526.861 244.766L525.643 245.208ZM527.221 236.507C528.384 235.635 529.814 235.329 531.288 235.481L531.155 236.77C529.943 236.646 528.854 236.903 527.998 237.544L527.221 236.507ZM535.694 228.677C533.144 229.612 531.608 232.562 531.868 236.077L530.575 236.173C530.289 232.301 531.971 228.661 535.248 227.46L535.694 228.677Z" fill="#FFD9AB"/><path d="M538.566 256.374L538.566 273.407" stroke="#FFD9AB" stroke-width="1.29617" stroke-linecap="round"/><path d="M545.75 242.511L542.261 245.384" stroke="#FFD9AB" stroke-width="1.29617" stroke-linecap="round"/><path d="M531.18 246.413L535.489 251.338" stroke="#FFD9AB" stroke-width="1.29617" stroke-linecap="round"/><path d="M535.895 236.562L537.126 240.871" stroke="#FFD9AB" stroke-width="1.29617" stroke-linecap="round"/><path opacity="0.5" d="M485.461 244.91H470.578C470.578 244.91 468.484 235.817 477.626 235.817C486.768 235.817 485.461 244.91 485.461 244.91Z" fill="#FFD9AB"/><path d="M485.461 244.91H470.578C470.578 244.91 468.484 235.817 477.626 235.817C486.768 235.817 485.461 244.91 485.461 244.91Z" stroke="#FFD9AB" stroke-width="1.29617" stroke-linecap="round" stroke-linejoin="round"/><path d="M477.441 235.817L477.441 244.91" stroke="#FFD9AB" stroke-width="1.29617" stroke-linecap="round"/><path d="M470.879 241.12H484.77" stroke="#FFD9AB" stroke-width="1.29617" stroke-linecap="round"/><path d="M445.059 240.575H449.788V271.469H445.059V240.575Z" fill="white"/><path d="M444.135 271.468H450.738L451.681 275.721H443.852L444.135 271.468Z" fill="white"/><path d="M450.894 240.575L444.291 240.575L443.348 236.322L452.188 236.322L450.894 240.575Z" fill="white"/><path d="M445.18 240.575H449.909L449.909 270.895H445.18L445.18 240.575Z" stroke="#FFD9AB" stroke-width="1.29617" stroke-linecap="round" stroke-linejoin="round"/><path d="M444.111 271.253C444.124 271.052 444.291 270.896 444.493 270.896H450.431C450.61 270.896 450.766 271.02 450.804 271.195L451.578 274.684C451.631 274.922 451.449 275.149 451.204 275.149H444.261C444.039 275.149 443.864 274.962 443.879 274.741L444.111 271.253Z" stroke="#FFD9AB" stroke-width="1.29617" stroke-linecap="round" stroke-linejoin="round"/><path d="M451.224 239.49C451.065 240.013 450.986 240.274 450.783 240.425C450.58 240.575 450.306 240.575 449.76 240.575L445.519 240.575C444.93 240.575 444.636 240.575 444.426 240.407C444.216 240.238 444.152 239.951 444.025 239.376L443.348 236.322L452.188 236.322L451.224 239.49Z" stroke="#FFD9AB" stroke-width="1.29617" stroke-linecap="round" stroke-linejoin="round"/><path d="M456.172 240.573H460.901V271.467H456.172V240.573Z" fill="white"/><path d="M455.248 271.466H461.851L462.795 275.719H454.965L455.248 271.466Z" fill="white"/><path d="M462.008 240.573L455.404 240.573L454.461 236.32L463.301 236.32L462.008 240.573Z" fill="white"/><path d="M456.293 240.573H461.022L461.022 270.893H456.293L456.293 240.573Z" stroke="#FFD9AB" stroke-width="1.29617" stroke-linecap="round" stroke-linejoin="round"/><path d="M455.224 271.251C455.238 271.05 455.404 270.894 455.606 270.894H461.544C461.724 270.894 461.879 271.018 461.918 271.193L462.691 274.682C462.744 274.92 462.563 275.147 462.318 275.147H455.374C455.153 275.147 454.977 274.96 454.992 274.739L455.224 271.251Z" stroke="#FFD9AB" stroke-width="1.29617" stroke-linecap="round" stroke-linejoin="round"/><path d="M462.338 239.488C462.179 240.011 462.099 240.272 461.896 240.423C461.693 240.573 461.42 240.573 460.873 240.573L456.633 240.573C456.044 240.573 455.749 240.573 455.539 240.405C455.329 240.236 455.266 239.949 455.138 239.374L454.461 236.32L463.301 236.32L462.338 239.488Z" stroke="#FFD9AB" stroke-width="1.29617" stroke-linecap="round" stroke-linejoin="round"/><path opacity="0.5" d="M502.198 258.548H508.987C508.987 258.548 510.539 246.677 506.368 246.677C502.198 246.677 502.198 258.548 502.198 258.548Z" fill="#FFD9AB"/><path d="M502.198 258.548H508.987C508.987 258.548 510.539 246.677 506.368 246.677C502.198 246.677 502.198 258.548 502.198 258.548Z" stroke="#FFD9AB" stroke-width="1.29617" stroke-linecap="round" stroke-linejoin="round"/><path d="M505.984 247.183L505.984 258.296" stroke="#FFD9AB" stroke-width="1.29617" stroke-linecap="round" stroke-linejoin="round"/><path d="M508.766 254.759H502.956" stroke="#FFD9AB" stroke-width="1.29617" stroke-linecap="round" stroke-linejoin="round"/><path d="M420.33 275.473C417.65 271.953 420.161 266.886 424.585 266.886H428.655C432.722 266.886 436.019 270.183 436.019 274.25V275.473H420.33V275.473Z" fill="white"/><path d="M419.881 273.763C419.337 270.142 422.141 266.886 425.802 266.886H426.31C430.717 266.886 433.455 271.675 431.219 275.473V275.473H420.139L419.881 273.763Z" fill="#FFD9AB"/><path d="M420.33 275.473C417.65 271.953 420.161 266.886 424.585 266.886H428.655C432.722 266.886 436.019 270.183 436.019 274.25V275.473H420.33V275.473Z" stroke="#FFD9AB" stroke-width="1.29617" stroke-linecap="round"/><path d="M427.992 275.472C423.024 271.575 425.863 263.596 432.176 263.713L435.381 263.772C440.569 263.869 444.16 268.989 442.484 273.9L441.947 275.472H427.992V275.472Z" fill="white"/><path opacity="0.5" d="M426.069 273.564C423.819 268.918 427.306 263.543 432.466 263.705V263.705C436.792 263.841 439.916 267.895 438.944 272.113L438.17 275.472H426.993L426.069 273.564Z" fill="#FFD9AB"/><path d="M428.181 275.472C423.341 271.463 426.262 263.598 432.546 263.721L435.016 263.769C440.046 263.868 443.555 268.791 442.008 273.578L441.395 275.472H428.181V275.472Z" stroke="#FFD9AB" stroke-width="1.29617" stroke-linecap="round"/><path d="M574 275.722L406.66 275.722" stroke="#FFD9AB" stroke-width="1.29617" stroke-linecap="round"/><path d="M465.813 211.123C465.092 210.493 464.732 210.177 464.301 210.177C463.869 210.177 463.509 210.493 462.789 211.123L438.591 232.296C436.659 233.986 435.693 234.831 435.973 235.576C436.252 236.32 437.536 236.32 440.103 236.32H488.498C491.065 236.32 492.349 236.32 492.628 235.576C492.908 234.831 491.942 233.986 490.01 232.296L465.813 211.123Z" fill="white"/><path opacity="0.7" d="M464.314 211.908C463.586 211.251 463.221 210.922 462.781 210.922C462.341 210.921 461.976 211.248 461.245 211.903L436.722 233.87C435.466 234.995 434.839 235.557 435.027 236.049C435.215 236.541 436.058 236.541 437.743 236.541H485.671C488.189 236.541 489.448 236.541 489.731 235.805C490.014 235.069 489.079 234.226 487.208 232.54L464.314 211.908Z" fill="#FFD9AB"/><path d="M466.821 212.005C465.62 210.954 465.02 210.429 464.301 210.429C463.582 210.429 462.981 210.954 461.781 212.005L437.058 233.637C435.77 234.764 435.126 235.328 435.313 235.824C435.499 236.32 436.355 236.32 438.066 236.32H490.535C492.247 236.32 493.102 236.32 493.289 235.824C493.475 235.328 492.831 234.764 491.543 233.637L466.821 212.005Z" stroke="#FFD9AB" stroke-width="1.29617" stroke-linecap="round" stroke-linejoin="round"/><path d="M464.178 215.105L443.341 233.037H485.015L464.178 215.105Z" fill="white"/><path opacity="0.6" d="M462.522 216.335L443.974 233.037H481.859L462.522 216.335Z" fill="#FFD9AB"/><path d="M464.178 215.105L443.341 233.037H485.015L464.178 215.105Z" stroke="#FFD9AB" stroke-width="1.29617" stroke-linecap="round" stroke-linejoin="round"/><ellipse cx="4.00173" cy="4.14485" rx="4.00173" ry="4.14485" transform="matrix(-0.96304 0.269357 0.269357 0.96304 467.246 220.353)" fill="white" stroke="#FFD9AB" stroke-width="1.29617" stroke-linecap="round" stroke-linejoin="round"/><path d="M464.301 221.669L464.301 229.246" stroke="#FFD9AB" stroke-width="1.29617" stroke-linecap="round" stroke-linejoin="round"/><path d="M468.344 225.712L460.766 225.712" stroke="#FFD9AB" stroke-width="1.29617" stroke-linecap="round" stroke-linejoin="round"/><path d="M487.005 210.179C486.791 209.992 486.684 209.898 486.554 209.849C486.423 209.8 486.281 209.8 485.996 209.8H468.374C466.665 209.8 465.81 209.8 465.623 210.296C465.437 210.792 466.08 211.355 467.366 212.482L494.139 235.941C494.353 236.128 494.46 236.222 494.59 236.271C494.721 236.32 494.863 236.32 495.148 236.32H512.77C514.48 236.32 515.334 236.32 515.521 235.824C515.707 235.328 515.064 234.765 513.778 233.638L487.005 210.179Z" fill="white"/><path d="M482.783 209.8H464.304L494.572 236.32H513.051L482.783 209.8Z" fill="#FFD9AB"/><path d="M487.005 210.179C486.791 209.992 486.684 209.898 486.554 209.849C486.423 209.8 486.281 209.8 485.996 209.8H468.374C466.665 209.8 465.81 209.8 465.623 210.296C465.437 210.792 466.08 211.355 467.366 212.482L494.139 235.941C494.353 236.128 494.46 236.222 494.59 236.271C494.721 236.32 494.863 236.32 495.148 236.32H512.77C514.48 236.32 515.334 236.32 515.521 235.824C515.707 235.328 515.064 234.765 513.778 233.638L487.005 210.179Z" stroke="#FFD9AB" stroke-width="1.29617" stroke-linecap="round" stroke-linejoin="round"/><path d="M485.768 272.438H471.807C471.807 272.438 468.845 249.454 478.497 249.454C488.149 249.454 485.768 272.438 485.768 272.438Z" fill="#FFD9AB" stroke="#FFD9AB" stroke-width="1.29617" stroke-linecap="round"/><path d="M478.449 249.454L478.449 272.438" stroke="#FFD9AB" stroke-width="1.29617" stroke-linecap="round"/><ellipse cx="1.01029" cy="1.26286" rx="1.01029" ry="1.26286" transform="matrix(-1 0 0 1 475.168 263.597)" fill="#FFD9AB"/><ellipse cx="1.01029" cy="1.26286" rx="1.01029" ry="1.26286" transform="matrix(-1 0 0 1 484.258 263.597)" fill="#FFD9AB"/><path d="M482.684 240.575H487.413V271.469H482.684V240.575Z" fill="white"/><path d="M481.76 271.468H488.363L489.306 275.721H481.477L481.76 271.468Z" fill="white"/><path d="M488.519 240.575L481.916 240.575L480.973 236.322L489.813 236.322L488.519 240.575Z" fill="white"/><path d="M482.805 240.575H487.534L487.534 270.895H482.805L482.805 240.575Z" stroke="#FFD9AB" stroke-width="1.29617" stroke-linecap="round" stroke-linejoin="round"/><path d="M481.736 271.253C481.749 271.052 481.916 270.896 482.118 270.896H488.056C488.235 270.896 488.391 271.02 488.429 271.195L489.203 274.684C489.256 274.922 489.074 275.149 488.829 275.149H481.886C481.664 275.149 481.489 274.962 481.504 274.741L481.736 271.253Z" stroke="#FFD9AB" stroke-width="1.29617" stroke-linecap="round" stroke-linejoin="round"/><path d="M488.849 239.49C488.69 240.013 488.611 240.274 488.408 240.425C488.205 240.575 487.931 240.575 487.385 240.575L483.144 240.575C482.555 240.575 482.261 240.575 482.051 240.407C481.841 240.238 481.777 239.951 481.65 239.376L480.973 236.322L489.813 236.322L488.849 239.49Z" stroke="#FFD9AB" stroke-width="1.29617" stroke-linecap="round" stroke-linejoin="round"/><path d="M493.801 240.573H498.53V271.467H493.801V240.573Z" fill="white"/><path d="M492.877 271.466H499.48L500.424 275.719H492.594L492.877 271.466Z" fill="white"/><path d="M499.636 240.573L493.033 240.573L492.09 236.32L500.93 236.32L499.636 240.573Z" fill="white"/><path d="M493.922 240.573H498.651L498.651 270.893H493.922L493.922 240.573Z" stroke="#FFD9AB" stroke-width="1.29617" stroke-linecap="round" stroke-linejoin="round"/><path d="M492.853 271.251C492.866 271.05 493.033 270.894 493.235 270.894H499.173C499.352 270.894 499.508 271.018 499.547 271.193L500.32 274.682C500.373 274.92 500.191 275.147 499.947 275.147H493.003C492.781 275.147 492.606 274.96 492.621 274.739L492.853 271.251Z" stroke="#FFD9AB" stroke-width="1.29617" stroke-linecap="round" stroke-linejoin="round"/><path d="M499.966 239.488C499.807 240.011 499.728 240.272 499.525 240.423C499.322 240.573 499.049 240.573 498.502 240.573L494.262 240.573C493.673 240.573 493.378 240.573 493.168 240.405C492.958 240.236 492.895 239.949 492.767 239.374L492.09 236.32L500.93 236.32L499.966 239.488Z" stroke="#FFD9AB" stroke-width="1.29617" stroke-linecap="round" stroke-linejoin="round"/><rect width="54.808" height="3.28343" transform="matrix(-1 0 0 1 491.586 272.44)" fill="white" stroke="#FFD9AB" stroke-width="1.29617" stroke-linecap="round" stroke-linejoin="round"/><rect width="17.7491" height="3.28343" transform="matrix(-1 0 0 1 509.266 272.44)" fill="#FFD9AB" stroke="#FFD9AB" stroke-width="1.29617" stroke-linecap="round" stroke-linejoin="round"/><path d="M534.103 275.771C537.676 269.097 532.474 261.108 524.925 261.677L523.736 261.766C517.728 262.219 513.404 267.732 514.397 273.675L514.748 275.771H534.103V275.771Z" fill="white"/><path opacity="0.2" d="M530.815 273.245C533.188 267.368 528.469 261.073 522.163 261.703V261.703C517.446 262.174 514.045 266.44 514.638 271.143L515.215 275.724H529.814L530.815 273.245Z" fill="#FFD9AB"/><path d="M534.103 275.771C537.676 269.097 532.474 261.108 524.925 261.677L523.736 261.766C517.728 262.219 513.404 267.732 514.397 273.675L514.748 275.771H534.103V275.771Z" stroke="#FFD9AB" stroke-width="1.29617" stroke-linecap="round"/><path d="M545.588 275.766C548.587 270.914 545.097 264.653 539.392 264.653H536.002C530.262 264.653 527.101 271.324 530.736 275.766V275.766H545.588V275.766Z" fill="white"/><path opacity="0.5" d="M541.816 274.797C544.554 270.368 541.368 264.653 536.161 264.653V264.653C531.519 264.653 528.306 269.29 529.936 273.636L530.735 275.766H541.217L541.816 274.797Z" fill="#FFD9AB"/><path d="M545.588 275.766C548.587 270.914 545.097 264.653 539.392 264.653H536.002C530.262 264.653 527.101 271.324 530.736 275.766V275.766H545.588V275.766Z" stroke="#FFD9AB" stroke-width="1.29617" stroke-linecap="round"/></g><path d="M192.399 268.893C200.845 248.733 184.724 226.853 162.967 228.948V228.948C146.69 230.514 134.951 245.258 137.072 261.472L138.941 275.765H189.52L192.399 268.893Z" fill="white"/><path d="M183.57 258.992C188.707 242.735 175.257 226.632 158.346 228.79V228.79C145.81 230.39 136.821 241.671 138.061 254.248L140.169 275.615H178.318L183.57 258.992Z" fill="#FFD9AB"/><path d="M192.078 267.778C200.645 247.728 184.647 225.811 162.939 227.86V227.86C146.699 229.393 134.987 244.115 137.143 260.283L138.941 273.765H189.52L192.078 267.778Z" stroke="#3C5D87" stroke-width="2.5" stroke-linecap="round"/><rect width="111.541" height="30.3604" transform="matrix(-1 0 0 1 370.801 80.9422)" fill="#FFD9AB" stroke="#3C5D87" stroke-width="2.5" stroke-linecap="round" stroke-linejoin="round"/><rect width="13.4701" height="30.3604" transform="matrix(-1 0 0 1 371.512 80.9404)" fill="white"/><rect width="13.4701" height="30.3604" transform="matrix(-1 0 0 1 345.699 80.9404)" fill="white"/><rect width="13.4701" height="30.3604" transform="matrix(-1 0 0 1 321.84 80.9404)" fill="white"/><rect width="13.4701" height="30.3604" transform="matrix(-1 0 0 1 298.547 80.9404)" fill="white"/><rect width="13.4701" height="30.3604" transform="matrix(-1 0 0 1 272.73 80.9404)" fill="white"/><rect width="13.4701" height="30.3604" transform="matrix(-1 0 0 1 272.73 80.9404)" stroke="#3C5D87" stroke-width="2.5" stroke-linecap="round" stroke-linejoin="round"/><rect width="13.4701" height="30.3604" transform="matrix(-1 0 0 1 298.547 80.9404)" stroke="#3C5D87" stroke-width="2.5" stroke-linecap="round" stroke-linejoin="round"/><rect width="13.4701" height="30.3604" transform="matrix(-1 0 0 1 345.699 80.9404)" stroke="#3C5D87" stroke-width="2.5" stroke-linecap="round" stroke-linejoin="round"/><rect width="13.4701" height="30.3604" transform="matrix(-1 0 0 1 321.84 80.9404)" stroke="#3C5D87" stroke-width="2.5" stroke-linecap="round" stroke-linejoin="round"/><rect width="13.4701" height="30.3604" transform="matrix(-1 0 0 1 371.512 80.9404)" stroke="#3C5D87" stroke-width="2.5" stroke-linecap="round" stroke-linejoin="round"/><path d="M259.54 71.0423H370.473C365.863 59.8221 348.11 37.3818 313.976 37.3818C279.843 37.3818 263.463 59.8221 259.54 71.0423Z" fill="white"/><path d="M259.26 71.0423H361.273C357.034 59.8221 340.708 37.3818 309.32 37.3818C277.931 37.3818 262.868 59.8221 259.26 71.0423Z" fill="#3C5D87"/><path d="M259.54 71.0423H370.473C365.863 59.8221 348.11 37.3818 313.976 37.3818C279.843 37.3818 263.463 59.8221 259.54 71.0423Z" stroke="#3C5D87" stroke-width="2.5" stroke-linecap="round" stroke-linejoin="round"/><rect width="123.422" height="9.90012" rx="2" transform="matrix(-1 0 0 1 376.734 71.0438)" fill="white" stroke="#3C5D87" stroke-width="2.5" stroke-linecap="round" stroke-linejoin="round"/><path d="M323.598 13.6182L319.638 37.0485" stroke="#3C5D87" stroke-width="2.5" stroke-linecap="round"/><path d="M300.873 19.5136L324.594 9.00098L320.634 28.1412L301.198 23.2824C298.855 22.6966 297.683 22.4036 297.622 21.6926C297.561 20.9815 298.665 20.4922 300.873 19.5136Z" fill="#FFD9AB" stroke="#3C5D87" stroke-width="2.5" stroke-linecap="round" stroke-linejoin="round"/><rect opacity="0.6" width="86.4611" height="121.442" transform="matrix(-1 0 0 1 444.062 154.204)" fill="#FFD9AB"/><rect width="86.4611" height="121.442" transform="matrix(-1 0 0 1 444.062 154.204)" stroke="#3C5D87" stroke-width="2.5" stroke-linecap="round" stroke-linejoin="round"/><path d="M213.062 144.964H162.902V275.645H213.062V144.964Z" fill="#C5CEDB"/><path d="M357.598 144.964H162.895V179.284H357.598V144.964Z" fill="#C5CEDB"/><rect width="194.702" height="124.082" transform="matrix(-1 0 0 1 357.598 151.563)" fill="white" stroke="#3C5D87" stroke-width="2.5" stroke-linecap="round" stroke-linejoin="round"/><path opacity="0.5" d="M184.02 230.767H201.762C201.762 230.767 205.817 199.747 194.918 199.747C184.02 199.747 184.02 230.767 184.02 230.767Z" fill="#FFD9AB"/><path d="M184.02 230.767H201.762C201.762 230.767 205.817 199.747 194.918 199.747C184.02 199.747 184.02 230.767 184.02 230.767Z" stroke="#3C5D87" stroke-width="2.5" stroke-linecap="round" stroke-linejoin="round"/><path d="M193.918 201.069L193.918 230.11" stroke="#3C5D87" stroke-width="2.5" stroke-linecap="round" stroke-linejoin="round"/><path d="M201.184 220.868H186.003" stroke="#3C5D87" stroke-width="2.5" stroke-linecap="round" stroke-linejoin="round"/><path d="M474.204 275.645C485.671 255.532 471.39 230.104 448.237 230.104V230.104C431.575 230.104 418.067 243.612 418.067 260.275V275.645H474.204V275.645Z" fill="white"/><path d="M466.637 261.063C467.289 248.999 458.981 238.288 447.135 235.919V235.919C432.095 232.911 418.063 244.414 418.063 259.751V275.645H465.843C465.846 275.645 465.849 275.642 465.849 275.639L466.637 261.063Z" fill="#FFD9AB"/><path d="M474.204 275.645C485.671 255.532 471.39 230.104 448.237 230.104V230.104C431.575 230.104 418.067 243.612 418.067 260.275V275.645H474.204V275.645Z" stroke="#3C5D87" stroke-width="2.5" stroke-linecap="round"/><path d="M401.281 103.384H212.272L153.647 154.204H461.227L401.281 103.384Z" fill="white"/><path d="M403.959 105.75C402.576 104.579 401.884 103.994 401.051 103.689C400.218 103.384 399.312 103.384 397.5 103.384H216.729C214.917 103.384 214.011 103.384 213.178 103.689C212.345 103.994 211.654 104.579 210.27 105.75L157.171 150.678C155.426 152.154 154.554 152.892 154.794 153.548C155.034 154.204 156.177 154.204 158.463 154.204H455.766C458.052 154.204 459.195 154.204 459.436 153.548C459.676 152.892 458.803 152.154 457.058 150.678L403.959 105.75Z" fill="#3C5D87"/><path d="M404.08 105.756C402.695 104.582 402.003 103.996 401.169 103.69C400.335 103.384 399.428 103.384 397.613 103.384H216.003C214.158 103.384 213.235 103.384 212.39 103.699C211.545 104.015 210.847 104.619 209.453 105.828L157.698 150.693C155.998 152.167 155.148 152.904 155.391 153.554C155.633 154.204 156.758 154.204 159.008 154.204H455.775C458.058 154.204 459.199 154.204 459.439 153.549C459.68 152.893 458.809 152.155 457.068 150.679L404.08 105.756Z" stroke="#3C5D87" stroke-width="2.5" stroke-linecap="round" stroke-linejoin="round"/><path fill-rule="evenodd" clip-rule="evenodd" d="M408.226 151.137C417.991 147.557 429.666 154.904 434.302 167.548C435.178 169.938 435.74 172.346 436.009 174.704C440.267 173.96 444.145 174.705 446.904 177.156C453.427 182.951 451.214 196.091 441.962 206.505C441.508 207.017 441.045 207.512 440.575 207.991C445.006 210.636 447.653 214.492 447.167 218.433C446.384 224.771 437.792 228.927 427.975 227.715C423.471 227.159 419.492 225.57 416.58 223.4C411.638 225.77 405.107 226.624 398.262 225.389C385.009 222.997 375.597 213.678 377.24 204.574C377.931 200.75 380.462 197.572 384.148 195.35C381.1 186.949 382.226 178.65 387.696 174.547C390.33 172.571 393.616 171.835 397.121 172.192C396.406 162.54 400.612 153.929 408.226 151.137Z" fill="white"/><path fill-rule="evenodd" clip-rule="evenodd" d="M405.261 155.347C412.965 152.522 422.707 159.771 427.022 171.537C427.487 172.807 427.87 174.076 428.174 175.336C432.046 174.882 435.564 175.714 438.134 177.997C444.657 183.793 442.612 196.745 433.565 206.928C433.161 207.382 432.751 207.823 432.333 208.251C436.242 210.778 438.527 214.242 438.092 217.762C437.342 223.838 428.776 227.78 418.96 226.569C416.09 226.214 413.431 225.459 411.124 224.415C406.785 226.119 401.485 226.661 395.986 225.669C383.584 223.431 374.863 214.236 376.506 205.132C377.169 201.456 379.421 198.357 382.687 196.116C380.786 189.203 381.872 182.838 386.148 179.63C389.305 177.262 393.628 177.046 398.131 178.608C395.341 167.952 398.247 157.918 405.261 155.347Z" fill="#FFD9AB"/><path d="M434.302 167.548L435.475 167.118L434.302 167.548ZM408.226 151.137L407.796 149.964V149.964L408.226 151.137ZM436.009 174.704L436.224 175.935C435.885 175.994 435.536 175.911 435.261 175.705C434.985 175.499 434.806 175.188 434.767 174.846L436.009 174.704ZM446.904 177.156L446.073 178.09V178.09L446.904 177.156ZM441.962 206.505L441.028 205.675L441.028 205.675L441.962 206.505ZM440.575 207.991L439.934 209.064C439.605 208.868 439.384 208.531 439.335 208.151C439.286 207.77 439.414 207.389 439.683 207.115L440.575 207.991ZM447.167 218.433L448.407 218.586H448.407L447.167 218.433ZM427.975 227.715L427.822 228.956H427.822L427.975 227.715ZM416.58 223.4L416.04 222.273C416.459 222.072 416.954 222.12 417.327 222.398L416.58 223.4ZM398.262 225.389L398.04 226.619H398.04L398.262 225.389ZM377.24 204.574L378.471 204.796L377.24 204.574ZM384.148 195.35L385.323 194.923C385.526 195.485 385.304 196.112 384.793 196.42L384.148 195.35ZM387.696 174.547L388.446 175.547L387.696 174.547ZM397.121 172.192L398.367 172.1C398.395 172.468 398.257 172.83 397.992 173.088C397.727 173.346 397.362 173.473 396.994 173.436L397.121 172.192ZM433.128 167.978C428.62 155.683 417.51 149.065 408.656 152.311L407.796 149.964C418.473 146.049 430.712 154.126 435.475 167.118L433.128 167.978ZM434.767 174.846C434.509 172.587 433.97 170.276 433.128 167.978L435.475 167.118C436.385 169.6 436.97 172.105 437.251 174.562L434.767 174.846ZM435.794 173.472C440.304 172.685 444.609 173.444 447.734 176.221L446.073 178.09C443.682 175.966 440.23 175.235 436.224 175.935L435.794 173.472ZM447.734 176.221C451.433 179.508 452.517 184.749 451.581 190.306C450.642 195.883 447.654 201.981 442.896 207.336L441.028 205.675C445.523 200.616 448.266 194.937 449.116 189.891C449.969 184.825 448.898 180.599 446.073 178.09L447.734 176.221ZM442.896 207.336C442.428 207.862 441.951 208.373 441.466 208.867L439.683 207.115C440.138 206.651 440.587 206.171 441.028 205.675L442.896 207.336ZM441.215 206.918C445.851 209.685 448.981 213.941 448.407 218.586L445.926 218.28C446.326 215.043 444.161 211.587 439.934 209.064L441.215 206.918ZM448.407 218.586C447.947 222.318 445.209 225.238 441.503 227.031C437.783 228.83 432.933 229.587 427.822 228.956L428.128 226.474C432.834 227.055 437.188 226.34 440.415 224.78C443.654 223.213 445.604 220.886 445.926 218.28L448.407 218.586ZM427.822 228.956C423.129 228.376 418.94 226.717 415.833 224.403L417.327 222.398C420.045 224.423 423.814 225.942 428.128 226.474L427.822 228.956ZM417.121 224.528C411.911 227.026 405.108 227.895 398.04 226.619L398.484 224.159C405.107 225.354 411.366 224.514 416.04 222.273L417.121 224.528ZM398.04 226.619C391.197 225.384 385.291 222.353 381.286 218.387C377.285 214.425 375.095 209.426 376.01 204.352L378.471 204.796C377.743 208.826 379.437 213.038 383.045 216.61C386.647 220.178 392.074 223.002 398.484 224.159L398.04 226.619ZM376.01 204.352C376.779 200.094 379.586 196.641 383.502 194.279L384.793 196.42C381.337 198.504 379.082 201.406 378.471 204.796L376.01 204.352ZM382.973 195.776C379.838 187.134 380.839 178.127 386.946 173.547L388.446 175.547C383.613 179.172 382.363 186.764 385.323 194.923L382.973 195.776ZM386.946 173.547C389.875 171.349 393.49 170.566 397.248 170.948L396.994 173.436C393.741 173.104 390.784 173.793 388.446 175.547L386.946 173.547ZM408.656 152.311C401.743 154.846 397.679 162.792 398.367 172.1L395.874 172.284C395.134 162.288 399.481 153.012 407.796 149.964L408.656 152.311Z" fill="#3C5D87"/><path d="M416.332 225.095L416.332 269.604" stroke="#3C5D87" stroke-width="2.5" stroke-linecap="round"/><path d="M435.109 188.868L425.993 196.376" stroke="#3C5D87" stroke-width="2.5" stroke-linecap="round"/><path d="M397.035 199.062L408.297 211.932" stroke="#3C5D87" stroke-width="2.5" stroke-linecap="round"/><path d="M409.367 173.321L412.585 184.583" stroke="#3C5D87" stroke-width="2.5" stroke-linecap="round"/><path opacity="0.5" d="M277.568 195.127H238.677C238.677 195.127 233.205 171.366 257.095 171.366C280.986 171.366 277.568 195.127 277.568 195.127Z" fill="#FFD9AB"/><path d="M277.568 195.127H238.677C238.677 195.127 233.205 171.366 257.095 171.366C280.986 171.366 277.568 195.127 277.568 195.127Z" stroke="#3C5D87" stroke-width="2.5" stroke-linecap="round" stroke-linejoin="round"/><path d="M256.621 171.366L256.621 195.127" stroke="#3C5D87" stroke-width="2.5" stroke-linecap="round"/><path d="M239.469 185.226H275.769" stroke="#3C5D87" stroke-width="2.5" stroke-linecap="round"/><path d="M171.996 183.8H184.355V264.531H171.996V183.8Z" fill="white"/><path d="M169.583 264.53H186.839L189.304 275.645H168.844L169.583 264.53Z" fill="white"/><path d="M187.249 183.8L169.994 183.8L167.529 172.685L190.629 172.685L187.249 183.8Z" fill="white"/><path d="M172.324 183.8H184.683L184.683 263.03H172.324L172.324 183.8Z" stroke="#3C5D87" stroke-width="2.5" stroke-linecap="round" stroke-linejoin="round"/><path d="M169.521 263.964C169.556 263.439 169.992 263.03 170.519 263.03H186.036C186.505 263.03 186.911 263.356 187.013 263.814L189.034 272.929C189.173 273.553 188.698 274.145 188.058 274.145H169.912C169.334 274.145 168.876 273.656 168.915 273.079L169.521 263.964Z" stroke="#3C5D87" stroke-width="2.5" stroke-linecap="round" stroke-linejoin="round"/><path d="M188.112 180.963C187.696 182.33 187.488 183.013 186.958 183.407C186.427 183.8 185.713 183.8 184.285 183.8L173.204 183.8C171.665 183.8 170.895 183.8 170.347 183.36C169.798 182.919 169.632 182.168 169.299 180.666L167.529 172.685L190.629 172.685L188.112 180.963Z" stroke="#3C5D87" stroke-width="2.5" stroke-linecap="round" stroke-linejoin="round"/><path d="M201.023 183.8H213.382V264.531H201.023V183.8Z" fill="white"/><path d="M198.611 264.53H215.866L218.331 275.645H197.871L198.611 264.53Z" fill="white"/><path d="M216.277 183.8L199.021 183.8L196.556 172.685L219.656 172.685L216.277 183.8Z" fill="white"/><path d="M201.352 183.8H213.71L213.71 263.03H201.352L201.352 183.8Z" stroke="#3C5D87" stroke-width="2.5" stroke-linecap="round" stroke-linejoin="round"/><path d="M198.552 263.964C198.587 263.439 199.024 263.03 199.55 263.03H215.068C215.537 263.03 215.942 263.356 216.044 263.814L218.065 272.929C218.204 273.553 217.729 274.145 217.089 274.145H198.944C198.365 274.145 197.908 273.656 197.946 273.079L198.552 263.964Z" stroke="#3C5D87" stroke-width="2.5" stroke-linecap="round" stroke-linejoin="round"/><path d="M217.139 180.963C216.724 182.33 216.516 183.013 215.985 183.407C215.455 183.8 214.741 183.8 213.312 183.8L202.231 183.8C200.692 183.8 199.923 183.8 199.374 183.36C198.826 182.919 198.659 182.168 198.326 180.666L196.556 172.685L219.656 172.685L217.139 180.963Z" stroke="#3C5D87" stroke-width="2.5" stroke-linecap="round" stroke-linejoin="round"/><path opacity="0.5" d="M321.309 230.767H339.051C339.051 230.767 343.106 199.747 332.207 199.747C321.309 199.747 321.309 230.767 321.309 230.767Z" fill="#FFD9AB"/><path d="M321.309 230.767H339.051C339.051 230.767 343.106 199.747 332.207 199.747C321.309 199.747 321.309 230.767 321.309 230.767Z" stroke="#3C5D87" stroke-width="2.5" stroke-linecap="round" stroke-linejoin="round"/><path d="M331.207 201.069L331.207 230.11" stroke="#3C5D87" stroke-width="2.5" stroke-linecap="round" stroke-linejoin="round"/><path d="M338.473 220.868H323.292" stroke="#3C5D87" stroke-width="2.5" stroke-linecap="round" stroke-linejoin="round"/><path d="M502.145 91.7504C490.736 86.9396 485.55 94.7572 484.928 98.7662C483.683 91.7504 479.327 86.1377 473.104 88.9441" stroke="#3C5D87" stroke-width="2.5" stroke-linecap="round" stroke-linejoin="round"/><path d="M427.481 24.2723C415.163 23.019 412.498 32.0137 413.079 36.0289C409.831 29.6867 404.021 25.5984 398.895 30.1064" stroke="#3C5D87" stroke-width="2.5" stroke-linecap="round" stroke-linejoin="round"/><path d="M122.315 115.002C129.927 106.874 139.422 114.711 140.466 118.632C140.961 111.524 145.745 106.422 153.666 111.042" stroke="#3C5D87" stroke-width="2.5" stroke-linecap="round" stroke-linejoin="round"/><path d="M1.66016 275.646L573.66 275.646" stroke="#FFE6C5" stroke-width="2.5" stroke-linecap="round"/><path d="M107.383 274.992C100.38 265.792 106.941 252.552 118.503 252.552H129.137C139.765 252.552 148.382 261.168 148.382 271.796V274.992H107.383V274.992Z" fill="white"/><path d="M106.205 270.523C104.783 261.062 112.11 252.552 121.677 252.552H123.003C134.52 252.552 141.675 265.068 135.832 274.992V274.992H106.877L106.205 270.523Z" fill="#FFD9AB"/><path d="M108.379 275.452C101.328 266 108.074 252.552 119.867 252.552H129.976C140.691 252.552 149.378 261.238 149.378 271.954V275.452H108.379V275.452Z" stroke="#3C5D87" stroke-width="2.5" stroke-linecap="round"/><path d="M127.4 274.99C114.416 264.806 121.835 243.956 138.333 244.262L146.708 244.417C160.265 244.669 169.649 258.049 165.269 270.881L163.867 274.99H127.4V274.99Z" fill="white"/><path opacity="0.5" d="M122.376 270.005C116.495 257.863 125.608 243.817 139.093 244.24V244.24C150.397 244.595 158.56 255.191 156.019 266.212L153.996 274.99H124.791L122.376 270.005Z" fill="#FFD9AB"/><path d="M127.891 275.21C115.199 264.625 122.914 243.966 139.438 244.292L145.7 244.415C158.881 244.676 168.088 257.565 164.058 270.119L162.424 275.21H127.891V275.21Z" stroke="#3C5D87" stroke-width="2.5" stroke-linecap="round"/><path d="M508.945 275.646L71.6603 275.646" stroke="#3C5D87" stroke-width="2.5" stroke-linecap="round"/><path d="M226.246 106.839C224.364 105.192 223.422 104.368 222.295 104.368C221.168 104.368 220.227 105.192 218.344 106.839L155.112 162.167C150.064 166.584 147.539 168.793 148.27 170.738C149.001 172.683 152.355 172.683 159.063 172.683H285.527C292.235 172.683 295.589 172.683 296.32 170.738C297.051 168.793 294.527 166.584 289.478 162.167L226.246 106.839Z" fill="white"/><path opacity="0.7" d="M222.33 108.891C220.426 107.175 219.473 106.317 218.324 106.315C217.174 106.314 216.219 107.169 214.31 108.879L150.227 166.284C146.946 169.222 145.306 170.692 145.797 171.977C146.289 173.263 148.491 173.263 152.896 173.263H278.138C284.719 173.263 288.009 173.263 288.748 171.339C289.487 169.415 287.043 167.212 282.154 162.806L222.33 108.891Z" fill="#FFD9AB"/><path d="M228.88 109.144C225.743 106.398 224.174 105.026 222.295 105.026C220.416 105.026 218.848 106.398 215.71 109.144L151.106 165.672C147.74 168.617 146.058 170.09 146.545 171.386C147.032 172.683 149.268 172.683 153.74 172.683H290.85C295.322 172.683 297.558 172.683 298.045 171.386C298.533 170.09 296.85 168.617 293.484 165.672L228.88 109.144Z" stroke="#3C5D87" stroke-width="2.5" stroke-linecap="round" stroke-linejoin="round"/><path d="M221.975 117.245L167.524 164.105H276.426L221.975 117.245Z" fill="white"/><path opacity="0.6" d="M217.648 120.46L169.179 164.104H268.18L217.648 120.46Z" fill="#FFD9AB"/><path d="M221.975 117.245L167.524 164.105H276.426L221.975 117.245Z" stroke="#3C5D87" stroke-width="2.5" stroke-linecap="round" stroke-linejoin="round"/><ellipse cx="10.4571" cy="10.8311" rx="10.4571" ry="10.8311" transform="matrix(-0.96304 0.269357 0.269357 0.96304 229.992 130.958)" fill="white" stroke="#3C5D87" stroke-width="2.5" stroke-linecap="round" stroke-linejoin="round"/><path d="M222.293 134.397L222.293 154.198" stroke="#3C5D87" stroke-width="2.5" stroke-linecap="round" stroke-linejoin="round"/><path d="M232.855 144.962L213.055 144.962" stroke="#3C5D87" stroke-width="2.5" stroke-linecap="round" stroke-linejoin="round"/><path d="M281.62 104.373C281.061 103.883 280.781 103.638 280.441 103.51C280.1 103.382 279.728 103.382 278.984 103.382H232.935C228.467 103.382 226.233 103.382 225.746 104.678C225.258 105.974 226.939 107.446 230.299 110.39L300.262 171.691C300.821 172.181 301.101 172.427 301.442 172.555C301.782 172.683 302.154 172.683 302.898 172.683H348.947C353.415 172.683 355.649 172.683 356.137 171.387C356.624 170.091 354.944 168.619 351.583 165.674L281.62 104.373Z" fill="white"/><path d="M270.587 103.382H222.298L301.391 172.683H349.68L270.587 103.382Z" fill="#3C5D87"/><path d="M281.62 104.373C281.061 103.883 280.781 103.638 280.441 103.51C280.1 103.382 279.728 103.382 278.984 103.382H232.935C228.467 103.382 226.233 103.382 225.746 104.678C225.258 105.974 226.939 107.446 230.299 110.39L300.262 171.691C300.821 172.181 301.101 172.427 301.442 172.555C301.782 172.683 302.154 172.683 302.898 172.683H348.947C353.415 172.683 355.649 172.683 356.137 171.387C356.624 170.091 354.944 168.619 351.583 165.674L281.62 104.373Z" stroke="#3C5D87" stroke-width="2.5" stroke-linecap="round" stroke-linejoin="round"/><path d="M278.386 267.068H241.905C241.905 267.068 234.165 207.007 259.387 207.007C284.609 207.007 278.386 267.068 278.386 267.068Z" fill="#FFD9AB" stroke="#3C5D87" stroke-width="2.5" stroke-linecap="round"/><path d="M259.266 207.007L259.266 267.068" stroke="#3C5D87" stroke-width="2.5" stroke-linecap="round"/><ellipse cx="2.64003" cy="3.30004" rx="2.64003" ry="3.30004" transform="matrix(-1 0 0 1 250.684 243.966)" fill="#3C5D87"/><ellipse cx="2.64003" cy="3.30004" rx="2.64003" ry="3.30004" transform="matrix(-1 0 0 1 274.445 243.966)" fill="#3C5D87"/><path d="M270.32 183.8H282.679V264.531H270.32V183.8Z" fill="white"/><path d="M267.907 264.53H285.163L287.628 275.645H267.168L267.907 264.53Z" fill="white"/><path d="M285.574 183.8L268.318 183.8L265.853 172.685L288.953 172.685L285.574 183.8Z" fill="white"/><path d="M270.648 183.8H283.007L283.007 263.03H270.648L270.648 183.8Z" stroke="#3C5D87" stroke-width="2.5" stroke-linecap="round" stroke-linejoin="round"/><path d="M267.849 263.964C267.884 263.439 268.321 263.03 268.847 263.03H284.365C284.833 263.03 285.239 263.356 285.341 263.814L287.362 272.929C287.501 273.553 287.026 274.145 286.386 274.145H268.241C267.662 274.145 267.204 273.656 267.243 273.079L267.849 263.964Z" stroke="#3C5D87" stroke-width="2.5" stroke-linecap="round" stroke-linejoin="round"/><path d="M286.436 180.963C286.02 182.33 285.813 183.013 285.282 183.407C284.752 183.8 284.037 183.8 282.609 183.8L271.528 183.8C269.989 183.8 269.22 183.8 268.671 183.36C268.123 182.919 267.956 182.168 267.623 180.666L265.853 172.685L288.953 172.685L286.436 180.963Z" stroke="#3C5D87" stroke-width="2.5" stroke-linecap="round" stroke-linejoin="round"/><path d="M299.375 183.8H311.733V264.531H299.375V183.8Z" fill="white"/><path d="M296.962 264.53H314.218L316.683 275.645H296.223L296.962 264.53Z" fill="white"/><path d="M314.628 183.8L297.373 183.8L294.908 172.685L318.008 172.685L314.628 183.8Z" fill="white"/><path d="M299.703 183.8H312.062L312.062 263.03H299.703L299.703 183.8Z" stroke="#3C5D87" stroke-width="2.5" stroke-linecap="round" stroke-linejoin="round"/><path d="M296.904 263.964C296.939 263.439 297.375 263.03 297.902 263.03H313.419C313.888 263.03 314.294 263.356 314.395 263.814L316.417 272.929C316.555 273.553 316.08 274.145 315.441 274.145H297.295C296.717 274.145 296.259 273.656 296.298 273.079L296.904 263.964Z" stroke="#3C5D87" stroke-width="2.5" stroke-linecap="round" stroke-linejoin="round"/><path d="M315.491 180.963C315.075 182.33 314.867 183.013 314.337 183.407C313.806 183.8 313.092 183.8 311.664 183.8L300.583 183.8C299.044 183.8 298.274 183.8 297.726 183.36C297.177 182.919 297.011 182.168 296.678 180.666L294.908 172.685L318.008 172.685L315.491 180.963Z" stroke="#3C5D87" stroke-width="2.5" stroke-linecap="round" stroke-linejoin="round"/><rect width="143.222" height="8.58011" transform="matrix(-1 0 0 1 293.582 267.069)" fill="white" stroke="#3C5D87" stroke-width="2.5" stroke-linecap="round" stroke-linejoin="round"/><rect width="46.3812" height="8.58011" transform="matrix(-1 0 0 1 339.781 267.069)" fill="#FFD9AB" stroke="#3C5D87" stroke-width="2.5" stroke-linecap="round" stroke-linejoin="round"/><path d="M404.692 275.769C414.029 258.33 400.434 237.453 380.708 238.939L377.6 239.173C361.9 240.355 350.602 254.762 353.197 270.291L354.113 275.769H404.692V275.769Z" fill="white"/><path opacity="0.2" d="M396.105 269.169C402.307 253.812 389.975 237.362 373.495 239.008V239.008C361.169 240.239 352.283 251.388 353.832 263.677L355.34 275.648H393.489L396.105 269.169Z" fill="#FFD9AB"/><path d="M404.692 275.769C414.029 258.33 400.434 237.453 380.708 238.939L377.6 239.173C361.9 240.355 350.602 254.762 353.197 270.291L354.113 275.769H404.692V275.769Z" stroke="#3C5D87" stroke-width="2.5" stroke-linecap="round"/><path d="M434.698 275.762C442.536 263.082 433.415 246.722 418.508 246.722H409.649C394.649 246.722 386.389 264.152 395.888 275.762V275.762H434.698V275.762Z" fill="white"/><path opacity="0.5" d="M424.843 273.229C431.996 261.655 423.671 246.722 410.065 246.722V246.722C397.935 246.722 389.539 258.837 393.798 270.194L395.886 275.762H423.277L424.843 273.229Z" fill="#FFD9AB"/><path d="M434.698 275.762C442.536 263.082 433.415 246.722 418.508 246.722H409.649C394.649 246.722 386.389 264.152 395.888 275.762V275.762H434.698V275.762Z" stroke="#3C5D87" stroke-width="2.5" stroke-linecap="round"/><rect opacity="0.16" x="156" y="168.001" width="196" height="12" rx="4" fill="#3C5D87"/><rect opacity="0.16" x="351" y="151.001" width="43" height="12" rx="4" fill="#3C5D87"/><rect opacity="0.16" x="264" y="76.001" width="102" height="12" rx="4" fill="#3C5D87"/><rect opacity="0.16" x="370" y="271.001" width="81" height="10" rx="4" fill="#3C5D87"/><rect opacity="0.16" x="278" y="195.001" width="10" height="60" rx="4" fill="#3C5D87"/><rect opacity="0.16" x="215.473" y="117.638" width="9" height="51" rx="4" transform="rotate(49.2715 215.473 117.638)" fill="#3C5D87"/><rect opacity="0.16" x="307" y="195.001" width="10" height="60" rx="4" fill="#3C5D87"/><rect opacity="0.16" x="209" y="195.001" width="10" height="60" rx="4" fill="#3C5D87"/><rect opacity="0.16" x="180" y="195.001" width="10" height="60" rx="4" fill="#3C5D87"/><path opacity="0.16" d="M123.101 270.964C118.072 263.53 120.022 253.426 127.456 248.397" stroke="#3C5D87" stroke-width="8" stroke-linecap="round"/><path d="M403.012 114.364H424.989V143.574C424.989 145.869 422.518 147.314 420.518 146.189L414.981 143.074C414.372 142.732 413.629 142.732 413.02 143.074L407.483 146.189C405.483 147.314 403.012 145.869 403.012 143.574V114.364Z" fill="#FFD9AB" stroke="#3C5D87" stroke-width="2.4"/><path fill-rule="evenodd" clip-rule="evenodd" d="M406.89 125.174C406 124.317 405.555 123.889 405.031 123.672C404.507 123.455 403.89 123.443 402.655 123.42C398.57 123.342 396.214 122.989 394.617 121.392C393.019 119.794 392.666 117.438 392.589 113.353C392.565 112.119 392.553 111.501 392.336 110.977C392.119 110.453 391.691 110.008 390.834 109.119C388.003 106.177 386.587 104.262 386.587 102.003C386.587 99.7444 388.003 97.8293 390.834 94.8873C391.691 93.9974 392.119 93.5525 392.336 93.0287C392.553 92.5048 392.565 91.8874 392.589 90.6525C392.667 86.57 393.02 84.2147 394.617 82.6176C396.214 81.0206 398.569 80.6676 402.652 80.5895C403.886 80.5659 404.504 80.5541 405.028 80.3371C405.552 80.1201 405.997 79.6919 406.886 78.8354C409.83 76.0022 411.745 74.5856 414.004 74.5856C416.264 74.5856 418.179 76.0022 421.123 78.8354C422.012 79.6919 422.457 80.1201 422.981 80.3371C423.505 80.5541 424.122 80.5659 425.357 80.5896C429.439 80.6677 431.794 81.0208 433.391 82.6176C434.988 84.2145 435.341 86.5694 435.419 90.6511C435.442 91.886 435.454 92.5035 435.671 93.0273C435.888 93.5512 436.316 93.9961 437.173 94.8859C440.006 97.8287 441.422 99.744 441.422 102.003C441.422 104.262 440.006 106.177 437.173 109.12C436.316 110.01 435.888 110.455 435.671 110.979C435.454 111.502 435.442 112.12 435.419 113.355C435.341 117.439 434.988 119.794 433.391 121.392C431.793 122.989 429.438 123.342 425.354 123.42C424.119 123.443 423.502 123.455 422.978 123.672C422.454 123.889 422.009 124.317 421.119 125.174C418.178 128.005 416.263 129.42 414.004 129.42C411.746 129.42 409.831 128.005 406.89 125.174Z" fill="#FFE999"/><path d="M394.617 82.6176L395.465 83.4662L394.617 82.6176ZM433.391 82.6176L432.542 83.4662L432.542 83.4662L433.391 82.6176ZM425.354 123.42L425.331 122.22L425.354 123.42ZM421.119 125.174L421.951 126.038L421.119 125.174ZM422.978 123.672L423.437 124.781L422.978 123.672ZM437.173 109.12L438.038 109.952L437.173 109.12ZM435.419 113.355L436.619 113.378L435.419 113.355ZM435.671 110.979L436.78 111.438L435.671 110.979ZM435.419 90.6511L436.619 90.6282L435.419 90.6511ZM437.173 94.8859L436.308 95.7181L437.173 94.8859ZM435.671 93.0273L436.78 92.5681L435.671 93.0273ZM421.123 78.8354L421.955 77.9708L421.123 78.8354ZM422.981 80.3371L422.522 81.4458L422.981 80.3371ZM405.028 80.3371L405.487 81.4458L405.028 80.3371ZM390.834 94.8873L389.97 94.0552L390.834 94.8873ZM392.336 93.0287L393.445 93.4879L392.336 93.0287ZM390.834 109.119L389.97 109.951L390.834 109.119ZM392.336 110.977L393.445 110.518L392.336 110.977ZM402.655 123.42L402.632 124.62L402.655 123.42ZM406.89 125.174L407.722 124.309L406.89 125.174ZM405.031 123.672L404.572 124.781L405.031 123.672ZM402.678 122.22C398.533 122.141 396.676 121.754 395.465 120.543L393.768 122.24C395.753 124.225 398.608 124.543 402.632 124.62L402.678 122.22ZM395.465 120.543C394.255 119.333 393.867 117.476 393.788 113.33L391.389 113.376C391.465 117.4 391.784 120.256 393.768 122.24L395.465 120.543ZM391.699 108.286C388.826 105.301 387.787 103.714 387.787 102.003H385.387C385.387 104.809 387.18 107.052 389.97 109.951L391.699 108.286ZM387.787 102.003C387.787 100.292 388.826 98.7048 391.699 95.7195L389.97 94.0552C387.18 96.9537 385.387 99.1972 385.387 102.003H387.787ZM393.788 90.6755C393.868 86.5327 394.255 84.6763 395.465 83.4662L393.768 81.7691C391.784 83.7531 391.466 86.6073 391.389 90.6296L393.788 90.6755ZM395.465 83.4662C396.675 82.256 398.532 81.8685 402.674 81.7893L402.629 79.3898C398.606 79.4666 395.752 79.7852 393.768 81.7691L395.465 83.4662ZM407.719 79.6999C410.705 76.8248 412.292 75.7856 414.004 75.7856V73.3856C411.198 73.3856 408.954 75.1795 406.054 77.9708L407.719 79.6999ZM414.004 75.7856C415.716 75.7856 417.303 76.8248 420.29 79.6999L421.955 77.9708C419.055 75.1795 416.811 73.3856 414.004 73.3856V75.7856ZM425.334 81.7893C429.476 81.8686 431.332 82.2562 432.542 83.4662L434.239 81.7691C432.255 79.7854 429.402 79.4667 425.38 79.3898L425.334 81.7893ZM432.542 83.4662C433.752 84.6762 434.14 86.5323 434.219 90.6741L436.619 90.6282C436.542 86.6066 436.223 83.7529 434.239 81.7691L432.542 83.4662ZM436.308 95.7181C439.183 98.7043 440.222 100.291 440.222 102.003H442.622C442.622 99.1968 440.828 96.953 438.038 94.0537L436.308 95.7181ZM440.222 102.003C440.222 103.715 439.183 105.302 436.308 108.288L438.038 109.952C440.828 107.053 442.622 104.809 442.622 102.003H440.222ZM434.219 113.332C434.14 117.476 433.753 119.333 432.542 120.543L434.239 122.24C436.224 120.256 436.542 117.401 436.619 113.378L434.219 113.332ZM432.542 120.543C431.332 121.754 429.475 122.141 425.331 122.22L425.377 124.62C429.4 124.543 432.255 124.224 434.239 122.24L432.542 120.543ZM420.287 124.309C417.302 127.182 415.716 128.22 414.004 128.22V130.62C416.81 130.62 419.053 128.828 421.951 126.038L420.287 124.309ZM414.004 128.22C412.293 128.22 410.707 127.182 407.722 124.309L406.058 126.038C408.956 128.828 411.199 130.62 414.004 130.62V128.22ZM425.331 122.22C424.197 122.242 423.303 122.239 422.519 122.563L423.437 124.781C423.701 124.672 424.04 124.645 425.377 124.62L425.331 122.22ZM421.951 126.038C422.914 125.112 423.173 124.89 423.437 124.781L422.519 122.563C421.735 122.888 421.104 123.523 420.287 124.309L421.951 126.038ZM436.308 108.288C435.522 109.105 434.887 109.735 434.563 110.519L436.78 111.438C436.889 111.174 437.111 110.915 438.038 109.952L436.308 108.288ZM436.619 113.378C436.644 112.041 436.671 111.702 436.78 111.438L434.563 110.519C434.238 111.303 434.241 112.198 434.219 113.332L436.619 113.378ZM434.219 90.6741C434.241 91.8076 434.238 92.7026 434.563 93.4866L436.78 92.5681C436.671 92.3044 436.644 91.9645 436.619 90.6282L434.219 90.6741ZM438.038 94.0537C437.111 93.0908 436.889 92.8318 436.78 92.5681L434.563 93.4866C434.887 94.2705 435.522 94.9013 436.308 95.7181L438.038 94.0537ZM420.29 79.6999C421.107 80.4861 421.738 81.121 422.522 81.4458L423.44 79.2285C423.177 79.1193 422.918 78.8977 421.955 77.9708L420.29 79.6999ZM425.38 79.3898C424.044 79.3642 423.704 79.3377 423.44 79.2285L422.522 81.4458C423.306 81.7705 424.201 81.7677 425.334 81.7893L425.38 79.3898ZM402.674 81.7893C403.808 81.7677 404.703 81.7705 405.487 81.4458L404.569 79.2285C404.305 79.3377 403.965 79.3642 402.629 79.3898L402.674 81.7893ZM406.054 77.9708C405.091 78.8977 404.832 79.1193 404.569 79.2285L405.487 81.4458C406.271 81.121 406.902 80.4861 407.719 79.6999L406.054 77.9708ZM391.699 95.7195C392.485 94.9027 393.12 94.2719 393.445 93.4879L391.228 92.5694C391.118 92.8331 390.897 93.0922 389.97 94.0552L391.699 95.7195ZM391.389 90.6296C391.363 91.9659 391.337 92.3058 391.228 92.5694L393.445 93.4879C393.77 92.7039 393.767 91.8089 393.788 90.6755L391.389 90.6296ZM393.788 113.33C393.767 112.197 393.77 111.302 393.445 110.518L391.228 111.436C391.337 111.7 391.363 112.04 391.389 113.376L393.788 113.33ZM389.97 109.951C390.897 110.914 391.118 111.173 391.228 111.436L393.445 110.518C393.12 109.734 392.485 109.103 391.699 108.286L389.97 109.951ZM402.632 124.62C403.968 124.645 404.308 124.672 404.572 124.781L405.49 122.563C404.706 122.239 403.811 122.242 402.678 122.22L402.632 124.62ZM407.722 124.309C406.905 123.523 406.274 122.888 405.49 122.563L404.572 124.781C404.836 124.89 405.095 125.112 406.058 126.038L407.722 124.309Z" fill="#3C5D87"/><circle cx="414.001" cy="102" r="17.8565" fill="white"/><circle cx="414.001" cy="102" r="17.8565" fill="#FFC800" fill-opacity="0.4"/><circle cx="414.001" cy="102" r="17.8565" stroke="white" stroke-width="2.4"/><path fill-rule="evenodd" clip-rule="evenodd" d="M422.735 94.8858C422.04 94.2379 420.947 94.2937 420.322 95.009L411.258 105.379L408.15 102.037C407.51 101.348 406.419 101.347 405.778 102.035C405.138 102.721 405.212 103.804 405.939 104.397L410.414 108.044C410.94 108.474 411.707 108.434 412.186 107.952L422.78 97.3016C423.45 96.6281 423.43 95.5337 422.735 94.8858Z" fill="#3C5D87"/><path opacity="0.16" d="M438.925 106.681C439.112 118.643 429.566 128.492 417.604 128.678" stroke="#3C5D87" stroke-width="8" stroke-linecap="round"/></svg>