<svg width="624" height="373" viewBox="0 0 624 373" fill="none" xmlns="http://www.w3.org/2000/svg"><rect opacity="0.07" x="246.766" y="33.5625" width="255.604" height="255.604" rx="61.1279" transform="rotate(-10.0936 246.766 33.5625)" fill="#FF9600"/><rect opacity="0.07" x="92.5547" y="154.52" width="172.451" height="172.451" rx="41.2417" transform="rotate(10.6607 92.5547 154.52)" fill="#FF9600"/><rect opacity="0.07" x="123.015" y="24.3633" width="40.6927" height="40.6927" rx="9.73169" transform="rotate(34.4774 123.015 24.3633)" fill="#FF9600"/><rect opacity="0.07" x="409.234" y="346.961" width="25.9681" height="25.9681" rx="6.21029" transform="rotate(-3.81082 409.234 346.961)" fill="#FF9600"/><rect opacity="0.07" x="467.848" y="331.387" width="15.9681" height="15.9681" rx="5" transform="rotate(-29.5487 467.848 331.387)" fill="#FF9600"/><rect x="483.589" y="230.266" width="50.7216" height="68.0412" rx="6" fill="#FFD9AB"/><path d="M532.605 238.98V290.687" stroke="white" stroke-width="2" stroke-linecap="round"/><rect x="483.589" y="230.266" width="50.7216" height="68.0412" rx="6" stroke="#3C5D87" stroke-width="2" stroke-linecap="round" stroke-linejoin="round"/><circle cx="508.948" cy="272.946" r="19.5083" fill="#3C5D87" stroke="#3C5D87" stroke-width="2"/><circle cx="508.945" cy="272.948" r="17.5575" fill="white"/><circle cx="508.946" cy="272.95" r="15.6067" fill="#3C5D87"/><circle cx="508.945" cy="272.949" r="3.90167" fill="#FFE999"/><circle cx="508.948" cy="241.734" r="6.82791" fill="#3C5D87"/><circle cx="508.947" cy="234.905" r="0.975416" fill="#FFD9AB"/><circle cx="502.118" cy="241.733" r="0.975416" fill="#FFD9AB"/><circle cx="515.775" cy="241.733" r="0.975416" fill="#FFD9AB"/><circle cx="508.947" cy="248.561" r="0.975416" fill="#FFD9AB"/><circle cx="508.944" cy="241.736" r="4.87708" fill="#3C5D87"/><circle cx="508.947" cy="241.732" r="1.95083" fill="#FFD9AB"/><ellipse cx="170.883" cy="227.205" rx="7.01736" ry="9.45204" transform="rotate(-10.3 170.883 227.205)" fill="#FFE999" stroke="#3C5D87" stroke-width="2" stroke-linecap="round" stroke-linejoin="round"/><path d="M162.859 257.426L176.781 270.768" stroke="#3C5D87" stroke-width="2" stroke-linecap="round"/><path d="M172.205 235.27L179.042 271.087" stroke="#3C5D87" stroke-width="2" stroke-linecap="round"/><path d="M187.438 250.504L180.265 271.088" stroke="#3C5D87" stroke-width="2" stroke-linecap="round"/><path d="M194.016 264.008L182.966 270.833" stroke="#3C5D87" stroke-width="2" stroke-linecap="round"/><circle cx="198.172" cy="261.927" r="5.19301" fill="white" stroke="#3C5D87" stroke-width="2" stroke-linecap="round" stroke-linejoin="round"/><circle cx="161.475" cy="255.697" r="5.19301" fill="white" stroke="#3C5D87" stroke-width="2" stroke-linecap="round" stroke-linejoin="round"/><circle cx="189.169" cy="247.388" r="5.19301" fill="white" stroke="#3C5D87" stroke-width="2" stroke-linecap="round" stroke-linejoin="round"/><ellipse cx="165.541" cy="235.937" rx="5.53921" ry="8.30882" transform="rotate(-44.9853 165.541 235.937)" fill="#FFE999" stroke="#3C5D87" stroke-width="2" stroke-linecap="round" stroke-linejoin="round"/><ellipse cx="178.583" cy="233.631" rx="5.53921" ry="8.30882" transform="rotate(25.679 178.583 233.631)" fill="#FFE999" stroke="#3C5D87" stroke-width="2" stroke-linecap="round" stroke-linejoin="round"/><rect opacity="0.2" width="22.268" height="27.2165" rx="4" transform="matrix(-1 0 0 1 190.995 271.09)" fill="#3C5D87"/><line x1="188.283" y1="275.801" x2="187.046" y2="292.357" stroke="white" stroke-width="2" stroke-linecap="round"/><rect width="22.268" height="27.2165" rx="4" transform="matrix(-1 0 0 1 190.995 271.09)" stroke="#3C5D87" stroke-width="2" stroke-linecap="round" stroke-linejoin="round"/><path d="M100.083 269.853C100.083 254.822 112.268 242.637 127.299 242.637C142.331 242.637 154.516 254.822 154.516 269.853V295.156C154.516 296.896 153.105 298.307 151.365 298.307H103.234C101.494 298.307 100.083 296.896 100.083 295.156V269.853Z" fill="#FFE999"/><path d="M152.042 267.379C152.042 256.022 141.316 245.111 128.536 245.111" stroke="white" stroke-width="2" stroke-linecap="round"/><path d="M100.083 269.853C100.083 254.822 112.268 242.637 127.299 242.637V242.637C142.331 242.637 154.516 254.822 154.516 269.853V294.183C154.516 296.461 152.67 298.307 150.392 298.307H104.207C101.929 298.307 100.083 296.461 100.083 294.183V269.853Z" stroke="#3C5D87" stroke-width="2" stroke-linecap="round" stroke-linejoin="round"/><circle cx="127.299" cy="269.852" r="19.7938" fill="white"/><path opacity="0.3" d="M110.627 271.09C110.627 278.449 116.514 288.26 128.043 288.26" stroke="#FFD9AB" stroke-width="3" stroke-linecap="round"/><circle cx="127.299" cy="269.852" r="19.7938" stroke="#3C5D87" stroke-width="2" stroke-linecap="round" stroke-linejoin="round"/><circle cx="127.299" cy="269.854" r="13.6082" stroke="#FFD9AB" stroke-width="3" stroke-linecap="round" stroke-linejoin="round" stroke-dasharray="0.1 20"/><path d="M127.301 269.852L122.651 282.607" stroke="#FFD9AB" stroke-width="2" stroke-linecap="round"/><circle cx="127.299" cy="269.853" r="2.47423" fill="#3C5D87"/><path d="M117.04 261.344C116.557 260.86 116.557 260.077 117.04 259.594C117.523 259.111 118.307 259.111 118.79 259.594L128.413 269.217L126.663 270.967L117.04 261.344Z" fill="#3C5D87"/><path d="M133.684 264.34C134.257 263.969 135.023 264.133 135.394 264.706C135.766 265.28 135.602 266.046 135.029 266.417L128.222 270.825L126.877 268.748L133.684 264.34Z" fill="#3C5D87"/><path d="M305.143 147.367C305.315 145.962 306.507 144.906 307.923 144.906H340.077C341.493 144.906 342.686 145.962 342.857 147.367L360.731 293.932C360.934 295.601 359.632 297.071 357.951 297.071H290.049C288.368 297.071 287.066 295.601 287.269 293.932L305.143 147.367Z" fill="white" stroke="#3C5D87" stroke-width="2"/><path d="M84 298.309L564 298.309" stroke="#3C5D87" stroke-width="2" stroke-linecap="round"/><rect x="182.969" y="94.1836" width="282.062" height="163.299" rx="6" fill="white" stroke="#3C5D87" stroke-width="2"/><rect opacity="0.15" x="239.876" y="252.535" width="207.835" height="9.89691" rx="3" fill="#3C5D87"/><rect x="195.34" y="106.555" width="257.32" height="138.557" rx="2.8" fill="#FFD9AB"/><mask id="mask0_1016_200544" style="mask-type:alpha" maskUnits="userSpaceOnUse" x="195" y="106" width="258" height="140"><rect x="195.341" y="106.555" width="257.32" height="138.557" rx="2.8" fill="#FFD9AB"/></mask><g mask="url(#mask0_1016_200544)"><path d="M214.897 62.3729C218.51 63.506 222.559 64.6109 224.865 67.6022C227.246 70.6901 226.267 75.1957 227.602 78.8539C228.659 81.7488 230.466 84.2258 231.923 86.9429C233.754 90.3567 237.723 93.2354 237.382 97.0901C237.051 100.833 232.813 102.962 230.263 105.732C228.043 108.143 225.549 110.169 223.218 112.474C220.661 115.003 218.977 118.557 215.727 120.108C212.457 121.67 208.603 121.517 204.992 121.175C201.412 120.836 197.845 119.935 194.746 118.12C191.72 116.348 189.828 113.257 187.311 110.82C184.716 108.308 180.844 106.761 179.543 103.398C178.237 100.026 180.52 96.2806 180.285 92.6741C180.039 88.9034 177.482 85.3666 178.124 81.6423C178.768 77.9075 181.375 74.7949 183.86 71.9242C186.352 69.0457 189.364 66.6837 192.69 64.8174C196.058 62.9266 199.656 61.3248 203.5 60.9016C207.34 60.4789 211.212 61.2171 214.897 62.3729Z" fill="#3C5D87"/><path d="M342.739 144.934C345.556 145.235 347.163 148.387 349.523 149.966C351.484 151.278 353.783 151.979 355.573 153.519C357.394 155.086 358.664 157.128 360.095 159.062C361.724 161.266 364.074 163.133 364.666 165.815C365.256 168.489 364.066 171.211 363.361 173.857C362.645 176.541 362.279 179.5 360.459 181.59C358.641 183.677 355.715 184.286 353.23 185.49C350.903 186.618 348.617 187.712 346.162 188.52C343.486 189.401 340.73 191.269 338.021 190.496C335.255 189.707 333.807 186.647 331.928 184.457C330.358 182.628 329.308 180.472 327.803 178.589C326.241 176.636 324.057 175.245 322.822 173.067C321.476 170.693 320.203 168.078 320.294 165.346C320.385 162.607 321.457 159.779 323.331 157.79C325.208 155.796 328.52 155.999 330.68 154.319C332.666 152.774 333.355 149.993 335.341 148.447C337.517 146.754 340.004 144.641 342.739 144.934Z" fill="#3C5D87"/><path d="M227.784 202.864C229.807 202.841 231.868 201.247 233.747 202.027C235.549 202.776 236.043 205.223 237.258 206.799C238.472 208.373 240.446 209.45 240.97 211.394C241.496 213.345 240.431 215.357 240.103 217.355C239.801 219.199 239.912 221.153 239.096 222.82C238.287 224.475 236.6 225.414 235.46 226.843C234.207 228.415 233.758 230.845 231.99 231.732C230.241 232.609 228.157 231.325 226.221 231.478C224.198 231.639 222.278 233.096 220.293 232.659C218.322 232.224 216.694 230.678 215.38 229.088C214.112 227.555 213.743 225.475 212.862 223.671C211.997 221.901 210.244 220.447 210.187 218.461C210.13 216.444 211.68 214.788 212.558 212.989C213.311 211.446 214.253 210.062 215.03 208.533C215.898 206.828 215.996 204.575 217.448 203.376C218.88 202.193 220.93 202.242 222.756 202.151C224.46 202.067 226.078 202.883 227.784 202.864Z" fill="#3C5D87"/><path d="M479.185 148.903C480.99 151.767 478.829 155.547 478.563 158.905C478.315 162.026 478.711 165.231 477.656 168.17C476.6 171.112 474.398 173.415 472.475 175.872C470.48 178.421 469.13 182.074 466.031 183.022C462.775 184.018 459.469 180.515 456.078 180.889C452.654 181.267 450.107 186.107 446.784 185.146C443.436 184.178 443.819 178.549 440.973 176.52C438.069 174.449 433.275 176.267 430.768 173.726C428.43 171.357 429.398 167.314 428.686 164.07C427.967 160.794 425.34 157.456 426.513 154.334C427.766 150.997 432.816 150.722 434.807 147.773C436.657 145.033 435.037 140.591 437.37 138.251C439.618 135.995 443.579 137.034 446.581 135.958C449.748 134.823 452.295 131.183 455.634 131.706C459.066 132.244 460.828 136.234 463.398 138.595C465.452 140.482 467.052 142.816 469.386 144.34C472.432 146.329 477.245 145.823 479.185 148.903Z" fill="#3C5D87"/><path d="M399.223 195.916C405.617 195.349 411.752 190.628 417.964 192.253C423.925 193.812 427.925 199.542 431.725 204.416C435.467 209.217 438.164 214.724 440.012 220.535C441.84 226.283 443.398 232.343 442.503 238.311C441.625 244.171 437.178 248.732 434.961 254.222C432.707 259.803 432.834 266.377 429.227 271.187C425.57 276.065 420.274 279.954 414.427 281.611C408.637 283.251 402.546 281.157 396.573 280.441C391.262 279.805 386.226 278.263 380.919 277.596C374.655 276.809 367.512 279.549 362.197 276.122C357.025 272.787 354.977 265.945 353.537 259.939C352.183 254.298 355.167 248.407 354.178 242.69C353.164 236.826 346.254 231.997 347.705 226.227C349.174 220.386 357.325 219.132 361.249 214.579C364.679 210.6 365.307 204.576 369.3 201.169C373.329 197.732 378.675 196.185 383.879 195.272C388.966 194.379 394.08 196.371 399.223 195.916Z" fill="#3C5D87"/><path d="M278.764 98.085C283.685 98.6257 288.807 98.2997 293.26 100.479C297.737 102.67 300.916 106.714 304.162 110.516C307.471 114.391 311.52 118.097 312.573 123.098C313.623 128.081 311.644 133.181 309.946 137.979C308.405 142.331 305.206 145.724 303.112 149.834C300.795 154.383 301.251 161.055 296.874 163.643C292.431 166.271 286.743 161.941 281.625 162.542C276.758 163.113 272.608 167.976 267.793 167.056C263.038 166.147 260.699 160.626 256.761 157.79C252.57 154.772 246.597 154.045 243.734 149.729C240.88 145.426 240.869 139.714 241.352 134.561C241.812 129.66 244.916 125.56 246.441 120.883C248.04 115.975 247.609 110.328 250.615 106.143C253.696 101.852 258.386 98.6509 263.443 97.2034C268.418 95.7793 273.622 97.5202 278.764 98.085Z" fill="#3C5D87"/><path d="M303.573 194.441C308.092 194.258 312.855 194.48 316.801 196.714C320.793 198.973 323.843 202.818 325.778 207.009C327.645 211.053 327.903 215.668 327.609 220.122C327.343 224.173 324.999 227.682 324.155 231.652C323.259 235.863 324.855 240.755 322.461 244.319C320.086 247.854 315.243 248.497 311.503 250.488C307.698 252.515 304.376 256.048 300.08 256.238C295.783 256.428 292.129 253.294 288.203 251.52C284.421 249.812 280.598 248.358 277.233 245.915C273.516 243.217 268.744 240.859 267.418 236.432C266.076 231.954 269.262 227.416 270.327 222.862C271.244 218.938 271.39 214.822 273.298 211.281C275.191 207.766 278.065 204.91 281.266 202.556C284.401 200.251 288.081 199.054 291.729 197.727C295.624 196.31 299.437 194.608 303.573 194.441Z" fill="#3C5D87"/><path d="M397.502 90.9343C401.005 91.3533 404.534 92.2282 407.443 94.2358C410.267 96.1843 412.29 99.1113 413.817 102.193C415.225 105.033 415.224 108.273 415.934 111.365C416.635 114.423 418.204 117.31 418.003 120.442C417.796 123.678 416.659 126.869 414.772 129.498C412.898 132.107 409.795 133.376 407.284 135.372C404.495 137.59 402.449 140.964 399.046 142C395.597 143.049 391.895 141.96 388.39 141.121C384.781 140.256 381.033 139.375 378.173 137C375.303 134.617 373.44 131.193 372.19 127.669C370.99 124.289 370.88 120.657 371.105 117.075C371.318 113.665 371.644 110.101 373.471 107.22C375.242 104.426 379.021 103.678 381.185 101.18C383.605 98.3847 383.723 93.736 386.849 91.7729C389.904 89.8552 393.926 90.5066 397.502 90.9343Z" fill="#3C5D87"/><path d="M194.71 152.867C198.296 152.314 202.768 151.597 205.406 154.09C208.249 156.775 206.528 161.777 207.983 165.408C209.085 168.157 211.933 169.902 212.867 172.713C213.845 175.652 214.292 178.9 213.464 181.885C212.641 184.851 209.859 186.756 208.246 189.376C206.465 192.27 205.99 196.013 203.409 198.221C200.759 200.487 197.194 201.743 193.709 201.81C190.261 201.876 186.815 200.58 183.995 198.594C181.36 196.737 180.21 193.505 178.267 190.932C176.6 188.723 174.716 186.775 173.285 184.406C171.701 181.787 169.528 179.268 169.37 176.21C169.212 173.141 171.117 170.4 172.419 167.616C173.724 164.826 174.65 161.65 177.072 159.747C179.483 157.853 182.925 158.234 185.781 157.12C188.886 155.909 191.417 153.376 194.71 152.867Z" fill="#3C5D87"/><path d="M338.943 114.741C340.268 115.07 341.762 114.302 342.991 114.907C344.224 115.514 344.531 117.29 345.677 118.057C347.149 119.042 349.446 118.563 350.554 119.968C351.568 121.254 351.14 123.219 351.053 124.876C350.971 126.458 350.833 128.109 350.055 129.475C349.296 130.808 347.772 131.419 346.709 132.508C345.74 133.502 345.243 135.019 344.026 135.658C342.808 136.296 341.345 135.988 339.98 136.036C338.71 136.081 337.472 135.962 336.202 135.932C334.709 135.897 332.991 136.718 331.762 135.842C330.529 134.963 330.818 132.925 330.086 131.574C329.423 130.348 328.231 129.511 327.648 128.242C327.018 126.873 326.231 125.358 326.546 123.877C326.867 122.373 328.689 121.704 329.335 120.316C330.023 118.835 329.524 116.918 330.416 115.559C331.311 114.197 332.713 112.905 334.299 112.753C335.982 112.591 337.3 114.334 338.943 114.741Z" fill="#3C5D87"/><path d="M244.493 169.75C245.176 170.931 246.765 171.474 247.183 172.779C247.602 174.088 246.536 175.541 246.78 176.899C247.093 178.642 249.032 179.962 248.79 181.735C248.568 183.358 246.856 184.415 245.604 185.502C244.407 186.541 243.123 187.587 241.6 187.976C240.114 188.355 238.616 187.681 237.094 187.673C235.706 187.665 234.269 188.361 232.964 187.927C231.659 187.494 230.865 186.227 229.883 185.278C228.97 184.394 228.196 183.421 227.336 182.486C226.325 181.387 224.541 180.72 224.319 179.227C224.095 177.729 225.763 176.523 226.228 175.058C226.65 173.73 226.425 172.291 226.934 170.99C227.482 169.586 228.026 167.969 229.311 167.168C230.617 166.354 232.363 167.201 233.81 166.703C235.354 166.171 236.387 164.481 237.985 164.179C239.587 163.877 241.49 163.991 242.701 165.027C243.985 166.126 243.645 168.284 244.493 169.75Z" fill="#3C5D87"/><path d="M394.65 163.624C395.915 163.112 396.674 161.614 398.025 161.382C399.379 161.15 400.67 162.408 402.048 162.356C403.818 162.289 405.396 160.553 407.118 161.04C408.693 161.486 409.501 163.328 410.403 164.72C411.265 166.05 412.122 167.468 412.294 169.029C412.463 170.554 411.587 171.944 411.366 173.449C411.165 174.822 411.653 176.343 411.042 177.574C410.431 178.806 409.066 179.415 407.989 180.255C406.987 181.037 405.915 181.667 404.869 182.389C403.64 183.236 402.731 184.91 401.221 184.922C399.707 184.934 398.745 183.115 397.36 182.45C396.103 181.847 394.647 181.869 393.43 181.184C392.116 180.445 390.59 179.681 389.976 178.297C389.352 176.891 390.435 175.28 390.143 173.777C389.831 172.174 388.302 170.915 388.226 169.291C388.151 167.663 388.528 165.794 389.723 164.74C390.99 163.621 393.08 164.259 394.65 163.624Z" fill="#3C5D87"/></g><rect x="195.34" y="106.555" width="257.32" height="138.557" rx="2.8" stroke="#3C5D87" stroke-width="2"/><path d="M225.031 124.198C225.031 122.652 226.285 121.398 227.831 121.398H420.169C421.715 121.398 422.969 122.652 422.969 124.198V227.464C422.969 229.011 421.715 230.264 420.169 230.264H227.831C226.285 230.264 225.031 229.011 225.031 227.464V124.198Z" fill="white" stroke="#3C5D87" stroke-width="2"/><rect opacity="0.15" x="229.979" y="225.316" width="188.041" height="9.89691" rx="3" fill="#3C5D87"/><circle cx="273.277" cy="148.615" r="6.18557" fill="#3C5D87" stroke="#3C5D87" stroke-width="2"/><path d="M289.36 144.902H379.669" stroke="#FFD9AB" stroke-width="2" stroke-linecap="round" stroke-linejoin="round"/><path d="M289.36 152.328H379.669" stroke="#FFD9AB" stroke-width="2" stroke-linecap="round" stroke-linejoin="round"/><circle cx="273.277" cy="175.834" r="6.18557" fill="white" stroke="#3C5D87" stroke-width="2"/><path d="M289.36 172.121H379.669" stroke="#FFD9AB" stroke-width="2" stroke-linecap="round" stroke-linejoin="round"/><path d="M289.36 179.547H379.669" stroke="#FFD9AB" stroke-width="2" stroke-linecap="round" stroke-linejoin="round"/><circle cx="273.277" cy="203.049" r="6.18557" fill="white" stroke="#3C5D87" stroke-width="2"/><path d="M289.36 199.336H379.669" stroke="#FFD9AB" stroke-width="2" stroke-linecap="round" stroke-linejoin="round"/><path d="M289.36 206.762H379.669" stroke="#FFD9AB" stroke-width="2" stroke-linecap="round" stroke-linejoin="round"/><path d="M299.258 91.8648C299.258 89.0465 301.542 86.7617 304.361 86.7617H343.639C346.457 86.7617 348.742 89.0465 348.742 91.8648C348.742 93.1459 347.704 94.1844 346.423 94.1844H301.577C300.296 94.1844 299.258 93.1459 299.258 91.8648Z" fill="white" stroke="#3C5D87" stroke-width="2"/><path d="M339.464 90.4727H342.557" stroke="#FFD9AB" stroke-width="2" stroke-linecap="round"/><path d="M309.155 71.9157C309.155 63.7168 315.801 57.0703 324 57.0703C332.199 57.0703 338.845 63.7168 338.845 71.9157C338.845 80.1145 332.199 86.761 324 86.761C315.801 86.761 309.155 80.1145 309.155 71.9157Z" fill="#FFD9AB" stroke="#3C5D87" stroke-width="2"/><path d="M316.577 71.9149C316.577 67.8154 319.901 64.4922 324 64.4922C328.099 64.4922 331.423 67.8154 331.423 71.9149C331.423 76.0143 328.099 79.3375 324 79.3375C319.901 79.3375 316.577 76.0143 316.577 71.9149Z" fill="#3C5D87" stroke="#3C5D87" stroke-width="2"/><path d="M319.052 70.0615C319.052 68.3534 320.436 66.9688 322.144 66.9688C323.852 66.9688 325.237 68.3534 325.237 70.0615C325.237 71.7696 323.852 73.1543 322.144 73.1543C320.436 73.1543 319.052 71.7696 319.052 70.0615Z" fill="white"/><path d="M420.495 296.243C420.495 293.16 420.495 291.619 420.972 290.394C421.683 288.567 423.128 287.122 424.955 286.411C426.18 285.934 427.722 285.934 430.804 285.934H439.876C442.959 285.934 444.5 285.934 445.725 286.411C447.552 287.122 448.997 288.567 449.709 290.394C450.186 291.619 450.186 293.16 450.186 296.243C450.186 296.859 450.186 297.168 450.09 297.413C449.948 297.778 449.659 298.067 449.294 298.209C449.049 298.305 448.74 298.305 448.124 298.305H422.557C421.94 298.305 421.632 298.305 421.387 298.209C421.022 298.067 420.733 297.778 420.59 297.413C420.495 297.168 420.495 296.859 420.495 296.243Z" fill="white" stroke="#3C5D87" stroke-width="2"/><path d="M247.297 295.741C247.297 292.616 247.297 291.053 248.123 289.977C248.336 289.698 248.585 289.449 248.864 289.236C249.94 288.41 251.503 288.41 254.628 288.41H393.368C396.493 288.41 398.056 288.41 399.133 289.236C399.411 289.449 399.66 289.698 399.874 289.977C400.699 291.053 400.699 292.616 400.699 295.741C400.699 296.835 400.699 297.382 400.41 297.759C400.336 297.856 400.248 297.943 400.151 298.018C399.774 298.307 399.227 298.307 398.133 298.307H249.863C248.769 298.307 248.222 298.307 247.845 298.018C247.748 297.943 247.661 297.856 247.586 297.759C247.297 297.382 247.297 296.835 247.297 295.741Z" fill="white" stroke="#3C5D87" stroke-width="2"/><rect opacity="0.15" x="255.957" y="293.355" width="96.4948" height="8.65979" rx="3" fill="#3C5D87"/><path d="M257.195 286.85C257.195 286.344 257.605 285.934 258.111 285.934H262.464C262.97 285.934 263.38 286.344 263.38 286.85C263.38 287.027 263.237 287.171 263.059 287.171H257.515C257.338 287.171 257.195 287.027 257.195 286.85Z" fill="#3C5D87" stroke="#3C5D87" stroke-width="2"/><path d="M267.091 286.85C267.091 286.344 267.502 285.934 268.008 285.934H272.361C272.867 285.934 273.277 286.344 273.277 286.85C273.277 287.027 273.133 287.171 272.956 287.171H267.412C267.235 287.171 267.091 287.027 267.091 286.85Z" fill="#3C5D87" stroke="#3C5D87" stroke-width="2"/><path d="M276.988 286.85C276.988 286.344 277.399 285.934 277.905 285.934H282.258C282.764 285.934 283.174 286.344 283.174 286.85C283.174 287.027 283.03 287.171 282.853 287.171H277.309C277.132 287.171 276.988 287.027 276.988 286.85Z" fill="#3C5D87" stroke="#3C5D87" stroke-width="2"/><path d="M286.885 286.85C286.885 286.344 287.296 285.934 287.802 285.934H292.155C292.661 285.934 293.071 286.344 293.071 286.85C293.071 287.027 292.927 287.171 292.75 287.171H287.206C287.029 287.171 286.885 287.027 286.885 286.85Z" fill="#3C5D87" stroke="#3C5D87" stroke-width="2"/><path d="M296.782 286.85C296.782 286.344 297.193 285.934 297.699 285.934H350.299C350.805 285.934 351.215 286.344 351.215 286.85C351.215 287.027 351.072 287.171 350.894 287.171H297.103C296.926 287.171 296.782 287.027 296.782 286.85Z" fill="#3C5D87" stroke="#3C5D87" stroke-width="2"/><path d="M354.927 286.85C354.927 286.344 355.337 285.934 355.843 285.934H360.196C360.702 285.934 361.112 286.344 361.112 286.85C361.112 287.027 360.968 287.171 360.791 287.171H355.247C355.07 287.171 354.927 287.027 354.927 286.85Z" fill="#3C5D87" stroke="#3C5D87" stroke-width="2"/><path d="M364.823 286.85C364.823 286.344 365.234 285.934 365.74 285.934H370.093C370.599 285.934 371.009 286.344 371.009 286.85C371.009 287.027 370.865 287.171 370.688 287.171H365.144C364.967 287.171 364.823 287.027 364.823 286.85Z" fill="#3C5D87" stroke="#3C5D87" stroke-width="2"/><path d="M374.72 286.85C374.72 286.344 375.131 285.934 375.637 285.934H379.99C380.496 285.934 380.906 286.344 380.906 286.85C380.906 287.027 380.762 287.171 380.585 287.171H375.041C374.864 287.171 374.72 287.027 374.72 286.85Z" fill="#3C5D87" stroke="#3C5D87" stroke-width="2"/><path d="M384.617 286.85C384.617 286.344 385.028 285.934 385.534 285.934H389.886C390.393 285.934 390.803 286.344 390.803 286.85C390.803 287.027 390.659 287.171 390.482 287.171H384.938C384.761 287.171 384.617 287.027 384.617 286.85Z" fill="#3C5D87" stroke="#3C5D87" stroke-width="2"/></svg>