<svg width="400" height="208" viewBox="0 0 400 208" fill="none" xmlns="http://www.w3.org/2000/svg">
<rect y="40" width="399.997" height="128" rx="12" fill="white"/>
<rect y="40" width="399.997" height="128" rx="12" fill="#FFD9AB" fill-opacity="0.25"/>
<g clip-path="url(#clip0_5873_121499)">
<path opacity="0.3" d="M301 70.5C301 68.0147 303.015 66 305.5 66H424.5C426.985 66 429 68.0147 429 70.5C429 72.9853 426.985 75 424.5 75H305.5C303.015 75 301 72.9853 301 70.5Z" fill="#FFD9AB"/>
<path opacity="0.3" d="M361 40C361 39.4477 361.448 39 362 39H406C406.552 39 407 39.4477 407 40V65C407 65.5523 406.552 66 406 66H362C361.448 66 361 65.5523 361 65V40Z" fill="#FFD9AB"/>
<path opacity="0.3" d="M353.01 35.5662C353.261 35.0744 353.863 34.8796 354.355 35.131L360.588 38.3176C361.08 38.569 361.274 39.1715 361.023 39.6632L347.513 66.0869C347.262 66.5786 346.659 66.7734 346.168 66.522L339.935 63.3354C339.443 63.084 339.248 62.4816 339.5 61.9898L353.01 35.5662Z" fill="#FFD9AB"/>
<path opacity="0.3" d="M302 151C302 142.515 302 138.272 304.636 135.636C307.272 133 311.515 133 320 133H405C413.485 133 417.728 133 420.364 135.636C423 138.272 423 142.515 423 151V158C423 166.485 423 170.728 420.364 173.364C417.728 176 413.485 176 405 176H320C311.515 176 307.272 176 304.636 173.364C302 170.728 302 166.485 302 158V151Z" fill="#FFD9AB"/>
<path opacity="0.3" d="M-65 109C-65 100.515 -65 96.2721 -62.364 93.636C-59.7279 91 -55.4853 91 -47 91H-2C6.48528 91 10.7279 91 13.364 93.636C16 96.2721 16 100.515 16 109V166C16 174.485 16 178.728 13.364 181.364C10.7279 184 6.48528 184 -2 184H-47C-55.4853 184 -59.7279 184 -62.364 181.364C-65 178.728 -65 174.485 -65 166V109Z" fill="#FFD9AB"/>
<g opacity="0.3">
<path d="M44 72V22H118V72H44Z" fill="#FFD9AB" stroke="white" stroke-width="10"/>
<path d="M39 21C39 18.7909 40.7909 17 43 17H119C121.209 17 123 18.7909 123 21V73C123 75.2091 121.209 77 119 77H43C40.7909 77 39 75.2091 39 73V21Z" stroke="#FFD9AB" stroke-width="3"/>
</g>
</g>
<g opacity="0.7">
<path d="M42.7207 147.181L63.251 165.145" stroke="#FFD9AB" stroke-width="2" stroke-linecap="round"/>
<path d="M58.7598 151.672L73.8367 164.503" stroke="#FFD9AB" stroke-width="2" stroke-linecap="round"/>
<path d="M58.1182 121.518L75.1198 166.748" stroke="#FFD9AB" stroke-width="2" stroke-linecap="round"/>
<path d="M84.1017 149.105L76.4028 168.673" stroke="#FFD9AB" stroke-width="2" stroke-linecap="round"/>
<path d="M104.953 153.917L85.3848 165.465" stroke="#FFD9AB" stroke-width="2" stroke-linecap="round"/>
<path d="M92.1214 126.972L68.7041 166.428" stroke="#FFD9AB" stroke-width="2" stroke-linecap="round"/>
<ellipse cx="100.203" cy="128.454" rx="23.6462" ry="7.76309" transform="rotate(35.2069 100.203 128.454)" fill="#FFD9AB" stroke="#FFD9AB" stroke-width="2" stroke-linecap="round" stroke-linejoin="round"/>
<ellipse cx="36.7558" cy="144.534" rx="18.8095" ry="8.34001" transform="rotate(-40.1396 36.7558 144.534)" fill="#FFD9AB" stroke="#FFD9AB" stroke-width="2" stroke-linecap="round" stroke-linejoin="round"/>
<ellipse cx="57.1057" cy="149.359" rx="6.87225" ry="6.06061" transform="rotate(-46.3634 57.1057 149.359)" fill="#FFD9AB" stroke="#FFD9AB" stroke-width="2" stroke-linecap="round" stroke-linejoin="round"/>
<ellipse cx="87.7788" cy="146.071" rx="10.4219" ry="6.59426" transform="rotate(24.1977 87.7788 146.071)" fill="#FFD9AB" stroke="#FFD9AB" stroke-width="2" stroke-linecap="round" stroke-linejoin="round"/>
<ellipse cx="109.244" cy="154.862" rx="10.1826" ry="5.67497" transform="rotate(52.4194 109.244 154.862)" fill="#FFD9AB" stroke="#FFD9AB" stroke-width="2" stroke-linecap="round" stroke-linejoin="round"/>
<ellipse cx="55.8855" cy="117.71" rx="14.579" ry="13.2018" transform="rotate(68.697 55.8855 117.71)" fill="#FFD9AB" stroke="#FFD9AB" stroke-width="2" stroke-linecap="round" stroke-linejoin="round"/>
<rect width="46.8346" height="28.8707" rx="4" transform="matrix(-1 0 0 1 97.1963 164.13)" fill="#FFD9AB" stroke="#FFD9AB" stroke-width="2" stroke-linecap="round" stroke-linejoin="round"/>
</g>
<path d="M45 195L355 195" stroke="#083156" stroke-width="2" stroke-linecap="round"/>
<rect x="269.998" y="177.049" width="8.82966" height="16.6164" rx="2.07936" fill="#083156" stroke="#083156" stroke-width="1.84127"/>
<rect x="124.234" y="177.049" width="8.82966" height="16.6164" rx="2.07936" fill="#083156" stroke="#083156" stroke-width="1.84127"/>
<rect x="107.38" y="124.204" width="40.2608" height="57.2517" rx="10.5873" fill="#FFD9AB" stroke="#083156" stroke-width="1.84127"/>
<rect x="123.263" y="90.5918" width="164.737" height="90.8639" rx="9.45984" fill="#FFD9AB"/>
<path d="M146 92.4033H146.1H271.02C278.176 92.4033 281.754 92.4033 283.977 94.6264C286.2 96.8494 286.2 100.427 286.2 107.583V116.403" stroke="white" stroke-width="1.84127" stroke-linecap="round"/>
<path d="M123.263 109.511C123.263 100.593 123.263 96.1332 126.033 93.3625C128.804 90.5918 133.264 90.5918 142.182 90.5918H269.08C277.999 90.5918 282.458 90.5918 285.229 93.3625C288 96.1332 288 100.593 288 109.511V163.456C288 171.941 288 176.184 285.364 178.82C282.727 181.456 278.485 181.456 270 181.456H142.182C133.264 181.456 128.804 181.456 126.033 178.685C123.263 175.914 123.263 171.455 123.263 162.536V109.511Z" stroke="#083156" stroke-width="1.84127"/>
<path d="M118.675 167.604C118.675 164.57 118.675 163.052 118.984 161.802C119.926 157.985 122.907 155.004 126.724 154.062C127.974 153.753 129.491 153.753 132.526 153.753H268.705C273.088 153.753 275.279 153.753 277.034 154.392C279.974 155.462 282.29 157.778 283.36 160.718C283.999 162.473 283.999 164.664 283.999 169.047C283.999 172.602 283.999 174.38 283.481 175.804C282.612 178.189 280.733 180.069 278.348 180.937C276.924 181.455 275.146 181.455 271.591 181.455H132.526C129.491 181.455 127.974 181.455 126.724 181.146C122.907 180.204 119.926 177.223 118.984 173.406C118.675 172.156 118.675 170.639 118.675 167.604Z" fill="#FFD9AB" stroke="#083156" stroke-width="1.84127"/>
<path d="M213.556 130.846L223.084 118.102" stroke="#C29980" stroke-width="9.20637"/>
<path fill-rule="evenodd" clip-rule="evenodd" d="M218.677 127.847L231.404 127.065C235.474 126.946 240.408 127.911 244.247 131.6C248.326 135.521 249.368 140.799 248.542 145.269C247 153.607 255.09 153.121 247.419 154.955C237.549 157.315 220.533 157.205 208.36 155.895C207.204 155.771 206.053 156.176 205.264 157.03C202.284 160.252 199.084 164.09 194.451 170.039C193.201 171.644 190.89 171.948 189.277 170.708L177.237 161.446C175.625 160.206 175.324 157.891 176.573 156.286C183.144 147.844 187.449 142.826 192.393 137.882C197.185 133.089 203.068 132.346 207.598 132.872C217.37 134.008 219.043 140.291 218.677 127.847Z" fill="#083156"/>
<rect x="244.784" y="124.204" width="43.216" height="57.2517" rx="10.5873" fill="#FFD9AB"/>
<rect x="244.784" y="124.204" width="43.216" height="57.2517" rx="10.5873" fill="#FFD9AB"/>
<path d="M266 126.003H266.1H269.02C277.119 126.003 281.168 126.003 283.684 128.519C286.2 131.035 286.2 135.084 286.2 143.183V170.003" stroke="white" stroke-width="1.84127" stroke-linecap="round"/>
<path d="M244.784 145.379C244.784 135.397 244.784 130.406 247.885 127.305C250.986 124.204 255.977 124.204 265.959 124.204H266.826C276.807 124.204 281.798 124.204 284.899 127.305C288 130.406 288 135.397 288 145.379V165.456C288 172.998 288 176.769 285.657 179.113C283.314 181.456 279.543 181.456 272 181.456H265.959C255.977 181.456 250.986 181.456 247.885 178.355C244.784 175.254 244.784 170.263 244.784 160.281V145.379Z" stroke="#083156" stroke-width="1.84127"/>
<path d="M241.223 124.207H219.691V128.943H241.223V124.207Z" fill="white"/>
<path d="M220.903 152.039C221.465 147.089 217.062 142.526 211.071 141.846C205.079 141.167 199.767 144.629 199.206 149.579L195.657 180.883C195.457 182.651 196.728 184.247 198.496 184.448L213.79 186.181C215.559 186.382 217.155 185.111 217.355 183.343L220.903 152.039Z" fill="#083156"/>
<path d="M235.026 124.934H232.546V128.993H235.026V124.934Z" fill="#001836"/>
<path d="M225.193 124.917H222.644V130.015H225.193V124.917Z" fill="#001836"/>
<path d="M220.655 124.455H218.706L218.713 130.185H220.662L220.655 124.455Z" fill="#083156"/>
<path d="M241.62 124.455H239.671L239.677 130.185H241.626L241.62 124.455Z" fill="#001836"/>
<path d="M220.726 103.223H239.894V109.704C243.67 111.891 246.21 115.976 246.21 120.654C246.21 123.397 243.986 125.621 241.243 125.621H219.43C216.686 125.621 214.462 123.397 214.462 120.654C214.462 115.998 216.979 111.93 220.726 109.735V103.223Z" fill="#FFE999" stroke="#083156" stroke-width="1.84127"/>
<path d="M238.379 103.908L238.374 109.644C238.373 110.223 238.739 110.731 239.253 110.997C244.566 113.743 247.262 122.515 241.962 123.615" stroke="white" stroke-width="1.84127" stroke-linecap="round"/>
<path d="M220.726 103.223H239.894V109.704C243.67 111.891 246.21 115.976 246.21 120.654C246.21 123.397 243.986 125.621 241.243 125.621H219.43C216.686 125.621 214.462 123.397 214.462 120.654C214.462 115.998 216.979 111.93 220.726 109.735V103.223Z" stroke="#083156" stroke-width="1.84127"/>
<path fill-rule="evenodd" clip-rule="evenodd" d="M236.723 111.662C240.059 105.518 247.513 110.588 251.669 112.529C255.286 114.218 259.739 116.179 261.753 119.876C263.924 123.861 261.84 128.083 258.16 130.174C256.769 130.964 255.091 131.597 253.236 132.138C250.429 132.957 247.49 131.345 246.672 128.538C246.034 126.35 246.318 124.814 248.049 123.533C243.996 122.888 241.731 121.034 238.473 119.577C235.804 118.383 235.172 114.666 236.723 111.662ZM253.109 120.854C253.11 120.855 253.097 120.865 253.068 120.885C253.093 120.864 253.108 120.854 253.109 120.854Z" fill="#C29980" stroke="#083156" stroke-width="1.84127" stroke-linecap="round"/>
<path d="M170.752 162.112C169.202 161.117 167.139 161.566 166.144 163.116C165.148 164.665 165.598 166.729 167.147 167.724L175.741 173.244C177.291 174.24 179.354 173.791 180.349 172.241C181.345 170.691 180.895 168.628 179.346 167.633L170.752 162.112Z" fill="#FFE999" stroke="#083156" stroke-width="1.84127"/>
<path d="M200.209 188.03C198.367 188.03 196.874 189.523 196.874 191.364C196.874 193.206 198.367 194.699 200.209 194.699H210.423C212.265 194.699 213.758 193.206 213.758 191.364C213.758 189.523 212.265 188.03 210.423 188.03H200.209Z" fill="#FFE999" stroke="#083156" stroke-width="1.84127"/>
<path d="M212.243 132.199C211.48 132.199 210.862 132.818 210.862 133.58V136.373C210.862 137.136 211.48 137.754 212.243 137.754H230.017C230.78 137.754 231.398 137.136 231.398 136.373V133.58C231.398 132.818 230.78 132.199 230.017 132.199H212.243Z" fill="white"/>
<path d="M212.243 132.199C211.48 132.199 210.862 132.818 210.862 133.58V136.373C210.862 137.136 211.48 137.754 212.243 137.754H230.017C230.78 137.754 231.398 137.136 231.398 136.373V133.58C231.398 132.818 230.78 132.199 230.017 132.199H212.243Z" fill="#3C5D87" fill-opacity="0.3"/>
<path d="M212.243 132.199C211.48 132.199 210.862 132.818 210.862 133.58V136.373C210.862 137.136 211.48 137.754 212.243 137.754H230.017C230.78 137.754 231.398 137.136 231.398 136.373V133.58C231.398 132.818 230.78 132.199 230.017 132.199H212.243Z" stroke="#083156" stroke-width="1.84127"/>
<path fill-rule="evenodd" clip-rule="evenodd" d="M239.577 121.396C239.577 121.006 239.261 120.689 238.87 120.689H224.733C224.342 120.689 224.026 121.006 224.026 121.396V127.909C224.026 129.272 224.453 130.6 225.247 131.708C226.471 133.415 228.443 134.428 230.545 134.428H233.058C235.159 134.428 237.132 133.415 238.356 131.708C238.938 130.896 239.323 129.965 239.487 128.989C239.535 128.991 239.582 128.991 239.63 128.991C241.731 128.991 243.565 127.446 243.565 125.384C243.565 123.323 241.731 121.777 239.63 121.777C239.613 121.777 239.595 121.778 239.577 121.778V121.396ZM239.577 123.192C239.595 123.192 239.613 123.191 239.63 123.191C241.096 123.191 242.151 124.243 242.151 125.384C242.151 126.526 241.096 127.577 239.63 127.577C239.613 127.577 239.595 127.577 239.577 127.577V123.192Z" fill="white"/>
<path d="M240.426 120.922C240.222 120.256 239.602 119.772 238.87 119.772H224.732C223.833 119.772 223.105 120.5 223.105 121.399V127.912C223.105 129.467 223.592 130.983 224.498 132.247C225.895 134.196 228.146 135.352 230.544 135.352H233.058C235.456 135.352 237.707 134.196 239.104 132.247C239.621 131.526 240.001 130.724 240.233 129.878C242.501 129.608 244.485 127.837 244.485 125.387C244.485 123.007 242.613 121.267 240.426 120.922ZM240.497 126.457V124.316C240.979 124.57 241.23 125.017 241.23 125.387C241.23 125.757 240.979 126.204 240.497 126.457Z" stroke="#083156" stroke-width="1.84127" stroke-linecap="round" stroke-linejoin="round"/>
<path d="M245.528 132.96C249.126 134.137 252.961 131.969 254.171 128.274C255.38 124.578 253.57 120.562 249.972 119.384C246.373 118.206 242.538 120.375 241.329 124.07C240.119 127.765 241.93 131.782 245.528 132.96Z" fill="#C29980" stroke="#083156" stroke-width="1.84127"/>
<path d="M248.03 114.248L260.263 123.257L257.596 129.356C252.262 132.374 248.007 131.599 247.503 131.434C246.999 131.269 248.03 114.248 248.03 114.248Z" fill="#C29980"/>
<path d="M239.509 41.4771C238.576 55.4584 228.523 66.1717 217.056 65.406C205.589 64.6402 197.05 52.6854 197.983 38.7041C198.917 24.7228 208.97 14.0094 220.437 14.7752C231.904 15.5409 240.443 27.4958 239.509 41.4771Z" fill="#083156"/>
<path d="M248.909 56.0984C240.514 63.9697 228.475 64.7688 222.02 57.8835C215.564 50.9981 217.136 39.0355 225.531 31.1642C233.926 23.293 245.965 22.4938 252.421 29.3792C258.876 36.2646 257.304 48.2272 248.909 56.0984Z" fill="#083156"/>
<path d="M187.462 59.9287C194.053 69.3617 205.669 72.626 213.406 67.2196C221.142 61.8132 222.071 49.7835 215.479 40.3505C208.887 30.9175 197.272 27.6532 189.535 33.0596C181.798 38.466 180.87 50.4957 187.462 59.9287Z" fill="#083156"/>
<path d="M206.658 67.0334C201.985 67.8915 198.893 72.3746 199.751 77.0469L200.585 81.5885C200.689 82.1535 200.309 82.6771 199.765 82.7771C197.181 83.2516 195.471 85.731 195.945 88.315C196.42 90.899 198.899 92.609 201.483 92.1345C202.028 92.0345 202.569 92.389 202.673 92.954L204.035 100.371C205.059 105.948 210.411 109.639 215.988 108.615L243.218 103.615C248.795 102.59 252.486 97.2386 251.462 91.6612L250.102 84.2552C249.997 83.683 250.383 83.1545 250.932 83.0537C253.516 82.5791 255.226 80.0997 254.751 77.5158C254.277 74.9318 251.797 73.2218 249.213 73.6963C248.664 73.7972 248.116 73.4401 248.011 72.8679L247.179 68.3372C246.321 63.665 241.838 60.5729 237.166 61.4309L206.658 67.0334Z" fill="#C29980" stroke="#083156" stroke-width="1.84127"/>
<path fill-rule="evenodd" clip-rule="evenodd" d="M230.221 93.8028C229.645 93.6147 229.027 93.9285 228.838 94.5039C228.331 96.0548 226.957 98.2641 223.179 98.9579C222.583 99.0672 222.189 99.6385 222.299 100.234C222.408 100.829 222.979 101.223 223.575 101.114C228.275 100.251 230.21 97.3631 230.922 95.1852C231.11 94.6099 230.796 93.991 230.221 93.8028Z" fill="#083156"/>
<path d="M217.452 87.5686C217.354 89.9021 216.287 93.5615 213.284 94.14C209.489 94.8991 206.925 92.3856 206.459 89.1561C205.992 85.9266 208.827 82.8447 211.595 82.4449C214.363 82.0452 216.986 84.3391 217.452 87.5686Z" fill="white"/>
<path d="M214.299 93.8623C214.504 94.9771 215.728 95.6866 217.033 95.4469C218.339 95.2072 219.231 94.1092 219.026 92.9944C218.821 91.8796 218.557 90.6756 217.252 90.9153C215.947 91.155 214.062 92.5793 214.299 93.8623Z" fill="#C29980"/>
<path d="M206.122 90.8826C203.181 82.4979 215.594 77.1483 217.566 89.6973" stroke="#083156" stroke-width="1.84127" stroke-linecap="round"/>
<path d="M223.047 86.5416C223.758 89.7261 226.265 91.7297 229.278 91.2032C233.095 90.5646 234.598 87.304 233.887 84.1195C233.175 80.935 229.431 79.0613 226.701 79.6712C223.971 80.2811 222.335 83.3571 223.047 86.5416Z" fill="white"/>
<path d="M234.669 85.6815C234.439 76.799 220.485 75.71 222.75 87.5684" stroke="#083156" stroke-width="1.84127" stroke-linecap="round"/>
<path fill-rule="evenodd" clip-rule="evenodd" d="M231.85 71.6692C227.199 69.69 222.954 71.581 221.357 72.8162C220.901 73.1686 220.818 73.8235 221.17 74.2791C221.522 74.7346 222.177 74.8183 222.633 74.4659C223.834 73.5367 227.284 71.9928 231.034 73.5883C231.564 73.8138 232.176 73.567 232.402 73.0371C232.627 72.5071 232.38 71.8947 231.85 71.6692Z" fill="#083156"/>
<path d="M246.085 56.5737C247.557 56.2991 248.885 57.5034 248.755 58.9948L247.481 73.6159L213.742 68.3521C212.965 68.2309 212.181 68.5215 211.671 69.1197L201.118 81.4954C200.992 81.6429 200.755 81.6058 200.68 81.4269L195.411 68.8136C194.856 67.484 195.668 65.9809 197.084 65.7166L246.085 56.5737Z" fill="#FFE999" stroke="#083156" stroke-width="1.84127"/>
<path d="M208.883 61.6688C209.071 52.8527 216.129 45.7964 224.836 45.504C225.344 45.4869 225.748 45.9105 225.737 46.4188L225.658 50.1585C225.464 59.2834 217.909 66.5231 208.784 66.3289L208.883 61.6688Z" fill="#FFE999"/>
<path d="M200.552 57.4247C201.591 63.2619 207.165 67.1518 213.002 66.1132L212.471 63.1322C211.487 57.6003 206.429 53.8172 200.934 54.3208C200.428 54.3672 200.094 54.8496 200.183 55.3501L200.552 57.4247Z" fill="#FFE999"/>
<path d="M247.321 54.8105L245.957 70.1868" stroke="white" stroke-width="1.84127" stroke-linecap="round"/>
<path fill-rule="evenodd" clip-rule="evenodd" d="M250.5 50.1875L240.863 56.2399L240.863 58.5029L248 57.1875L249.5 61.1875L250.5 50.1875Z" fill="#083156"/>
<path fill-rule="evenodd" clip-rule="evenodd" d="M212.444 75.3535C208.271 74.0257 205.06 76.4629 203.937 77.8966C203.616 78.3056 203.653 78.9632 204.018 79.3654C204.384 79.7676 204.94 79.762 205.26 79.353C206.105 78.2745 208.714 76.2869 212.077 77.3572C212.553 77.5085 213.02 77.1826 213.121 76.6293C213.222 76.0759 212.919 75.5047 212.444 75.3535Z" fill="#083156"/>
<path d="M217.235 89.8965C214.093 91.2258 212.918 93.0217 213.603 94.7018C213.951 95.6411 215.364 97.3277 218.233 96.5601" stroke="#083156" stroke-width="1.84127" stroke-linecap="round"/>
<path d="M208.527 90.6013C209.026 92.7899 210.837 94.2437 212.572 93.8482C214.308 93.4528 214.337 90.563 213.777 88.6149C213.19 86.5582 211.712 85.1274 209.977 85.5228C208.241 85.9182 208.028 88.4126 208.527 90.6013Z" fill="#083156"/>
<path d="M224.521 87.442C224.92 89.6509 226.663 91.1851 228.415 90.8687C230.167 90.5522 230.326 87.6666 229.855 85.6952C229.362 83.6141 227.951 82.1178 226.199 82.4343C224.447 82.7507 224.122 85.233 224.521 87.442Z" fill="#083156"/>
<circle cx="211.429" cy="125.883" r="5.90179" fill="#C29980" stroke="#083156" stroke-width="1.84127"/>
<path d="M169.551 116.199C169.282 115.313 169.945 114.418 170.872 114.418H204.598C205.207 114.418 205.743 114.816 205.92 115.398L212.083 135.722C212.352 136.609 211.689 137.504 210.762 137.504H177.036C176.427 137.504 175.891 137.106 175.714 136.524L169.551 116.199Z" fill="white"/>
<path d="M169.551 116.199C169.282 115.313 169.945 114.418 170.872 114.418H204.598C205.207 114.418 205.743 114.816 205.92 115.398L212.083 135.722C212.352 136.609 211.689 137.504 210.762 137.504H177.036C176.427 137.504 175.891 137.106 175.714 136.524L169.551 116.199Z" fill="#3C5D87" fill-opacity="0.3"/>
<path d="M169.551 116.199C169.282 115.313 169.945 114.418 170.872 114.418H204.598C205.207 114.418 205.743 114.816 205.92 115.398L212.083 135.722C212.352 136.609 211.689 137.504 210.762 137.504H177.036C176.427 137.504 175.891 137.106 175.714 136.524L169.551 116.199Z" stroke="#083156" stroke-width="1.84127"/>
<path d="M204.13 115.179L210.625 136.548" stroke="white" stroke-width="2.76191" stroke-linecap="square"/>
<path d="M169.551 116.199C169.282 115.313 169.945 114.418 170.872 114.418H204.598C205.207 114.418 205.743 114.816 205.92 115.398L212.083 135.722C212.352 136.609 211.689 137.504 210.762 137.504H177.036C176.427 137.504 175.891 137.106 175.714 136.524L169.551 116.199Z" stroke="#083156" stroke-width="1.84127"/>
<path d="M247.088 119.137C249.393 118.791 251.429 118.851 253.886 119.763" stroke="#083156" stroke-width="1.84127" stroke-linecap="round"/>
<path d="M129.196 147.343C129.196 136.512 137.976 127.732 148.806 127.732C159.637 127.732 168.416 136.512 168.416 147.343V153.996H129.196V147.343Z" fill="#083156"/>
<path d="M144.85 142.672C144.215 145.309 139.41 144.848 140.153 141.381" stroke="white" stroke-width="0.920637" stroke-linecap="round"/>
<path d="M132.996 142.672C133.632 145.309 138.437 144.848 137.693 141.381" stroke="white" stroke-width="0.920637" stroke-linecap="round"/>
<path d="M140.745 146.38C140.616 147.819 138.419 147.776 138.971 145.785" stroke="white" stroke-width="0.920637" stroke-linecap="round"/>
<path d="M137.014 146.38C137.143 147.819 139.341 147.776 138.788 145.785" stroke="white" stroke-width="0.920637" stroke-linecap="round"/>
<path fill-rule="evenodd" clip-rule="evenodd" d="M170.381 151.801C170.286 150.406 169.078 149.352 167.683 149.447C167.307 149.473 166.936 149.498 166.569 149.523C161.729 149.856 157.7 150.133 154.727 149.693C153.16 149.461 152.209 149.066 151.661 148.626C151.215 148.268 150.866 147.752 150.789 146.712C150.685 145.318 149.47 144.271 148.076 144.375C146.682 144.479 145.635 145.693 145.739 147.087C145.909 149.376 146.837 151.247 148.491 152.574C150.042 153.82 152.013 154.41 153.985 154.702C157.534 155.227 162.123 154.909 166.729 154.588C167.161 154.558 167.594 154.528 168.027 154.499C169.422 154.404 170.476 153.196 170.381 151.801Z" fill="#083156"/>
<path d="M167.075 150.308C161.547 150.383 151.519 151.933 151.261 144.665C151.147 142.059 146.884 141.889 146.885 144.665C146.771 148.914 148.699 153.656 153.342 153.785" stroke="white" stroke-width="0.920637" stroke-linecap="round"/>
<path d="M127.842 134.201C127.716 133.869 127.997 133.526 128.347 133.584L135.341 134.731C135.691 134.789 135.847 135.203 135.623 135.477L131.132 140.961C130.907 141.235 130.47 141.163 130.345 140.832L127.842 134.201Z" fill="#083156"/>
<defs>
<clipPath id="clip0_5873_121499">
<rect y="40" width="399.997" height="128" rx="12" fill="white"/>
</clipPath>
</defs>
</svg>
