<svg width="200" height="120" viewBox="0 0 200 120" fill="none" xmlns="http://www.w3.org/2000/svg">
<g opacity="0.18">
<rect x="125.455" y="47.9912" width="70.341" height="70.341" rx="15.8501" transform="rotate(102.208 125.455 47.9912)" fill="#84D8FF"/>
<rect x="126.972" y="67.9863" width="44.1552" height="44.1552" rx="9.94956" transform="rotate(-103.052 126.972 67.9863)" fill="#84D8FF"/>
<rect x="32.9722" y="57.2168" width="8.3957" height="8.3957" rx="2.40062" transform="rotate(112.532 32.9722 57.2168)" fill="#84D8FF"/>
<rect width="8.3957" height="8.3957" rx="2.40062" transform="matrix(0.3832 0.923665 0.923665 -0.3832 173.02 77.1875)" fill="#84D8FF"/>
<rect width="11.7275" height="11.7275" rx="3.35329" transform="matrix(-0.746537 0.665344 0.665344 0.746537 68.8828 12)" fill="#84D8FF"/>
<rect width="3.83746" height="3.83746" rx="1.09726" transform="matrix(-0.184328 0.982865 0.982865 0.184328 169.707 106)" fill="#84D8FF"/>
<rect width="3.83746" height="3.83746" rx="1.09726" transform="matrix(-0.184328 0.982865 0.982865 0.184328 59.7075 106)" fill="#84D8FF"/>
<rect width="3.83746" height="3.83746" rx="1.09726" transform="matrix(-0.184328 0.982865 0.982865 0.184328 165.707 97)" fill="#84D8FF"/>
<rect width="3.83746" height="3.83746" rx="1.09726" transform="matrix(-0.184328 0.982865 0.982865 0.184328 48.7075 12)" fill="#84D8FF"/>
</g>
<path fill-rule="evenodd" clip-rule="evenodd" d="M38.021 36.4214C36 38.4423 36 41.695 36 48.2004V48.8739C36 50.1247 36 50.7501 36.2638 51.1706C36.5276 51.591 37.276 51.9527 38.773 52.6761C42.2363 54.3497 44.6253 57.8961 44.6253 62.0004C44.6253 66.1047 42.2363 69.651 38.773 71.3247C37.276 72.0481 36.5276 72.4098 36.2638 72.8302C36 73.2507 36 73.8761 36 75.1268V75.8004C36 82.3058 36 85.5585 38.021 87.5794C40.0419 89.6004 43.2946 89.6004 49.8 89.6004L150.2 89.6004C156.705 89.6004 159.958 89.6004 161.979 87.5794C164 85.5585 164 82.3058 164 75.8004V75.1265C164 73.8758 164 73.2504 163.736 72.83C163.472 72.4096 162.724 72.0479 161.227 71.3244C157.764 69.6507 155.375 66.1045 155.375 62.0004C155.375 57.8963 157.764 54.3501 161.227 52.6764C162.724 51.9529 163.472 51.5912 163.736 51.1708C164 50.7504 164 50.125 164 48.8743V48.2004C164 41.695 164 38.4423 161.979 36.4214C159.958 34.4004 156.705 34.4004 150.2 34.4004L49.8 34.4004C43.2946 34.4004 40.0419 34.4004 38.021 36.4214Z" fill="white"/>
<path d="M38.021 87.5794L37.4906 88.1098L37.4906 88.1098L38.021 87.5794ZM49.8 89.6004V90.3504V89.6004ZM150.2 89.6004V88.8504V89.6004ZM161.979 87.5794L162.509 88.1098L162.509 88.1098L161.979 87.5794ZM161.979 36.4214L162.509 35.891L162.509 35.891L161.979 36.4214ZM150.2 34.4004V33.6504V34.4004ZM49.8 34.4004V35.1504V34.4004ZM161.227 52.6764L161.554 53.3516L161.227 52.6764ZM163.736 51.1708L164.372 51.5693L163.736 51.1708ZM161.227 71.3244L160.901 71.9997L161.227 71.3244ZM163.736 72.83L163.101 73.2286L163.736 72.83ZM38.773 71.3247L38.4467 70.6494L38.773 71.3247ZM36.2638 72.8302L36.8991 73.2288L36.2638 72.8302ZM36.75 48.2004C36.75 44.9265 36.7516 42.5465 36.9959 40.7292C37.2374 38.9334 37.7034 37.7996 38.5513 36.9517L37.4906 35.891C36.3176 37.0641 35.7731 38.5671 35.5093 40.5293C35.2484 42.4698 35.25 44.9689 35.25 48.2004H36.75ZM36.75 48.8739V48.2004H35.25V48.8739H36.75ZM45.3753 62.0004C45.3753 57.5975 42.8118 53.7949 39.0993 52.0008L38.4467 53.3514C41.6608 54.9046 43.8753 58.1946 43.8753 62.0004H45.3753ZM39.0993 72C42.8118 70.2059 45.3753 66.4032 45.3753 62.0004H43.8753C43.8753 65.8062 41.6608 69.0962 38.4467 70.6494L39.0993 72ZM36.75 75.8004V75.1268H35.25V75.8004H36.75ZM38.5513 87.0491C37.7034 86.2012 37.2374 85.0674 36.9959 83.2716C36.7516 81.4543 36.75 79.0743 36.75 75.8004H35.25C35.25 79.0319 35.2484 81.5309 35.5093 83.4715C35.7731 85.4336 36.3176 86.9367 37.4906 88.1098L38.5513 87.0491ZM49.8 88.8504C46.5261 88.8504 44.1461 88.8488 42.3288 88.6045C40.533 88.363 39.3992 87.897 38.5513 87.0491L37.4906 88.1098C38.6637 89.2828 40.1668 89.8273 42.1289 90.0911C44.0694 90.352 46.5685 90.3504 49.8 90.3504V88.8504ZM150.2 88.8504L49.8 88.8504L49.8 90.3504L150.2 90.3504V88.8504ZM161.449 87.0491C160.601 87.897 159.467 88.363 157.671 88.6045C155.854 88.8488 153.474 88.8504 150.2 88.8504V90.3504C153.431 90.3504 155.931 90.352 157.871 90.0911C159.833 89.8273 161.336 89.2828 162.509 88.1098L161.449 87.0491ZM163.25 75.8004C163.25 79.0743 163.248 81.4543 163.004 83.2716C162.763 85.0674 162.297 86.2012 161.449 87.0491L162.509 88.1098C163.682 86.9367 164.227 85.4336 164.491 83.4715C164.752 81.5309 164.75 79.0319 164.75 75.8004H163.25ZM163.25 75.1265V75.8004H164.75V75.1265H163.25ZM154.625 62.0004C154.625 66.403 157.189 70.2055 160.901 71.9997L161.554 70.6492C158.34 69.0958 156.125 65.806 156.125 62.0004H154.625ZM160.901 52.0011C157.189 53.7953 154.625 57.5978 154.625 62.0004H156.125C156.125 58.1948 158.34 54.9049 161.554 53.3516L160.901 52.0011ZM163.25 48.2004V48.8743H164.75V48.2004H163.25ZM161.449 36.9517C162.297 37.7996 162.763 38.9334 163.004 40.7292C163.248 42.5465 163.25 44.9265 163.25 48.2004H164.75C164.75 44.9689 164.752 42.4698 164.491 40.5293C164.227 38.5671 163.682 37.0641 162.509 35.891L161.449 36.9517ZM150.2 35.1504C153.474 35.1504 155.854 35.152 157.671 35.3963C159.467 35.6378 160.601 36.1038 161.449 36.9517L162.509 35.891C161.336 34.718 159.833 34.1735 157.871 33.9097C155.931 33.6488 153.431 33.6504 150.2 33.6504V35.1504ZM49.8 35.1504L150.2 35.1504V33.6504L49.8 33.6504V35.1504ZM38.5513 36.9517C39.3992 36.1038 40.533 35.6378 42.3288 35.3963C44.1461 35.152 46.5261 35.1504 49.8 35.1504V33.6504C46.5685 33.6504 44.0694 33.6488 42.1289 33.9097C40.1668 34.1735 38.6637 34.718 37.4906 35.891L38.5513 36.9517ZM161.554 53.3516C162.292 52.995 162.882 52.7103 163.317 52.4606C163.734 52.2214 164.133 51.9491 164.372 51.5693L163.101 50.7722C163.075 50.8129 162.968 50.9316 162.571 51.1593C162.192 51.3764 161.66 51.6343 160.901 52.0011L161.554 53.3516ZM163.25 48.8743C163.25 49.5137 163.249 49.9429 163.22 50.2665C163.191 50.5848 163.141 50.7086 163.101 50.7722L164.372 51.5693C164.595 51.2126 164.677 50.8134 164.714 50.4013C164.751 49.9945 164.75 49.4856 164.75 48.8743H163.25ZM164.75 75.1265C164.75 74.5152 164.751 74.0063 164.714 73.5995C164.677 73.1874 164.595 72.7882 164.372 72.4314L163.101 73.2286C163.141 73.2922 163.191 73.416 163.22 73.7343C163.249 74.0579 163.25 74.487 163.25 75.1265H164.75ZM160.901 71.9997C161.66 72.3665 162.192 72.6244 162.571 72.8415C162.968 73.0692 163.075 73.1879 163.101 73.2286L164.372 72.4314C164.133 72.0517 163.734 71.7793 163.317 71.5402C162.882 71.2905 162.292 71.0058 161.554 70.6492L160.901 71.9997ZM38.4467 70.6494C37.7087 71.006 37.1186 71.2907 36.683 71.5404C36.2658 71.7795 35.8667 72.0519 35.6285 72.4316L36.8991 73.2288C36.9246 73.1881 37.0317 73.0694 37.4289 72.8418C37.8077 72.6247 38.3404 72.3667 39.0993 72L38.4467 70.6494ZM36.75 75.1268C36.75 74.4873 36.7507 74.0582 36.7799 73.7346C36.8087 73.4162 36.8592 73.2924 36.8991 73.2288L35.6285 72.4316C35.4046 72.7884 35.3232 73.1876 35.286 73.5997C35.2493 74.0066 35.25 74.5155 35.25 75.1268H36.75ZM35.25 48.8739C35.25 49.4852 35.2493 49.9942 35.286 50.4011C35.3232 50.8132 35.4046 51.2123 35.6285 51.5691L36.8991 50.772C36.8592 50.7083 36.8087 50.5846 36.7799 50.2662C36.7507 49.9426 36.75 49.5134 36.75 48.8739H35.25ZM39.0993 52.0008C38.3404 51.634 37.8077 51.3761 37.4289 51.159C37.0317 50.9314 36.9246 50.8127 36.8991 50.772L35.6285 51.5691C35.8667 51.9489 36.2658 52.2213 36.683 52.4604C37.1186 52.7101 37.7087 52.9948 38.4467 53.3514L39.0993 52.0008Z" fill="#3C5D87"/>
<path d="M83.3999 35.3008V88.7008" stroke="#3C5D87" stroke-width="1.5" stroke-linecap="round" stroke-dasharray="3.45 3.9"/>
<path opacity="0.12" d="M83.3999 35.3008V88.7008" stroke="#3C5D87" stroke-width="5.5" stroke-linecap="round" stroke-dasharray="3.45 3.9"/>
<path d="M54.25 73.6133H70.325" stroke="#FFD9AB" stroke-width="2.5" stroke-linecap="round"/>
<path d="M94 47H120.075" stroke="#FFD9AB" stroke-width="2.5" stroke-linecap="round"/>
<path d="M54.25 79.5137H70.325" stroke="#FFD9AB" stroke-width="2.5" stroke-linecap="round"/>
<path d="M94 53.3887H104.9" stroke="#FFD9AB" stroke-width="2.5" stroke-linecap="round"/>
<rect x="93.6499" y="73.3516" width="3.45" height="8.625" rx="1.725" fill="#FFD9AB"/>
<rect x="98.8247" y="73.3516" width="3.45" height="8.625" rx="1.725" fill="#FFD9AB"/>
<rect x="107.45" y="73.3516" width="3.45" height="8.625" rx="1.725" fill="#FFD9AB"/>
<rect x="112.625" y="73.3516" width="5.175" height="8.625" rx="1.725" fill="#FFD9AB"/>
<rect x="122.975" y="73.3516" width="6.9" height="8.625" rx="1.725" fill="#FFD9AB"/>
<rect x="131.6" y="73.3516" width="3.45" height="8.625" rx="1.725" fill="#FFD9AB"/>
<rect x="136.775" y="73.3516" width="3.45" height="8.625" rx="1.725" fill="#FFD9AB"/>
<rect x="143.675" y="73.3516" width="6.9" height="8.625" rx="1.725" fill="#FFD9AB"/>
<path d="M61.0449 42.8668C61.5867 42.3751 62.4133 42.3751 62.9551 42.8668L63.7848 43.6199C64.0859 43.8932 64.4897 44.0244 64.894 43.9803L66.0079 43.8588C66.7352 43.7794 67.4039 44.2652 67.5532 44.9815L67.7818 46.0784C67.8648 46.4766 68.1144 46.8201 68.4674 47.022L69.44 47.5784C70.075 47.9417 70.3305 48.7278 70.0302 49.395L69.5704 50.4169C69.4035 50.7877 69.4035 51.2123 69.5704 51.5831L70.0302 52.605C70.3305 53.2722 70.075 54.0583 69.44 54.4216L68.4674 54.978C68.1144 55.1799 67.8648 55.5234 67.7818 55.9216L67.5532 57.0185C67.4039 57.7348 66.7352 58.2206 66.0079 58.1412L64.894 58.0197C64.4897 57.9756 64.0859 58.1068 63.7848 58.3801L62.9551 59.1332C62.4133 59.6249 61.5867 59.6249 61.0449 59.1332L60.2152 58.3801C59.9141 58.1068 59.5103 57.9756 59.106 58.0197L57.9921 58.1412C57.2648 58.2206 56.5961 57.7348 56.4468 57.0185L56.2182 55.9216C56.1352 55.5234 55.8856 55.1799 55.5326 54.978L54.56 54.4216C53.925 54.0583 53.6695 53.2722 53.9698 52.605L54.4296 51.5831C54.5965 51.2123 54.5965 50.7877 54.4296 50.4169L53.9698 49.395C53.6695 48.7278 53.925 47.9417 54.56 47.5784L55.5326 47.022C55.8856 46.8201 56.1352 46.4766 56.2182 46.0784L56.4468 44.9815C56.5961 44.2652 57.2648 43.7794 57.9921 43.8588L59.106 43.9803C59.5103 44.0244 59.9141 43.8932 60.2152 43.6199L61.0449 42.8668Z" fill="#FFD9AB"/>
<rect opacity="0.12" x="49" y="85" width="109" height="11" rx="4" fill="#3C5D87"/>
<g opacity="0.3">
<path d="M108.729 22.999L104.355 27.3729" stroke="#FF9600" stroke-width="1.5" stroke-linecap="round"/>
<path d="M99.8184 19.1904L99.8184 25.376" stroke="#FF9600" stroke-width="1.5" stroke-linecap="round"/>
<path d="M95.5342 27.5605L91.1604 23.1867" stroke="#FF9600" stroke-width="1.5" stroke-linecap="round"/>
</g>
</svg>
