<svg width="368" height="150" viewBox="0 0 368 150" fill="none" xmlns="http://www.w3.org/2000/svg">
<rect opacity="0.08" x="97.373" y="8.99609" width="101.54" height="101.54" rx="15.2587" transform="rotate(18.1378 97.373 8.99609)" fill="#FF9600"/>
<rect opacity="0.08" x="237.504" y="57.3711" width="58.3275" height="58.3275" rx="10.4877" transform="rotate(-20.6759 237.504 57.3711)" fill="#FF9600"/>
<rect opacity="0.08" x="247.791" y="87.2734" width="46.6915" height="46.6915" rx="8.51096" transform="rotate(3.76247 247.791 87.2734)" fill="#FF9600"/>
<rect opacity="0.1" x="315.43" y="44.1289" width="6.48349" height="6.48349" rx="2.17178" transform="rotate(38.5077 315.43 44.1289)" fill="#FF9600"/>
<rect opacity="0.1" x="63.1562" y="16.8086" width="6.48349" height="6.48349" rx="2.17178" transform="rotate(79.2683 63.1562 16.8086)" fill="#FF9600"/>
<rect opacity="0.1" x="336.967" y="67.9883" width="6.48349" height="6.48349" rx="2.17178" transform="rotate(80.8166 336.967 67.9883)" fill="#FF9600"/>
<rect opacity="0.1" x="235.434" y="26" width="11.5812" height="11.5812" rx="2.17178" transform="rotate(80.8166 235.434 26)" fill="#FF9600"/>
<rect opacity="0.1" x="27.6133" y="90.9258" width="10.4507" height="10.4507" rx="2.52076" transform="rotate(24.0509 27.6133 90.9258)" fill="#FF9600"/>
<g opacity="0.4">
<path d="M231.65 143.325C228.188 137.254 232.5 129.578 239.488 129.578V129.578C244.518 129.578 248.596 133.656 248.596 138.686V143.325H231.65V143.325Z" fill="white"/>
<path d="M234.572 134.511C235.548 131.566 238.301 129.578 241.403 129.578V129.578C245.377 129.578 248.598 132.8 248.598 136.774V143.325H231.652L234.572 134.511Z" fill="#FFD8AB"/>
<path d="M231.65 143.325C228.188 137.254 232.5 129.578 239.488 129.578V129.578C244.518 129.578 248.596 133.656 248.596 138.686V143.325H231.65V143.325Z" stroke="#FF9600" stroke-width="0.900769" stroke-linecap="round"/>
<rect x="260.986" y="87.5625" width="38.724" height="8.90652" fill="#FFD8AB" stroke="#FF9600" stroke-width="0.900769" stroke-linecap="round" stroke-linejoin="round"/>
<path d="M329.999 142.721C331.406 135.72 326.053 129.184 318.912 129.184V129.184C311.844 129.184 306.508 135.596 307.793 142.546L308.615 146.997H329.139L329.999 142.721Z" fill="white"/>
<path d="M328.786 135.003C328.294 133.293 327.013 131.923 325.34 131.316V131.316C322.211 130.181 318.793 132.034 318.036 135.275L315.297 146.997H332.238L328.786 135.003Z" fill="#FFD8AB"/>
<path d="M329.999 142.721C331.406 135.72 326.053 129.184 318.912 129.184V129.184C311.844 129.184 306.508 135.596 307.793 142.546L308.615 146.997H329.139L329.999 142.721Z" stroke="#FF9600" stroke-width="0.900769" stroke-linecap="round"/>
<rect x="240.852" y="108.668" width="78.2225" height="38.3367" fill="white"/>
<path opacity="0.1" d="M259.49 108.566H319.004V146.956H259.49V108.566Z" fill="#FFE6C3"/>
<rect x="240.852" y="108.668" width="78.2225" height="38.3367" stroke="#FF9600" stroke-width="0.900769" stroke-linecap="round" stroke-linejoin="round"/>
<path d="M299.614 84.6551H261.084C262.685 80.5891 268.851 72.457 280.707 72.457C292.562 72.457 298.252 80.5891 299.614 84.6551Z" fill="white"/>
<path d="M299.712 84.6551H264.279C265.752 80.5891 271.422 72.457 282.324 72.457C293.227 72.457 298.459 80.5891 299.712 84.6551Z" fill="#FFD9AB"/>
<path d="M299.614 84.6551H261.084C262.685 80.5891 268.851 72.457 280.707 72.457C292.562 72.457 298.252 80.5891 299.614 84.6551Z" stroke="#FF9600" stroke-width="0.900769" stroke-linecap="round" stroke-linejoin="round"/>
<rect x="259.15" y="84.6562" width="42.4028" height="2.9043" rx="0.724745" fill="white" stroke="#FF9600" stroke-width="0.900769" stroke-linecap="round" stroke-linejoin="round"/>
<rect x="260.887" y="87.5586" width="4.64688" height="8.90652" fill="white"/>
<rect x="269.791" y="87.5586" width="4.64688" height="8.90652" fill="white"/>
<rect x="286.057" y="87.5586" width="4.64688" height="8.90652" fill="white"/>
<rect x="294.963" y="87.5586" width="4.64688" height="8.90652" fill="white"/>
<rect x="294.963" y="87.5586" width="4.64688" height="8.90652" stroke="#FF9600" stroke-width="0.900769" stroke-linecap="round" stroke-linejoin="round"/>
<rect x="286.057" y="87.5586" width="4.64688" height="8.90652" stroke="#FF9600" stroke-width="0.900769" stroke-linecap="round" stroke-linejoin="round"/>
<rect x="269.791" y="87.5586" width="4.64688" height="8.90652" stroke="#FF9600" stroke-width="0.900769" stroke-linecap="round" stroke-linejoin="round"/>
<rect x="260.887" y="87.5586" width="4.64688" height="8.90652" stroke="#FF9600" stroke-width="0.900769" stroke-linecap="round" stroke-linejoin="round"/>
<path d="M244.335 96.4688H315.394L323.676 106.904C324.241 107.616 323.734 108.667 322.824 108.667H236.905C235.995 108.667 235.488 107.616 236.053 106.904L244.335 96.4688Z" fill="white"/>
<path d="M243.64 97.1742C243.983 96.734 244.51 96.4766 245.069 96.4766H314.321C314.861 96.4766 315.372 96.7168 315.716 97.132L323.809 106.894C324.397 107.602 323.893 108.675 322.973 108.675H236.898C235.993 108.675 235.484 107.633 236.041 106.919L243.64 97.1742Z" fill="white"/>
<path d="M245.441 97.1742C245.784 96.734 246.311 96.4766 246.869 96.4766H314.319C314.858 96.4766 315.369 96.7168 315.714 97.132L323.807 106.894C324.394 107.602 323.89 108.675 322.97 108.675H238.699C237.794 108.675 237.285 107.633 237.842 106.919L245.441 97.1742Z" fill="#FFD9AB"/>
<path d="M242.594 98.6624C243.45 97.5847 243.877 97.0459 244.475 96.7573C245.072 96.4688 245.76 96.4688 247.136 96.4688H312.593C313.969 96.4688 314.657 96.4688 315.254 96.7573C315.852 97.0459 316.279 97.5847 317.135 98.6624L322.277 105.141C323.492 106.672 324.1 107.438 323.803 108.053C323.506 108.667 322.529 108.667 320.573 108.667H239.156C237.2 108.667 236.223 108.667 235.926 108.053C235.629 107.438 236.237 106.672 237.453 105.141L242.594 98.6624Z" stroke="#FF9600" stroke-width="0.900769" stroke-linecap="round" stroke-linejoin="round"/>
<path d="M271.794 147.006H288.516C288.516 147.006 292.064 129.387 280.503 129.387C268.942 129.387 271.794 147.006 271.794 147.006Z" fill="#FFCD94" stroke="#FF9600" stroke-width="0.900769" stroke-linecap="round"/>
<path fill-rule="evenodd" clip-rule="evenodd" d="M337.631 117.254C339.314 116.512 341.024 116.515 342.251 117.436C344.422 119.064 344.26 122.946 341.89 126.106C341.715 126.34 341.532 126.563 341.344 126.775C343.332 128.19 344.392 130.206 343.872 132.034C343.13 134.644 339.448 135.885 335.648 134.804C334.543 134.49 333.55 134.015 332.716 133.434C331.865 134.055 330.714 134.509 329.414 134.67C326.534 135.025 324.013 133.806 323.784 131.947C323.635 130.743 324.483 129.566 325.881 128.789C323.377 125.784 322.825 122.115 324.679 120.468C325.255 119.957 325.996 119.699 326.825 119.671C325.822 116.072 327.162 112.514 329.94 111.587C332.835 110.621 336.195 112.876 337.445 116.624C337.515 116.834 337.577 117.044 337.631 117.254Z" fill="white"/>
<path fill-rule="evenodd" clip-rule="evenodd" d="M338.004 119.063C339.711 118.101 341.468 117.95 342.66 118.843C344.589 120.29 344.304 123.927 342.026 126.97C343.225 128.164 343.816 129.668 343.488 131.124C342.892 133.772 339.485 135.26 335.878 134.448C335.194 134.294 334.552 134.068 333.965 133.785C333.305 134.074 332.551 134.284 331.74 134.384C328.86 134.739 326.347 133.583 326.127 131.8C325.991 130.696 326.767 129.611 328.062 128.86C327.93 128.725 327.8 128.586 327.672 128.442C324.958 125.387 324.309 121.532 326.222 119.832C326.976 119.162 328.016 118.927 329.165 119.074C328.311 115.671 329.364 112.468 331.599 111.822C333.912 111.153 336.614 113.475 337.635 117.007C337.836 117.704 337.957 118.396 338.004 119.063Z" fill="#FFD8AB"/>
<path d="M342.251 117.429L341.981 117.789L341.981 117.789L342.251 117.429ZM337.584 117.268L337.147 117.377C337.179 117.507 337.267 117.615 337.387 117.673C337.507 117.732 337.647 117.734 337.768 117.679L337.584 117.268ZM341.89 126.1L341.529 125.83L341.529 125.83L341.89 126.1ZM341.344 126.769L341.007 126.47C340.922 126.566 340.882 126.693 340.896 126.82C340.911 126.947 340.979 127.062 341.083 127.136L341.344 126.769ZM343.872 132.028L344.306 132.151L344.306 132.151L343.872 132.028ZM335.648 134.798L335.525 135.231L335.525 135.231L335.648 134.798ZM332.713 133.426L332.97 133.056C332.813 132.946 332.603 132.949 332.448 133.062L332.713 133.426ZM329.414 134.659L329.469 135.106L329.469 135.106L329.414 134.659ZM323.784 131.936L324.231 131.881L323.784 131.936ZM325.876 128.782L326.095 129.175C326.212 129.11 326.294 128.996 326.319 128.864C326.343 128.732 326.308 128.597 326.222 128.494L325.876 128.782ZM324.679 120.466L324.38 120.129L324.38 120.129L324.679 120.466ZM326.776 119.67L326.797 120.12C326.934 120.114 327.061 120.045 327.142 119.933C327.222 119.822 327.247 119.679 327.209 119.547L326.776 119.67ZM329.876 111.532L330.018 111.959L329.876 111.532ZM337.38 116.569L337.808 116.427L337.808 116.427L337.38 116.569ZM342.521 117.069C341.107 116.008 339.188 116.054 337.399 116.858L337.768 117.679C339.376 116.957 340.918 116.992 341.981 117.789L342.521 117.069ZM342.25 126.37C343.483 124.727 344.154 122.88 344.223 121.209C344.293 119.54 343.76 117.998 342.521 117.069L341.981 117.789C342.913 118.489 343.385 119.702 343.323 121.171C343.262 122.638 342.667 124.313 341.529 125.83L342.25 126.37ZM341.681 127.068C341.877 126.846 342.067 126.614 342.25 126.37L341.529 125.83C341.362 126.053 341.187 126.267 341.007 126.47L341.681 127.068ZM344.306 132.151C344.9 130.061 343.67 127.872 341.605 126.402L341.083 127.136C342.994 128.496 343.885 130.337 343.439 131.905L344.306 132.151ZM335.525 135.231C337.501 135.793 339.465 135.758 341.051 135.224C342.633 134.691 343.882 133.64 344.306 132.151L343.439 131.905C343.12 133.026 342.157 133.901 340.763 134.37C339.372 134.839 337.595 134.883 335.771 134.365L335.525 135.231ZM332.456 133.795C333.333 134.406 334.373 134.904 335.525 135.231L335.771 134.365C334.712 134.063 333.763 133.608 332.97 133.056L332.456 133.795ZM329.469 135.106C330.835 134.938 332.059 134.46 332.978 133.79L332.448 133.062C331.666 133.632 330.59 134.06 329.358 134.212L329.469 135.106ZM323.337 131.991C323.476 133.124 324.306 134 325.409 134.534C326.516 135.07 327.956 135.293 329.469 135.106L329.358 134.212C327.992 134.381 326.731 134.173 325.801 133.723C324.866 133.271 324.32 132.608 324.231 131.881L323.337 131.991ZM325.657 128.388C324.189 129.206 323.156 130.525 323.337 131.991L324.231 131.881C324.115 130.943 324.773 129.911 326.095 129.175L325.657 128.388ZM324.38 120.129C323.301 121.088 322.968 122.592 323.2 124.179C323.432 125.772 324.236 127.515 325.53 129.07L326.222 128.494C325.016 127.044 324.295 125.452 324.091 124.049C323.886 122.641 324.204 121.49 324.978 120.802L324.38 120.129ZM326.756 119.22C325.862 119.261 325.034 119.548 324.38 120.129L324.978 120.802C325.452 120.382 326.071 120.153 326.797 120.12L326.756 119.22ZM327.209 119.547C326.213 116.056 327.545 112.784 330.018 111.959L329.733 111.105C326.621 112.143 325.275 116.05 326.343 119.794L327.209 119.547ZM330.018 111.959C332.581 111.104 335.745 113.091 336.953 116.712L337.808 116.427C336.515 112.552 332.96 110.028 329.733 111.105L330.018 111.959ZM336.953 116.712C337.027 116.934 337.092 117.156 337.147 117.377L338.021 117.159C337.96 116.915 337.889 116.671 337.808 116.427L336.953 116.712Z" fill="#FF9600"/>
<path d="M332.832 133.895L332.832 146.952" stroke="#FF9600" stroke-width="0.900769" stroke-linecap="round"/>
<path d="M327.322 123.258L329.997 125.46" stroke="#FF9600" stroke-width="0.900769" stroke-linecap="round"/>
<path d="M338.496 126.246L335.192 130.022" stroke="#FF9600" stroke-width="0.900769" stroke-linecap="round"/>
<path d="M334.877 118.699L333.933 122.003" stroke="#FF9600" stroke-width="0.900769" stroke-linecap="round"/>
<path d="M280.346 129.387L280.346 144.489" stroke="#FF9600" stroke-width="0.900769" stroke-linecap="round"/>
<path fill-rule="evenodd" clip-rule="evenodd" d="M227.171 112.196C224.306 111.145 220.881 113.301 219.521 117.01C219.264 117.71 219.099 118.416 219.02 119.108C217.77 118.889 216.631 119.107 215.822 119.827C213.908 121.527 214.557 125.382 217.271 128.437C217.404 128.586 217.54 128.731 217.677 128.871C216.377 129.647 215.601 130.778 215.744 131.933C215.974 133.793 218.494 135.012 221.374 134.656C222.694 134.493 223.86 134.028 224.715 133.392C226.165 134.089 228.082 134.34 230.092 133.977C233.979 133.276 236.74 130.542 236.258 127.871C236.056 126.748 235.312 125.816 234.23 125.164C235.125 122.698 234.795 120.262 233.19 119.058C232.418 118.479 231.456 118.263 230.429 118.367C230.636 115.537 229.403 113.014 227.171 112.196Z" fill="white"/>
<path fill-rule="evenodd" clip-rule="evenodd" d="M228.092 112.722C225.832 111.893 222.973 114.02 221.708 117.472C221.509 118.013 221.362 118.555 221.263 119.087C220.058 118.901 218.964 119.128 218.179 119.825C216.266 121.525 216.915 125.38 219.629 128.435C219.757 128.579 219.887 128.718 220.019 128.853C218.724 129.604 217.948 130.689 218.084 131.794C218.304 133.576 220.817 134.733 223.697 134.377C224.631 134.262 225.489 134.002 226.215 133.642C227.507 134.176 229.105 134.353 230.764 134.053C234.402 133.397 236.961 130.7 236.479 128.029C236.254 126.781 235.405 125.76 234.193 125.093C235.22 122.661 235.044 120.261 233.563 119.151C232.71 118.51 231.565 118.406 230.356 118.753C230.848 115.935 229.974 113.412 228.092 112.722Z" fill="#FFCD94"/>
<path d="M219.614 117.404L219.191 117.249L219.191 117.249L219.614 117.404ZM227.263 112.59L227.418 112.167L227.418 112.167L227.263 112.59ZM219.164 119.13L219.075 119.572C219.195 119.596 219.32 119.57 219.421 119.5C219.522 119.43 219.589 119.322 219.608 119.201L219.164 119.13ZM215.822 119.822L216.121 120.159L216.121 120.159L215.822 119.822ZM217.271 128.432L216.935 128.731L216.935 128.731L217.271 128.432ZM217.679 128.869L217.91 129.256C218.029 129.185 218.108 129.064 218.126 128.927C218.144 128.79 218.098 128.652 218.001 128.553L217.679 128.869ZM215.744 131.933L215.297 131.988L215.297 131.988L215.744 131.933ZM221.374 134.656L221.319 134.209L221.319 134.209L221.374 134.656ZM224.718 133.39L224.913 132.984C224.762 132.911 224.583 132.929 224.449 133.029L224.718 133.39ZM230.092 133.973L230.172 134.416L230.172 134.416L230.092 133.973ZM236.258 127.867L235.815 127.947L235.815 127.947L236.258 127.867ZM234.232 125.161L233.809 125.007C233.736 125.21 233.816 125.435 234 125.547L234.232 125.161ZM233.19 119.062L233.46 118.701L233.46 118.701L233.19 119.062ZM230.541 118.36L230.091 118.349C230.088 118.476 230.139 118.599 230.231 118.687C230.324 118.775 230.449 118.819 230.577 118.809L230.541 118.36ZM220.037 117.559C221.351 113.976 224.572 112.083 227.108 113.013L227.418 112.167C224.225 110.996 220.597 113.415 219.191 117.249L220.037 117.559ZM219.608 119.201C219.694 118.658 219.836 118.107 220.037 117.559L219.191 117.249C218.97 117.852 218.814 118.459 218.719 119.06L219.608 119.201ZM219.252 118.689C217.856 118.409 216.501 118.616 215.523 119.486L216.121 120.159C216.824 119.534 217.859 119.328 219.075 119.572L219.252 118.689ZM215.523 119.486C214.408 120.476 214.09 122.047 214.367 123.694C214.646 125.348 215.53 127.151 216.935 128.731L217.608 128.133C216.298 126.659 215.502 125.007 215.255 123.544C215.008 122.075 215.322 120.869 216.121 120.159L215.523 119.486ZM216.935 128.731C217.073 128.887 217.215 129.038 217.358 129.185L218.001 128.553C217.868 128.418 217.737 128.278 217.608 128.133L216.935 128.731ZM217.449 128.482C216.074 129.302 215.123 130.578 215.297 131.988L216.191 131.878C216.08 130.975 216.683 129.988 217.91 129.256L217.449 128.482ZM215.297 131.988C215.437 133.121 216.266 133.997 217.369 134.531C218.477 135.067 219.916 135.29 221.429 135.103L221.319 134.209C219.952 134.378 218.691 134.17 217.761 133.72C216.826 133.268 216.281 132.605 216.191 131.878L215.297 131.988ZM221.429 135.103C222.819 134.932 224.063 134.44 224.987 133.751L224.449 133.029C223.664 133.613 222.572 134.054 221.319 134.209L221.429 135.103ZM224.523 133.796C226.069 134.537 228.083 134.793 230.172 134.416L230.012 133.53C228.084 133.878 226.266 133.632 224.913 132.984L224.523 133.796ZM230.172 134.416C232.194 134.051 233.942 133.155 235.131 131.978C236.317 130.803 236.977 129.31 236.702 127.787L235.815 127.947C236.022 129.094 235.542 130.303 234.497 131.338C233.453 132.371 231.877 133.193 230.012 133.53L230.172 134.416ZM236.702 127.787C236.471 126.509 235.629 125.477 234.465 124.775L234 125.547C234.998 126.149 235.641 126.981 235.815 127.947L236.702 127.787ZM234.656 125.314C235.58 122.764 235.294 120.076 233.46 118.701L232.92 119.422C234.294 120.453 234.67 122.631 233.809 125.007L234.656 125.314ZM233.46 118.701C232.615 118.067 231.58 117.827 230.506 117.911L230.577 118.809C231.472 118.739 232.279 118.941 232.92 119.422L233.46 118.701ZM227.108 113.013C228.995 113.705 230.156 115.807 230.091 118.349L230.992 118.372C231.063 115.585 229.784 113.035 227.418 112.167L227.108 113.013Z" fill="#FF9600"/>
<path d="M224.785 133.883L224.785 146.94" stroke="#FF9600" stroke-width="0.900769" stroke-linecap="round"/>
<path d="M219.275 123.258L221.95 125.46" stroke="#FF9600" stroke-width="0.900769" stroke-linecap="round"/>
<path d="M230.445 126.242L227.142 130.018" stroke="#FF9600" stroke-width="0.900769" stroke-linecap="round"/>
<path d="M226.826 118.695L225.882 121.999" stroke="#FF9600" stroke-width="0.900769" stroke-linecap="round"/>
<path d="M272.476 124.353H287.308C287.308 124.353 289.395 117.383 280.284 117.383C271.172 117.383 272.476 124.353 272.476 124.353Z" fill="#FFD8AB"/>
<path d="M272.476 124.353H287.308C287.308 124.353 289.395 117.383 280.284 117.383C271.172 117.383 272.476 124.353 272.476 124.353Z" stroke="#FF9600" stroke-width="0.900769" stroke-linecap="round" stroke-linejoin="round"/>
<path d="M280.35 117.383L280.35 124.353" stroke="#FF9600" stroke-width="0.900769" stroke-linecap="round"/>
<path d="M286.932 121.449H272.991" stroke="#FF9600" stroke-width="0.900769" stroke-linecap="round"/>
<path opacity="0.16" d="M280.783 101.54C280.783 100.173 280.783 99.4897 281.208 99.0652C281.632 98.6406 282.316 98.6406 283.682 98.6406H316.115C316.806 98.6406 317.152 98.6406 317.452 98.7864C317.752 98.9321 317.966 99.2041 318.394 99.748L321.65 103.891C323.253 105.93 324.055 106.949 323.658 107.765C323.262 108.581 321.965 108.581 319.371 108.581H283.682C282.316 108.581 281.632 108.581 281.208 108.157C280.783 107.732 280.783 107.049 280.783 105.682V101.54Z" fill="#FF9600"/>
<path d="M277.83 65.4883L278.992 72.3618" stroke="#FF9600" stroke-width="0.900769" stroke-linecap="round"/>
<path d="M282.203 66.1998L277.539 64.1328L278.701 69.7478L281.967 68.9312C283.665 68.5066 284.515 68.2943 284.559 67.779C284.604 67.2637 283.803 66.909 282.203 66.1998Z" fill="#FFD8AB" stroke="#FF9600" stroke-width="0.900769" stroke-linecap="round" stroke-linejoin="round"/>
<path d="M278.178 88.1519C279.222 87.3467 280.677 87.3467 281.721 88.1519L310.455 110.327C311.55 111.172 310.953 112.924 309.57 112.924H250.329C248.946 112.924 248.349 111.172 249.443 110.327L278.178 88.1519Z" fill="white"/>
<path d="M281.897 88.4297L310.622 110.32C311.726 111.161 311.131 112.923 309.744 112.923H249.949L281.897 88.4297Z" fill="#FFD8AB" fill-opacity="0.5"/>
<path d="M275.522 90.2021C277.65 88.5598 278.714 87.7387 279.949 87.7387C281.185 87.7387 282.249 88.5598 284.377 90.2021L307.09 107.73C309.881 109.884 311.277 110.96 310.942 111.942C310.607 112.924 308.844 112.924 305.319 112.924H254.58C251.054 112.924 249.292 112.924 248.957 111.942C248.622 110.96 250.018 109.884 252.809 107.73L275.522 90.2021Z" stroke="#FF9600" stroke-width="0.900769" stroke-linecap="round" stroke-linejoin="round"/>
<path d="M279.96 90.4609L303.838 108.912C304.385 109.335 304.086 110.21 303.395 110.21H256.526C255.834 110.21 255.535 109.335 256.082 108.912L279.96 90.4609Z" fill="white"/>
<path opacity="0.4" d="M280.482 90.3086L303.232 108.702H256.764L280.482 90.3086Z" fill="#FFE8CD"/>
<path d="M277.744 92.1731C278.809 91.3503 279.342 90.9388 279.96 90.9388C280.579 90.9388 281.111 91.3503 282.176 92.1731L302.158 107.614C303.551 108.691 304.248 109.229 304.081 109.72C303.913 110.21 303.033 110.21 301.272 110.21H258.649C256.888 110.21 256.007 110.21 255.84 109.72C255.672 109.229 256.369 108.691 257.762 107.614L277.744 92.1731Z" stroke="#FF9600" stroke-width="0.900769" stroke-linecap="round" stroke-linejoin="round"/>
<ellipse cx="279.971" cy="101.587" rx="4.6361" ry="5.02365" transform="rotate(15.626 279.971 101.587)" fill="#FFFAED" stroke="#FF9600" stroke-width="0.900769" stroke-linecap="round" stroke-linejoin="round"/>
<path d="M252.879 143.328H257.941L258.664 147.007H252.662L252.879 143.328Z" fill="white"/>
<path d="M307.142 143.328H304.307L303.584 147.007H307.359L307.142 143.328Z" fill="#FFD9AB"/>
<path d="M255.996 116.598H252.371V143.317H255.996V116.598Z" fill="white"/>
<path d="M256.705 142.711H251.643L250.92 146.39H256.922L256.705 142.711Z" fill="white"/>
<path d="M251.522 116.598L256.584 116.598L257.307 112.919L251.305 112.919L251.522 116.598Z" fill="white"/>
<path d="M255.902 116.598H252.277L252.277 142.713H255.902L255.902 116.598Z" stroke="#FF9600" stroke-width="0.900769" stroke-linecap="round" stroke-linejoin="round"/>
<path d="M251.523 116.598L256.585 116.598L257.308 112.919L250.531 112.919L251.523 116.598Z" stroke="#FF9600" stroke-width="0.900769" stroke-linecap="round" stroke-linejoin="round"/>
<path d="M256.703 142.711H251.641L250.918 146.39H256.92L256.703 142.711Z" stroke="#FF9600" stroke-width="0.900769" stroke-linecap="round" stroke-linejoin="round"/>
<path d="M307.693 116.598H304.068V143.317H307.693V116.598Z" fill="white"/>
<path d="M308.4 142.711H303.338L302.615 146.39H308.617L308.4 142.711Z" fill="white"/>
<path d="M303.217 116.598L308.279 116.598L309.002 112.919L303 112.919L303.217 116.598Z" fill="white"/>
<path d="M307.598 116.598H303.972L303.972 142.713H307.598L307.598 116.598Z" stroke="#FF9600" stroke-width="0.900769" stroke-linecap="round" stroke-linejoin="round"/>
<path d="M303.218 116.598L308.28 116.598L309.003 112.919L302.227 112.919L303.218 116.598Z" stroke="#FF9600" stroke-width="0.900769" stroke-linecap="round" stroke-linejoin="round"/>
<path d="M308.398 142.711H303.336L302.613 146.39H308.615L308.398 142.711Z" stroke="#FF9600" stroke-width="0.900769" stroke-linecap="round" stroke-linejoin="round"/>
<path d="M297.234 116.598H293.609V143.317H297.234V116.598Z" fill="white"/>
<path d="M297.941 142.711H292.879L292.156 146.39H298.158L297.941 142.711Z" fill="white"/>
<path d="M292.761 116.598L297.823 116.598L298.546 112.919L291.77 112.919L292.761 116.598Z" fill="white"/>
<path d="M297.141 116.598H293.515L293.515 142.713H297.141L297.141 116.598Z" stroke="#FF9600" stroke-width="0.900769" stroke-linecap="round" stroke-linejoin="round"/>
<path d="M297.941 142.711H292.879L292.156 146.39H298.158L297.941 142.711Z" stroke="#FF9600" stroke-width="0.900769" stroke-linecap="round" stroke-linejoin="round"/>
<path d="M292.761 116.598L297.823 116.598L298.546 112.919L291.77 112.919L292.761 116.598Z" stroke="#FF9600" stroke-width="0.900769" stroke-linecap="round" stroke-linejoin="round"/>
<path d="M266.84 116.598H263.214V143.317H266.84V116.598Z" fill="white"/>
<path d="M267.549 142.711H262.487L261.763 146.39H267.766L267.549 142.711Z" fill="white"/>
<path d="M262.365 116.598L267.427 116.598L268.151 112.919L262.148 112.919L262.365 116.598Z" fill="white"/>
<path d="M266.746 116.598H263.121L263.121 142.713H266.746L266.746 116.598Z" stroke="#FF9600" stroke-width="0.900769" stroke-linecap="round" stroke-linejoin="round"/>
<path d="M262.366 116.598L267.429 116.598L268.152 112.919L261.375 112.919L262.366 116.598Z" stroke="#FF9600" stroke-width="0.900769" stroke-linecap="round" stroke-linejoin="round"/>
<path d="M267.547 142.711H262.485L261.761 146.39H267.764L267.547 142.711Z" stroke="#FF9600" stroke-width="0.900769" stroke-linecap="round" stroke-linejoin="round"/>
<circle cx="285.867" cy="139.452" r="0.9681" fill="#FF9600"/>
<circle cx="274.636" cy="139.452" r="0.9681" fill="#FF9600"/>
<path d="M310.557 134.413H315.762C315.762 134.413 316.952 125.313 313.754 125.312C310.557 125.312 310.557 134.413 310.557 134.413Z" fill="#FFD8AB"/>
<path d="M310.557 134.413H315.762C315.762 134.413 316.952 125.313 313.754 125.312C310.557 125.312 310.557 134.413 310.557 134.413Z" stroke="#FF9600" stroke-width="0.900769" stroke-linecap="round" stroke-linejoin="round"/>
<path d="M313.459 125.508L313.459 134.221" stroke="#FF9600" stroke-width="0.900769" stroke-linecap="round" stroke-linejoin="round"/>
<path d="M311.137 131.508H315.59" stroke="#FF9600" stroke-width="0.900769" stroke-linecap="round" stroke-linejoin="round"/>
<path d="M249.367 134.413H244.162C244.162 134.413 242.972 125.313 246.169 125.312C249.367 125.312 249.367 134.413 249.367 134.413Z" fill="#FFECD5"/>
<path d="M249.367 134.413H244.162C244.162 134.413 242.972 125.313 246.169 125.312C249.367 125.312 249.367 134.413 249.367 134.413Z" stroke="#FF9600" stroke-width="0.900769" stroke-linecap="round" stroke-linejoin="round"/>
<path d="M246.463 125.699L246.463 134.218" stroke="#FF9600" stroke-width="0.900769" stroke-linecap="round" stroke-linejoin="round"/>
<path d="M244.332 131.508H248.785" stroke="#FF9600" stroke-width="0.900769" stroke-linecap="round" stroke-linejoin="round"/>
<path d="M280.059 96.7539V106.048" stroke="#FF9600" stroke-width="0.900769" stroke-linecap="round" stroke-linejoin="round"/>
<path d="M275.508 101.504H284.414" stroke="#FF9600" stroke-width="0.900769" stroke-linecap="round" stroke-linejoin="round"/>
<rect x="248.207" y="144.484" width="63.5073" height="2.51706" fill="white"/>
<path d="M248.207 145.926C248.207 145.13 248.852 144.484 249.648 144.484H310.273C311.069 144.484 311.714 145.13 311.714 145.926V147.001H248.207V145.926Z" stroke="#FF9600" stroke-width="0.900769" stroke-linecap="round" stroke-linejoin="round"/>
<path d="M338.143 147.001C340.198 144.302 338.273 140.418 334.881 140.418H331.761C328.643 140.418 326.116 142.946 326.116 146.064V147.001H338.143V147.001Z" fill="white"/>
<path d="M338.547 145.577C338.965 142.801 336.815 140.305 334.009 140.305H333.619C330.241 140.305 328.142 143.976 329.856 146.888V146.888H338.35L338.547 145.577Z" fill="#FFECD5"/>
<path d="M338.143 147.001C340.198 144.302 338.273 140.418 334.881 140.418H331.761C328.643 140.418 326.116 142.946 326.116 146.064V147.001H338.143V147.001Z" stroke="#FF9600" stroke-width="0.900769" stroke-linecap="round"/>
<path d="M328.95 147.009C333.151 144.389 331.242 137.901 326.291 137.974L321.147 138.05C316.649 138.116 313.659 142.728 315.434 146.862L315.497 147.009H328.95V147.009Z" fill="white"/>
<path d="M329.613 147.009C333.046 143.695 330.632 137.891 325.862 137.989L324 138.027C320.031 138.108 317.243 141.964 318.409 145.758L318.794 147.009H329.613V147.009Z" fill="#FFF7EE"/>
<path d="M328.95 147.009C333.151 144.389 331.242 137.901 326.291 137.974L321.147 138.05C316.649 138.116 313.659 142.728 315.434 146.862L315.497 147.009H328.95V147.009Z" stroke="#FF9600" stroke-width="0.900769" stroke-linecap="round"/>
<path d="M228.585 147.006C225.846 141.89 229.834 135.766 235.621 136.201L236.532 136.27C241.138 136.617 244.453 140.843 243.691 145.399L243.423 147.006H228.585V147.006Z" fill="white"/>
<path d="M228.585 147.006C225.846 141.89 229.834 135.766 235.621 136.201L236.532 136.27C241.138 136.617 244.453 140.843 243.691 145.399L243.423 147.006H228.585V147.006Z" fill="#FFECD5"/>
<path d="M228.585 147.006C225.846 141.89 229.834 135.766 235.621 136.201L236.532 136.27C241.138 136.617 244.453 140.843 243.691 145.399L243.423 147.006H228.585V147.006Z" stroke="#FF9600" stroke-width="0.900769" stroke-linecap="round"/>
<path d="M217.266 146.996C214.967 143.276 217.642 138.477 222.015 138.477H224.614C229.015 138.477 231.438 143.59 228.651 146.996V146.996H217.266V146.996Z" fill="white"/>
<path d="M220.156 146.253C218.057 142.857 220.5 138.477 224.491 138.477V138.477C228.05 138.477 230.513 142.031 229.263 145.363L228.651 146.996H220.615L220.156 146.253Z" fill="#FFD8AB"/>
<path d="M217.266 146.996C214.967 143.276 217.642 138.477 222.015 138.477H224.614C229.015 138.477 231.438 143.59 228.651 146.996V146.996H217.266V146.996Z" stroke="#FF9600" stroke-width="0.900769" stroke-linecap="round"/>
</g>
<g opacity="0.4">
<path d="M36.0184 143.816C33.0205 138.558 36.7542 131.91 42.8072 131.91V131.91C47.1636 131.91 50.6951 135.442 50.6951 139.798V143.816H36.0184V143.816Z" fill="white"/>
<path d="M38.5486 136.182C39.3935 133.632 41.7777 131.91 44.4643 131.91V131.91C47.9061 131.91 50.6962 134.7 50.6962 138.142V143.816H36.0195L38.5486 136.182Z" fill="#FFD8AB"/>
<path d="M36.0184 143.816C33.0205 138.558 36.7542 131.91 42.8072 131.91V131.91C47.1636 131.91 50.6951 135.442 50.6951 139.798V143.816H36.0184V143.816Z" stroke="#FF9600" stroke-width="0.780146" stroke-linecap="round"/>
<rect x="61.4277" y="95.5234" width="33.5384" height="7.71384" fill="#FFD8AB" stroke="#FF9600" stroke-width="0.780146" stroke-linecap="round" stroke-linejoin="round"/>
<path d="M121.199 143.295C122.418 137.232 117.782 131.57 111.597 131.57V131.57C105.476 131.57 100.854 137.124 101.967 143.144L102.679 146.998H120.454L121.199 143.295Z" fill="white"/>
<path d="M120.146 136.61C119.72 135.13 118.611 133.943 117.163 133.417V133.417C114.452 132.435 111.492 134.039 110.836 136.846L108.464 146.998H123.137L120.146 136.61Z" fill="#FFD8AB"/>
<path d="M121.199 143.295C122.418 137.232 117.782 131.57 111.597 131.57V131.57C105.476 131.57 100.854 137.124 101.967 143.144L102.679 146.998H120.454L121.199 143.295Z" stroke="#FF9600" stroke-width="0.780146" stroke-linecap="round"/>
<rect x="43.9863" y="113.801" width="67.7476" height="33.2031" fill="white"/>
<path opacity="0.1" d="M60.1309 113.715H111.675V146.963H60.1309V113.715Z" fill="#FFE6C3"/>
<rect x="43.9863" y="113.801" width="67.7476" height="33.2031" stroke="#FF9600" stroke-width="0.780146" stroke-linecap="round" stroke-linejoin="round"/>
<path d="M94.8805 93.0021H61.5098C62.8965 89.4806 68.237 82.4375 78.5049 82.4375C88.7729 82.4375 93.7003 89.4806 94.8805 93.0021Z" fill="white"/>
<path d="M94.965 93.0021H64.2773C65.5526 89.4806 70.4637 82.4375 79.9061 82.4375C89.3484 82.4375 93.8797 89.4806 94.965 93.0021Z" fill="#FFD9AB"/>
<path d="M94.8805 93.0021H61.5098C62.8965 89.4806 68.237 82.4375 78.5049 82.4375C88.7729 82.4375 93.7003 89.4806 94.8805 93.0021Z" stroke="#FF9600" stroke-width="0.780146" stroke-linecap="round" stroke-linejoin="round"/>
<rect x="59.834" y="93.0039" width="36.7246" height="2.51538" rx="0.627694" fill="white" stroke="#FF9600" stroke-width="0.780146" stroke-linecap="round" stroke-linejoin="round"/>
<rect x="61.3418" y="95.5195" width="4.02461" height="7.71384" fill="white"/>
<rect x="69.0547" y="95.5195" width="4.02461" height="7.71384" fill="white"/>
<rect x="83.1406" y="95.5195" width="4.02461" height="7.71384" fill="white"/>
<rect x="90.8555" y="95.5195" width="4.02461" height="7.71384" fill="white"/>
<rect x="90.8555" y="95.5195" width="4.02461" height="7.71384" stroke="#FF9600" stroke-width="0.780146" stroke-linecap="round" stroke-linejoin="round"/>
<rect x="83.1406" y="95.5195" width="4.02461" height="7.71384" stroke="#FF9600" stroke-width="0.780146" stroke-linecap="round" stroke-linejoin="round"/>
<rect x="69.0547" y="95.5195" width="4.02461" height="7.71384" stroke="#FF9600" stroke-width="0.780146" stroke-linecap="round" stroke-linejoin="round"/>
<rect x="61.3418" y="95.5195" width="4.02461" height="7.71384" stroke="#FF9600" stroke-width="0.780146" stroke-linecap="round" stroke-linejoin="round"/>
<path d="M47.0038 103.234H108.547L115.72 112.272C116.209 112.889 115.77 113.799 114.982 113.799H40.5684C39.7806 113.799 39.3412 112.889 39.8309 112.272L47.0038 103.234Z" fill="white"/>
<path d="M46.4019 103.846C46.6992 103.465 47.1558 103.242 47.6393 103.242H107.618C108.085 103.242 108.528 103.45 108.826 103.81L115.836 112.264C116.345 112.878 115.908 113.807 115.111 113.807H40.563C39.7789 113.807 39.3383 112.905 39.8205 112.286L46.4019 103.846Z" fill="white"/>
<path d="M47.9624 103.846C48.2598 103.465 48.7163 103.242 49.1999 103.242H107.617C108.084 103.242 108.527 103.45 108.825 103.81L115.835 112.264C116.343 112.878 115.907 113.807 115.11 113.807H42.1235C41.3395 113.807 40.8989 112.905 41.381 112.286L47.9624 103.846Z" fill="#FFD9AB"/>
<path d="M45.4959 105.134C46.2367 104.201 46.607 103.734 47.1245 103.484C47.6419 103.234 48.2377 103.234 49.4292 103.234H106.121C107.313 103.234 107.909 103.234 108.426 103.484C108.943 103.734 109.314 104.201 110.055 105.134L114.508 110.745C115.561 112.072 116.087 112.735 115.83 113.267C115.573 113.799 114.726 113.799 113.033 113.799H42.5177C40.8243 113.799 39.9776 113.799 39.7206 113.267C39.4636 112.735 39.99 112.072 41.0427 110.745L45.4959 105.134Z" stroke="#FF9600" stroke-width="0.780146" stroke-linecap="round" stroke-linejoin="round"/>
<path d="M70.786 147.006H85.2685C85.2685 147.006 88.341 131.746 78.3283 131.746C68.3155 131.746 70.786 147.006 70.786 147.006Z" fill="#FFCD94" stroke="#FF9600" stroke-width="0.780146" stroke-linecap="round"/>
<path fill-rule="evenodd" clip-rule="evenodd" d="M127.804 121.239C129.261 120.596 130.742 120.599 131.805 121.396C133.685 122.807 133.545 126.169 131.492 128.906C131.341 129.108 131.183 129.301 131.02 129.485C132.741 130.711 133.659 132.456 133.209 134.04C132.566 136.3 129.377 137.375 126.086 136.439C125.129 136.167 124.269 135.755 123.546 135.251C122.809 135.789 121.813 136.182 120.687 136.321C118.193 136.629 116.01 135.573 115.811 133.962C115.682 132.92 116.416 131.901 117.627 131.228C115.458 128.626 114.981 125.448 116.587 124.022C117.085 123.579 117.727 123.355 118.445 123.331C117.576 120.214 118.737 117.133 121.143 116.33C123.65 115.494 126.56 117.447 127.643 120.693C127.703 120.875 127.757 121.057 127.804 121.239Z" fill="white"/>
<path fill-rule="evenodd" clip-rule="evenodd" d="M128.124 122.815C129.604 121.982 131.126 121.851 132.158 122.625C133.828 123.878 133.582 127.027 131.61 129.662C132.647 130.695 133.158 131.997 132.874 133.258C132.358 135.551 129.407 136.84 126.283 136.136C125.69 136.003 125.133 135.807 124.623 135.561C124.052 135.811 123.4 135.992 122.698 136.079C120.204 136.387 118.028 135.385 117.837 133.842C117.719 132.885 118.391 131.945 119.513 131.295C119.399 131.178 119.287 131.057 119.176 130.933C116.825 128.287 116.263 124.949 117.921 123.476C118.574 122.896 119.474 122.692 120.469 122.82C119.73 119.873 120.642 117.1 122.577 116.541C124.58 115.962 126.921 117.972 127.805 121.031C127.979 121.636 128.084 122.237 128.124 122.815Z" fill="#FFD8AB"/>
<path d="M131.805 121.399L131.571 121.711L131.571 121.711L131.805 121.399ZM127.763 121.259L127.384 121.354C127.412 121.466 127.488 121.56 127.592 121.61C127.696 121.661 127.817 121.662 127.923 121.615L127.763 121.259ZM131.492 128.908L131.18 128.674L131.18 128.674L131.492 128.908ZM131.02 129.487L130.728 129.229C130.654 129.311 130.62 129.421 130.632 129.531C130.645 129.642 130.703 129.741 130.793 129.805L131.02 129.487ZM133.209 134.042L132.834 133.935L132.834 133.935L133.209 134.042ZM126.086 136.441L126.193 136.066L126.193 136.066L126.086 136.441ZM123.546 135.254L123.769 134.934C123.632 134.838 123.45 134.84 123.316 134.939L123.546 135.254ZM120.687 136.323L120.735 136.71L120.735 136.71L120.687 136.323ZM115.811 133.965L115.424 134.012L115.424 134.012L115.811 133.965ZM117.623 131.232L117.813 131.573C117.915 131.517 117.986 131.418 118.007 131.304C118.028 131.19 117.997 131.072 117.923 130.983L117.623 131.232ZM116.587 124.03L116.846 124.321L116.846 124.321L116.587 124.03ZM118.403 123.341L118.42 123.731C118.54 123.725 118.65 123.666 118.719 123.569C118.789 123.472 118.811 123.348 118.778 123.234L118.403 123.341ZM121.087 116.291L120.964 115.921L120.964 115.921L121.087 116.291ZM127.586 120.654L127.956 120.53L127.956 120.53L127.586 120.654ZM132.039 121.086C130.814 120.168 129.152 120.207 127.603 120.904L127.923 121.615C129.315 120.99 130.65 121.02 131.571 121.711L132.039 121.086ZM131.804 129.142C132.872 127.719 133.453 126.119 133.513 124.672C133.574 123.227 133.112 121.891 132.039 121.086L131.571 121.711C132.379 122.316 132.787 123.367 132.734 124.64C132.681 125.91 132.166 127.361 131.18 128.674L131.804 129.142ZM131.311 129.746C131.482 129.555 131.646 129.353 131.804 129.142L131.18 128.674C131.035 128.868 130.884 129.053 130.728 129.229L131.311 129.746ZM133.584 134.149C134.099 132.339 133.034 130.442 131.246 129.17L130.793 129.805C132.448 130.983 133.22 132.578 132.834 133.935L133.584 134.149ZM125.979 136.816C127.691 137.303 129.392 137.272 130.765 136.81C132.136 136.348 133.218 135.438 133.584 134.149L132.834 133.935C132.558 134.906 131.723 135.664 130.516 136.071C129.311 136.476 127.772 136.515 126.193 136.066L125.979 136.816ZM123.323 135.574C124.083 136.103 124.982 136.533 125.979 136.816L126.193 136.066C125.276 135.805 124.455 135.411 123.769 134.934L123.323 135.574ZM120.735 136.71C121.919 136.564 122.98 136.15 123.776 135.569L123.316 134.939C122.639 135.433 121.707 135.804 120.639 135.936L120.735 136.71ZM115.424 134.012C115.545 134.993 116.263 135.752 117.218 136.214C118.178 136.678 119.424 136.872 120.735 136.71L120.639 135.936C119.456 136.082 118.363 135.901 117.558 135.512C116.749 135.12 116.276 134.546 116.198 133.917L115.424 134.012ZM117.434 130.892C116.162 131.6 115.267 132.742 115.424 134.012L116.198 133.917C116.098 133.104 116.668 132.211 117.813 131.573L117.434 130.892ZM116.328 123.738C115.393 124.568 115.105 125.871 115.305 127.246C115.506 128.626 116.203 130.135 117.323 131.482L117.923 130.983C116.879 129.728 116.254 128.348 116.077 127.134C115.9 125.914 116.175 124.917 116.846 124.321L116.328 123.738ZM118.385 122.951C117.611 122.986 116.894 123.235 116.328 123.738L116.846 124.321C117.256 123.957 117.792 123.759 118.42 123.731L118.385 122.951ZM118.778 123.234C117.915 120.21 119.068 117.376 121.21 116.661L120.964 115.921C118.268 116.82 117.102 120.205 118.028 123.448L118.778 123.234ZM121.21 116.661C123.43 115.921 126.17 117.641 127.216 120.777L127.956 120.53C126.837 117.175 123.758 114.989 120.964 115.921L121.21 116.661ZM127.216 120.777C127.281 120.969 127.336 121.162 127.384 121.354L128.141 121.165C128.089 120.954 128.027 120.742 127.956 120.53L127.216 120.777Z" fill="#FF9600"/>
<path d="M123.65 135.652L123.65 146.961" stroke="#FF9600" stroke-width="0.780146" stroke-linecap="round"/>
<path d="M118.881 126.438L121.197 128.345" stroke="#FF9600" stroke-width="0.780146" stroke-linecap="round"/>
<path d="M128.555 129.027L125.693 132.297" stroke="#FF9600" stroke-width="0.780146" stroke-linecap="round"/>
<path d="M125.422 122.488L124.604 125.35" stroke="#FF9600" stroke-width="0.780146" stroke-linecap="round"/>
<path d="M78.1934 131.746L78.1934 144.826" stroke="#FF9600" stroke-width="0.780146" stroke-linecap="round"/>
<path fill-rule="evenodd" clip-rule="evenodd" d="M32.1366 116.855C29.6555 115.946 26.6893 117.812 25.5114 121.025C25.2885 121.633 25.1457 122.245 25.0773 122.845C23.9948 122.656 23.0086 122.845 22.3074 123.468C20.65 124.94 21.2122 128.279 23.563 130.925C23.6776 131.054 23.7943 131.179 23.9129 131.3C22.7881 131.972 22.1165 132.951 22.24 133.952C22.4388 135.562 24.6219 136.618 27.1161 136.31C28.2587 136.169 29.2684 135.766 30.0081 135.216C31.264 135.819 32.9248 136.037 34.6655 135.723C38.0327 135.115 40.4239 132.747 40.0064 130.434C39.831 129.462 39.1877 128.655 38.2508 128.09C39.0263 125.955 38.7406 123.845 37.3503 122.802C36.6818 122.301 35.8478 122.113 34.9583 122.203C35.1393 119.752 34.0708 117.564 32.1366 116.855Z" fill="white"/>
<path fill-rule="evenodd" clip-rule="evenodd" d="M32.9342 117.311C30.9768 116.594 28.5014 118.435 27.4053 121.425C27.2331 121.895 27.1052 122.365 27.0195 122.826C25.9766 122.665 25.0298 122.862 24.3504 123.465C22.693 124.938 23.2552 128.277 25.6059 130.922C25.7164 131.047 25.8288 131.167 25.9429 131.284C24.821 131.934 24.1488 132.874 24.2669 133.831C24.4575 135.375 26.6339 136.376 29.1281 136.068C29.9374 135.968 30.6807 135.743 31.3091 135.431C32.4287 135.894 33.8125 136.047 35.2501 135.788C38.4011 135.219 40.617 132.883 40.1996 130.57C40.0046 129.49 39.2694 128.605 38.22 128.028C39.1106 125.921 38.9577 123.842 37.6755 122.88C36.9353 122.325 35.943 122.235 34.8952 122.536C35.3217 120.095 34.5649 117.909 32.9342 117.311Z" fill="#FFCD94"/>
<path d="M25.5926 121.365L25.2264 121.23L25.2264 121.23L25.5926 121.365ZM32.2177 117.195L32.352 116.829L32.2177 117.195ZM25.2026 122.86L25.1259 123.243C25.2301 123.264 25.3383 123.241 25.4255 123.181C25.5127 123.12 25.5713 123.026 25.5879 122.921L25.2026 122.86ZM22.3074 123.459L22.5665 123.751L22.5665 123.751L22.3074 123.459ZM23.563 130.917L23.8546 130.657L23.8546 130.657L23.563 130.917ZM23.9165 131.295L24.1163 131.63C24.2191 131.569 24.2881 131.464 24.3034 131.345C24.3187 131.226 24.2787 131.107 24.1948 131.022L23.9165 131.295ZM22.24 133.949L22.6271 133.901L22.6271 133.901L22.24 133.949ZM27.1161 136.307L27.1639 136.695L27.1639 136.695L27.1161 136.307ZM30.0105 135.212L30.1792 134.86C30.0485 134.797 29.8938 134.812 29.7775 134.899L30.0105 135.212ZM34.6655 135.717L34.5962 135.333L34.5962 135.333L34.6655 135.717ZM40.0064 130.429L40.3903 130.36L40.3903 130.36L40.0064 130.429ZM38.2526 128.086L37.8859 127.953C37.8224 128.128 37.8916 128.323 38.0511 128.42L38.2526 128.086ZM37.3503 122.802L37.1163 123.115L37.1163 123.115L37.3503 122.802ZM35.0568 122.195L34.6669 122.185C34.664 122.295 34.7081 122.402 34.7883 122.478C34.8685 122.554 34.9772 122.593 35.0873 122.584L35.0568 122.195ZM25.9588 121.499C27.0968 118.395 29.887 116.756 32.0835 117.561L32.352 116.829C29.5863 115.815 26.444 117.909 25.2264 121.23L25.9588 121.499ZM25.5879 122.921C25.6621 122.451 25.7847 121.974 25.9588 121.499L25.2264 121.23C25.0349 121.753 24.8995 122.279 24.8173 122.8L25.5879 122.921ZM25.2793 122.478C24.0696 122.235 22.8958 122.415 22.0483 123.168L22.5665 123.751C23.1754 123.21 24.0725 123.032 25.1259 123.243L25.2793 122.478ZM22.0483 123.168C21.0831 124.025 20.8074 125.387 21.0475 126.813C21.2886 128.245 22.0551 129.807 23.2714 131.176L23.8546 130.657C22.7201 129.381 22.03 127.95 21.8168 126.683C21.6025 125.41 21.8743 124.366 22.5665 123.751L22.0483 123.168ZM23.2714 131.176C23.3915 131.311 23.5138 131.442 23.6382 131.568L24.1948 131.022C24.0795 130.904 23.966 130.783 23.8546 130.657L23.2714 131.176ZM23.7167 130.96C22.526 131.67 21.7021 132.775 21.8529 133.997L22.6271 133.901C22.5306 133.119 23.0532 132.264 24.1163 131.63L23.7167 130.96ZM21.8529 133.997C21.9739 134.978 22.6923 135.737 23.6474 136.199C24.6069 136.663 25.8534 136.856 27.1639 136.695L27.0683 135.92C25.8845 136.066 24.7925 135.886 23.9871 135.496C23.1775 135.105 22.7049 134.531 22.6271 133.901L21.8529 133.997ZM27.1639 136.695C28.3667 136.546 29.4431 136.121 30.2435 135.525L29.7775 134.899C29.0982 135.405 28.1532 135.786 27.0683 135.92L27.1639 136.695ZM29.8418 135.563C31.1812 136.206 32.9257 136.428 34.7347 136.101L34.5962 135.333C32.926 135.635 31.3512 135.422 30.1792 134.86L29.8418 135.563ZM34.7347 136.101C36.4859 135.785 38.0003 135.009 39.0296 133.99C40.0575 132.972 40.6284 131.679 40.3903 130.36L39.6226 130.498C39.8019 131.492 39.3859 132.539 38.4807 133.435C37.5771 134.33 36.2122 135.042 34.5962 135.333L34.7347 136.101ZM40.3903 130.36C40.1906 129.253 39.4618 128.36 38.4541 127.752L38.0511 128.42C38.9152 128.941 39.4717 129.662 39.6226 130.498L40.3903 130.36ZM38.6193 128.219C39.4199 126.01 39.1723 123.681 37.5844 122.49L37.1163 123.115C38.3068 124.008 38.6318 125.894 37.8859 127.953L38.6193 128.219ZM37.5844 122.49C36.852 121.941 35.9563 121.733 35.0263 121.806L35.0873 122.584C35.8623 122.523 36.561 122.698 37.1163 123.115L37.5844 122.49ZM32.0835 117.561C33.7179 118.161 34.724 119.983 34.6669 122.185L35.4468 122.205C35.5094 119.79 34.4019 117.58 32.352 116.829L32.0835 117.561Z" fill="#FF9600"/>
<path d="M30.0723 135.645L30.0723 146.953" stroke="#FF9600" stroke-width="0.780146" stroke-linecap="round"/>
<path d="M25.3008 126.438L27.617 128.345" stroke="#FF9600" stroke-width="0.780146" stroke-linecap="round"/>
<path d="M34.9746 129.023L32.1134 132.293" stroke="#FF9600" stroke-width="0.780146" stroke-linecap="round"/>
<path d="M31.8398 122.484L31.0223 125.346" stroke="#FF9600" stroke-width="0.780146" stroke-linecap="round"/>
<path d="M71.3763 127.385H84.222C84.222 127.385 86.0294 121.348 78.1384 121.348C70.2475 121.348 71.3763 127.385 71.3763 127.385Z" fill="#FFD8AB"/>
<path d="M71.3763 127.385H84.222C84.222 127.385 86.0294 121.348 78.1384 121.348C70.2475 121.348 71.3763 127.385 71.3763 127.385Z" stroke="#FF9600" stroke-width="0.780146" stroke-linecap="round" stroke-linejoin="round"/>
<path d="M78.1973 121.348L78.1973 127.385" stroke="#FF9600" stroke-width="0.780146" stroke-linecap="round"/>
<path d="M83.8965 124.867H71.8226" stroke="#FF9600" stroke-width="0.780146" stroke-linecap="round"/>
<path opacity="0.16" d="M78.5723 107.628C78.5723 106.444 78.5723 105.853 78.94 105.485C79.3077 105.117 79.8995 105.117 81.083 105.117H109.172C109.772 105.117 110.071 105.117 110.331 105.243C110.591 105.37 110.776 105.605 111.146 106.076L113.967 109.664C115.355 111.43 116.049 112.313 115.706 113.02C115.362 113.727 114.239 113.727 111.993 113.727H81.083C79.8995 113.727 79.3077 113.727 78.94 113.359C78.5723 112.991 78.5723 112.4 78.5723 111.216V107.628Z" fill="#FF9600"/>
<path d="M76.0137 76.4023L77.0198 82.3554" stroke="#FF9600" stroke-width="0.780146" stroke-linecap="round"/>
<path d="M79.8011 77.0207L75.7617 75.2305L76.7679 80.0935L79.5969 79.3863C81.0677 79.0186 81.8032 78.8347 81.8417 78.3884C81.8802 77.9421 81.1872 77.6349 79.8011 77.0207Z" fill="#FFD8AB" stroke="#FF9600" stroke-width="0.780146" stroke-linecap="round" stroke-linejoin="round"/>
<path d="M76.3173 96.0353C77.221 95.3379 78.4814 95.3379 79.3852 96.0353L104.272 115.241C105.22 115.972 104.703 117.49 103.505 117.49H52.1972C50.9995 117.49 50.4821 115.972 51.4303 115.241L76.3173 96.0353Z" fill="white"/>
<path d="M79.5364 96.2734L104.416 115.233C105.371 115.961 104.856 117.486 103.655 117.486H51.8672L79.5364 96.2734Z" fill="#FFD8AB" fill-opacity="0.5"/>
<path d="M74.0164 97.8109C75.8595 96.3886 76.781 95.6774 77.8512 95.6774C78.9214 95.6774 79.843 96.3886 81.6861 97.8109L101.358 112.992C103.775 114.857 104.983 115.79 104.693 116.64C104.403 117.49 102.877 117.49 99.8236 117.49H55.8789C52.8256 117.49 51.2989 117.49 51.009 116.64C50.7191 115.79 51.9277 114.857 54.3449 112.992L74.0164 97.8109Z" stroke="#FF9600" stroke-width="0.780146" stroke-linecap="round" stroke-linejoin="round"/>
<path d="M77.858 98.0312L98.5383 114.011C99.012 114.378 98.7532 115.136 98.1545 115.136H57.5615C56.9629 115.136 56.704 114.378 57.1777 114.011L77.858 98.0312Z" fill="white"/>
<path opacity="0.4" d="M78.3099 97.8984L98.0137 113.829H57.7676L78.3099 97.8984Z" fill="#FFE8CD"/>
<path d="M75.939 99.5141C76.8613 98.8015 77.3224 98.4452 77.858 98.4452C78.3937 98.4452 78.8548 98.8015 79.777 99.5141L97.0832 112.887C98.2901 113.82 98.8936 114.286 98.7486 114.711C98.6035 115.136 97.8409 115.136 96.3156 115.136H59.4004C57.8752 115.136 57.1125 115.136 56.9675 114.711C56.8225 114.286 57.4259 113.82 58.6328 112.887L75.939 99.5141Z" stroke="#FF9600" stroke-width="0.780146" stroke-linecap="round" stroke-linejoin="round"/>
<ellipse cx="77.8688" cy="107.67" rx="4.01528" ry="4.35093" transform="rotate(15.626 77.8688 107.67)" fill="#FFFAED" stroke="#FF9600" stroke-width="0.780146" stroke-linecap="round" stroke-linejoin="round"/>
<path d="M54.4066 143.809H58.7909L59.4172 146.995H54.2188L54.4066 143.809Z" fill="white"/>
<path d="M101.398 143.809H98.9423L98.3159 146.995H101.586L101.398 143.809Z" fill="#FFD9AB"/>
<path d="M57.1035 120.676H53.9635V143.817H57.1035V120.676Z" fill="white"/>
<path d="M57.7184 143.289H53.3341L52.7078 146.475H57.9062L57.7184 143.289Z" fill="white"/>
<path d="M53.2289 120.676L57.6132 120.676L58.2395 117.49L53.041 117.49L53.2289 120.676Z" fill="white"/>
<path d="M57.0234 120.676H53.8835L53.8835 143.294H57.0234L57.0234 120.676Z" stroke="#FF9600" stroke-width="0.780146" stroke-linecap="round" stroke-linejoin="round"/>
<path d="M53.2317 120.676L57.616 120.676L58.2423 117.49L52.373 117.49L53.2317 120.676Z" stroke="#FF9600" stroke-width="0.780146" stroke-linecap="round" stroke-linejoin="round"/>
<path d="M57.7184 143.289H53.3341L52.7078 146.475H57.9062L57.7184 143.289Z" stroke="#FF9600" stroke-width="0.780146" stroke-linecap="round" stroke-linejoin="round"/>
<path d="M101.877 120.676H98.737V143.817H101.877V120.676Z" fill="white"/>
<path d="M102.49 143.289H98.1056L97.4793 146.475H102.678L102.49 143.289Z" fill="white"/>
<path d="M98.0004 120.676L102.385 120.676L103.011 117.49L97.8125 117.49L98.0004 120.676Z" fill="white"/>
<path d="M101.797 120.676H98.6569L98.6569 143.294H101.797L101.797 120.676Z" stroke="#FF9600" stroke-width="0.780146" stroke-linecap="round" stroke-linejoin="round"/>
<path d="M98.0051 120.676L102.389 120.676L103.016 117.49L97.1465 117.49L98.0051 120.676Z" stroke="#FF9600" stroke-width="0.780146" stroke-linecap="round" stroke-linejoin="round"/>
<path d="M102.492 143.289H98.1075L97.4812 146.475H102.68L102.492 143.289Z" stroke="#FF9600" stroke-width="0.780146" stroke-linecap="round" stroke-linejoin="round"/>
<path d="M92.8242 120.676H89.6842V143.817H92.8242V120.676Z" fill="white"/>
<path d="M93.4352 143.289H89.0509L88.4246 146.475H93.623L93.4352 143.289Z" fill="white"/>
<path d="M88.9485 120.676L93.3328 120.676L93.9591 117.49L88.0898 117.49L88.9485 120.676Z" fill="white"/>
<path d="M92.7402 120.676H89.6003L89.6003 143.294H92.7402L92.7402 120.676Z" stroke="#FF9600" stroke-width="0.780146" stroke-linecap="round" stroke-linejoin="round"/>
<path d="M93.4352 143.289H89.0509L88.4246 146.475H93.623L93.4352 143.289Z" stroke="#FF9600" stroke-width="0.780146" stroke-linecap="round" stroke-linejoin="round"/>
<path d="M88.9485 120.676L93.3328 120.676L93.9591 117.49L88.0898 117.49L88.9485 120.676Z" stroke="#FF9600" stroke-width="0.780146" stroke-linecap="round" stroke-linejoin="round"/>
<path d="M66.4961 120.676H63.3561V143.817H66.4961V120.676Z" fill="white"/>
<path d="M67.1109 143.289H62.7267L62.1004 146.475H67.2988L67.1109 143.289Z" fill="white"/>
<path d="M62.6215 120.676L67.0057 120.676L67.6321 117.49L62.4336 117.49L62.6215 120.676Z" fill="white"/>
<path d="M66.4141 120.676H63.2741L63.2741 143.294H66.4141L66.4141 120.676Z" stroke="#FF9600" stroke-width="0.780146" stroke-linecap="round" stroke-linejoin="round"/>
<path d="M62.6223 120.676L67.0066 120.676L67.6329 117.49L61.7637 117.49L62.6223 120.676Z" stroke="#FF9600" stroke-width="0.780146" stroke-linecap="round" stroke-linejoin="round"/>
<path d="M67.109 143.289H62.7247L62.0984 146.475H67.2969L67.109 143.289Z" stroke="#FF9600" stroke-width="0.780146" stroke-linecap="round" stroke-linejoin="round"/>
<circle cx="82.9752" cy="140.463" r="0.838461" fill="#FF9600"/>
<circle cx="73.2486" cy="140.463" r="0.838461" fill="#FF9600"/>
<path d="M104.355 136.104H108.863C108.863 136.104 109.894 128.223 107.124 128.223C104.355 128.223 104.355 136.104 104.355 136.104Z" fill="#FFD8AB"/>
<path d="M104.355 136.104H108.863C108.863 136.104 109.894 128.223 107.124 128.223C104.355 128.223 104.355 136.104 104.355 136.104Z" stroke="#FF9600" stroke-width="0.780146" stroke-linecap="round" stroke-linejoin="round"/>
<path d="M106.869 128.391L106.869 135.937" stroke="#FF9600" stroke-width="0.780146" stroke-linecap="round" stroke-linejoin="round"/>
<path d="M104.857 133.586H108.714" stroke="#FF9600" stroke-width="0.780146" stroke-linecap="round" stroke-linejoin="round"/>
<path d="M51.3653 136.104H46.8575C46.8575 136.104 45.8271 128.223 48.5962 128.223C51.3653 128.223 51.3653 136.104 51.3653 136.104Z" fill="#FFECD5"/>
<path d="M51.3653 136.104H46.8575C46.8575 136.104 45.8271 128.223 48.5962 128.223C51.3653 128.223 51.3653 136.104 51.3653 136.104Z" stroke="#FF9600" stroke-width="0.780146" stroke-linecap="round" stroke-linejoin="round"/>
<path d="M48.8516 128.555L48.8516 135.933" stroke="#FF9600" stroke-width="0.780146" stroke-linecap="round" stroke-linejoin="round"/>
<path d="M47.0059 133.586H50.8628" stroke="#FF9600" stroke-width="0.780146" stroke-linecap="round" stroke-linejoin="round"/>
<path d="M77.9453 103.48V111.53" stroke="#FF9600" stroke-width="0.780146" stroke-linecap="round" stroke-linejoin="round"/>
<path d="M74.0039 107.594H81.7177" stroke="#FF9600" stroke-width="0.780146" stroke-linecap="round" stroke-linejoin="round"/>
<rect x="50.3574" y="144.824" width="55.003" height="2.18" fill="white"/>
<path d="M50.3574 146.072C50.3574 145.383 50.9163 144.824 51.6057 144.824H104.112C104.802 144.824 105.36 145.383 105.36 146.072V147.004H50.3574V146.072Z" stroke="#FF9600" stroke-width="0.780146" stroke-linecap="round" stroke-linejoin="round"/>
<path d="M128.252 147.002C130.031 144.665 128.364 141.301 125.426 141.301H122.724C120.024 141.301 117.835 143.49 117.835 146.19V147.002H128.252V147.002Z" fill="white"/>
<path d="M128.601 145.769C128.962 143.365 127.101 141.203 124.67 141.203H124.333C121.407 141.203 119.589 144.383 121.073 146.905V146.905H128.43L128.601 145.769Z" fill="#FFECD5"/>
<path d="M128.252 147.002C130.031 144.665 128.364 141.301 125.426 141.301H122.724C120.024 141.301 117.835 143.49 117.835 146.19V147.002H128.252V147.002Z" stroke="#FF9600" stroke-width="0.780146" stroke-linecap="round"/>
<path d="M120.287 147.006C123.926 144.737 122.272 139.118 117.985 139.181L113.53 139.247C109.634 139.305 107.044 143.299 108.581 146.879L108.635 147.006H120.287V147.006Z" fill="white"/>
<path d="M120.859 147.006C123.832 144.137 121.742 139.11 117.611 139.194L115.998 139.227C112.561 139.298 110.146 142.637 111.156 145.923L111.489 147.006H120.859V147.006Z" fill="#FFF7EE"/>
<path d="M120.287 147.006C123.926 144.737 122.272 139.118 117.985 139.181L113.53 139.247C109.634 139.305 107.044 143.299 108.581 146.879L108.635 147.006H120.287V147.006Z" stroke="#FF9600" stroke-width="0.780146" stroke-linecap="round"/>
<path d="M33.365 147.003C30.9928 142.572 34.4469 137.267 39.4588 137.645L40.2484 137.704C44.2376 138.005 47.1079 141.665 46.4486 145.611L46.216 147.003H33.365V147.003Z" fill="white"/>
<path d="M33.365 147.003C30.9928 142.572 34.4469 137.267 39.4588 137.645L40.2484 137.704C44.2376 138.005 47.1079 141.665 46.4486 145.611L46.216 147.003H33.365V147.003Z" fill="#FFECD5"/>
<path d="M33.365 147.003C30.9928 142.572 34.4469 137.267 39.4588 137.645L40.2484 137.704C44.2376 138.005 47.1079 141.665 46.4486 145.611L46.216 147.003H33.365V147.003Z" stroke="#FF9600" stroke-width="0.780146" stroke-linecap="round"/>
<path d="M23.5607 147C21.5693 143.778 23.8867 139.621 27.6742 139.621H29.925C33.7363 139.621 35.835 144.05 33.4215 147V147H23.5607V147Z" fill="white"/>
<path d="M26.0651 146.356C24.2475 143.415 26.3627 139.621 29.8198 139.621V139.621C32.9016 139.621 35.0348 142.699 33.9527 145.585L33.4222 147H26.463L26.0651 146.356Z" fill="#FFD8AB"/>
<path d="M23.5607 147C21.5693 143.778 23.8867 139.621 27.6742 139.621H29.925C33.7363 139.621 35.835 144.05 33.4215 147V147H23.5607V147Z" stroke="#FF9600" stroke-width="0.780146" stroke-linecap="round"/>
</g>
<rect x="16" y="146" width="328" height="1.5" rx="0.75" fill="#083156"/>
<rect x="4" y="146" width="8" height="1.5" rx="0.75" fill="#083156"/>
<rect x="348" y="146" width="8" height="1.5" rx="0.75" fill="#083156"/>
<rect x="360" y="146" width="4" height="1.5" rx="0.75" fill="#083156"/>
<path d="M103.687 140.588C97.9283 130.488 105.1 117.719 116.727 117.719V117.719C125.095 117.719 131.878 124.502 131.878 132.87V140.588H103.687V140.588Z" fill="white"/>
<path d="M108.545 125.925C110.168 121.026 114.748 117.719 119.908 117.719V117.719C126.519 117.719 131.879 123.078 131.879 129.689V140.588H103.688L108.545 125.925Z" fill="#FFD8AB"/>
<path d="M103.687 140.588C97.9283 130.488 105.1 117.719 116.727 117.719V117.719C125.095 117.719 131.878 124.502 131.878 132.87V140.588H103.687V140.588Z" stroke="#083156" stroke-width="1.35" stroke-linecap="round"/>
<rect x="152.492" y="47.8203" width="64.421" height="14.8168" fill="#FFD8AB" stroke="#083156" stroke-width="1.35" stroke-linecap="round" stroke-linejoin="round"/>
<path d="M267.303 139.595C269.645 127.949 260.74 117.074 248.861 117.074V117.074C237.102 117.074 228.225 127.741 230.362 139.304L231.73 146.708H265.873L267.303 139.595Z" fill="white"/>
<path d="M265.284 126.755C264.465 123.911 262.334 121.631 259.552 120.622V120.622C254.346 118.734 248.66 121.816 247.4 127.208L242.843 146.708H271.027L265.284 126.755Z" fill="#FFD8AB"/>
<path d="M267.303 139.595C269.645 127.949 260.74 117.074 248.861 117.074V117.074C237.102 117.074 228.225 127.741 230.362 139.304L231.73 146.708H265.873L267.303 139.595Z" stroke="#083156" stroke-width="1.35" stroke-linecap="round"/>
<rect x="118.994" y="82.9336" width="130.13" height="63.7768" fill="white"/>
<path d="M150.006 82.7695H249.013V146.633H150.006V82.7695Z" fill="#FFE6C3"/>
<rect x="118.994" y="82.9336" width="130.13" height="63.7768" stroke="#083156" stroke-width="1.35" stroke-linecap="round" stroke-linejoin="round"/>
<path d="M216.751 42.9918H152.652C155.316 36.2276 165.574 22.6992 185.297 22.6992C205.02 22.6992 214.484 36.2276 216.751 42.9918Z" fill="white"/>
<path d="M216.912 42.9918H157.967C160.416 36.2276 169.85 22.6992 187.987 22.6992C206.124 22.6992 214.827 36.2276 216.912 42.9918Z" fill="#3C5D87"/>
<path d="M216.751 42.9918H152.652C155.316 36.2276 165.574 22.6992 185.297 22.6992C205.02 22.6992 214.484 36.2276 216.751 42.9918Z" stroke="#083156" stroke-width="1.35" stroke-linecap="round" stroke-linejoin="round"/>
<rect x="149.434" y="42.9922" width="70.541" height="4.83158" rx="1.00573" fill="white" stroke="#083156" stroke-width="1.35" stroke-linecap="round" stroke-linejoin="round"/>
<rect x="152.332" y="47.8203" width="7.73052" height="14.8168" fill="white"/>
<rect x="167.148" y="47.8203" width="7.73052" height="14.8168" fill="white"/>
<rect x="194.205" y="47.8203" width="7.73052" height="14.8168" fill="white"/>
<rect x="209.021" y="47.8203" width="7.73052" height="14.8168" fill="white"/>
<rect x="209.021" y="47.8203" width="7.73052" height="14.8168" stroke="#083156" stroke-width="1.35" stroke-linecap="round" stroke-linejoin="round"/>
<rect x="194.205" y="47.8203" width="7.73052" height="14.8168" stroke="#083156" stroke-width="1.35" stroke-linecap="round" stroke-linejoin="round"/>
<rect x="167.148" y="47.8203" width="7.73052" height="14.8168" stroke="#083156" stroke-width="1.35" stroke-linecap="round" stroke-linejoin="round"/>
<rect x="152.332" y="47.8203" width="7.73052" height="14.8168" stroke="#083156" stroke-width="1.35" stroke-linecap="round" stroke-linejoin="round"/>
<path d="M124.793 62.6367H243.005L257.169 80.4829C257.954 81.4716 257.25 82.9293 255.987 82.9293H111.811C110.549 82.9293 109.844 81.4716 110.629 80.4829L124.793 62.6367Z" fill="white"/>
<path d="M123.784 63.6205C124.261 63.0095 124.992 62.6523 125.767 62.6523H241.454C242.203 62.6523 242.912 62.9857 243.39 63.5619L257.411 80.4735C258.226 81.4568 257.527 82.945 256.25 82.945H111.804C110.548 82.945 109.842 81.4993 110.615 80.5087L123.784 63.6205Z" fill="white"/>
<path d="M126.784 63.6205C127.261 63.0095 127.992 62.6523 128.767 62.6523H241.454C242.203 62.6523 242.912 62.9857 243.39 63.5619L257.411 80.4735C258.226 81.4568 257.527 82.945 256.25 82.945H114.804C113.548 82.945 112.842 81.4993 113.615 80.5087L126.784 63.6205Z" fill="#3C5D87"/>
<path d="M122.377 65.6808C123.564 64.1853 124.157 63.4376 124.986 63.0372C125.815 62.6367 126.77 62.6367 128.679 62.6367H239.119C241.028 62.6367 241.983 62.6367 242.812 63.0372C243.641 63.4376 244.234 64.1853 245.421 65.6808L255.227 78.0365C256.914 80.1618 257.758 81.2244 257.346 82.0769C256.934 82.9293 255.577 82.9293 252.864 82.9293H114.934C112.221 82.9293 110.864 82.9293 110.452 82.0769C110.041 81.2244 110.884 80.1618 112.571 78.0365L122.377 65.6808Z" stroke="#083156" stroke-width="1.35" stroke-linecap="round" stroke-linejoin="round"/>
<path d="M170.471 146.71H198.289C198.289 146.71 204.191 117.398 184.958 117.398C165.726 117.398 170.471 146.71 170.471 146.71Z" fill="#FFCD94" stroke="#083156" stroke-width="1.35" stroke-linecap="round"/>
<path fill-rule="evenodd" clip-rule="evenodd" d="M281.199 97.1943C283.998 95.9611 286.841 95.9671 288.882 97.498C292.494 100.207 292.225 106.665 288.281 111.923C287.99 112.311 287.687 112.682 287.374 113.034C290.682 115.388 292.446 118.742 291.581 121.784C290.347 126.126 284.221 128.19 277.899 126.392C276.061 125.87 274.409 125.078 273.02 124.111C271.605 125.143 269.691 125.898 267.53 126.165C262.739 126.756 258.546 124.728 258.164 121.635C257.917 119.634 259.325 117.677 261.648 116.385C257.487 111.387 256.572 105.287 259.655 102.548C260.612 101.697 261.845 101.268 263.225 101.221C261.554 95.2332 263.783 89.3122 268.406 87.7699C273.221 86.1636 278.811 89.9155 280.89 96.15C281.006 96.498 281.109 96.8464 281.199 97.1943Z" fill="white"/>
<path fill-rule="evenodd" clip-rule="evenodd" d="M281.819 100.224C284.66 98.6235 287.583 98.3724 289.565 99.8591C292.773 102.265 292.301 108.314 288.513 113.375C290.505 115.361 291.487 117.861 290.941 120.283C289.95 124.687 284.282 127.163 278.282 125.812C277.143 125.555 276.075 125.18 275.097 124.709C274 125.19 272.746 125.538 271.397 125.705C266.606 126.296 262.426 124.372 262.06 121.407C261.833 119.569 263.125 117.763 265.281 116.514C265.062 116.289 264.845 116.057 264.633 115.818C260.117 110.736 259.038 104.323 262.221 101.494C263.475 100.38 265.203 99.9886 267.113 100.233C265.694 94.573 267.446 89.2458 271.164 88.1712C275.011 87.0594 279.507 90.9213 281.205 96.7971C281.54 97.9589 281.742 99.1126 281.819 100.224Z" fill="#FFD8AB"/>
<path d="M288.882 97.5019L288.477 98.0419L288.477 98.0419L288.882 97.5019ZM281.12 97.2332L280.465 97.3963C280.513 97.5903 280.645 97.7529 280.825 97.8403C281.005 97.9277 281.214 97.9309 281.396 97.849L281.12 97.2332ZM288.281 111.927L288.821 112.332L288.821 112.332L288.281 111.927ZM287.376 113.036L286.871 112.588C286.744 112.731 286.684 112.922 286.705 113.112C286.727 113.302 286.828 113.475 286.985 113.586L287.376 113.036ZM291.581 121.784L292.231 121.968L292.231 121.968L291.581 121.784ZM277.899 126.392L277.715 127.042L277.715 127.042L277.899 126.392ZM273.02 124.111L273.406 123.557C273.169 123.393 272.855 123.397 272.622 123.566L273.02 124.111ZM267.53 126.165L267.447 125.495L267.447 125.495L267.53 126.165ZM258.164 121.635L258.834 121.552L258.834 121.552L258.164 121.635ZM261.648 116.385L261.976 116.975C262.152 116.877 262.275 116.706 262.311 116.509C262.348 116.311 262.295 116.107 262.167 115.953L261.648 116.385ZM259.655 102.548L259.206 102.043L259.206 102.043L259.655 102.548ZM263.14 101.224L263.17 101.899C263.376 101.889 263.567 101.786 263.687 101.619C263.808 101.451 263.845 101.238 263.789 101.039L263.14 101.224ZM268.297 87.6879L268.083 87.0476L268.297 87.6879ZM280.781 96.068L280.141 96.2816L280.141 96.2816L280.781 96.068ZM289.287 96.9619C286.964 95.2192 283.804 95.2883 280.843 96.6174L281.396 97.849C284.085 96.6418 286.68 96.6941 288.477 98.0419L289.287 96.9619ZM288.821 112.332C290.864 109.608 291.974 106.55 292.089 103.787C292.204 101.027 291.322 98.4883 289.287 96.9619L288.477 98.0419C290.054 99.2244 290.843 101.269 290.74 103.73C290.638 106.188 289.642 108.988 287.741 111.522L288.821 112.332ZM287.881 113.484C288.205 113.118 288.519 112.734 288.821 112.332L287.741 111.522C287.462 111.894 287.171 112.25 286.871 112.588L287.881 113.484ZM292.231 121.968C293.207 118.536 291.189 114.922 287.767 112.486L286.985 113.586C290.176 115.857 291.686 118.949 290.932 121.599L292.231 121.968ZM277.715 127.042C280.99 127.973 284.242 127.913 286.863 127.03C289.481 126.149 291.535 124.415 292.231 121.968L290.932 121.599C290.393 123.495 288.767 124.965 286.433 125.751C284.102 126.536 281.131 126.609 278.084 125.743L277.715 127.042ZM272.634 124.666C274.087 125.676 275.807 126.499 277.715 127.042L278.084 125.743C276.315 125.24 274.731 124.48 273.406 123.557L272.634 124.666ZM267.613 126.835C269.875 126.555 271.9 125.764 273.418 124.657L272.622 123.566C271.311 124.523 269.508 125.24 267.447 125.495L267.613 126.835ZM257.494 121.717C257.722 123.568 259.079 125.008 260.9 125.889C262.728 126.773 265.108 127.144 267.613 126.835L267.447 125.495C265.161 125.777 263.049 125.429 261.487 124.674C259.918 123.915 258.987 122.795 258.834 121.552L257.494 121.717ZM261.32 115.795C258.888 117.148 257.198 119.321 257.494 121.717L258.834 121.552C258.636 119.947 259.763 118.206 261.976 116.975L261.32 115.795ZM259.206 102.043C257.437 103.616 256.884 106.09 257.267 108.716C257.651 111.351 258.983 114.238 261.129 116.817L262.167 115.953C260.152 113.533 258.946 110.871 258.603 108.522C258.259 106.164 258.79 104.219 260.103 103.052L259.206 102.043ZM263.109 100.55C261.637 100.617 260.279 101.091 259.206 102.043L260.103 103.052C260.905 102.34 261.952 101.954 263.17 101.899L263.109 100.55ZM263.789 101.039C262.127 95.2126 264.344 89.718 268.51 88.3282L268.083 87.0476C262.959 88.7569 260.72 95.2026 262.49 101.41L263.789 101.039ZM268.51 88.3282C272.828 86.8879 278.124 90.2371 280.141 96.2816L281.421 95.8544C279.278 89.4299 273.396 85.2753 268.083 87.0476L268.51 88.3282ZM280.141 96.2816C280.265 96.6533 280.373 97.0252 280.465 97.3963L281.775 97.0701C281.674 96.665 281.556 96.2594 281.421 95.8544L280.141 96.2816Z" fill="#083156"/>
<path d="M273.215 124.887L273.215 146.609" stroke="#083156" stroke-width="1.35" stroke-linecap="round"/>
<path d="M264.053 107.203L268.502 110.867" stroke="#083156" stroke-width="1.35" stroke-linecap="round"/>
<path d="M282.635 112.176L277.139 118.457" stroke="#083156" stroke-width="1.35" stroke-linecap="round"/>
<path d="M276.615 99.6133L275.045 105.109" stroke="#083156" stroke-width="1.35" stroke-linecap="round"/>
<path d="M184.701 117.398L184.701 142.523" stroke="#083156" stroke-width="1.35" stroke-linecap="round"/>
<path fill-rule="evenodd" clip-rule="evenodd" d="M96.2197 88.7821C91.454 87.0348 85.7565 90.6205 83.4941 96.7911C83.0666 97.9571 82.7923 99.132 82.6608 100.283C80.5822 99.9191 78.6887 100.283 77.3422 101.479C74.1587 104.307 75.2384 110.72 79.7539 115.802C79.9752 116.052 80.2007 116.293 80.4297 116.526C78.2648 117.817 76.9713 119.7 77.2088 121.624C77.5907 124.718 81.784 126.746 86.5749 126.154C88.7738 125.883 90.7164 125.107 92.1378 124.047C94.5496 125.204 97.7371 125.621 101.078 125.018C107.546 123.851 112.139 119.303 111.337 114.86C111 112.994 109.765 111.443 107.967 110.359C109.454 106.259 108.905 102.209 106.236 100.206C104.951 99.2429 103.349 98.8835 101.64 99.0568C101.988 94.3467 99.9355 90.1445 96.2197 88.7821Z" fill="white"/>
<path fill-rule="evenodd" clip-rule="evenodd" d="M97.7538 89.665C93.9939 88.2865 89.2392 91.8241 87.1338 97.5665C86.8038 98.4663 86.5585 99.367 86.3939 100.251C84.3912 99.9428 82.5727 100.32 81.2679 101.479C78.0845 104.308 79.1642 110.721 83.6797 115.803C83.8922 116.042 84.1086 116.274 84.3283 116.499C82.1719 117.747 80.8797 119.554 81.1066 121.392C81.4727 124.357 85.6531 126.281 90.444 125.69C91.9964 125.498 93.4224 125.066 94.6285 124.468C96.7791 125.358 99.4374 125.652 102.199 125.154C108.251 124.062 112.508 119.574 111.706 115.131C111.332 113.057 109.921 111.359 107.907 110.25C109.619 106.203 109.325 102.207 106.862 100.36C105.44 99.293 103.534 99.1209 101.521 99.6998C102.339 95.0108 100.886 90.8134 97.7538 89.665Z" fill="#FFCD94"/>
<path d="M83.6484 97.4513L84.2821 97.6836L84.2821 97.6836L83.6484 97.4513ZM96.374 89.4423L96.1417 90.076L96.1417 90.076L96.374 89.4423ZM82.8994 100.323L82.7669 100.985C82.9472 101.021 83.1343 100.982 83.2852 100.877C83.436 100.772 83.5375 100.61 83.5661 100.429L82.8994 100.323ZM77.3422 101.475L77.7905 101.98L77.7905 101.98L77.3422 101.475ZM79.7539 115.799L79.2493 116.247L79.2493 116.247L79.7539 115.799ZM80.4321 116.525L80.7777 117.105C80.9556 116.999 81.075 116.817 81.1016 116.611C81.1281 116.406 81.0589 116.2 80.9137 116.052L80.4321 116.525ZM77.2088 121.624L77.8788 121.542L77.8788 121.542L77.2088 121.624ZM86.5749 126.154L86.6576 126.824L86.6576 126.824L86.5749 126.154ZM92.1378 124.047L92.4297 123.439C92.2034 123.33 91.9357 123.356 91.7345 123.506L92.1378 124.047ZM101.078 125.018L101.198 125.682L101.078 125.018ZM111.337 114.86L112.001 114.74L112.001 114.74L111.337 114.86ZM107.967 110.359L107.333 110.128C107.223 110.431 107.343 110.77 107.619 110.937L107.967 110.359ZM106.236 100.206L106.641 99.6665L106.641 99.6665L106.236 100.206ZM101.828 99.0399L101.153 99.0227C101.148 99.2138 101.224 99.3981 101.363 99.5297C101.502 99.6613 101.69 99.7278 101.881 99.7128L101.828 99.0399ZM84.2821 97.6836C86.4756 91.7011 91.8684 88.5093 96.1417 90.076L96.6064 88.8085C91.3481 86.8806 85.346 90.8603 83.0146 97.2189L84.2821 97.6836ZM83.5661 100.429C83.7095 99.5211 83.9461 98.6002 84.2821 97.6836L83.0146 97.2189C82.6485 98.2175 82.3897 99.2235 82.2327 100.218L83.5661 100.429ZM83.0319 99.6615C80.7247 99.1998 78.498 99.5452 76.8938 100.97L77.7905 101.98C78.9821 100.921 80.7302 100.578 82.7669 100.985L83.0319 99.6615ZM76.8938 100.97C75.0659 102.594 74.5365 105.179 74.9953 107.904C75.4559 110.639 76.9208 113.626 79.2493 116.247L80.2585 115.35C78.0715 112.889 76.7388 110.128 76.3266 107.679C75.9125 105.22 76.435 103.184 77.7905 101.98L76.8938 100.97ZM79.2493 116.247C79.4788 116.505 79.7128 116.756 79.9506 116.998L80.9137 116.052C80.6917 115.826 80.4731 115.592 80.2585 115.35L79.2493 116.247ZM80.0866 115.945C77.8098 117.302 76.2543 119.402 76.5389 121.707L77.8788 121.542C77.6881 119.997 78.7217 118.33 80.7777 117.105L80.0866 115.945ZM76.5389 121.707C76.7674 123.558 78.1237 124.998 79.9446 125.879C81.7728 126.763 84.1525 127.134 86.6576 126.824L86.4922 125.484C84.2063 125.767 82.094 125.419 80.5324 124.663C78.9634 123.905 78.0322 122.785 77.8788 121.542L76.5389 121.707ZM86.6576 126.824C88.9586 126.54 91.015 125.726 92.5412 124.589L91.7345 123.506C90.4178 124.488 88.589 125.226 86.4922 125.484L86.6576 126.824ZM91.846 124.656C94.4025 125.882 97.7369 126.307 101.198 125.682L100.958 124.354C97.7373 124.935 94.6966 124.526 92.4297 123.439L91.846 124.656ZM101.198 125.682C104.549 125.077 107.443 123.593 109.408 121.647C111.371 119.703 112.453 117.243 112.001 114.74L110.673 114.98C111.023 116.919 110.209 118.954 108.459 120.687C106.711 122.418 104.075 123.791 100.958 124.354L101.198 125.682ZM112.001 114.74C111.622 112.64 110.238 110.94 108.316 109.781L107.619 110.937C109.293 111.946 110.378 113.348 110.673 114.98L112.001 114.74ZM108.602 110.589C110.136 106.359 109.654 101.927 106.641 99.6665L105.831 100.746C108.156 102.491 108.773 106.159 107.333 110.128L108.602 110.589ZM106.641 99.6665C105.25 98.6233 103.547 98.2272 101.774 98.367L101.881 99.7128C103.385 99.5942 104.747 99.9334 105.831 100.746L106.641 99.6665ZM96.1417 90.076C99.3192 91.2411 101.261 94.7752 101.153 99.0227L102.502 99.0571C102.62 94.4417 100.502 90.237 96.6064 88.8085L96.1417 90.076Z" fill="#083156"/>
<path d="M92.2598 124.875L92.2598 146.597" stroke="#083156" stroke-width="1.35" stroke-linecap="round"/>
<path d="M83.0996 107.199L87.5487 110.863" stroke="#083156" stroke-width="1.35" stroke-linecap="round"/>
<path d="M101.68 112.168L96.1838 118.449" stroke="#083156" stroke-width="1.35" stroke-linecap="round"/>
<path d="M95.6602 99.6094L94.0899 105.105" stroke="#083156" stroke-width="1.35" stroke-linecap="round"/>
<path d="M171.604 109.022H196.278C196.278 109.022 199.75 97.4258 184.593 97.4258C169.436 97.4257 171.604 109.022 171.604 109.022Z" fill="#FFD8AB"/>
<path d="M171.604 109.022H196.278C196.278 109.022 199.75 97.4258 184.593 97.4258C169.436 97.4257 171.604 109.022 171.604 109.022Z" stroke="#083156" stroke-width="1.35" stroke-linecap="round" stroke-linejoin="round"/>
<path d="M184.703 97.4258L184.703 109.022" stroke="#083156" stroke-width="1.35" stroke-linecap="round"/>
<path d="M195.654 104.191H172.463" stroke="#083156" stroke-width="1.35" stroke-linecap="round"/>
<path opacity="0.16" d="M185.424 70.2768C185.424 68.3804 185.424 67.4322 186.013 66.843C186.602 66.2539 187.55 66.2539 189.447 66.2539H244.589C245.55 66.2539 246.03 66.2539 246.446 66.4562C246.862 66.6584 247.159 67.0358 247.752 67.7906L254.427 76.282C256.652 79.1116 257.764 80.5264 257.214 81.6588C256.663 82.7912 254.864 82.7912 251.265 82.7912H189.447C187.55 82.7912 186.602 82.7912 186.013 82.202C185.424 81.6129 185.424 80.6647 185.424 78.7682V70.2768Z" fill="#083156"/>
<path d="M180.516 11.1016L182.448 22.5363" stroke="#083156" stroke-width="1.35" stroke-linecap="round"/>
<path d="M188.854 12.7577L180.031 8.84766L181.964 18.1887L188.527 16.548C190.883 15.9589 192.062 15.6643 192.123 14.9491C192.185 14.234 191.075 13.7419 188.854 12.7577Z" fill="#FFD8AB" stroke="#083156" stroke-width="1.35" stroke-linecap="round" stroke-linejoin="round"/>
<path d="M181.58 48.4279C183.028 47.3105 185.047 47.3105 186.495 48.4279L235.716 86.4116C237.235 87.584 236.406 90.0155 234.487 90.0155H133.588C131.669 90.0155 130.84 87.584 132.359 86.4116L181.58 48.4279Z" fill="white"/>
<path d="M187.278 49.2695L236.009 86.4045C237.54 87.5714 236.715 90.0158 234.79 90.0158H134.131L187.278 49.2695Z" fill="#FFD8AB"/>
<path d="M177.893 51.2729C180.846 48.994 182.323 47.8545 184.038 47.8545C185.752 47.8545 187.229 48.994 190.182 51.2729L231.046 82.8077C234.919 85.7965 236.855 87.2909 236.391 88.6532C235.926 90.0155 233.48 90.0155 228.588 90.0155H139.487C134.595 90.0155 132.149 90.0155 131.685 88.6532C131.22 87.2909 133.157 85.7965 137.03 82.8077L177.893 51.2729Z" stroke="#083156" stroke-width="1.35" stroke-linecap="round" stroke-linejoin="round"/>
<path d="M184.059 52.6523L224.245 83.7055C225.004 84.292 224.59 85.5071 223.63 85.5071H144.487C143.528 85.5071 143.113 84.292 143.872 83.7055L184.059 52.6523Z" fill="white"/>
<path d="M184.925 52.3945L222.772 82.9945H145.467L184.925 52.3945Z" fill="#FFE8CD"/>
<path d="M180.984 55.0283C182.462 53.8865 183.201 53.3155 184.059 53.3155C184.917 53.3155 185.656 53.8865 187.134 55.0283L221.914 81.904C223.848 83.3983 224.815 84.1454 224.582 84.8262C224.35 85.5071 223.128 85.5071 220.684 85.5071H147.434C144.99 85.5071 143.768 85.5071 143.536 84.8262C143.303 84.1454 144.27 83.3983 146.204 81.904L180.984 55.0283Z" stroke="#083156" stroke-width="1.35" stroke-linecap="round" stroke-linejoin="round"/>
<ellipse cx="184.075" cy="71.1532" rx="7.7126" ry="8.35731" transform="rotate(15.626 184.075 71.1532)" fill="#FFFAED" stroke="#083156" stroke-width="1.35" stroke-linecap="round" stroke-linejoin="round"/>
<path d="M139.003 140.586H147.425L148.628 146.706H138.643L139.003 140.586Z" fill="white"/>
<path d="M229.276 140.586H224.559L223.356 146.706H229.637L229.276 140.586Z" fill="#A8B4C4"/>
<path d="M144.188 96.1328H138.156V140.583H144.188V96.1328Z" fill="white"/>
<path d="M145.364 139.574H136.942L135.739 145.694H145.725L145.364 139.574Z" fill="white"/>
<path d="M136.746 96.1328L145.167 96.1328L146.37 90.0128L136.385 90.0128L136.746 96.1328Z" fill="white"/>
<path d="M144.025 96.1328H137.994L137.994 139.578H144.025L144.025 96.1328Z" stroke="#083156" stroke-width="1.35" stroke-linecap="round" stroke-linejoin="round"/>
<path d="M136.745 96.1328L145.166 96.1328L146.369 90.0128L135.096 90.0128L136.745 96.1328Z" stroke="#083156" stroke-width="1.35" stroke-linecap="round" stroke-linejoin="round"/>
<path d="M145.364 139.574H136.942L135.739 145.694H145.725L145.364 139.574Z" stroke="#083156" stroke-width="1.35" stroke-linecap="round" stroke-linejoin="round"/>
<path d="M230.193 96.1328H224.162V140.583H230.193V96.1328Z" fill="white"/>
<path d="M231.37 139.574H222.948L221.745 145.694H231.73L231.37 139.574Z" fill="white"/>
<path d="M222.75 96.1328L231.171 96.1328L232.374 90.0128L222.389 90.0128L222.75 96.1328Z" fill="white"/>
<path d="M230.031 96.1328H224L224 139.578H230.031L230.031 96.1328Z" stroke="#083156" stroke-width="1.35" stroke-linecap="round" stroke-linejoin="round"/>
<path d="M222.751 96.1328L231.172 96.1328L232.375 90.0128L221.102 90.0128L222.751 96.1328Z" stroke="#083156" stroke-width="1.35" stroke-linecap="round" stroke-linejoin="round"/>
<path d="M231.37 139.574H222.948L221.745 145.694H231.73L231.37 139.574Z" stroke="#083156" stroke-width="1.35" stroke-linecap="round" stroke-linejoin="round"/>
<path d="M212.799 96.1328H206.768V140.583H212.799V96.1328Z" fill="white"/>
<path d="M213.977 139.574H205.556L204.353 145.694H214.338L213.977 139.574Z" fill="white"/>
<path d="M205.358 96.1328L213.78 96.1328L214.983 90.0128L203.709 90.0128L205.358 96.1328Z" fill="white"/>
<path d="M212.639 96.1328H206.607L206.607 139.578H212.639L212.639 96.1328Z" stroke="#083156" stroke-width="1.35" stroke-linecap="round" stroke-linejoin="round"/>
<path d="M213.977 139.574H205.556L204.353 145.694H214.338L213.977 139.574Z" stroke="#083156" stroke-width="1.35" stroke-linecap="round" stroke-linejoin="round"/>
<path d="M205.358 96.1328L213.78 96.1328L214.983 90.0128L203.709 90.0128L205.358 96.1328Z" stroke="#083156" stroke-width="1.35" stroke-linecap="round" stroke-linejoin="round"/>
<path d="M162.229 96.1328H156.197V140.583H162.229V96.1328Z" fill="white"/>
<path d="M163.405 139.574H154.983L153.78 145.694H163.766L163.405 139.574Z" fill="white"/>
<path d="M154.787 96.1328L163.208 96.1328L164.411 90.0128L154.426 90.0128L154.787 96.1328Z" fill="white"/>
<path d="M162.066 96.1328H156.035L156.035 139.578H162.066L162.066 96.1328Z" stroke="#083156" stroke-width="1.35" stroke-linecap="round" stroke-linejoin="round"/>
<path d="M154.786 96.1328L163.207 96.1328L164.41 90.0128L153.137 90.0128L154.786 96.1328Z" stroke="#083156" stroke-width="1.35" stroke-linecap="round" stroke-linejoin="round"/>
<path d="M163.405 139.574H154.983L153.78 145.694H163.766L163.405 139.574Z" stroke="#083156" stroke-width="1.35" stroke-linecap="round" stroke-linejoin="round"/>
<circle cx="193.884" cy="134.146" r="1.61053" fill="#083156"/>
<circle cx="175.2" cy="134.146" r="1.61053" fill="#083156"/>
<path d="M234.952 125.772H243.61C243.61 125.772 245.59 110.633 240.271 110.633C234.952 110.633 234.952 125.772 234.952 125.772Z" fill="#FFD8AB"/>
<path d="M234.952 125.772H243.61C243.61 125.772 245.59 110.633 240.271 110.633C234.952 110.633 234.952 125.772 234.952 125.772Z" stroke="#083156" stroke-width="1.35" stroke-linecap="round" stroke-linejoin="round"/>
<path d="M239.781 110.953L239.781 125.448" stroke="#083156" stroke-width="1.35" stroke-linecap="round" stroke-linejoin="round"/>
<path d="M235.918 120.941H243.326" stroke="#083156" stroke-width="1.35" stroke-linecap="round" stroke-linejoin="round"/>
<path d="M133.165 125.772H124.507C124.507 125.772 122.528 110.633 127.847 110.633C133.165 110.633 133.165 125.772 133.165 125.772Z" fill="#FFECD5"/>
<path d="M133.165 125.772H124.507C124.507 125.772 122.528 110.633 127.847 110.633C133.165 110.633 133.165 125.772 133.165 125.772Z" stroke="#083156" stroke-width="1.35" stroke-linecap="round" stroke-linejoin="round"/>
<path d="M128.334 111.277L128.334 125.45" stroke="#083156" stroke-width="1.35" stroke-linecap="round" stroke-linejoin="round"/>
<path d="M124.791 120.941H132.199" stroke="#083156" stroke-width="1.35" stroke-linecap="round" stroke-linejoin="round"/>
<path d="M184.219 63.1211V78.5821" stroke="#083156" stroke-width="1.35" stroke-linecap="round" stroke-linejoin="round"/>
<path d="M176.65 71.0156H191.467" stroke="#083156" stroke-width="1.35" stroke-linecap="round" stroke-linejoin="round"/>
<rect x="131.232" y="142.523" width="105.65" height="4.18737" fill="white"/>
<path d="M131.232 144.523C131.232 143.419 132.128 142.523 133.232 142.523H234.883C235.987 142.523 236.883 143.419 236.883 144.523V146.711H131.232V144.523Z" stroke="#083156" stroke-width="1.35" stroke-linecap="round" stroke-linejoin="round"/>
<path d="M286.847 146.709C290.265 142.219 287.063 135.758 281.42 135.758H276.23C271.043 135.758 266.838 139.963 266.838 145.15V146.709H286.847V146.709Z" fill="white"/>
<path d="M287.517 144.341C288.212 139.724 284.636 135.57 279.967 135.57H279.32C273.699 135.57 270.207 141.679 273.059 146.522V146.522H287.19L287.517 144.341Z" fill="#FFECD5"/>
<path d="M286.847 146.709C290.265 142.219 287.063 135.758 281.42 135.758H276.23C271.043 135.758 266.838 139.963 266.838 145.15V146.709H286.847V146.709Z" stroke="#083156" stroke-width="1.35" stroke-linecap="round"/>
<path d="M265.561 146.711C272.55 142.352 269.374 131.559 261.138 131.681L252.581 131.807C245.098 131.918 240.123 139.59 243.075 146.466L243.18 146.711H265.561V146.711Z" fill="white"/>
<path d="M266.656 146.711C272.367 141.199 268.352 131.543 260.417 131.706L257.318 131.769C250.717 131.904 246.078 138.319 248.018 144.63L248.658 146.711H266.656V146.711Z" fill="#FFF7EE"/>
<path d="M265.561 146.711C272.55 142.352 269.374 131.559 261.138 131.681L252.581 131.807C245.098 131.918 240.123 139.59 243.075 146.466L243.18 146.711H265.561V146.711Z" stroke="#083156" stroke-width="1.35" stroke-linecap="round"/>
<path d="M98.5912 146.707C94.0347 138.196 100.669 128.007 110.296 128.732L111.813 128.847C119.475 129.424 124.989 136.455 123.722 144.034L123.276 146.707H98.5912V146.707Z" fill="white"/>
<path d="M98.5912 146.707C94.0347 138.196 100.669 128.007 110.296 128.732L111.813 128.847C119.475 129.424 124.989 136.455 123.722 144.034L123.276 146.707H98.5912V146.707Z" fill="#FFECD5"/>
<path d="M98.5912 146.707C94.0347 138.196 100.669 128.007 110.296 128.732L111.813 128.847C119.475 129.424 124.989 136.455 123.722 144.034L123.276 146.707H98.5912V146.707Z" stroke="#083156" stroke-width="1.35" stroke-linecap="round"/>
<path d="M79.7602 146.708C75.9351 140.519 80.3864 132.535 87.6614 132.535H91.9849C99.3056 132.535 103.337 141.042 98.701 146.708V146.708H79.7602V146.708Z" fill="white"/>
<path d="M84.5682 145.471C81.0769 139.823 85.1398 132.535 91.7801 132.535V132.535C97.6998 132.535 101.797 138.448 99.7187 143.991L98.6998 146.708H85.3324L84.5682 145.471Z" fill="#FFD8AB"/>
<path d="M79.7602 146.708C75.9351 140.519 80.3864 132.535 87.6614 132.535H91.9849C99.3056 132.535 103.337 141.042 98.701 146.708V146.708H79.7602V146.708Z" stroke="#083156" stroke-width="1.35" stroke-linecap="round"/>
<rect opacity="0.16" x="137.377" y="87.7969" width="93.0301" height="5.53152" rx="2.01146" fill="#083156"/>
<rect opacity="0.16" x="163.023" y="144.621" width="68.3897" height="5.02866" rx="2.01146" fill="#083156"/>
<rect opacity="0.16" x="141.4" y="100.871" width="5.02866" height="30.1719" rx="2.01146" fill="#083156"/>
<rect opacity="0.16" x="159.504" y="101.875" width="5.02866" height="35.2006" rx="2.01146" fill="#083156"/>
<rect opacity="0.16" x="210.293" y="99.3633" width="5.02866" height="35.2006" rx="2.01146" fill="#083156"/>
<path opacity="0.16" fill-rule="evenodd" clip-rule="evenodd" d="M183.965 57.2313L158.298 76.9263C157.555 77.4968 157.183 77.7821 156.797 77.8857C156.281 78.0237 155.732 77.9514 155.27 77.6847C154.924 77.4847 154.638 77.1129 154.068 76.3693L154.068 76.3693C153.497 75.6258 153.212 75.254 153.108 74.8675C152.97 74.3522 153.043 73.8032 153.309 73.3412C153.509 72.9947 153.881 72.7094 154.625 72.1389L181.753 51.3224C182.136 51.0289 182.42 50.8109 182.658 50.6543C182.737 50.5839 182.814 50.5258 182.895 50.4772C183.352 50.2024 183.9 50.1206 184.417 50.2496C184.806 50.3464 185.182 50.6252 185.936 51.1827L194.02 57.165C194.774 57.7225 195.151 58.0012 195.357 58.3442C195.631 58.8014 195.713 59.3491 195.584 59.8667C195.487 60.255 195.209 60.6317 194.651 61.385L194.651 61.3851C194.094 62.1385 193.815 62.5152 193.472 62.7212C193.015 62.996 192.467 63.0778 191.949 62.9488C191.561 62.852 191.184 62.5732 190.431 62.0158L183.965 57.2313Z" fill="#083156"/>
<rect opacity="0.16" x="227.391" y="100.367" width="5.02866" height="32.1834" rx="2.01146" fill="#083156"/>
<rect opacity="0.16" x="233.424" y="80.2539" width="21.1204" height="6.53725" rx="2.01146" fill="#083156"/>
<rect opacity="0.16" x="152.463" y="45.0508" width="70.4012" height="5.02866" rx="2.01146" fill="#083156"/>
<path opacity="0.8" d="M119.367 21.7374L92.8235 32.4266C78.9544 38.0118 74.6328 55.543 84.317 66.9344V66.9344C90.9891 74.7826 103.81 70.9073 105.017 60.6774L105.111 59.8851C106.358 49.3233 99.4425 39.52 89.0744 37.1513L82.3866 35.6234C68.8743 32.5364 54.6939 35.8761 43.9795 44.6689V44.6689C36.753 50.5995 33.894 60.3496 36.7737 69.2435L36.9432 69.7668C40.3972 80.4347 51.792 86.3373 62.4985 83.0047L65.6318 82.0294" stroke="#3C5D87" stroke-width="1.25" stroke-linecap="round" stroke-linejoin="round" stroke-dasharray="2.67 4.01"/>
<path d="M145.575 18.4662C148.585 14.9099 150.09 13.1317 149.506 11.4761C148.922 9.82049 146.634 9.38039 142.059 8.50019L129.641 6.11118C124.987 5.2158 122.66 4.76811 121.504 6.11165C120.347 7.45519 121.135 9.68988 122.712 14.1593L123.932 17.6162C124.135 18.1913 124.236 18.4789 124.441 18.6561C124.543 18.7444 124.662 18.8115 124.791 18.8536C125.048 18.9379 125.347 18.8765 125.944 18.7538V18.7538C127.296 18.4761 127.971 18.3373 128.166 18.5324C128.258 18.6245 128.311 18.7482 128.314 18.8781C128.322 19.1534 127.756 19.5478 126.624 20.3366L126.402 20.4917C125.893 20.8464 125.638 21.0238 125.522 21.2827C125.492 21.3502 125.47 21.4207 125.455 21.493C125.398 21.7708 125.501 22.0633 125.707 22.6485L126.961 26.2007C128.537 30.6701 129.326 32.9048 131.07 33.225C132.813 33.5452 134.344 31.7363 137.406 28.1187L145.575 18.4662Z" fill="white" stroke="#083156"/>
<path d="M148.672 11.7688L124.879 18.7186C124.755 18.7549 124.693 18.773 124.692 18.8101C124.691 18.8471 124.752 18.8689 124.874 18.9126L125.645 19.1885C126.056 19.3356 126.261 19.4091 126.325 19.5934C126.389 19.7778 126.278 19.9561 126.056 20.3129C125.891 20.5784 125.725 20.8376 125.561 21.13C125.504 21.2315 125.475 21.2823 125.499 21.3095C125.523 21.3366 125.578 21.3142 125.686 21.2693L148.672 11.7688Z" fill="white"/>
<path d="M148.672 11.7688L124.879 18.7186C124.755 18.7549 124.693 18.773 124.692 18.8101C124.691 18.8471 124.752 18.8689 124.874 18.9126L125.645 19.1885C126.056 19.3356 126.261 19.4091 126.325 19.5934C126.389 19.7778 126.278 19.9561 126.056 20.3129C125.891 20.5784 125.725 20.8376 125.561 21.13C125.504 21.2315 125.475 21.2823 125.499 21.3095C125.523 21.3366 125.578 21.3142 125.686 21.2693L148.672 11.7688Z" fill="#3C5D87" fill-opacity="0.2"/>
<path d="M148.672 11.7688L124.879 18.7186C124.755 18.7549 124.693 18.773 124.692 18.8101C124.691 18.8471 124.752 18.8689 124.874 18.9126L125.645 19.1885C126.056 19.3356 126.261 19.4091 126.325 19.5934C126.389 19.7778 126.278 19.9561 126.056 20.3129C125.891 20.5784 125.725 20.8376 125.561 21.13C125.504 21.2315 125.475 21.2823 125.499 21.3095C125.523 21.3366 125.578 21.3142 125.686 21.2693L148.672 11.7688Z" stroke="#083156" stroke-linejoin="round"/>
</svg>
