<svg width="400" height="208" viewBox="0 0 400 208" fill="none" xmlns="http://www.w3.org/2000/svg">
<rect y="40" width="399.997" height="128" rx="12" fill="white"/>
<rect y="40" width="399.997" height="128" rx="12" fill="#FFD9AB" fill-opacity="0.25"/>
<g clip-path="url(#clip0_5873_121498)">
<g opacity="0.6">
<path d="M29.667 51.5C29.667 42.3873 37.0543 35 46.167 35H84.167C93.2797 35 100.667 42.3873 100.667 51.5C100.667 60.6127 93.2797 68 84.167 68H46.167C37.0543 68 29.667 60.6127 29.667 51.5Z" fill="white"/>
<path d="M109.667 43.5C109.667 38.2533 113.92 34 119.167 34H141.167C146.414 34 150.667 38.2533 150.667 43.5C150.667 48.7467 146.414 53 141.167 53H119.167C113.92 53 109.667 48.7467 109.667 43.5Z" fill="white"/>
<path d="M258.667 59C258.667 54.5817 262.249 51 266.667 51H285.667C290.085 51 293.667 54.5817 293.667 59C293.667 63.4183 290.085 67 285.667 67H266.667C262.249 67 258.667 63.4183 258.667 59Z" fill="white"/>
</g>
<g opacity="0.3">
<path d="M-0.333008 136.5C-0.333008 125.787 -0.333008 120.43 1.34658 116.18C3.78608 110.006 8.67334 105.119 14.8466 102.68C19.0969 101 24.4536 101 35.167 101C45.8804 101 51.2371 101 55.4874 102.68C61.6606 105.119 66.5479 110.006 68.9874 116.18C70.667 120.43 70.667 125.787 70.667 136.5V148.5C70.667 159.213 70.667 164.57 68.9874 168.82C66.5479 174.994 61.6606 179.881 55.4874 182.32C51.2371 184 45.8804 184 35.167 184C24.4536 184 19.0969 184 14.8466 182.32C8.67334 179.881 3.78608 174.994 1.34658 168.82C-0.333008 164.57 -0.333008 159.213 -0.333008 148.5V136.5Z" fill="#FFD9AB"/>
<path d="M60.667 156.5C60.667 151.388 60.667 148.832 61.1317 146.714C62.8042 139.091 68.7579 133.137 76.3808 131.465C78.4987 131 81.0548 131 86.167 131C91.2792 131 93.8353 131 95.9532 131.465C103.576 133.137 109.53 139.091 111.202 146.714C111.667 148.832 111.667 151.388 111.667 156.5V158.5C111.667 163.612 111.667 166.168 111.202 168.286C109.53 175.909 103.576 181.863 95.9532 183.535C93.8353 184 91.2792 184 86.167 184C81.0548 184 78.4987 184 76.3808 183.535C68.7579 181.863 62.8042 175.909 61.1317 168.286C60.667 166.168 60.667 163.612 60.667 158.5V156.5Z" fill="#FFD9AB"/>
</g>
<g opacity="0.3">
<path d="M324 61.5C324 45.1224 324 36.9336 327.829 30.9946C329.68 28.1234 332.123 25.6805 334.995 23.8292C340.934 20 349.122 20 365.5 20H373.5C389.878 20 398.066 20 404.005 23.8292C406.877 25.6805 409.32 28.1234 411.171 30.9946C415 36.9336 415 45.1224 415 61.5C415 77.8776 415 86.0664 411.171 92.0054C409.32 94.8766 406.877 97.3195 404.005 99.1708C398.066 103 389.878 103 373.5 103H365.5C349.122 103 340.934 103 334.995 99.1708C332.123 97.3195 329.68 94.8766 327.829 92.0054C324 86.0664 324 77.8776 324 61.5Z" fill="#FFD9AB"/>
<path d="M215.667 162.5C215.667 161.107 215.667 160.411 215.702 159.823C216.298 149.704 224.371 141.631 234.49 141.035C235.078 141 235.774 141 237.167 141H285.167C286.56 141 287.256 141 287.844 141.035C297.963 141.631 306.036 149.704 306.632 159.823C306.667 160.411 306.667 161.107 306.667 162.5C306.667 163.893 306.667 164.589 306.632 165.177C306.036 175.296 297.963 183.369 287.844 183.965C287.256 184 286.56 184 285.167 184H237.167C235.774 184 235.078 184 234.49 183.965C224.371 183.369 216.298 175.296 215.702 165.177C215.667 164.589 215.667 163.893 215.667 162.5Z" fill="#FFD9AB"/>
<path d="M357 106C357 102.229 357 100.343 358.172 99.1716C359.343 98 361.229 98 365 98H375C378.771 98 380.657 98 381.828 99.1716C383 100.343 383 102.229 383 106V193C383 196.771 383 198.657 381.828 199.828C380.657 201 378.771 201 375 201H365C361.229 201 359.343 201 358.172 199.828C357 198.657 357 196.771 357 193V106Z" fill="#FFD9AB"/>
</g>
</g>
<g opacity="0.7">
<path d="M67.667 177.5C67.667 176.107 67.667 175.411 67.6972 174.822C68.3009 163.046 77.713 153.634 89.4894 153.03C90.0778 153 90.7742 153 92.167 153C93.5598 153 94.2562 153 94.8446 153.03C106.621 153.634 116.033 163.046 116.637 174.822C116.667 175.411 116.667 176.107 116.667 177.5V196H67.667V177.5Z" fill="#FFD9AB"/>
<path d="M51.667 187.432C51.667 180.566 57.2332 175 64.0994 175H65.167C72.6228 175 78.667 181.044 78.667 188.5V195H59.2346C55.0551 195 51.667 191.612 51.667 187.432Z" fill="#FFD9AB"/>
<path d="M161.667 190.5C161.667 183.044 167.711 177 175.167 177C182.623 177 188.667 183.044 188.667 190.5V194H161.667V190.5Z" fill="#FFD9AB"/>
<path d="M181.667 190.459C181.667 186.34 185.007 183 189.126 183H190.208C194.327 183 197.667 186.34 197.667 190.459C197.667 192.967 195.634 195 193.126 195H186.208C183.7 195 181.667 192.967 181.667 190.459Z" fill="#FFD9AB"/>
<path d="M102.667 186.676C102.667 179.123 108.79 173 116.343 173H119.991C127.544 173 133.667 179.123 133.667 186.676C133.667 191.273 129.94 195 125.343 195H110.991C106.394 195 102.667 191.273 102.667 186.676Z" fill="#FFD9AB"/>
<path d="M121.667 186C121.667 173.85 131.517 164 143.667 164C155.817 164 165.667 173.85 165.667 186V194H121.667V186Z" fill="#FFD9AB"/>
</g>
<g opacity="0.7">
<path d="M316.667 191.5C316.667 186.253 320.92 182 326.167 182C331.414 182 335.667 186.253 335.667 191.5V195H316.667V191.5Z" fill="#FFD9AB"/>
<path d="M333.667 191.5C333.667 189.015 335.682 187 338.167 187C340.652 187 342.667 189.015 342.667 191.5V191.973C342.667 193.645 341.312 195 339.64 195H336.694C335.022 195 333.667 193.645 333.667 191.973V191.5Z" fill="#FFD9AB"/>
<path d="M295.667 190.8C295.667 186.492 299.159 183 303.467 183H305.208C309.327 183 312.667 186.34 312.667 190.459C312.667 192.967 310.634 195 308.126 195H299.867C297.547 195 295.667 193.12 295.667 190.8Z" fill="#FFD9AB"/>
<path d="M304.667 187.189C304.667 181.01 309.677 176 315.856 176H317.478C323.657 176 328.667 181.01 328.667 187.189C328.667 190.951 325.618 194 321.856 194H311.478C307.716 194 304.667 190.951 304.667 187.189Z" fill="#FFD9AB"/>
</g>
<path d="M44.666 195L354.666 195" stroke="#083156" stroke-width="2" stroke-linecap="round"/>
<path d="M36.666 195L34.666 195" stroke="#3C5D87" stroke-width="2" stroke-linecap="round"/>
<path d="M364.666 195L362.666 195" stroke="#3C5D87" stroke-width="2" stroke-linecap="round"/>
<path fill-rule="evenodd" clip-rule="evenodd" d="M221.063 128.812C220.434 127.362 221.099 125.677 222.549 125.048C225.596 123.725 227.789 121.951 229.769 117.893C230.462 116.472 232.175 115.883 233.595 116.575C235.015 117.268 235.605 118.981 234.912 120.402C232.319 125.716 229.095 128.445 224.827 130.297C223.378 130.926 221.693 130.261 221.063 128.812Z" fill="#FFE999" stroke="#083156" stroke-width="1.80233" stroke-linecap="round"/>
<path fill-rule="evenodd" clip-rule="evenodd" d="M196.222 153.793C197.161 152.522 198.952 152.252 200.224 153.191C202.896 155.164 205.53 156.171 210.035 155.849C211.611 155.736 212.98 156.922 213.093 158.499C213.206 160.075 212.019 161.444 210.443 161.557C204.545 161.979 200.567 160.558 196.824 157.795C195.553 156.856 195.283 155.064 196.222 153.793Z" fill="#FFE999" stroke="#083156" stroke-width="1.80233" stroke-linecap="round"/>
<path fill-rule="evenodd" clip-rule="evenodd" d="M193.381 100.821C194.539 100.312 195.889 100.837 196.398 101.995L199.164 108.28C199.33 108.658 199.496 109.034 199.661 109.408C203.584 118.291 207.131 126.326 205.626 140.556L204.904 147.385C204.771 148.642 203.644 149.554 202.386 149.421L188.728 147.976C187.471 147.843 186.559 146.716 186.692 145.459L187.415 138.629C188.404 129.278 186.529 125.023 182.772 116.495C182.651 116.22 182.527 115.94 182.402 115.656L179.636 109.37C179.127 108.213 179.653 106.862 180.81 106.353L193.381 100.821Z" fill="#083156" stroke="#083156" stroke-width="1.52607" stroke-linecap="square"/>
<path d="M171.362 124.476C163.107 124.958 155.181 120.659 153.984 112.325C152.72 103.533 158.823 95.3822 167.615 94.1189C174.049 93.1945 179.888 95.4872 183.439 101.348L194.957 95.552C200.439 93.1185 205.36 94.8555 209.172 99.4853L221.012 115.381C221.816 116.357 221.468 117.744 220.7 118.604L213.166 129.143C212.19 129.947 210.639 129.052 209.836 128.076L198.241 114.305C184.096 121.316 177.82 124.346 171.362 124.476Z" fill="#083156"/>
<path d="M162.303 95.4245C159.21 96.8278 153.831 103.145 154.589 109.873" stroke="white" stroke-width="1.0301" stroke-linecap="round"/>
<path d="M183.299 100.847L189.936 97.4898" stroke="white" stroke-width="1.0301" stroke-linecap="round"/>
<path d="M170.229 124.638C161.974 125.12 154.587 119.202 153.389 110.868C152.126 102.076 158.229 93.9252 167.021 92.6619C173.455 91.7374 179.546 94.7581 182.845 99.8906L194.363 94.095C199.844 91.6615 206.276 93.1814 210.089 97.8112L223.764 115.756C224.568 116.732 224.428 118.175 223.453 118.978L213.067 129.22C212.091 130.023 210.649 129.884 209.845 128.908L197.864 114.359C183.719 121.369 176.687 124.508 170.229 124.638Z" stroke="#083156" stroke-width="1.80233" stroke-linecap="square"/>
<path d="M159.622 90.6191L180.028 91.3814L179.828 96.7348L159.422 95.9726L159.622 90.6191Z" fill="white"/>
<path d="M163.91 91.0859L166.185 91.1709L165.99 96.4065L163.715 96.3216L163.91 91.0859Z" fill="#083156"/>
<path d="M172.21 91.3027L174.485 91.3877L174.284 96.7723L172.009 96.6873L172.21 91.3027Z" fill="#083156"/>
<path d="M179.514 92.3311L179.378 95.9712" stroke="#083156" stroke-width="1.52607" stroke-linecap="square"/>
<path d="M159.809 91.5956L159.671 95.3051" stroke="#083156" stroke-width="1.52607" stroke-linecap="square"/>
<path d="M189.093 41.6355C188.886 41.8454 188.694 42.0748 188.518 42.3232L181.171 52.7148C179.423 55.1871 180.01 58.6082 182.482 60.3561C184.955 62.104 188.376 61.5168 190.124 59.0446L197.379 48.7827C197.586 48.5728 197.778 48.3434 197.954 48.0949L205.301 37.7033C205.382 37.5883 205.459 37.4713 205.53 37.3524L210.347 36.5341C211.435 36.3493 212.167 35.3173 211.982 34.2292C211.798 33.141 210.766 32.4087 209.677 32.5936L207.795 32.9133L211.345 31.2325C212.342 30.7601 212.768 29.5685 212.296 28.5709C211.823 27.5733 210.632 27.1476 209.634 27.62L205.873 29.401L208.293 27.3642C209.138 26.6535 209.246 25.3928 208.535 24.5483C207.825 23.7038 206.564 23.5953 205.719 24.306L202.001 27.4353L202.119 26.438C202.266 25.1917 201.374 24.0622 200.128 23.9153C198.882 23.7683 197.752 24.6595 197.605 25.9058L197.057 30.5543C196.799 30.7988 196.561 31.0722 196.348 31.3736L189.093 41.6355Z" fill="#C29980"/>
<path d="M201.656 27.3777L205.151 24.2314C206.37 23.0795 208.399 24.3077 207.713 26.2943" stroke="#C29980" stroke-width="2.20521" stroke-linecap="round"/>
<path d="M205.426 29.4796L209.523 27.4265C210.967 26.6595 212.557 28.3384 211.398 30.028" stroke="#C29980" stroke-width="1.14455" stroke-linecap="round"/>
<path d="M207.469 33.1157L209.692 32.6394C211.276 32.2344 212.425 34.2408 210.9 35.6094" stroke="#C29980" stroke-width="1.14455" stroke-linecap="round"/>
<path d="M199.74 22.4842C201.106 22.6453 202.166 23.6518 202.46 24.9191L204.645 23.0804C205.87 22.0492 207.7 22.2066 208.731 23.4319C209.37 24.1914 209.552 25.183 209.307 26.0727C210.617 25.7511 212.016 26.3824 212.616 27.6491C213.301 29.0965 212.684 30.8254 211.236 31.5108L211.08 31.5847C211.745 32.0099 212.234 32.7031 212.377 33.5421C212.645 35.1209 211.583 36.6183 210.004 36.8865L205.577 37.6384C205.566 37.6548 205.554 37.6711 205.543 37.6874L198.196 48.079C198.007 48.3462 197.801 48.5948 197.58 48.8244L190.365 59.0287C188.33 61.9073 184.347 62.591 181.468 60.5558C178.589 58.5206 177.906 54.5371 179.941 51.6585L187.288 41.2668C187.477 40.9997 187.683 40.751 187.904 40.5215L195.118 30.3172C195.299 30.0618 195.495 29.8234 195.705 29.6024L196.216 25.2641C196.422 23.5236 197.999 22.2789 199.74 22.4842Z" stroke="#083156" stroke-width="1.80233"/>
<path d="M203.568 32.5086C200.748 31.6459 199.536 33.6076 199.536 33.6076" stroke="#083156" stroke-width="1.02038" stroke-linecap="round"/>
<path d="M179.203 71.5483L161.828 70.8993L161.578 77.5917C158.506 79.5089 156.408 82.8666 156.263 86.7577C156.172 89.2065 157.363 91.2389 159.812 91.3304L180.001 92.0845C182.45 92.176 184.509 90.265 184.601 87.8162C184.762 83.494 182.473 79.6484 178.976 77.6191L179.203 71.5483Z" fill="#FFE999" stroke="#083156" stroke-width="1.80233"/>
<path fill-rule="evenodd" clip-rule="evenodd" d="M211.441 52.0734C211.299 50.4995 212.459 49.1083 214.033 48.9661L225.91 47.8926C227.265 47.7701 228.552 48.5065 229.134 49.7365L250.085 94.0595C251.756 97.5944 246.899 100.519 244.557 97.3883L222.221 67.5393L215.129 75.873C214.105 77.0765 212.299 77.2219 211.095 76.1977C209.892 75.1735 209.746 73.3677 210.771 72.1642L219.876 61.4649C221.224 59.8802 223.695 59.9577 224.942 61.6237L234.393 74.2542L224.7 53.748L214.548 54.6656C212.974 54.8078 211.583 53.6473 211.441 52.0734Z" fill="#FFD9AB" stroke="#083156" stroke-width="1.80233" stroke-linecap="round"/>
<path fill-rule="evenodd" clip-rule="evenodd" d="M207.119 78.419C211.383 80.6535 216.576 79.7159 217.858 75.3515C218.744 70.5492 216.685 67.7283 212.644 66.3529C208.223 65.2066 204.79 66.5299 200.862 69.2782L188.664 77.8132L171.74 77.7198C168.678 77.7029 165.944 80.9239 166.024 84.3272C166.103 87.7306 168.3 89.1391 171.968 89.6229L189.068 90.5596C191.108 90.5709 193.092 89.9453 194.795 88.7541L207.119 78.419Z" fill="#C29980"/>
<path fill-rule="evenodd" clip-rule="evenodd" d="M207.067 78.8339C211.289 80.778 216.731 80.214 218.132 74.8118C219.086 70.4863 216.545 67.3947 212.982 66.6652C208.587 65.7006 205.142 66.9393 201.182 69.4649L188.884 77.3082L171.997 77.4723C168.942 77.502 166.166 80.4346 166.196 83.4897C166.226 86.5448 168.615 89.288 172.268 89.6687L189.318 90.2593C191.353 90.2395 193.342 89.6487 195.059 88.554L207.067 78.8339Z" stroke="#083156" stroke-width="1.80233" stroke-linecap="round"/>
<path fill-rule="evenodd" clip-rule="evenodd" d="M281.003 91.4015C257.055 88.5787 245.229 103.786 242.342 111.287C241.585 113.253 239.378 114.234 237.411 113.477C235.445 112.72 234.464 110.512 235.221 108.546C239.044 98.6148 253.68 80.4977 281.897 83.8236C283.989 84.0702 285.486 85.9665 285.239 88.0591C284.992 90.1517 283.096 91.6481 281.003 91.4015Z" fill="#FFD9AB" stroke="#083156" stroke-width="1.80233" stroke-linecap="round"/>
<path fill-rule="evenodd" clip-rule="evenodd" d="M151.377 125.921C151.752 123.847 153.737 122.47 155.81 122.846L174.831 126.288C176.905 126.663 178.281 128.648 177.906 130.721C177.531 132.795 175.546 134.171 173.472 133.796L154.451 130.354C152.378 129.979 151.001 127.994 151.377 125.921Z" fill="#FFD9AB" stroke="#083156" stroke-width="1.80233" stroke-linecap="round"/>
<circle cx="274.741" cy="127.864" r="27.4646" transform="rotate(-8.17661 274.741 127.864)" fill="#083156" stroke="#083156" stroke-width="6.48579"/>
<circle cx="274.74" cy="127.864" r="20.0796" transform="rotate(-8.17661 274.74 127.864)" fill="white" stroke="#083156" stroke-width="4.95972"/>
<circle cx="274.741" cy="127.864" r="27.4646" transform="rotate(-8.17661 274.741 127.864)" fill="#083156" stroke="#083156" stroke-width="6.48579"/>
<circle cx="274.74" cy="127.864" r="20.0796" transform="rotate(-8.17661 274.74 127.864)" fill="white" stroke="#083156" stroke-width="4.95972"/>
<path opacity="0.3" d="M273.295 139.988C268.842 139.567 265.157 136.859 263.292 133.135M262.03 126.372C262.68 119.501 268.776 114.458 275.646 115.107C277.462 115.279 279.151 115.831 280.64 116.677M286.911 128.724C287.145 126.245 286.639 123.867 285.573 121.81M283.565 136.119C281.854 137.931 279.614 139.222 277.122 139.762" stroke="#083156" stroke-width="1.7" stroke-linecap="round"/>
<path d="M214.718 125.721C217.498 123.038 219.413 121.19 221.781 118.11" stroke="white" stroke-width="1.14455" stroke-linecap="round"/>
<path d="M130.188 19.1989C130.125 27.6822 138.402 34.6209 148.674 34.6968C158.946 34.7727 167.324 27.9571 167.387 19.4738C167.45 10.9904 159.173 4.05174 148.901 3.97584C138.629 3.89993 130.251 10.7155 130.188 19.1989Z" fill="#083156"/>
<path d="M162.724 25.7393C166.206 32.9485 173.822 36.4777 179.735 33.6221C185.647 30.7664 187.618 22.6073 184.136 15.3981C180.655 8.18891 173.039 4.65969 167.126 7.51534C161.213 10.371 159.242 18.5302 162.724 25.7393Z" fill="#083156"/>
<path d="M123.973 34.4951C124.769 41.5964 133.249 46.4747 142.913 45.391C152.576 44.3074 159.765 37.6722 158.969 30.5709C158.172 23.4696 149.693 18.5914 140.029 19.675C130.365 20.7586 123.177 27.3938 123.973 34.4951Z" fill="#083156"/>
<path d="M173.278 16.9805L143.534 28.3251L150.475 46.5237L180.219 35.1791L173.278 16.9805Z" fill="#083156"/>
<path d="M149.791 43.765C145.649 45.3449 145.522 47.9553 147.041 51.9385L154.869 69.6053C156.654 74.2856 159.803 77.9145 164.67 76.0581L185.714 68.6857C190.581 66.8293 193.079 61.5303 191.294 56.8501L184.417 38.8196C182.898 34.8364 178.309 32.8882 174.166 34.468L149.791 43.765Z" fill="#C29980"/>
<path d="M152.087 44.7662C148.602 46.0953 146.853 50.023 148.197 53.5468L155.074 71.5773C156.684 75.7981 161.381 77.9143 165.558 76.3212L186.327 68.3999C190.503 66.8069 192.598 62.1001 190.988 57.8793L184.111 39.8488C182.767 36.325 178.847 34.5599 175.362 35.8889L152.087 44.7662Z" stroke="#083156" stroke-width="1.80233"/>
<path d="M145.513 65.1825C146.463 67.6721 149.423 68.8549 152.125 67.8242C154.827 66.7936 156.248 63.9399 155.298 61.4502C154.349 58.9606 151.389 57.7779 148.686 58.8085C145.984 59.8391 144.563 62.6929 145.513 65.1825Z" fill="#C29980"/>
<path d="M182.634 30.202C183.281 29.963 183.981 30.3961 184.056 31.082L185.155 41.1929C185.234 41.9241 184.563 42.5121 183.849 42.3372L173.193 39.7289C172.876 39.6512 172.54 39.7243 172.283 39.9272L149.988 57.5643C149.487 57.9609 148.751 57.827 148.422 57.2792L141.975 46.5571C141.632 45.9874 141.892 45.2465 142.516 45.0162L182.634 30.202Z" fill="#FFE999" stroke="#083156" stroke-width="1.52607"/>
<path d="M170.58 31.6832C165.431 26.1409 156.765 25.8215 151.223 30.9698L153.852 33.8002C159 39.3425 167.667 39.662 173.209 34.5136L170.58 31.6832Z" fill="#FFE999"/>
<path d="M173.398 24.466C175.971 28.6521 174.664 34.1318 170.478 36.7052L169.163 34.5673C166.59 30.3812 167.897 24.9015 172.083 22.3282L173.398 24.466Z" fill="#FFE999"/>
<path d="M161.405 56.1396C161.547 58.6802 163.201 60.9631 165.176 60.5852C169.376 59.5628 170.889 57.0358 170.748 54.4952C170.607 51.9545 167.916 49.7901 165.739 49.9114C163.561 50.0327 161.264 53.5989 161.405 56.1396Z" fill="white"/>
<path d="M175.684 50.4761C176.046 52.9948 178.09 54.7852 180.249 54.4749C182.408 54.1647 184.62 51.7629 184.258 49.2442C183.896 46.7254 181.097 45.0436 178.938 45.3538C176.779 45.6641 175.323 47.9574 175.684 50.4761Z" fill="white"/>
<path d="M170.725 52.9013C169.923 51.2028 168.182 50.341 166.835 50.9763C165.488 51.6117 165.03 53.5212 167.306 55.0554C167.968 58.0686 169.107 57.9471 170.454 57.3117C171.801 56.6763 171.526 54.5999 170.725 52.9013Z" fill="#083156"/>
<path d="M184.124 47.6664C183.242 45.9225 181.616 44.9695 180.494 45.5378C179.371 46.106 178.68 47.8882 180.714 49.3424C181.088 51.9696 182.568 52.421 183.69 51.8527C184.813 51.2845 185.007 49.4102 184.124 47.6664Z" fill="#083156"/>
<path fill-rule="evenodd" clip-rule="evenodd" d="M176.756 54.4252C176.709 54.7555 176.939 55.0612 177.269 55.108C177.554 55.1484 177.86 55.1806 178.144 55.2105C178.322 55.2292 178.49 55.2469 178.639 55.2651C179.061 55.3167 179.408 55.3794 179.695 55.4855C179.972 55.5879 180.174 55.7242 180.324 55.9169C180.477 56.1123 180.611 56.4116 180.673 56.8975C180.735 57.3785 180.494 57.8759 179.985 58.2803C179.475 58.6846 178.779 58.9224 178.143 58.8922C177.809 58.8763 177.527 59.1336 177.511 59.4667C177.495 59.7999 177.752 60.0829 178.085 60.0987C179.033 60.1438 180.013 59.8002 180.736 59.2262C181.458 58.6524 182.004 57.7747 181.872 56.7437C181.789 56.1023 181.595 55.5821 181.277 55.1742C180.957 54.7637 180.547 54.5129 180.114 54.3526C179.69 54.1959 179.228 54.1203 178.786 54.0662C178.589 54.0421 178.405 54.023 178.224 54.0042C177.966 53.9774 177.715 53.9512 177.438 53.9121C177.108 53.8652 176.802 54.095 176.756 54.4252Z" fill="#083156"/>
<path d="M150.876 58.0809C148.184 58.4845 144.048 60.1291 145.835 65.4431C147.034 68.3077 149.966 69.827 153.529 67.3261" stroke="#083156" stroke-width="1.80233" stroke-linecap="round"/>
<path d="M170.804 54.4722C170.354 48.544 160.95 46.7891 161.603 56.4423" stroke="#083156" stroke-width="1.52607" stroke-linecap="round"/>
<path d="M184.382 49.1694C183.418 43.3029 173.897 42.3725 175.387 51.9324" stroke="#083156" stroke-width="1.52607" stroke-linecap="round"/>
<path fill-rule="evenodd" clip-rule="evenodd" d="M177.379 61.6925C175.344 61.9584 173.275 61.769 171.322 61.1379L171.224 61.1062C170.03 60.7205 168.675 60.676 167.499 61.079C166.292 61.4927 165.233 62.405 164.892 63.8793C164.584 65.2071 164.684 66.8144 165.908 68.2671C166.991 69.5533 168.445 70.1303 169.677 70.383C170.911 70.6359 172.021 70.585 172.558 70.536C172.821 70.512 173.068 70.4679 173.299 70.4163C173.846 70.2942 175.031 69.9992 176.291 69.4845C177.52 68.9825 178.976 68.2108 179.921 67.0615C180.181 66.7455 180.408 66.4082 180.606 66.0723C181.277 64.9308 181.077 63.6928 180.37 62.8306C179.688 62 178.566 61.5375 177.379 61.6925Z" fill="#083156"/>
<path d="M166.227 64.9488C166.236 64.6509 166.278 64.3587 166.344 64.0766C166.815 62.0401 169.219 61.4917 171.209 62.1344L171.307 62.1661C172.638 62.5961 174.018 62.8367 175.408 62.8842C174.926 64.4061 173.484 65.491 171.808 65.4479C170.841 65.4229 169.972 65.0271 169.331 64.4C168.744 64.8664 167.996 65.1371 167.187 65.1162C166.852 65.1076 166.529 65.0494 166.227 64.9488Z" fill="white"/>
<path d="M142.159 43.9863L147.087 51.9884" stroke="white" stroke-width="1.52607" stroke-linecap="round"/>
<path fill-rule="evenodd" clip-rule="evenodd" d="M146.333 44.3932L141.44 46.3037L139.22 42.9521L145.167 42.6522L146.333 44.3932Z" fill="#083156"/>
<path d="M260.43 103.795C272.095 95.0626 299.177 99.2974 303.189 125.108" stroke="white" stroke-width="1.52607" stroke-linecap="round"/>
<circle cx="147.473" cy="163.549" r="27.4646" transform="rotate(-8.17661 147.473 163.549)" fill="#083156" stroke="#083156" stroke-width="6.48579"/>
<circle cx="147.47" cy="163.548" r="20.0796" transform="rotate(-8.17661 147.47 163.548)" fill="white" stroke="#083156" stroke-width="4.95972"/>
<path opacity="0.3" d="M159.84 161.77C160.476 166.197 158.709 170.415 155.527 173.103M149.248 175.917C142.417 176.898 136.084 172.156 135.102 165.325C134.843 163.519 134.983 161.749 135.456 160.103M145.694 151.179C143.23 151.533 141.037 152.583 139.287 154.103M153.668 152.696C155.832 153.933 157.612 155.807 158.722 158.103" stroke="#083156" stroke-width="1.7" stroke-linecap="round"/>
<path d="M133.161 139.481C144.826 130.748 171.908 134.983 175.92 160.794" stroke="white" stroke-width="1.52607" stroke-linecap="round"/>
<path d="M243.787 89.498L247.524 95.9086" stroke="#FFD9AB" stroke-width="5.72276" stroke-linecap="square"/>
<g opacity="0.2">
<path d="M40 24.999L105 24.999" stroke="#3C5D87" stroke-width="2" stroke-linecap="round"/>
<path d="M30 24.999L33 24.999" stroke="#3C5D87" stroke-width="2" stroke-linecap="round"/>
<path d="M84 31.999L119 31.999" stroke="#3C5D87" stroke-width="2" stroke-linecap="round"/>
<path d="M54 31.999L69 31.999" stroke="#3C5D87" stroke-width="2" stroke-linecap="round"/>
<path d="M104 78.999L149 78.999" stroke="#3C5D87" stroke-width="2" stroke-linecap="round"/>
<path d="M80 78.999L88 78.999" stroke="#3C5D87" stroke-width="2" stroke-linecap="round"/>
<path d="M86 127.999L141 127.999" stroke="#3C5D87" stroke-width="2" stroke-linecap="round"/>
<path d="M51 127.999L76 127.999" stroke="#3C5D87" stroke-width="2" stroke-linecap="round"/>
<path d="M38 116.999L83 116.999" stroke="#3C5D87" stroke-width="2" stroke-linecap="round"/>
<path d="M90 116.999L95 116.999" stroke="#3C5D87" stroke-width="2" stroke-linecap="round"/>
</g>
<defs>
<clipPath id="clip0_5873_121498">
<rect y="40" width="399.997" height="128" rx="12" fill="white"/>
</clipPath>
</defs>
</svg>
