<svg width="552" height="287" viewBox="0 0 552 287" fill="none" xmlns="http://www.w3.org/2000/svg"><g clip-path="url(#clip0_3935_162775)"><rect opacity="0.1" x="147.742" y="94.1232" width="158.953" height="158.953" rx="23.8862" transform="rotate(17.1144 147.742 94.1232)" fill="#FF9600"/><rect opacity="0.1" x="285.17" y="154.121" width="108.662" height="108.662" rx="16.3289" transform="rotate(-12.0867 285.17 154.121)" fill="#FF9600"/><rect opacity="0.1" x="360.319" y="63.5804" width="122.955" height="122.955" rx="18.4766" transform="rotate(-17.2912 360.319 63.5804)" fill="#FF9600"/><rect opacity="0.1" width="67.308" height="67.308" rx="10.1145" transform="matrix(-0.812082 -0.583544 -0.583544 0.812082 162.845 72.829)" fill="#FF9600"/><rect opacity="0.1" width="14.456" height="14.456" rx="2.17233" transform="matrix(-0.953688 -0.300797 -0.300797 0.953688 49.3735 51.5613)" fill="#FF9600"/><rect opacity="0.1" width="13.5043" height="13.5043" rx="2.17233" transform="matrix(-0.613465 -0.789722 -0.789722 0.613465 211.073 42.9485)" fill="#FF9600"/><rect opacity="0.1" width="8.76296" height="8.76296" rx="1.40963" transform="matrix(-0.613465 -0.789722 -0.789722 0.613465 523.625 161.449)" fill="#FF9600"/><rect opacity="0.1" width="8.76296" height="8.76296" rx="1.40963" transform="matrix(-0.613465 -0.789722 -0.789722 0.613465 27.5239 91.4183)" fill="#FF9600"/><rect opacity="0.1" width="8.76296" height="8.76296" rx="1.40963" transform="matrix(-0.613465 -0.789722 -0.789722 0.613465 294.006 253.211)" fill="#FF9600"/><rect opacity="0.1" width="6.55896" height="6.55896" rx="1.05509" transform="matrix(-0.239595 -0.970873 -0.970873 0.239595 510.13 46.2156)" fill="#FF9600"/><rect opacity="0.1" width="6.55896" height="6.55896" rx="1.05509" transform="matrix(-0.239595 -0.970873 -0.970873 0.239595 221.757 61.4433)" fill="#FF9600"/><rect opacity="0.1" width="67.308" height="67.308" rx="10.1145" transform="matrix(-0.997609 0.0691162 0.0691162 0.997609 298.448 40.8138)" fill="#FF9600"/><mask id="mask0_3935_162775" style="mask-type:alpha" maskUnits="userSpaceOnUse" x="1" y="11" width="551" height="217"><rect x="1.90332" y="11.2152" width="550.097" height="216.041" fill="#E1E5EA"/></mask><g mask="url(#mask0_3935_162775)"><g opacity="0.9"><path fill-rule="evenodd" clip-rule="evenodd" d="M135.584 250.84C130.008 250.287 125.936 245.318 126.489 239.742L132.421 179.95C132.974 174.373 137.943 170.302 143.519 170.855C149.095 171.408 153.167 176.377 152.614 181.953L146.682 241.745C146.129 247.321 141.16 251.393 135.584 250.84Z" fill="#C7A185" stroke="#083156" stroke-width="1.42759"/><path d="M131.143 173.329C137.496 141.375 182.442 138.271 160.801 168.837L151.897 196.884L129.131 193.486C127.838 193.293 126.979 192.043 127.263 190.766L131.143 173.329Z" fill="#083156"/><path fill-rule="evenodd" clip-rule="evenodd" d="M210.21 248.634C215.758 247.85 219.62 242.716 218.836 237.168L210.428 177.673C209.644 172.125 204.51 168.263 198.962 169.047C193.414 169.831 189.552 174.964 190.336 180.513L198.744 240.008C199.528 245.556 204.662 249.418 210.21 248.634Z" fill="#C7A185" stroke="#083156" stroke-width="1.42759"/><path d="M211.43 171.003C203.727 141.082 158.721 138.105 181.612 167.746L191.672 195.4L214.277 191.059C215.562 190.813 216.368 189.528 216.031 188.264L211.43 171.003Z" fill="#083156"/><path fill-rule="evenodd" clip-rule="evenodd" d="M149.543 302.722C146.773 302.722 144.528 300.477 144.528 297.708V203.33C144.528 200.561 146.773 198.316 149.543 198.316H193.862C196.632 198.316 198.877 200.561 198.877 203.33V297.708C198.877 300.477 196.632 302.722 193.862 302.722H149.543Z" fill="#FFE999"/><path d="M145.95 205.921L145.95 297.575" stroke="white" stroke-width="3.00862" stroke-linecap="round"/><path fill-rule="evenodd" clip-rule="evenodd" d="M149.543 302.722C146.773 302.722 144.528 300.477 144.528 297.708V203.33C144.528 200.561 146.773 198.316 149.543 198.316H193.862C196.632 198.316 198.877 200.561 198.877 203.33V297.708C198.877 300.477 196.632 302.722 193.862 302.722H149.543Z" stroke="#083156" stroke-width="2.00575"/><path d="M142.85 183.222C142.85 164.792 155.432 151.303 170.196 147.762C170.882 147.598 171.597 147.837 172.069 148.361V148.361C172.446 148.78 172.985 149.014 173.548 149.035C188.854 149.598 201.118 164.689 201.118 183.222L205.408 224.313C205.408 227.633 203.397 230.325 200.915 230.325H143.053C140.571 230.325 138.56 227.633 138.56 224.313L142.85 183.222Z" fill="#083156"/><path d="M156.328 150.402C148.462 151.833 138.093 158.627 135.231 169.711C133.444 175.074 132.014 183.298 130.681 189.11" stroke="white" stroke-width="1.42759" stroke-linecap="round"/><path fill-rule="evenodd" clip-rule="evenodd" d="M171.658 119.473C178.507 119.473 184.059 124.218 184.059 130.071V149.36C184.059 155.213 178.507 159.958 171.658 159.958C164.81 159.958 159.258 155.213 159.258 149.36V130.071C159.258 124.218 164.81 119.473 171.658 119.473Z" fill="#C7A185" stroke="#083156" stroke-width="1.42759" stroke-linecap="round"/><path d="M166.052 68.2195C148.044 68.2195 133.445 82.8181 133.445 100.827V106.109C129.035 106.555 125.592 110.279 125.592 114.807C125.592 119.636 129.507 123.551 134.336 123.551H134.741C137.173 135.305 143.399 144.183 156.47 144.183H185.15C200.229 144.183 206.665 135.3 209.059 123.541C213.699 123.329 217.396 119.5 217.396 114.807C217.396 110.539 214.337 106.984 210.291 106.217V100.827C210.291 82.8182 195.693 68.2195 177.684 68.2195H166.052Z" fill="#C7A185" stroke="#083156" stroke-width="1.42759"/><path d="M168.852 115.006C163.679 116.156 161.379 118.57 161.954 121.329C162.222 122.862 163.909 125.836 168.507 125.468" stroke="#083156" stroke-width="1.42759" stroke-linecap="round"/><path d="M193.571 106.683C193.571 111.898 189.343 113.119 184.128 113.119C178.914 113.119 174.686 111.898 174.686 106.683C174.686 101.468 178.914 97.2404 184.128 97.2404C189.343 97.2404 193.571 101.468 193.571 106.683Z" fill="white"/><path d="M164.383 106.683C164.383 111.898 160.156 113.119 154.941 113.119C149.726 113.119 145.499 111.898 145.499 106.683C145.499 101.468 149.726 97.2404 154.941 97.2404C160.156 97.2404 164.383 101.468 164.383 106.683Z" fill="white"/><path d="M188.092 106.065C188.191 109.55 186.031 112.44 183.267 112.519C180.502 112.597 179.338 108.261 179.424 105.114C179.509 101.792 181.176 99.0664 183.94 98.9878C186.705 98.9091 187.993 102.579 188.092 106.065Z" fill="#083156"/><path d="M159.583 106.065C159.682 109.551 157.522 112.44 154.758 112.519C151.993 112.597 150.829 108.261 150.915 105.114C151 101.792 152.667 99.0665 155.432 98.9878C158.196 98.9092 159.484 102.579 159.583 106.065Z" fill="#083156"/><path d="M179.84 128.416C177.307 130.584 170.059 134.328 161.333 131.962" stroke="#083156" stroke-width="1.42759" stroke-linecap="round"/><path d="M174.85 109.782C173.306 94.451 193.491 92.5506 193.364 108.842" stroke="#083156" stroke-width="1.42759" stroke-linecap="round"/><path d="M145.922 109.782C144.378 94.4511 164.562 92.5507 164.436 108.842" stroke="#083156" stroke-width="1.42759" stroke-linecap="round"/><path fill-rule="evenodd" clip-rule="evenodd" d="M119.764 76.3808C120.063 80.7217 123.163 84.0442 127.12 84.8442L124.49 86.577C112.124 98.3781 128.219 114.69 140.136 105.72L185.952 72.7866C192.354 68.5692 191.61 60.3625 187.669 55.894C173.897 40.278 118.047 51.5364 119.764 76.3808Z" fill="#E1E1E1"/><path fill-rule="evenodd" clip-rule="evenodd" d="M119.764 76.3808C120.063 80.7217 123.163 84.0442 127.12 84.8442L124.49 86.577C112.124 98.3781 128.219 114.69 140.136 105.72L185.952 72.7866C192.354 68.5692 191.61 60.3625 187.669 55.894C173.897 40.278 118.047 51.5364 119.764 76.3808Z" fill="#E1E1E1"/><path fill-rule="evenodd" clip-rule="evenodd" d="M119.764 76.3808C120.063 80.7217 123.163 84.0442 127.12 84.8442L124.49 86.577C112.124 98.3781 128.219 114.69 140.136 105.72L185.952 72.7866C192.354 68.5692 191.61 60.3625 187.669 55.894C173.897 40.278 118.047 51.5364 119.764 76.3808Z" fill="#BFBFBF"/><path fill-rule="evenodd" clip-rule="evenodd" d="M119.764 76.3808C120.063 80.7217 123.163 84.0442 127.12 84.8442L124.49 86.577C112.124 98.3781 128.219 114.69 140.136 105.72L185.952 72.7866C192.354 68.5692 191.61 60.3625 187.669 55.894C173.897 40.278 118.047 51.5364 119.764 76.3808Z" fill="#898989"/><path fill-rule="evenodd" clip-rule="evenodd" d="M119.764 76.3808C120.063 80.7217 123.163 84.0442 127.12 84.8442L124.49 86.577C112.124 98.3781 128.219 114.69 140.136 105.72L185.952 72.7866C192.354 68.5692 191.61 60.3625 187.669 55.894C173.897 40.278 118.047 51.5364 119.764 76.3808Z" fill="#898989"/><path fill-rule="evenodd" clip-rule="evenodd" d="M119.764 76.3808C120.063 80.7217 123.163 84.0442 127.12 84.8442L124.49 86.577C112.124 98.3781 128.219 114.69 140.136 105.72L185.952 72.7866C192.354 68.5692 191.61 60.3625 187.669 55.894C173.897 40.278 118.047 51.5364 119.764 76.3808Z" fill="#083156"/><path fill-rule="evenodd" clip-rule="evenodd" d="M210.289 106.377C206.967 104.996 204.252 102.62 202.23 100.506C199.529 97.684 197.038 94.2286 194.863 90.7879C190.501 83.8875 186.802 76.0729 184.694 70.9287C184.416 70.2495 184.235 69.5547 184.144 68.8597C199.057 71.858 210.289 85.0306 210.289 100.827V106.377Z" fill="#083156"/><path d="M172.194 92.4059C174.949 90.5278 182.562 87.5979 190.977 90.9035" stroke="#083156" stroke-width="1.42759" stroke-linecap="round"/><rect opacity="0.15" x="161.691" y="141.107" width="22.8836" height="7.86623" rx="3.93312" fill="#083156"/><rect opacity="0.15" x="154.54" y="226.205" width="44.337" height="7.86623" rx="3.93312" fill="#083156"/><rect opacity="0.15" x="134.182" y="106.09" width="63.9139" height="8.63669" rx="4.31835" transform="rotate(-38.824 134.182 106.09)" fill="#083156"/></g><g opacity="0.9"><path d="M380.17 208.07C380.162 208.019 380.152 207.969 380.142 207.918L376.305 188.361C375.392 183.708 370.323 180.581 364.983 181.377C359.644 182.172 356.055 186.589 356.968 191.241L360.775 210.646C360.784 210.697 360.793 210.747 360.803 210.798L364.608 230.192C364.617 230.247 364.628 230.301 364.638 230.355L367.177 243.293C368.089 247.946 373.158 251.073 378.498 250.277C383.838 249.482 387.427 245.066 386.514 240.413L384.008 227.637C383.998 227.583 383.988 227.529 383.978 227.474L380.17 208.07Z" fill="#9A755E"/><path d="M380.17 208.07C380.161 208.019 380.152 207.969 380.142 207.918L376.305 188.361C375.392 183.708 370.323 180.581 364.983 181.377C359.643 182.172 356.054 186.589 356.967 191.241L360.774 210.646C360.783 210.697 360.792 210.747 360.802 210.798L364.608 230.192C364.617 230.247 364.627 230.301 364.638 230.355L367.176 243.293C368.089 247.946 373.158 251.073 378.498 250.277C383.838 249.482 387.427 245.066 386.514 240.413L384.007 227.637C383.998 227.583 383.988 227.529 383.977 227.474L380.17 208.07Z" stroke="#083156" stroke-width="1.42759"/><path d="M307.408 207.757C307.417 207.707 307.426 207.657 307.436 207.607L311.273 188.278C312.186 183.68 317.255 180.589 322.595 181.376C327.935 182.162 331.524 186.527 330.611 191.125L326.804 210.303C326.795 210.353 326.785 210.403 326.776 210.453L322.97 229.621C322.961 229.675 322.951 229.729 322.94 229.782L320.402 242.569C319.489 247.167 314.42 250.258 309.08 249.472C303.74 248.686 300.151 244.321 301.064 239.722L303.571 227.096C303.58 227.042 303.59 226.989 303.601 226.935L307.408 207.757Z" fill="#9A755E"/><path d="M307.408 207.757C307.417 207.707 307.426 207.657 307.436 207.607L311.273 188.278C312.186 183.68 317.255 180.589 322.595 181.376C327.935 182.162 331.524 186.527 330.611 191.125L326.804 210.303C326.795 210.353 326.785 210.403 326.776 210.453L322.97 229.621C322.961 229.675 322.951 229.729 322.94 229.782L320.402 242.569C319.489 247.167 314.42 250.258 309.08 249.472C303.74 248.686 300.151 244.321 301.064 239.722L303.571 227.096C303.58 227.042 303.59 226.989 303.601 226.935L307.408 207.757Z" stroke="#083156" stroke-width="1.42759"/><path d="M342.619 228.928C342.619 222.685 349.822 217.625 358.709 217.625C367.595 217.625 374.799 222.685 374.799 228.928V254.924C374.799 261.166 367.595 266.227 358.709 266.227C349.822 266.227 342.619 261.166 342.619 254.924V228.928Z" fill="#083156"/><path d="M311.868 229.379C311.868 222.887 319.072 217.625 327.958 217.625C336.844 217.625 344.048 222.887 344.048 229.379V256.412C344.048 262.904 336.844 268.166 327.958 268.166C319.072 268.166 311.868 262.904 311.868 256.412V229.379Z" fill="#083156"/><path d="M311.869 229.128C311.761 213.533 320.883 205.468 331.085 205.468H355.582C365.784 205.468 374.798 213.678 374.798 229.128C374.798 241.733 365.784 251.95 355.582 251.95H331.085C320.883 251.95 311.869 241.733 311.869 229.128Z" fill="#083156"/><path d="M324.084 211.524C320.45 213.334 316.039 218.842 315.852 229.351V299.487" stroke="white" stroke-width="1.42759" stroke-linecap="round"/><path d="M325.455 199.747H361.211V206.898H325.455V199.747Z" fill="#3C5D87"/><path d="M324.74 199.747H326.17V206.898H324.74V199.747Z" fill="#083156"/><path d="M360.496 199.747H361.926V206.898H360.496V199.747Z" fill="#083156"/><path d="M349.054 199.747H353.345V206.898H349.054V199.747Z" fill="#083156"/><path d="M333.321 199.747H337.611V206.898H333.321V199.747Z" fill="#083156"/><rect opacity="0.26" x="324.736" y="199.031" width="34.3254" height="5.00578" rx="2.50289" fill="#083156"/><path d="M358.454 165.173H328.676V175.242C322.809 178.64 318.863 184.985 318.863 192.253C318.863 196.515 322.318 199.97 326.58 199.97H360.467C364.729 199.97 368.184 196.515 368.184 192.253C368.184 185.02 364.275 178.7 358.454 175.29V165.173Z" fill="#FFE999"/><path opacity="0.4" d="M334.179 193.686C334.179 193.049 334.179 192.73 334.208 192.462C334.46 190.119 336.312 188.267 338.656 188.015C338.924 187.986 339.242 187.986 339.879 187.986H363.273C365.695 187.986 367.658 189.949 367.658 192.37V192.37C367.658 196.245 364.517 199.386 360.642 199.386H339.879C339.242 199.386 338.924 199.386 338.656 199.357C336.312 199.104 334.46 197.253 334.208 194.909C334.179 194.641 334.179 194.323 334.179 193.686V193.686Z" fill="#FFAA00"/><path d="M330.106 165.277L330.115 175C330.116 175.412 329.863 175.778 329.495 175.965C323.77 178.891 315.722 191.752 323.31 197.959" stroke="white" stroke-width="1.90345" stroke-linecap="round"/><path d="M358.453 165.175H328.675V175.243C322.808 178.641 318.862 184.987 318.862 192.254C318.862 196.516 322.317 199.971 326.579 199.971H360.466C364.728 199.971 368.183 196.516 368.183 192.254C368.183 185.021 364.274 178.701 358.453 175.292V165.175Z" stroke="#083156" stroke-width="1.42759"/><path d="M311.181 61.0997C311.181 82.8682 325.655 100.515 343.509 100.515C361.363 100.515 375.836 82.8682 375.836 61.0997C375.836 39.3311 361.363 21.6842 343.509 21.6842C325.655 21.6842 311.181 39.3311 311.181 61.0997Z" fill="#083156"/><path d="M297.209 91.3779C309.651 104.216 328.273 106.351 338.802 96.1465C349.332 85.942 347.781 67.2624 335.339 54.4243C322.898 41.5862 304.276 39.4512 293.746 49.6557C283.217 59.8602 284.767 78.5398 297.209 91.3779Z" fill="#083156"/><path d="M390.511 90.0846C378.07 102.923 359.448 105.058 348.918 94.8532C338.389 84.6488 339.939 65.9691 352.381 53.131C364.823 40.2929 383.445 38.158 393.974 48.3624C404.503 58.5669 402.953 77.2466 390.511 90.0846Z" fill="#083156"/><path d="M382.275 111.03C382.275 102.86 375.652 96.2375 367.483 96.2375L319.296 96.2375C311.126 96.2375 304.503 102.86 304.503 111.03V118.361C304.445 118.36 304.387 118.359 304.328 118.359C299.457 118.359 295.508 122.308 295.508 127.179C295.508 132.051 299.457 136 304.328 136C304.387 136 304.445 135.999 304.503 135.998L304.503 147.87C304.503 157.47 312.285 165.251 321.884 165.251H364.894C374.493 165.251 382.275 157.47 382.275 147.87V135.998C382.327 135.999 382.38 136 382.432 136C387.303 136 391.252 132.051 391.252 127.179C391.252 122.308 387.303 118.359 382.432 118.359C382.38 118.359 382.327 118.36 382.275 118.361V111.03Z" fill="#9A755E" stroke="#083156" stroke-width="1.42759"/><rect opacity="0.15" x="334.034" y="161.845" width="27.1743" height="8.58135" rx="4.0115" fill="#083156"/><path d="M299.712 92.4802L304.386 118.224L343.334 103.451L382.154 117.863L386.956 92.4802H299.712Z" fill="#FFE999"/><path d="M299.712 92.4802V91.4773H298.511L298.726 92.6593L299.712 92.4802ZM304.386 118.224L303.399 118.403C303.453 118.696 303.633 118.951 303.893 119.097C304.152 119.244 304.463 119.268 304.742 119.162L304.386 118.224ZM343.334 103.451L343.683 102.511L343.33 102.38L342.979 102.513L343.334 103.451ZM382.154 117.863L381.805 118.803C382.082 118.906 382.39 118.882 382.647 118.736C382.904 118.591 383.084 118.34 383.139 118.05L382.154 117.863ZM386.956 92.4802L387.941 92.6666L388.166 91.4773H386.956V92.4802ZM305.373 118.045L300.699 92.3011L298.726 92.6593L303.399 118.403L305.373 118.045ZM342.979 102.513L304.03 117.287L304.742 119.162L343.69 104.389L342.979 102.513ZM342.985 104.391L381.805 118.803L382.503 116.923L343.683 102.511L342.985 104.391ZM383.139 118.05L387.941 92.6666L385.971 92.2938L381.168 117.677L383.139 118.05ZM299.712 93.4831H386.956V91.4773H299.712V93.4831Z" fill="#083156"/><path d="M301.364 93.5501L305.321 116.335" stroke="white" stroke-width="3.00862" stroke-linecap="round"/><rect opacity="0.4" x="307.039" y="107.285" width="31.0518" height="9.11064" rx="4.55532" transform="rotate(-20.6866 307.039 107.285)" fill="#FFAA00"/><path d="M299.712 92.4802V91.7664H298.857L299.01 92.6077L299.712 92.4802ZM304.386 118.224L303.684 118.352C303.722 118.56 303.85 118.741 304.035 118.846C304.22 118.95 304.441 118.967 304.639 118.892L304.386 118.224ZM343.334 103.451L343.583 102.782L343.332 102.689L343.081 102.784L343.334 103.451ZM382.154 117.863L381.905 118.532C382.102 118.605 382.322 118.588 382.505 118.485C382.688 118.381 382.816 118.202 382.855 117.996L382.154 117.863ZM386.956 92.4802L387.657 92.6129L387.818 91.7664H386.956V92.4802ZM305.088 118.097L300.415 92.3527L299.01 92.6077L303.684 118.352L305.088 118.097ZM343.081 102.784L304.133 117.557L304.639 118.892L343.587 104.118L343.081 102.784ZM343.086 104.12L381.905 118.532L382.402 117.194L343.583 102.782L343.086 104.12ZM382.855 117.996L387.657 92.6129L386.255 92.3475L381.452 117.73L382.855 117.996ZM299.712 93.194H386.956V91.7664H299.712V93.194Z" fill="#083156"/><path opacity="0.15" d="M310.928 118.17C310.361 116.675 311.114 115.003 312.61 114.436L343.37 102.777C344.148 102.482 345.024 102.827 345.392 103.573V103.573C345.791 104.384 345.449 105.365 344.631 105.75L314.87 119.764C313.343 120.483 311.526 119.749 310.928 118.17V118.17Z" fill="#083156"/><path d="M348.645 90.0957C345.923 76.8687 333.481 68.1279 320.305 69.794C319.206 69.933 318.506 71.0022 318.729 72.0872L319.784 77.2152C322.641 91.1032 336.216 100.045 350.104 97.1883L348.645 90.0957Z" fill="#FFE999"/><path d="M360.183 81.2724C360.234 90.4828 352.809 97.9905 343.598 98.0414L343.572 93.3377C343.523 84.4641 350.414 77.1709 359.154 76.6039C359.707 76.5681 360.159 77.0177 360.162 77.5716L360.183 81.2724Z" fill="#FFE999"/><path d="M348.945 132.073C349.139 137.138 352.406 140.903 357.158 140.944C363.169 141.039 366.382 136.479 366.188 131.414C365.994 126.348 360.799 122.435 356.456 122.601C352.114 122.767 348.751 127.008 348.945 132.073Z" fill="white"/><path d="M366.335 133.606C368.328 120.906 348.758 115.71 348.881 133.177" stroke="#083156" stroke-width="1.42759" stroke-linecap="round"/><path d="M360.365 131.012C360.464 134.498 358.303 137.387 355.539 137.466C352.775 137.545 351.61 133.209 351.696 130.061C351.782 126.739 353.449 124.014 356.213 123.935C358.977 123.857 360.265 127.526 360.365 131.012Z" fill="#083156"/><path d="M338.679 132.073C338.485 137.138 335.218 140.903 330.466 140.944C324.455 141.039 321.242 136.479 321.436 131.414C321.63 126.348 326.826 122.435 331.168 122.601C335.51 122.767 338.873 127.008 338.679 132.073Z" fill="white"/><path d="M321.287 133.608C319.293 120.907 338.864 115.711 338.74 133.178" stroke="#083156" stroke-width="1.42759" stroke-linecap="round"/><path d="M336.146 131.012C336.245 134.498 334.085 137.387 331.32 137.466C328.556 137.545 327.392 133.209 327.477 130.061C327.563 126.739 329.23 124.014 331.994 123.935C334.758 123.856 336.047 127.526 336.146 131.012Z" fill="#083156"/><path d="M346.305 135.568C351.478 136.718 353.778 139.132 353.203 141.892C352.935 143.424 351.248 146.398 346.65 146.03" stroke="#083156" stroke-width="1.42759" stroke-linecap="round"/><path d="M351.195 115.128C353.183 114.357 355.355 113.932 357.631 113.932C360.611 113.932 363.413 114.66 365.855 115.94" stroke="#083156" stroke-width="1.42759" stroke-linecap="round"/><path d="M336.537 115.128C334.549 114.357 332.377 113.932 330.101 113.932C327.121 113.932 324.319 114.66 321.877 115.94" stroke="#083156" stroke-width="1.42759" stroke-linecap="round"/><path d="M342.615 153.263C337.159 153.263 332.416 150.514 330.005 146.47" stroke="#083156" stroke-width="1.42759" stroke-linecap="round"/></g><path opacity="0.2" d="M395.977 60.7963C378.225 78.0798 370.2 105.127 387.655 129.995" stroke="#083156" stroke-width="11.2874" stroke-linecap="round"/><path opacity="0.2" d="M126.204 87.8739C133.288 98.1455 137.218 110.339 136.019 122.974" stroke="#083156" stroke-width="10.3357" stroke-linecap="round"/><path opacity="0.2" d="M304.714 104.64C310.077 116.082 310.792 126.806 304.537 139.636" stroke="#083156" stroke-width="9.384" stroke-linecap="round"/><path opacity="0.2" d="M215.408 90.8315C208.323 101.103 204.393 113.297 205.592 125.932" stroke="#083156" stroke-width="9.384" stroke-linecap="round"/><rect x="391.938" y="183.57" width="21.1481" height="78.0446" rx="10.574" transform="rotate(26.6624 391.938 183.57)" fill="#C09485"/><path d="M374.428 218.443L361.663 243.866C359.042 249.085 361.148 255.44 366.367 258.06V258.06C371.586 260.681 377.941 258.574 380.562 253.356L393.328 227.932" stroke="#083156" stroke-width="2.00575"/><rect width="21.1481" height="78.0446" rx="10.574" transform="matrix(-0.893666 0.448733 0.448733 0.893666 462.739 183.57)" fill="#C09485"/><path d="M480.249 218.442L493.015 243.866C495.635 249.085 493.529 255.44 488.31 258.06V258.06C483.091 260.681 476.736 258.574 474.115 253.355L461.35 227.932" stroke="#083156" stroke-width="2.00575"/><rect x="405.955" y="170.452" width="42.9067" height="12.6249" fill="#FFB2B2"/><rect x="381.647" y="177.603" width="87.7169" height="66.0269" rx="32.092" fill="#FFB2B2"/><path d="M385.947 191.932C388.92 186.011 396.129 183.622 402.05 186.595V186.595C407.97 189.568 410.36 196.777 407.387 202.698L384.805 247.669C383.939 249.395 381.836 250.092 380.11 249.225L364.922 241.599C363.195 240.732 362.499 238.63 363.365 236.904L385.947 191.932Z" fill="#FFB2B2"/><path d="M468.551 191.601C465.578 185.68 458.368 183.291 452.448 186.264V186.264C446.528 189.236 444.138 196.446 447.111 202.366L469.847 247.647C470.719 249.383 472.833 250.084 474.569 249.212L489.723 241.603C491.458 240.731 492.159 238.618 491.287 236.882L468.551 191.601Z" fill="#FFB2B2"/><g opacity="0.3"><path d="M422.405 196.198L424.574 198.368C425.911 199.705 426.58 200.373 427.411 200.373C428.241 200.373 428.91 199.705 430.247 198.368L432.416 196.198" stroke="#CC2F38" stroke-width="2.00575" stroke-linecap="round" stroke-linejoin="round"/><path d="M427.411 206.21L429.58 208.379C430.917 209.716 431.586 210.385 432.416 210.385C433.247 210.385 433.916 209.716 435.253 208.379L437.422 206.21" stroke="#CC2F38" stroke-width="2.00575" stroke-linecap="round" stroke-linejoin="round"/><path d="M432.417 196.198L434.587 198.368C435.924 199.705 436.592 200.373 437.423 200.373C438.254 200.373 438.923 199.705 440.26 198.368L442.429 196.198" stroke="#CC2F38" stroke-width="2.00575" stroke-linecap="round" stroke-linejoin="round"/><path d="M412.394 196.198L414.563 198.368C415.9 199.705 416.569 200.373 417.4 200.373C418.231 200.373 418.899 199.705 420.236 198.368L422.406 196.198" stroke="#CC2F38" stroke-width="2.00575" stroke-linecap="round" stroke-linejoin="round"/><path d="M417.4 206.21L419.569 208.379C420.906 209.716 421.575 210.385 422.406 210.385C423.236 210.385 423.905 209.716 425.242 208.379L427.411 206.21" stroke="#CC2F38" stroke-width="2.00575" stroke-linecap="round" stroke-linejoin="round"/></g><path opacity="0.4" d="M421.121 229.467C421.121 226.428 421.121 224.909 421.657 223.726C422.26 222.395 423.325 221.33 424.656 220.727C425.839 220.191 427.358 220.191 430.397 220.191H467.493C470.531 220.191 472.051 220.191 473.234 220.727C474.564 221.33 475.63 222.395 476.233 223.726C476.769 224.909 476.769 226.428 476.769 229.467V229.467C476.769 232.505 476.769 234.025 476.233 235.208C475.63 236.538 474.564 237.604 473.234 238.206C472.051 238.743 470.531 238.743 467.493 238.743H430.397C427.358 238.743 425.839 238.743 424.656 238.206C423.325 237.604 422.26 236.538 421.657 235.208C421.121 234.025 421.121 232.505 421.121 229.467V229.467Z" fill="#FF7373"/><path d="M406.673 172.119V177.583C406.673 178.448 406.673 178.881 406.441 179.16C406.209 179.438 405.744 179.524 404.814 179.696C403.056 180.021 401.426 180.587 400.2 181.098C394.538 183.457 389.601 187.957 386.943 193.333C386.905 193.411 386.886 193.45 386.836 193.518C386.787 193.586 386.785 193.588 386.782 193.591C386.647 193.723 386.884 193.159 386.664 193.599L364.082 238.57C363.816 239.099 363.684 239.364 363.612 239.604" stroke="white" stroke-width="3.00862" stroke-linecap="round"/><path d="M405.96 170.452V169.738C405.565 169.738 405.246 170.057 405.246 170.452H405.96ZM448.866 170.452H449.58C449.58 170.057 449.26 169.738 448.866 169.738V170.452ZM405.96 178.562L406.088 179.264C406.427 179.202 406.673 178.906 406.673 178.562H405.96ZM403.012 179.29L403.229 179.97L403.229 179.97L403.012 179.29ZM383.231 197.339L383.869 197.659C383.876 197.645 383.883 197.631 383.889 197.617L383.231 197.339ZM362.931 237.767L363.569 238.087L363.569 238.087L362.931 237.767ZM364.057 241.165L363.737 241.803L363.737 241.803L364.057 241.165ZM380.974 249.659L380.653 250.297L380.653 250.297L380.974 249.659ZM381.01 249.677L381.721 249.617C381.7 249.365 381.548 249.144 381.32 249.034L381.01 249.677ZM382.212 256.327L381.532 256.544L381.532 256.544L382.212 256.327ZM403.012 277.127L402.794 277.807L402.794 277.807L403.012 277.127ZM447.828 277.127L448.045 277.807L448.045 277.807L447.828 277.127ZM468.628 256.327L467.948 256.109L467.948 256.109L468.628 256.327ZM469.954 247.858L470.592 247.537C470.447 247.248 470.126 247.093 469.809 247.159C469.492 247.225 469.259 247.495 469.242 247.818L469.954 247.858ZM470.227 248.401L470.865 248.081L470.865 248.081L470.227 248.401ZM473.816 249.59L474.136 250.228L474.136 250.228L473.816 249.59ZM490.478 241.224L490.157 240.586L490.157 240.586L490.478 241.224ZM491.667 237.635L491.029 237.956L491.029 237.956L491.667 237.635ZM468.552 191.601L469.19 191.28L469.19 191.28L468.552 191.601ZM458.351 184.997L457.9 185.55C458.019 185.647 458.166 185.703 458.32 185.71L458.351 184.997ZM448.866 179.641H448.152C448.152 179.943 448.342 180.212 448.626 180.314L448.866 179.641ZM405.96 171.165H448.866V169.738H405.96V171.165ZM406.673 178.562V170.452H405.246V178.562H406.673ZM403.229 179.97C404.125 179.683 405.066 179.451 406.088 179.264L405.831 177.86C404.756 178.057 403.755 178.303 402.794 178.61L403.229 179.97ZM383.889 197.617C387.436 189.242 394.475 182.767 403.229 179.97L402.794 178.61C393.642 181.535 386.283 188.304 382.574 197.06L383.889 197.617ZM363.569 238.087L383.869 197.659L382.594 197.018L362.293 237.447L363.569 238.087ZM364.378 240.527C363.481 240.076 363.119 238.984 363.569 238.087L362.293 237.447C361.489 239.048 362.136 240.998 363.737 241.803L364.378 240.527ZM381.294 249.021L364.378 240.527L363.737 241.803L380.653 250.297L381.294 249.021ZM381.32 249.034C381.312 249.03 381.303 249.025 381.294 249.021L380.653 250.297C380.669 250.304 380.684 250.312 380.7 250.32L381.32 249.034ZM382.892 256.11C382.297 254.248 381.937 252.193 381.721 249.617L380.299 249.736C380.52 252.38 380.894 254.548 381.532 256.544L382.892 256.11ZM403.229 276.447C393.559 273.356 385.982 265.779 382.892 256.109L381.532 256.544C384.763 266.654 392.685 274.576 402.794 277.807L403.229 276.447ZM425.42 277.936C413.603 277.936 407.862 277.927 403.229 276.447L402.794 277.807C407.693 279.372 413.713 279.363 425.42 279.363V277.936ZM447.611 276.447C442.977 277.927 437.236 277.936 425.42 277.936V279.363C437.127 279.363 443.147 279.372 448.045 277.807L447.611 276.447ZM467.948 256.109C464.858 265.779 457.28 273.356 447.611 276.447L448.045 277.807C458.155 274.576 466.077 266.654 469.308 256.544L467.948 256.109ZM469.242 247.818C469.051 251.27 468.675 253.833 467.948 256.109L469.308 256.544C470.087 254.105 470.473 251.406 470.667 247.897L469.242 247.818ZM469.316 248.178L469.589 248.721L470.865 248.081L470.592 247.537L469.316 248.178ZM469.589 248.721C470.429 250.393 472.464 251.068 474.136 250.228L473.495 248.953C472.528 249.438 471.351 249.048 470.865 248.081L469.589 248.721ZM474.136 250.228L490.798 241.862L490.157 240.586L473.495 248.953L474.136 250.228ZM490.798 241.862C492.47 241.023 493.144 238.987 492.305 237.315L491.029 237.956C491.515 238.923 491.124 240.101 490.157 240.586L490.798 241.862ZM492.305 237.315L469.19 191.28L467.914 191.921L491.029 237.956L492.305 237.315ZM469.19 191.28C467.048 187.015 462.832 184.481 458.383 184.284L458.32 185.71C462.273 185.885 466.014 188.137 467.914 191.921L469.19 191.28ZM448.626 180.314C452.033 181.532 455.161 183.314 457.9 185.55L458.803 184.444C455.939 182.106 452.668 180.243 449.107 178.969L448.626 180.314ZM448.152 170.452V179.641H449.58V170.452H448.152Z" fill="#083156"/><path d="M418.832 263.774C420.777 264.279 424.196 264.765 427.414 264.765C431.704 264.765 435.995 263.774 438.856 262.344M454.23 256.283C463.59 249.805 470.53 240.079 473.419 228.734C473.659 227.791 473.871 226.837 474.054 225.873M400.597 256.827C390.633 250.224 383.282 239.994 380.429 228.019" stroke="#083156" stroke-width="2.00575" stroke-linecap="round"/><path d="M476.037 100.35C476.037 127.612 454.266 149.713 427.409 149.713C400.553 149.713 378.782 127.612 378.782 100.35C378.782 73.0879 400.553 49.5972 427.409 49.5972C454.266 49.5972 476.037 73.0879 476.037 100.35Z" fill="#84D8FF"/><path opacity="0.4" d="M476.117 100.56C475.965 121.156 462.237 139.179 442.423 144.8L438.204 145.997C432.943 147.489 427.714 143.538 427.714 138.069L427.714 90.0889C427.714 86.8851 427.714 85.2832 428.446 83.9382C429.178 82.5933 430.523 81.7233 433.213 79.9835L444.05 72.9754C444.577 72.6345 445.182 72.4333 445.808 72.3906L446.161 72.3666C462.448 71.2569 476.238 84.2356 476.117 100.56V100.56Z" fill="#1CB0F6"/><path d="M427.407 148.277C401.341 148.277 380.21 126.808 380.21 100.325C380.21 73.8415 401.341 51.022 427.407 51.022" stroke="white" stroke-width="3.00862" stroke-linecap="round"/><path d="M476.037 100.35C476.037 127.612 454.266 149.713 427.409 149.713C400.553 149.713 378.782 127.612 378.782 100.35C378.782 73.0879 400.553 49.5972 427.409 49.5972C454.266 49.5972 476.037 73.0879 476.037 100.35Z" stroke="#083156" stroke-width="1.42759"/><path d="M399.52 117.296C399.52 110.112 399.52 106.52 401.114 103.467C402.708 100.413 405.656 98.3601 411.55 94.2542L427.409 83.2075L443.268 94.2542C449.162 98.3601 452.11 100.413 453.704 103.467C455.298 106.52 455.298 110.112 455.298 117.296V142.562C455.298 155.613 455.298 162.139 451.292 166.232C451.222 166.304 451.151 166.374 451.079 166.444C446.986 170.451 440.46 170.451 427.409 170.451V170.451C414.358 170.451 407.832 170.451 403.739 166.444C403.667 166.374 403.596 166.304 403.526 166.232C399.52 162.139 399.52 155.613 399.52 142.562V117.296Z" fill="#C09485" stroke="#083156" stroke-width="1.42759"/><path d="M406.422 174.524C399.198 174.524 392.674 170.205 389.854 163.555L389.163 161.927C386.133 154.783 385.484 146.852 387.312 139.31V139.31C389.016 132.278 395.312 127.325 402.548 127.325L452.258 127.325C459.494 127.325 465.79 132.278 467.495 139.31V139.31C469.323 146.852 468.674 154.783 465.643 161.927L464.953 163.555C462.132 170.205 455.608 174.524 448.385 174.524L406.422 174.524Z" fill="#083156"/><path d="M449.82 116.14C449.82 121.824 445.592 123.871 440.377 123.871C435.163 123.871 430.935 121.824 430.935 116.14C430.935 110.455 435.163 105.847 440.377 105.847C445.592 105.847 449.82 110.455 449.82 116.14Z" fill="white"/><path d="M443.407 116.085C443.502 119.395 441.45 122.139 438.825 122.213C436.201 122.288 435.095 118.171 435.176 115.182C435.258 112.028 436.84 109.44 439.465 109.365C442.09 109.29 443.313 112.775 443.407 116.085Z" fill="#083156"/><path d="M449.289 118.391C450.834 103.06 430.649 101.16 430.776 117.451" stroke="#083156" stroke-width="1.42759" stroke-linecap="round"/><path d="M423.973 116.14C423.973 121.824 419.745 123.871 414.53 123.871C409.315 123.871 405.088 121.824 405.088 116.14C405.088 110.455 409.315 105.847 414.53 105.847C419.745 105.847 423.973 110.455 423.973 116.14Z" fill="white"/><path d="M419.668 116.085C419.762 119.395 417.711 122.139 415.086 122.214C412.461 122.288 411.356 118.171 411.437 115.182C411.518 112.028 413.101 109.44 415.726 109.365C418.351 109.29 419.574 112.775 419.668 116.085Z" fill="#083156"/><path d="M405.51 118.388C403.966 103.057 424.151 101.157 424.024 117.448" stroke="#083156" stroke-width="1.42759" stroke-linecap="round"/><path d="M434.984 98.5108C437.43 97.0711 443.868 95.2234 450.046 99.3505" stroke="#083156" stroke-width="1.42759" stroke-linecap="round"/><path d="M420.333 97.9784C417.978 96.9255 411.674 95.6195 405.3 98.8182" stroke="#083156" stroke-width="1.42759" stroke-linecap="round"/><path d="M435.992 127.902C435.992 131.259 433.27 132.55 429.913 132.55C426.556 132.55 423.835 129.829 423.835 126.472C423.835 123.115 426.556 122.896 429.913 122.896C433.131 123.611 435.992 124.545 435.992 127.902Z" fill="#C09485"/><path d="M428.841 122.539C434.138 123.714 436.492 126.182 435.904 129.003C435.629 130.57 433.902 133.61 429.194 133.233" stroke="#083156" stroke-width="1.42759" stroke-linecap="round"/><path d="M415.667 137.423C416.973 139.079 420.787 142.389 425.599 142.389" stroke="white" stroke-width="12.4665" stroke-linecap="round" stroke-linejoin="round"/><path opacity="0.1" d="M417.812 132.418C419.118 134.073 422.932 137.384 427.744 137.384" stroke="#083156" stroke-width="8.2229" stroke-linecap="round" stroke-linejoin="round"/><path d="M406.671 97.8677L452.743 65.3046" stroke="#083156" stroke-width="1.42759" stroke-linecap="round"/><rect opacity="0.15" x="409.532" y="172.597" width="41.4765" height="7.86623" rx="3.93312" fill="#083156"/><rect opacity="0.15" x="423.889" y="81.4922" width="35.0405" height="8.58135" rx="4.0115" transform="rotate(-34.9438 423.889 81.4922)" fill="#083156"/><path d="M55.5024 196.913L64.4335 201.46L48.4006 235.172C47.1897 237.719 44.1169 238.764 41.6044 237.485V237.485C39.1859 236.254 38.1878 233.321 39.3533 230.87L55.5024 196.913Z" fill="#DFA590" stroke="#083156" stroke-width="2.00575"/><path d="M111.981 196.913L103.05 201.46L119.083 235.172C120.294 237.719 123.367 238.764 125.879 237.485V237.485C128.298 236.254 129.296 233.321 128.131 230.87L111.981 196.913Z" fill="#DFA590" stroke="#083156" stroke-width="2.00575"/><path d="M63.8683 177.254C65.1212 174.722 65.7476 173.455 66.9237 173.055C68.0997 172.655 69.3685 173.276 71.9061 174.517L73.3076 175.203C75.8658 176.455 77.1449 177.081 77.5478 178.264C77.9507 179.448 77.3191 180.724 76.0561 183.277L54.2734 227.299C53.0205 229.832 52.3941 231.098 51.218 231.498C50.042 231.898 48.7732 231.277 46.2356 230.036L44.8341 229.35C42.2759 228.098 40.9968 227.472 40.5939 226.289C40.1911 225.106 40.8226 223.829 42.0856 221.277L63.8683 177.254Z" fill="#083156"/><path d="M65.8645 178.32L42.981 224.445" stroke="white" stroke-width="1.42759" stroke-linecap="round"/><path d="M103.617 177.254C102.364 174.722 101.737 173.455 100.561 173.055C99.3852 172.655 98.1163 173.276 95.5787 174.517L94.1772 175.203C91.619 176.455 90.3399 177.081 89.9371 178.264C89.5342 179.448 90.1657 180.724 91.4288 183.277L113.211 227.299C114.464 229.832 115.091 231.098 116.267 231.498C117.443 231.898 118.712 231.277 121.249 230.036L122.651 229.35C125.209 228.098 126.488 227.472 126.891 226.289C127.294 225.106 126.662 223.829 125.399 221.277L103.617 177.254Z" fill="#083156"/><path d="M76.7269 158.619C79.6116 152.9 87.7768 152.9 90.6615 158.619L102.918 182.917C105.774 188.579 101.659 195.264 95.3175 195.264H72.0709C65.7294 195.264 61.6141 188.579 64.4702 182.917L76.7269 158.619Z" fill="#083156"/><rect x="65.8643" y="161.158" width="35.7556" height="15.7325" rx="7.86623" fill="#FFB2B2" stroke="#083156" stroke-width="1.42759"/><path d="M133.802 118.254C133.802 146.69 111.39 169.742 83.7439 169.742C56.0977 169.742 33.686 146.69 33.686 118.254C33.686 89.8176 56.0977 66.7656 83.7439 66.7656C111.39 66.7656 133.802 89.8176 133.802 118.254Z" fill="#FFB2B2"/><path d="M83.7292 67.4499C56.8729 67.4499 35.1016 90.0216 35.1016 117.865C35.1016 137.872 46.3424 155.157 62.6334 163.302" stroke="white" stroke-width="2.00575" stroke-linecap="round"/><path d="M123.075 111.818C123.075 135.055 108.515 154.747 88.3906 161.513" stroke="#083156" stroke-width="1.42759" stroke-linecap="round"/><path d="M123.075 113.963C123.075 134.895 105.466 151.864 83.7443 151.864C62.0222 151.864 44.4131 134.895 44.4131 113.963C44.4131 93.0308 62.0222 76.062 83.7443 76.062C105.466 76.062 123.075 93.0308 123.075 113.963Z" fill="#DFA590"/><path d="M98.7356 122.839C104.485 122.018 108.44 118.222 108.005 113.369C107.504 107.226 101.984 104.509 96.2355 105.33C90.4866 106.151 86.5568 111.933 87.1863 116.342C87.8159 120.751 92.9866 123.66 98.7356 122.839Z" fill="white"/><path d="M108.174 115.045C109.13 102.16 88.0345 101.087 87.1797 114.349" stroke="#083156" stroke-width="1.42759" stroke-linecap="round"/><path d="M99.3361 115.642C99.4301 118.944 97.2653 121.684 94.5011 121.762C91.7368 121.841 90.5791 117.736 90.6695 114.755C90.7601 111.609 92.431 109.025 95.1953 108.946C97.9595 108.867 99.2422 112.341 99.3361 115.642Z" fill="#083156"/><path d="M68.3645 122.839C62.6156 122.018 58.6597 118.222 59.095 113.369C59.5965 107.226 65.1156 104.509 70.8646 105.33C76.6135 106.151 80.5433 111.933 79.9138 116.342C79.2842 120.751 74.1135 123.66 68.3645 122.839Z" fill="white"/><path d="M58.9269 115.045C57.9711 102.16 79.0666 101.087 79.9213 114.349" stroke="#083156" stroke-width="1.42759" stroke-linecap="round"/><path d="M67.765 115.642C67.671 118.944 69.8357 121.683 72.6 121.762C75.3643 121.841 76.522 117.736 76.4316 114.755C76.341 111.609 74.6701 109.025 71.9058 108.946C69.1416 108.867 67.8589 112.341 67.765 115.642Z" fill="#083156"/><path fill-rule="evenodd" clip-rule="evenodd" d="M105.239 82.2172C99.1065 88.8103 90.4763 94.5934 80.1938 98.4314C68.2527 102.888 56.2759 103.904 46.4287 101.953C51.641 86.9073 66.3783 76.0616 83.7444 76.0616C91.677 76.0616 99.0611 78.3246 105.239 82.2172Z" fill="#083156"/><path opacity="0.15" d="M99.8848 82.9299C94.5071 88.1134 87.1562 94.8858 79.2098 98.336C67.428 103.452 56.5532 105.582 46.5713 104.091" stroke="#083156" stroke-width="7.61379" stroke-linecap="round"/><path d="M123.075 113.963C123.075 134.895 105.466 151.864 83.7443 151.864C62.0222 151.864 44.4131 134.895 44.4131 113.963C44.4131 93.0308 62.0222 76.062 83.7443 76.062C105.466 76.062 123.075 93.0308 123.075 113.963Z" stroke="#083156" stroke-width="1.42759"/><path opacity="0.1" d="M123.06 115.005C123.06 136.53 105.451 153.979 83.7286 153.979C62.0066 153.979 44.3975 136.53 44.3975 115.005C44.3975 93.4805 62.0066 76.0314 83.7286 76.0314C105.451 76.0314 123.06 93.4805 123.06 115.005Z" stroke="#083156" stroke-width="9.51724"/><path d="M112.347 221.942C112.347 237.74 99.54 250.547 83.7422 250.547C67.9444 250.547 55.1377 237.74 55.1377 221.942C55.1377 206.144 67.9444 193.338 83.7422 193.338C99.54 193.338 112.347 206.144 112.347 221.942Z" fill="#FFB2B2"/><path fill-rule="evenodd" clip-rule="evenodd" d="M68.1849 124.702C64.0439 123.244 59.8249 122.879 57.3119 122.983L57.0488 116.603C60.2702 116.471 65.3091 116.921 70.3047 118.68C75.2994 120.438 80.5928 123.631 83.7303 129.228L78.1611 132.35C76.0489 128.582 72.3269 126.16 68.1849 124.702Z" fill="#DFA590"/><path fill-rule="evenodd" clip-rule="evenodd" d="M99.5591 124.702C103.7 123.244 107.919 122.879 110.432 122.983L110.695 116.603C107.474 116.471 102.435 116.921 97.4392 118.68C92.4446 120.438 87.1511 123.631 84.0137 129.228L89.5829 132.35C91.6951 128.582 95.4171 126.16 99.5591 124.702Z" fill="#DFA590"/><path d="M92.6479 165.375C92.6479 163.416 94.236 161.828 96.195 161.828H101.041C102.59 161.828 103.96 162.833 104.424 164.311L109.998 182.047C110.717 184.332 109.01 186.657 106.614 186.657H96.195C94.236 186.657 92.6479 185.069 92.6479 183.11V165.375Z" fill="#FFB2B2"/><path opacity="0.3" d="M130.211 117.271C130.211 119.701 130.035 122.089 129.697 124.422C126.347 147.492 107.042 165.184 83.7285 165.184" stroke="#FF7373" stroke-width="7.61379" stroke-linecap="round"/><path d="M104.656 165.047L104.35 164.402L103.788 164.668L103.975 165.261L104.656 165.047ZM92.6481 168.93H93.3619V168.072L92.5185 168.228L92.6481 168.93ZM109.999 182.047L109.318 182.261L109.318 182.261L109.999 182.047ZM133.088 118.254C133.088 138.734 121.306 156.372 104.35 164.402L104.961 165.692C122.412 157.428 134.516 139.289 134.516 118.254H133.088ZM83.7439 67.4794C110.977 67.4794 133.088 90.1927 133.088 118.254H134.516C134.516 89.4425 111.803 66.0518 83.7439 66.0518V67.4794ZM34.3998 118.254C34.3998 90.1927 56.5107 67.4794 83.7439 67.4794V66.0518C55.6847 66.0518 32.9722 89.4425 32.9722 118.254H34.3998ZM83.7439 169.028C56.5107 169.028 34.3998 146.315 34.3998 118.254H32.9722C32.9722 147.065 55.6847 170.456 83.7439 170.456V169.028ZM92.5185 168.228C89.6714 168.753 86.7391 169.028 83.7439 169.028V170.456C86.8265 170.456 89.8456 170.173 92.7777 169.632L92.5185 168.228ZM93.3619 183.11V168.93H91.9343V183.11H93.3619ZM96.1952 185.943C94.6304 185.943 93.3619 184.675 93.3619 183.11H91.9343C91.9343 185.463 93.842 187.371 96.1952 187.371V185.943ZM106.615 185.943H96.1952V187.371H106.615V185.943ZM109.318 182.261C109.891 184.086 108.528 185.943 106.615 185.943V187.371C109.492 187.371 111.542 184.578 110.679 181.833L109.318 182.261ZM103.975 165.261L109.318 182.261L110.679 181.833L105.337 164.833L103.975 165.261Z" fill="#083156"/><path d="M89.4629 169.399C93.3066 168.937 97.0182 168.015 100.547 166.686" stroke="#083156" stroke-width="1.42759" stroke-linecap="round"/><path d="M57.9985 230.524C57.9985 226.969 60.8212 224.088 64.3032 224.088H103.182C106.664 224.088 109.487 226.969 109.487 230.524V297.744C109.487 301.299 106.664 304.18 103.182 304.18H64.3032C60.8212 304.18 57.9985 301.299 57.9985 297.744V230.524Z" fill="#FFB2B2"/><path d="M109.487 234.425L108.585 233.987L108.485 234.194V234.425H109.487ZM57.9994 234.426H59.0023V234.195L58.9015 233.988L57.9994 234.426ZM111.345 221.942C111.345 226.262 110.353 230.348 108.585 233.987L110.39 234.863C112.287 230.957 113.351 226.572 113.351 221.942H111.345ZM83.7432 194.34C98.9871 194.34 111.345 206.698 111.345 221.942H113.351C113.351 205.59 100.095 192.335 83.7432 192.335V194.34ZM56.1415 221.942C56.1415 206.698 68.4992 194.34 83.7432 194.34V192.335C67.3915 192.335 54.1358 205.59 54.1358 221.942H56.1415ZM58.9015 233.988C57.1336 230.349 56.1415 226.263 56.1415 221.942H54.1358C54.1358 226.573 55.1997 230.958 57.0974 234.864L58.9015 233.988ZM59.0023 297.744V234.426H56.9965V297.744H59.0023ZM64.3041 303.177C61.3954 303.177 59.0023 300.764 59.0023 297.744H56.9965C56.9965 301.833 60.2488 305.183 64.3041 305.183V303.177ZM103.183 303.177H64.3041V305.183H103.183V303.177ZM108.485 297.744C108.485 300.764 106.092 303.177 103.183 303.177V305.183C107.238 305.183 110.49 301.833 110.49 297.744H108.485ZM108.485 234.425V297.744H110.49V234.425H108.485Z" fill="#083156"/><path d="M62.2847 207.519C59.2791 211.891 57.52 217.187 57.52 222.894C57.52 225.24 57.8173 227.516 58.3761 229.687" stroke="white" stroke-width="1.42759" stroke-linecap="round"/><path d="M66.5796 195.343C66.5796 194.236 67.4776 193.338 68.5853 193.338H98.8992C100.007 193.338 100.905 194.236 100.905 195.343V197.053C100.905 198.161 100.007 199.059 98.8992 199.059H68.5853C67.4776 199.059 66.5796 198.161 66.5796 197.053V195.343Z" fill="#3C5D87"/><path d="M72.3003 193.338H78.0212V199.058H72.3003V193.338Z" fill="#FFB2B2"/><path d="M89.4639 193.338H95.1848V199.058H89.4639V193.338Z" fill="#FFB2B2"/><path d="M91.0496 122.741C91.5458 125.168 89.7691 126.504 87.3419 127C84.9147 127.497 82.5448 125.931 82.0485 123.504C81.5523 121.077 83.4877 120.517 85.9149 120.02C88.3472 120.062 90.5534 120.314 91.0496 122.741Z" fill="#DFA590"/><path d="M85.0864 119.92C89.0899 119.987 91.157 121.423 91.1485 123.549C91.1815 124.723 90.3824 127.176 86.9226 127.6" stroke="#083156" stroke-width="1.42759" stroke-linecap="round"/><rect opacity="0.12" x="68.7241" y="167.115" width="32.8952" height="6.91451" rx="3.45725" fill="#083156"/><ellipse cx="48.9616" cy="98.8319" rx="3.53174" ry="7.895" transform="rotate(94.8401 48.9616 98.8319)" fill="#083156"/><ellipse cx="49.827" cy="94.5438" rx="2.805" ry="4.77446" transform="rotate(109.068 49.827 94.5438)" fill="#083156"/><path d="M78.7485 133.633C79.6741 135.522 81.5561 136.816 83.7273 136.816C85.8985 136.816 87.7806 135.522 88.7061 133.633" stroke="#083156" stroke-width="1.42759" stroke-linecap="round"/><path d="M95.1677 97.0076C96.4825 96.2736 98.1641 95.9364 99.6039 96.0371C101.489 96.1689 102.932 97.0493 104.381 98.5217" stroke="#083156" stroke-width="1.42759" stroke-linecap="round"/><path d="M216.783 191.593C218.899 186.423 224.806 183.948 229.976 186.064V186.064C235.146 188.18 237.621 194.087 235.505 199.257L214.279 251.112C212.163 256.282 206.257 258.758 201.087 256.642V256.642C195.917 254.525 193.441 248.619 195.557 243.449L216.783 191.593Z" fill="#EACAAC" stroke="#083156" stroke-width="2.00575"/><path d="M298.802 191.593C296.686 186.423 290.779 183.948 285.609 186.064V186.064C280.439 188.18 277.964 194.087 280.08 199.257L301.306 251.112C303.422 256.282 309.328 258.758 314.498 256.642V256.642C319.668 254.525 322.144 248.619 320.028 243.449L298.802 191.593Z" fill="#EACAAC" stroke="#083156" stroke-width="2.00575"/><path d="M213.207 195.884C215.323 190.714 221.23 188.238 226.4 190.355V190.355C231.57 192.471 234.045 198.378 231.929 203.548L213.391 248.837L194.669 241.173L213.207 195.884Z" fill="#FFD9AB"/><path d="M302.376 195.884C300.259 190.714 294.353 188.238 289.183 190.355V190.355C284.013 192.471 281.537 198.378 283.654 203.548L302.192 248.837L320.914 241.173L302.376 195.884Z" fill="#FFD9AB"/><ellipse cx="257.515" cy="214.763" rx="48.6276" ry="48.6276" fill="#FFFAED" stroke="#083156" stroke-width="1.42759"/><path d="M246.073 151.833H268.956V173.288C268.956 179.96 265.519 186.161 259.862 189.697V189.697C258.426 190.595 256.604 190.595 255.168 189.697V189.697C249.51 186.161 246.073 179.96 246.073 173.288V151.833Z" fill="#EACAAC" stroke="#083156" stroke-width="1.42759"/><rect x="221.76" y="210.472" width="71.5112" height="92.9646" rx="6.01725" fill="#3C5D87"/><rect x="221.76" y="210.472" width="71.5112" height="92.9646" rx="6.01725" stroke="#083156" stroke-width="1.42759"/><path d="M207.704 97.2771C208.564 77.6993 224.687 62.2695 244.284 62.2695V62.2695C262.958 62.2695 278.64 76.3236 280.679 94.8865L280.832 96.2792C282.655 112.874 269.661 127.373 252.967 127.373H235.379C219.574 127.373 206.961 114.194 207.655 98.4043L207.704 97.2771Z" fill="#083156"/><path d="M210.142 124.034C208.395 108.267 220.738 94.4803 236.601 94.4803H278.72C294.584 94.4803 306.927 108.267 305.18 124.034V124.034C302.973 143.944 286.146 159.01 266.113 159.01H249.208C229.176 159.01 212.348 143.944 210.142 124.034V124.034Z" fill="#EACAAC"/><rect opacity="0.1" x="248.932" y="156.124" width="23.5987" height="8.58135" rx="4.0115" fill="#083156"/><rect opacity="0.1" x="253.939" y="206.182" width="23.5987" height="8.58135" rx="4.0115" fill="#083156"/><ellipse cx="309.239" cy="125.673" rx="7.2627" ry="8.69291" transform="rotate(20 309.239 125.673)" fill="#EACAAC"/><ellipse cx="205.398" cy="125.673" rx="7.2627" ry="8.69291" transform="rotate(-20 205.398 125.673)" fill="#EACAAC"/><path opacity="0.1" fill-rule="evenodd" clip-rule="evenodd" d="M279.998 94.5082C279.97 94.9741 279.957 95.4437 279.957 95.9165C279.957 108.944 290.518 119.505 303.545 119.505H305.3C304.521 106.13 293.719 95.1529 279.998 94.5082Z" fill="#083156"/><path d="M210.015 119.629L209.503 120.126C209.701 120.33 210 120.397 210.266 120.298C210.531 120.198 210.713 119.951 210.728 119.668L210.015 119.629ZM305.268 119.025L304.556 119.079C304.576 119.347 304.745 119.58 304.993 119.683C305.241 119.787 305.525 119.742 305.73 119.569L305.268 119.025ZM312.212 117.505L312.456 116.834L312.456 116.834L312.212 117.505ZM316.064 128.157L316.734 128.401L316.734 128.401L316.064 128.157ZM306.266 133.842L306.51 133.171L306.51 133.171L306.266 133.842ZM303.504 131.842L304.061 131.395C303.896 131.191 303.633 131.093 303.375 131.14C303.117 131.187 302.906 131.373 302.825 131.622L303.504 131.842ZM211.609 131.174L212.292 130.966C212.21 130.699 211.98 130.503 211.703 130.466C211.426 130.43 211.153 130.558 211.004 130.795L211.609 131.174ZM208.372 133.842L208.128 133.171L208.128 133.171L208.372 133.842ZM198.574 128.157L197.903 128.402L197.903 128.402L198.574 128.157ZM202.426 117.505L202.67 118.175L202.67 118.175L202.426 117.505ZM236.602 93.7664C221.85 93.7664 210.065 105.375 209.303 119.591L210.728 119.668C211.451 106.196 222.623 95.194 236.602 95.194V93.7664ZM278.721 93.7664H236.602V95.194H278.721V93.7664ZM305.979 118.97C304.912 105.039 293.257 93.7664 278.721 93.7664V95.194C292.496 95.194 303.545 105.877 304.556 119.079L305.979 118.97ZM312.456 116.834C309.822 115.875 306.973 116.639 304.806 118.481L305.73 119.569C307.59 117.989 309.911 117.426 311.968 118.175L312.456 116.834ZM316.734 128.401C318.468 123.637 316.704 118.38 312.456 116.834L311.968 118.175C315.259 119.373 316.943 123.654 315.393 127.913L316.734 128.401ZM306.022 134.513C310.269 136.059 315.001 133.165 316.734 128.401L315.393 127.913C313.843 132.172 309.801 134.369 306.51 133.171L306.022 134.513ZM302.947 132.289C303.745 133.282 304.782 134.061 306.022 134.513L306.51 133.171C305.532 132.815 304.706 132.199 304.061 131.395L302.947 132.289ZM266.114 159.724C283.744 159.724 298.936 148.263 304.183 132.062L302.825 131.622C297.765 147.245 283.114 158.296 266.114 158.296V159.724ZM249.209 159.724H266.114V158.296H249.209V159.724ZM210.926 131.382C215.964 147.941 231.333 159.724 249.209 159.724V158.296C231.971 158.296 217.15 146.934 212.292 130.966L210.926 131.382ZM211.004 130.795C210.314 131.895 209.335 132.732 208.128 133.171L208.616 134.513C210.15 133.955 211.371 132.896 212.213 131.553L211.004 130.795ZM208.128 133.171C204.837 134.369 200.795 132.172 199.245 127.913L197.903 128.402C199.637 133.165 204.369 136.059 208.616 134.513L208.128 133.171ZM199.245 127.913C197.695 123.654 199.379 119.373 202.67 118.175L202.181 116.834C197.934 118.38 196.169 123.638 197.903 128.402L199.245 127.913ZM202.67 118.175C204.952 117.345 207.567 118.13 209.503 120.126L210.528 119.132C208.294 116.829 205.109 115.769 202.181 116.834L202.67 118.175Z" fill="#083156"/><ellipse cx="206.385" cy="128.592" rx="2.50289" ry="2.50289" fill="#8C96A1"/><ellipse cx="206.385" cy="128.592" rx="2.50289" ry="2.50289" stroke="#083156" stroke-width="1.42759"/><ellipse cx="308.646" cy="128.592" rx="2.50289" ry="2.50289" fill="#8C96A1"/><ellipse cx="308.646" cy="128.592" rx="2.50289" ry="2.50289" stroke="#083156" stroke-width="1.42759"/><path fill-rule="evenodd" clip-rule="evenodd" d="M240.352 240.508V284.592C240.352 287.496 237.997 289.85 235.093 289.85H214.146C211.241 289.85 208.887 287.496 208.887 284.592V214.764H208.889C208.889 214.764 208.889 214.763 208.889 214.763C208.889 193.948 221.967 176.188 240.354 169.251V240.508H240.352Z" fill="#FFD9AB"/><path fill-rule="evenodd" clip-rule="evenodd" d="M274.679 214.763H274.677V284.591C274.677 287.495 277.032 289.85 279.936 289.85H300.884C303.788 289.85 306.142 287.495 306.142 284.591V215.103C306.143 214.99 306.144 214.876 306.144 214.763C306.144 193.948 293.066 176.188 274.679 169.251V214.763Z" fill="#FFD9AB"/><path fill-rule="evenodd" clip-rule="evenodd" d="M240.351 240.507V279.332C240.351 284.29 240.351 286.769 238.811 288.31C237.271 289.85 234.792 289.85 229.834 289.85H219.404C214.446 289.85 211.967 289.85 210.427 288.31C208.887 286.769 208.887 284.29 208.887 279.332V247.168L197.025 242.313C195.488 241.684 194.751 239.927 195.381 238.389L211.475 199.069C216.157 185.33 226.816 174.357 240.352 169.25V240.507H240.351ZM301.933 194.941C302.095 195.244 302.243 195.559 302.376 195.884L319.775 238.389C320.404 239.927 319.668 241.684 318.13 242.313L306.142 247.22V279.333C306.142 284.291 306.142 286.77 304.601 288.31C303.061 289.851 300.582 289.851 295.624 289.851H285.194C280.236 289.851 277.757 289.851 276.217 288.31C274.677 286.77 274.677 284.291 274.677 279.333V214.764H274.679V169.251C286.829 173.835 296.661 183.146 301.933 194.941Z" fill="#FFD9AB"/><rect opacity="0.2" x="236.775" y="224.775" width="8.58135" height="58.6392" rx="4.0115" fill="#083156"/><rect opacity="0.1" x="237.491" y="184.728" width="7.15112" height="26.4591" rx="3.57556" fill="#083156"/><path d="M195.769 239.903L212.197 199.768C216.715 186.524 226.788 175.853 239.638 170.531M275.391 283.066V215.479H275.392V169.966" stroke="white" stroke-width="3.00862" stroke-linecap="round"/><path d="M240.351 240.507V239.793H239.638V240.507H240.351ZM238.811 288.31L238.306 287.805L238.306 287.805L238.811 288.31ZM208.887 247.168H209.6V246.689L209.157 246.507L208.887 247.168ZM197.025 242.313L196.755 242.974L196.755 242.974L197.025 242.313ZM195.381 238.389L194.72 238.119L194.72 238.119L195.381 238.389ZM211.475 199.069L212.136 199.34L212.144 199.32L212.151 199.3L211.475 199.069ZM240.352 169.25H241.066V168.218L240.101 168.582L240.352 169.25ZM240.352 240.507V241.221H241.066V240.507H240.352ZM304.113 200.813L303.429 201.018L303.439 201.051L303.452 201.084L304.113 200.813ZM274.679 169.251L274.931 168.583L273.965 168.219V169.251H274.679ZM274.679 214.764V215.478H275.392V214.764H274.679ZM274.677 214.764V214.05H273.963V214.764H274.677ZM276.217 288.31L275.712 288.815L275.712 288.815L276.217 288.31ZM306.142 247.515L305.871 246.854L305.428 247.035V247.515H306.142ZM317.993 242.664L318.263 243.324L318.263 243.324L317.993 242.664ZM319.637 238.74L318.977 239.01L318.977 239.01L319.637 238.74ZM241.065 279.332V240.507H239.638V279.332H241.065ZM239.316 288.814C240.241 287.889 240.663 286.709 240.866 285.198C241.067 283.707 241.065 281.791 241.065 279.332H239.638C239.638 281.831 239.636 283.634 239.451 285.007C239.27 286.36 238.922 287.189 238.306 287.805L239.316 288.814ZM229.834 290.564C232.293 290.564 234.209 290.565 235.699 290.365C237.21 290.162 238.391 289.739 239.316 288.814L238.306 287.805C237.691 288.42 236.862 288.768 235.509 288.95C234.136 289.135 232.333 289.136 229.834 289.136V290.564ZM219.404 290.564H229.834V289.136H219.404V290.564ZM209.922 288.814C210.847 289.739 212.028 290.162 213.539 290.365C215.029 290.565 216.945 290.564 219.404 290.564V289.136C216.905 289.136 215.102 289.135 213.729 288.95C212.376 288.768 211.547 288.42 210.932 287.805L209.922 288.814ZM208.173 279.332C208.173 281.791 208.171 283.707 208.372 285.198C208.575 286.709 208.997 287.889 209.922 288.814L210.932 287.805C210.316 287.189 209.968 286.36 209.786 285.007C209.602 283.634 209.6 281.831 209.6 279.332H208.173ZM208.173 247.168V279.332H209.6V247.168H208.173ZM196.755 242.974L208.616 247.829L209.157 246.507L197.296 241.652L196.755 242.974ZM194.72 238.119C193.941 240.021 194.852 242.195 196.755 242.974L197.296 241.652C196.123 241.172 195.561 239.832 196.041 238.659L194.72 238.119ZM210.815 198.799L194.72 238.119L196.041 238.659L212.136 199.34L210.815 198.799ZM240.101 168.582C226.365 173.764 215.55 184.898 210.8 198.839L212.151 199.3C216.764 185.763 227.267 174.95 240.604 169.918L240.101 168.582ZM241.066 240.507V169.25H239.639V240.507H241.066ZM240.351 241.221H240.352V239.793H240.351V241.221ZM304.797 200.609C300.383 185.843 289.242 173.983 274.931 168.583L274.427 169.919C288.324 175.162 299.143 186.681 303.429 201.018L304.797 200.609ZM273.965 169.251V214.764H275.392V169.251H273.965ZM274.679 214.05H274.677V215.478H274.679V214.05ZM273.963 214.764V279.333H275.39V214.764H273.963ZM273.963 279.333C273.963 281.792 273.961 283.708 274.162 285.198C274.365 286.71 274.787 287.89 275.712 288.815L276.722 287.806C276.106 287.19 275.758 286.361 275.577 285.008C275.392 283.635 275.39 281.832 275.39 279.333H273.963ZM275.712 288.815C276.637 289.74 277.818 290.162 279.329 290.366C280.819 290.566 282.735 290.564 285.194 290.564V289.137C282.695 289.137 280.892 289.135 279.519 288.951C278.166 288.769 277.337 288.421 276.722 287.806L275.712 288.815ZM285.194 290.564H295.624V289.137H285.194V290.564ZM295.624 290.564C298.083 290.564 299.999 290.566 301.489 290.366C303.001 290.162 304.181 289.74 305.106 288.815L304.097 287.806C303.481 288.421 302.652 288.769 301.299 288.951C299.926 289.135 298.123 289.137 295.624 289.137V290.564ZM305.106 288.815C306.031 287.89 306.453 286.71 306.656 285.198C306.857 283.708 306.855 281.792 306.855 279.333H305.428C305.428 281.832 305.426 283.635 305.242 285.008C305.06 286.361 304.712 287.19 304.097 287.806L305.106 288.815ZM306.855 279.333V247.515H305.428V279.333H306.855ZM306.412 248.175L318.263 243.324L317.722 242.003L305.871 246.854L306.412 248.175ZM318.263 243.324C320.166 242.545 321.077 240.372 320.298 238.469L318.977 239.01C319.457 240.183 318.895 241.523 317.722 242.003L318.263 243.324ZM320.298 238.469L304.774 200.543L303.452 201.084L318.977 239.01L320.298 238.469Z" fill="#083156"/><path d="M263.131 122.776C263.325 127.841 266.592 131.606 271.344 131.647C277.355 131.742 280.568 127.182 280.374 122.117C280.376 119.652 275.088 117.699 270.746 117.865C266.404 118.031 263.129 118.938 263.131 122.776Z" fill="white"/><path d="M281.244 121.504C277.539 116.792 266.886 115.693 262.946 120.265" stroke="#083156" stroke-width="1.42759" stroke-linecap="round"/><path d="M266.097 109.489C267.648 108.665 269.684 108.211 271.461 108.211C273.786 108.211 275.633 108.989 277.539 110.357" stroke="#083156" stroke-width="1.42759" stroke-linecap="round"/><path d="M249.65 109.489C248.099 108.665 246.063 108.211 244.287 108.211C241.961 108.211 240.114 108.989 238.208 110.357" stroke="#083156" stroke-width="1.42759" stroke-linecap="round"/><path fill-rule="evenodd" clip-rule="evenodd" d="M269.721 127.453C272.99 127.744 274.646 124.484 274.547 120.999C274.519 120.029 274.399 119.044 274.181 118.131C273.044 117.92 271.863 117.822 270.745 117.865C268.929 117.934 267.299 118.133 266.018 118.622C265.938 119.08 265.891 119.557 265.878 120.048C265.792 123.195 266.452 127.161 269.721 127.453Z" fill="#083156"/><path d="M252.043 122.776C251.849 127.841 248.581 131.606 243.83 131.647C237.819 131.742 234.606 127.182 234.8 122.117C234.798 119.652 240.086 117.699 244.428 117.865C248.77 118.031 252.045 118.938 252.043 122.776Z" fill="white"/><path d="M233.929 121.504C237.635 116.792 248.288 115.693 252.228 120.265" stroke="#083156" stroke-width="1.42759" stroke-linecap="round"/><path fill-rule="evenodd" clip-rule="evenodd" d="M245.452 127.453C242.184 127.744 240.528 124.484 240.627 120.999C240.654 120.029 240.774 119.044 240.992 118.131C242.129 117.92 243.31 117.822 244.429 117.865C246.245 117.934 247.874 118.133 249.155 118.622C249.235 119.08 249.283 119.557 249.295 120.048C249.381 123.195 248.721 127.161 245.452 127.453Z" fill="#083156"/><path d="M261.091 126.804C265.328 127.823 267.212 129.962 266.741 132.406C266.521 133.764 265.14 136.399 261.373 136.073" stroke="#083156" stroke-width="1.42759" stroke-linecap="round"/><path d="M243.577 136.581C244.6 139.82 248.179 143.058 255.168 142.036" stroke="#083156" stroke-width="1.42759" stroke-linecap="round" stroke-linejoin="round"/><ellipse cx="230.699" cy="99.6299" rx="16.09" ry="28.6045" fill="#083156"/><ellipse cx="249.649" cy="94.624" rx="6.43601" ry="10.7267" fill="#083156"/><path opacity="0.12" d="M230.699 128.235C238.736 128.235 245.397 117.759 246.597 104.07C247.505 104.887 248.545 105.351 249.65 105.351C253.204 105.351 256.086 100.548 256.086 94.6242" stroke="#083156" stroke-width="9.23172" stroke-linecap="round" stroke-linejoin="round"/><ellipse cx="213.893" cy="101.06" rx="6.43601" ry="16.4476" fill="#083156"/><path opacity="0.17" d="M458.155 183.147C455.329 191.743 451.38 206.357 452.264 223.262" stroke="#083156" stroke-width="12.0345" stroke-linecap="round"/><path opacity="0.18" d="M436.718 210.301C432.784 215.032 431.128 219.996 432.496 226.81" stroke="#083156" stroke-width="10.0287" stroke-linecap="round"/><path fill-rule="evenodd" clip-rule="evenodd" d="M452.835 245.019C443.197 241.445 432.115 227.988 435.66 218.371C438.795 209.873 448.483 203.814 457.087 205.224C458.242 205.413 458.403 206.978 459.547 207.393C469.185 210.966 478.406 231.787 474.861 241.404C471.291 251.018 462.448 248.589 452.835 245.019Z" fill="#7BB48B"/><path d="M493.388 178.244C501.879 180.322 519.492 172.103 527.621 177.431" stroke="white" stroke-width="2.73666" stroke-linecap="round"/><path d="M476.24 167.254C480.385 168.069 481.912 170.553 484.141 173.683" stroke="white" stroke-width="3.28399" stroke-linecap="round"/><path d="M453.968 209.939C456.329 198.356 459.513 164.377 474.577 166.208C484.041 167.247 483.656 176.081 490.934 177.537C501.758 179.672 513.018 172.932 523.58 175.092C530.577 176.522 535.08 184.808 533.65 191.806L527.702 220.65L543.539 251.803C545.09 254.845 543.234 258.466 539.888 259.014C531.312 260.375 522.71 258.679 515.398 254.542C510.757 258.699 505.001 261.734 498.481 263.121C498.344 263.152 498.199 263.182 498.055 263.212C497.91 263.243 497.766 263.273 497.629 263.304C478.583 266.863 460.237 254.328 456.647 235.252C455.093 227.072 452.262 218.258 453.968 209.939Z" fill="#7BB48B"/><path d="M471.132 174.678C469.733 176.134 468.81 177.838 468.418 179.561L467.148 177.507C466.965 177.203 466.661 177.051 466.357 177.051C466.022 177.051 465.626 177.203 465.322 177.538C464.014 178.899 463.122 180.477 462.692 182.083C460.549 183.716 458.973 186.116 458.413 188.978L455.584 203.613C454.397 209.758 458.413 215.752 464.589 216.939C470.766 218.156 476.729 214.109 477.915 207.933L477.935 207.83L486.047 209.402C486.099 216.097 490.868 222.055 497.693 223.388L498.849 223.601C506.638 225.123 514.214 220.042 515.705 212.223L517.408 203.491C518.489 197.96 516.224 192.551 512.031 189.336C512.175 187.903 512.019 186.433 511.535 185.023C511.352 184.445 510.805 184.11 510.257 184.11C509.953 184.11 509.679 184.201 509.436 184.384L506.396 186.672C506.859 184.802 506.798 182.805 506.15 180.915C505.967 180.337 505.541 180.033 505.085 180.033C504.811 180.033 504.537 180.124 504.294 180.307L492.281 189.165C492.193 189.212 492.101 189.272 492.004 189.343C488.049 192.264 482.846 190.651 480.686 187.122C480.583 186.954 480.48 186.798 480.378 186.653C480.362 186.616 480.342 186.579 480.32 186.544L472.958 174.648C472.775 174.344 472.471 174.191 472.167 174.191C471.832 174.191 471.436 174.344 471.132 174.678Z" fill="#ACD3A2"/><path d="M465.81 171.628C459.994 180.997 457.087 194.887 454.826 217.823" stroke="white" stroke-width="2.00575" stroke-linecap="round"/><path d="M453.968 209.939C456.329 198.356 459.513 164.377 474.577 166.208C484.041 167.247 483.656 176.081 490.934 177.537C501.758 179.672 513.018 172.932 523.58 175.092C530.577 176.522 535.08 184.808 533.65 191.806L527.702 220.65L543.539 251.803C545.09 254.845 543.234 258.466 539.888 259.014C531.312 260.375 522.71 258.679 515.398 254.542C510.757 258.699 505.001 261.734 498.481 263.121C498.344 263.152 498.199 263.182 498.055 263.212C497.91 263.243 497.766 263.273 497.629 263.304C478.583 266.863 460.237 254.328 456.647 235.252C455.093 227.072 452.262 218.258 453.968 209.939Z" stroke="#083156" stroke-width="1.42759"/><path fill-rule="evenodd" clip-rule="evenodd" d="M446.754 233.33L444.706 207.777C448.886 205.412 457.519 203.444 462.745 205.718C464.069 206.294 465.304 207.58 465.168 209.102C465.815 221.054 456.905 230.421 446.754 233.33Z" fill="#7BB48B"/><path d="M443.247 209.708C440.002 211.342 433.139 217.573 436.656 227.47" stroke="white" stroke-width="3.00862" stroke-linecap="round"/><path fill-rule="evenodd" clip-rule="evenodd" d="M480.932 226.86C481.352 226.462 482.015 226.478 482.414 226.898L484.311 228.894C484.918 229.533 485.86 229.724 486.668 229.373L489.632 228.084C490.163 227.853 490.781 228.096 491.012 228.627C491.243 229.159 490.999 229.776 490.468 230.007L487.504 231.296C485.888 231.999 484.005 231.616 482.791 230.339L480.894 228.343C480.495 227.923 480.512 227.259 480.932 226.86Z" fill="#ACD3A2"/><path fill-rule="evenodd" clip-rule="evenodd" d="M468.537 224.902C468.957 224.503 469.62 224.52 470.019 224.94L471.916 226.936C472.523 227.574 473.465 227.765 474.273 227.414L477.237 226.125C477.768 225.894 478.386 226.138 478.617 226.669C478.848 227.2 478.604 227.818 478.073 228.049L475.109 229.337C473.493 230.04 471.61 229.658 470.396 228.38L468.499 226.384C468.1 225.965 468.117 225.301 468.537 224.902Z" fill="#ACD3A2"/><path d="M509.038 201.862C509.779 206.543 506.184 210.425 500.883 210.425C494.359 210.425 491.56 207.882 490.819 203.2C490.078 198.519 494.832 193.119 498.844 192.484C505.549 191.422 508.223 196.153 509.038 201.862Z" fill="white"/><path d="M477.018 195.04C477.035 201.153 473.836 204.581 468.684 203.458C462.789 201.482 462.47 198.745 462.258 196.213C461.538 191.362 465.451 185.865 469.057 185.257C472.663 184.648 476.297 190.19 477.018 195.04Z" fill="white"/><path d="M468.903 192.519C468.813 196.946 467.011 198.033 464.97 197.066C462.929 196.1 462.285 192.89 463.531 189.898C464.778 186.905 467.443 185.263 469.484 186.23C471.525 187.196 471.098 189.971 468.903 192.519Z" fill="#083156"/><path d="M499.134 199.031C499.035 203.021 497.062 204.457 494.913 203.526C492.765 202.596 492.06 199.447 493.339 196.493C494.618 193.539 497.397 191.898 499.545 192.828C501.694 193.758 501.433 196.435 499.134 199.031Z" fill="#083156"/><path d="M446.104 233.33C451.43 233.33 457.087 228.484 460.641 224.284C464.741 219.439 467.608 208.862 463.871 206.194C459.349 202.964 441.301 206.194 436.735 214.27C428.6 228.661 446.583 245.159 461.027 247.148" stroke="#083156" stroke-width="1.42759" stroke-linecap="round"/><path d="M476.475 202.64C478.414 189.396 473.973 185.519 469.691 185.519C465.41 185.519 461.938 190.871 461.938 197.472" stroke="#083156" stroke-width="1.42759" stroke-linecap="round"/><path d="M490.689 203.61C491.981 196.18 495.23 191.98 500.434 191.98C505.42 191.98 510.582 195.539 508.934 207.486" stroke="#083156" stroke-width="1.42759" stroke-linecap="round"/><path d="M488.033 210.461C488.341 207.743 485.786 204.734 483.068 204.426C480.503 204.136 477.451 205.864 476.956 208.397L475.461 216.045C474.871 219.062 477.676 221.941 480.731 222.287C483.62 222.614 486.435 220.347 486.741 217.969L488.033 210.461Z" fill="#FFC367"/><path d="M485.618 210.112C486.032 208.039 484.584 206.056 482.484 205.818C480.62 205.607 478.905 206.859 478.538 208.698L477.069 216.058C476.655 218.13 478.102 220.113 480.202 220.351C482.066 220.562 483.781 219.311 484.149 217.471L485.618 210.112Z" fill="#FA811B"/><path opacity="0.35" d="M485.618 210.112C486.032 208.039 484.584 206.056 482.484 205.818C480.62 205.607 478.905 206.859 478.538 208.698L477.069 216.058C476.655 218.13 478.102 220.113 480.202 220.351C482.066 220.562 483.781 219.311 484.149 217.471L485.618 210.112Z" fill="#A65D14"/><path d="M474.258 208.434C474.192 208.616 474.272 208.817 474.44 208.913L476.869 210.306L487.646 210.326C487.887 210.327 488.079 210.121 488.045 209.882C487.605 206.731 485.083 204.153 481.775 203.778C478.427 203.399 475.358 205.4 474.258 208.434Z" fill="#FFC367"/><path opacity="0.4" d="M477.196 207.671C477.883 206.682 479.247 206.082 480.284 206.191" stroke="white" stroke-width="1.32894" stroke-linecap="round"/><path d="M474.258 208.434L473.699 208.231L473.699 208.231L474.258 208.434ZM474.44 208.914L474.144 209.43L474.144 209.43L474.44 208.914ZM486.258 206.073L485.817 206.472L485.827 206.484L485.838 206.494L486.258 206.073ZM488.033 210.461L488.619 210.562L488.622 210.545L488.624 210.528L488.033 210.461ZM486.741 217.969L486.154 217.868L486.152 217.88L486.151 217.893L486.741 217.969ZM475.461 216.045L474.877 215.931L474.877 215.931L475.461 216.045ZM476.611 210.159L477.195 210.273L477.277 209.854L476.907 209.642L476.611 210.159ZM473.699 208.231C473.528 208.701 473.74 209.198 474.144 209.43L474.736 208.398C474.803 208.436 474.855 208.531 474.817 208.637L473.699 208.231ZM481.842 203.187C478.214 202.777 474.891 204.944 473.699 208.231L474.817 208.637C475.826 205.855 478.64 204.022 481.708 204.369L481.842 203.187ZM486.698 205.673C485.479 204.33 483.785 203.407 481.842 203.187L481.708 204.369C483.353 204.556 484.785 205.336 485.817 206.472L486.698 205.673ZM488.624 210.528C488.826 208.744 487.958 206.925 486.677 205.651L485.838 206.494C486.94 207.591 487.592 209.07 487.442 210.394L488.624 210.528ZM487.327 218.07L488.619 210.562L487.447 210.36L486.154 217.868L487.327 218.07ZM480.664 222.878C482.283 223.061 483.857 222.517 485.06 221.619C486.258 220.725 487.152 219.432 487.331 218.045L486.151 217.893C486.023 218.884 485.357 219.913 484.349 220.666C483.347 221.414 482.069 221.84 480.798 221.696L480.664 222.878ZM474.877 215.931C474.539 217.661 475.182 219.317 476.284 220.562C477.384 221.804 478.98 222.687 480.664 222.878L480.798 221.696C479.426 221.54 478.093 220.811 477.174 219.773C476.258 218.738 475.793 217.445 476.045 216.159L474.877 215.931ZM476.028 210.044L474.877 215.931L476.045 216.159L477.195 210.273L476.028 210.044ZM474.144 209.43L476.316 210.675L476.907 209.642L474.736 208.398L474.144 209.43Z" fill="#083156"/><path d="M476.869 210.306L483.489 210.319L484.783 210.321C485.193 210.322 485.505 210.691 485.436 211.096L484.762 215.085C484.125 218.905 483.17 220.178 479.987 219.86" stroke="#083156" stroke-width="1.18966" stroke-linecap="round"/><path opacity="0.2" d="M475.412 219.788C476.425 221.422 478.372 222.656 480.416 222.888C482.643 223.14 484.818 222.03 485.965 220.496" stroke="#083156" stroke-width="3.98682" stroke-linecap="round"/></g><path d="M552 227.257H549.464M1.98495e-05 227.257H3.62341M545.84 227.257H535.332M532.071 227.257H9.05849" stroke="#083156" stroke-width="1.66552" stroke-linecap="round"/></g><defs><clipPath id="clip0_3935_162775"><rect width="552" height="285.517" fill="white" transform="translate(0 0.746262)"/></clipPath></defs></svg>