<svg width="624" height="460" viewBox="0 0 624 460" fill="none" xmlns="http://www.w3.org/2000/svg"><rect opacity="0.1" x="162.708" y="236" width="162.118" height="162.118" rx="24.3618" transform="rotate(17.1144 162.708 236)" fill="#58CC02"/><rect opacity="0.1" x="330.856" y="284.822" width="125.519" height="125.519" rx="17.6922" transform="rotate(-12.0867 330.856 284.822)" fill="#58CC02"/><rect opacity="0.1" x="449.874" y="120.08" width="99.3871" height="99.3871" rx="14.9351" transform="rotate(-17.2912 449.874 120.08)" fill="#58CC02"/><rect opacity="0.1" width="53.2791" height="53.2791" rx="8.00637" transform="matrix(-0.941323 -0.337508 -0.337508 0.941323 171.79 105.506)" fill="#58CC02"/><rect opacity="0.1" width="53.2791" height="53.2791" rx="8.00637" transform="matrix(-0.941323 -0.337508 -0.337508 0.941323 411.135 202.982)" fill="#58CC02"/><rect opacity="0.1" width="13.9836" height="13.9836" rx="2.10134" transform="matrix(-0.953688 -0.300797 -0.300797 0.953688 64.2109 228.74)" fill="#58CC02"/><rect opacity="0.1" width="21.4907" height="21.4907" rx="3.22946" transform="matrix(-0.953688 -0.300797 -0.300797 0.953688 511.542 418.205)" fill="#58CC02"/><rect opacity="0.1" width="13.9836" height="13.9836" rx="2.10134" transform="matrix(-0.953688 -0.300797 -0.300797 0.953688 561.542 28.207)" fill="#58CC02"/><rect opacity="0.1" width="13.0639" height="13.0639" rx="2.10134" transform="matrix(-0.613465 -0.789722 -0.789722 0.613465 275.607 55.8711)" fill="#58CC02"/><rect opacity="0.1" width="8.47721" height="8.47721" rx="1.36357" transform="matrix(-0.613465 -0.789722 -0.789722 0.613465 555.605 237.834)" fill="#58CC02"/><rect opacity="0.1" width="8.47721" height="8.47721" rx="1.36357" transform="matrix(-0.613465 -0.789722 -0.789722 0.613465 44.917 267.295)" fill="#58CC02"/><rect opacity="0.1" width="8.47721" height="8.47721" rx="1.36357" transform="matrix(0.316132 -0.948715 -0.948715 -0.316132 103.203 43.7207)" fill="#58CC02"/><rect opacity="0.1" width="8.47721" height="8.47721" rx="1.36357" transform="matrix(-0.613465 -0.789722 -0.789722 0.613465 346.625 417.355)" fill="#58CC02"/><rect opacity="0.1" width="6.34509" height="6.34509" rx="1.02061" transform="matrix(-0.239595 -0.970873 -0.970873 0.239595 537.272 69.0312)" fill="#58CC02"/><rect opacity="0.1" width="6.34509" height="6.34509" rx="1.02061" transform="matrix(-0.239595 -0.970873 -0.970873 0.239595 301.594 40.6191)" fill="#58CC02"/><rect opacity="0.1" width="80.5933" height="80.5933" rx="12.1109" transform="matrix(-0.739242 0.67344 0.67344 0.739242 322.101 59.2383)" fill="#58CC02"/><g opacity="0.9"><path fill-rule="evenodd" clip-rule="evenodd" d="M166.895 314.182C160.854 313.582 156.442 308.199 157.041 302.157L163.468 237.371C164.068 231.329 169.451 226.918 175.493 227.517C181.535 228.116 185.947 233.5 185.347 239.542L178.92 304.327C178.321 310.369 172.937 314.781 166.895 314.182Z" fill="#C7A185" stroke="#083156" stroke-width="1.5468"/><path d="M162.084 230.196C168.968 195.574 217.667 192.212 194.218 225.329L184.571 255.719L159.904 252.037C158.502 251.827 157.572 250.473 157.88 249.09L162.084 230.196Z" fill="#083156"/><path fill-rule="evenodd" clip-rule="evenodd" d="M247.753 311.792C253.765 310.942 257.95 305.38 257.1 299.368L247.99 234.905C247.14 228.893 241.578 224.709 235.566 225.558C229.555 226.408 225.37 231.97 226.22 237.982L235.33 302.445C236.18 308.457 241.742 312.641 247.753 311.792Z" fill="#C7A185" stroke="#083156" stroke-width="1.5468"/><path d="M249.076 227.678C240.73 195.258 191.965 192.033 216.768 224.149L227.668 254.112L252.161 249.409C253.553 249.142 254.426 247.75 254.061 246.381L249.076 227.678Z" fill="#083156"/><path fill-rule="evenodd" clip-rule="evenodd" d="M182.019 370.395C179.018 370.395 176.586 367.962 176.586 364.961V262.703C176.586 259.702 179.018 257.27 182.019 257.27H230.04C233.04 257.27 235.473 259.702 235.473 262.703V364.961C235.473 367.962 233.04 370.395 230.04 370.395H182.019Z" fill="#FFE999"/><path opacity="0.4" d="M189.144 364.604C189.144 363.914 189.144 363.569 189.175 363.278C189.449 360.739 191.455 358.733 193.994 358.459C194.285 358.428 194.63 358.428 195.32 358.428H230.74C233.364 358.428 235.491 360.555 235.491 363.179C235.491 367.377 232.088 370.78 227.89 370.78H195.32C194.63 370.78 194.285 370.78 193.994 370.749C191.455 370.475 189.449 368.469 189.175 365.929C189.144 365.639 189.144 365.294 189.144 364.604Z" fill="#FFAA00"/><path d="M178.127 265.512L178.127 364.82" stroke="white" stroke-width="3.25986" stroke-linecap="round"/><path fill-rule="evenodd" clip-rule="evenodd" d="M182.019 370.395C179.018 370.395 176.586 367.962 176.586 364.961V262.703C176.586 259.702 179.018 257.27 182.019 257.27H230.04C233.04 257.27 235.473 259.702 235.473 262.703V364.961C235.473 367.962 233.04 370.395 230.04 370.395H182.019Z" stroke="#083156" stroke-width="1.5468"/><path d="M206.03 309.959V370.396" stroke="#083156" stroke-width="1.5468" stroke-linecap="round"/><path d="M174.768 240.916C174.768 220.948 188.4 206.332 204.398 202.496C205.141 202.318 205.915 202.577 206.426 203.144C206.835 203.598 207.419 203.852 208.029 203.875C224.613 204.485 237.901 220.835 237.901 240.916L242.55 285.438C242.55 289.036 240.371 291.953 237.682 291.953H174.987C172.299 291.953 170.119 289.036 170.119 285.438L174.768 240.916Z" fill="#083156"/><path d="M177.423 384.463C177.423 382.109 179.316 380.201 181.651 380.201H199.539C201.874 380.201 203.767 382.109 203.767 384.463C203.767 386.816 201.874 388.724 199.539 388.724H181.651C179.316 388.724 177.423 386.816 177.423 384.463Z" fill="#083156" stroke="#083156" stroke-width="2.0624"/><path d="M209.29 384.463C209.29 382.109 211.183 380.201 213.518 380.201H231.406C233.741 380.201 235.634 382.109 235.634 384.463C235.634 386.816 233.741 388.724 231.406 388.724H213.518C211.183 388.724 209.29 386.816 209.29 384.463Z" fill="#083156" stroke="#083156" stroke-width="2.0624"/><path d="M189.372 205.356C180.849 206.906 169.614 214.267 166.514 226.276C164.577 232.088 163.028 240.998 161.583 247.296" stroke="white" stroke-width="1.5468" stroke-linecap="round"/><path fill-rule="evenodd" clip-rule="evenodd" d="M205.982 171.844C213.403 171.844 219.418 176.985 219.418 183.327V204.227C219.418 210.569 213.403 215.71 205.982 215.71C198.561 215.71 192.546 210.569 192.546 204.227V183.327C192.546 176.985 198.561 171.844 205.982 171.844Z" fill="#C7A185" stroke="#083156" stroke-width="1.5468" stroke-linecap="round"/><path d="M199.909 116.311C180.397 116.311 164.579 132.128 164.579 151.64V157.364C159.8 157.847 156.07 161.882 156.07 166.789C156.07 172.021 160.312 176.262 165.544 176.262H165.983C168.618 188.998 175.364 198.617 189.526 198.617H220.601C236.94 198.617 243.913 188.993 246.507 176.252C251.535 176.022 255.54 171.873 255.54 166.789C255.54 162.164 252.226 158.313 247.842 157.482V151.641C247.842 132.128 232.024 116.311 212.512 116.311H199.909Z" fill="#C7A185" stroke="#083156" stroke-width="1.5468"/><path d="M202.941 167.004C197.336 168.25 194.844 170.866 195.467 173.856C195.757 175.517 197.585 178.739 202.568 178.34" stroke="#083156" stroke-width="1.5468" stroke-linecap="round"/><path d="M229.724 157.985C229.724 163.635 225.144 164.958 219.494 164.958C213.843 164.958 209.263 163.635 209.263 157.985C209.263 152.334 213.843 147.754 219.494 147.754C225.144 147.754 229.724 152.334 229.724 157.985Z" fill="white"/><path d="M198.099 157.985C198.099 163.635 193.519 164.958 187.869 164.958C182.218 164.958 177.638 163.635 177.638 157.985C177.638 152.334 182.218 147.754 187.869 147.754C193.519 147.754 198.099 152.334 198.099 157.985Z" fill="white"/><path d="M223.789 157.316C223.896 161.093 221.555 164.223 218.56 164.309C215.565 164.394 214.304 159.696 214.396 156.285C214.489 152.686 216.295 149.733 219.29 149.648C222.285 149.563 223.681 153.539 223.789 157.316Z" fill="#083156"/><path d="M192.899 157.316C193.007 161.093 190.666 164.223 187.671 164.309C184.676 164.394 183.414 159.696 183.507 156.285C183.6 152.686 185.406 149.733 188.401 149.648C191.396 149.563 192.792 153.539 192.899 157.316Z" fill="#083156"/><path d="M214.848 181.535C212.103 183.884 204.251 187.941 194.796 185.377" stroke="#083156" stroke-width="1.5468" stroke-linecap="round"/><path d="M209.441 161.343C207.768 144.733 229.638 142.674 229.501 160.325" stroke="#083156" stroke-width="1.5468" stroke-linecap="round"/><path d="M178.097 161.343C176.424 144.733 198.294 142.674 198.157 160.325" stroke="#083156" stroke-width="1.5468" stroke-linecap="round"/><path fill-rule="evenodd" clip-rule="evenodd" d="M149.754 125.153C150.079 129.856 153.438 133.456 157.726 134.323L154.876 136.2C141.477 148.987 158.916 166.661 171.828 156.942L221.47 121.258C228.406 116.689 227.6 107.797 223.33 102.955C208.408 86.0351 147.895 98.2336 149.754 125.153Z" fill="#E1E1E1"/><path fill-rule="evenodd" clip-rule="evenodd" d="M149.754 125.153C150.079 129.856 153.438 133.456 157.726 134.323L154.876 136.2C141.477 148.987 158.916 166.661 171.828 156.942L221.47 121.258C228.406 116.689 227.6 107.797 223.33 102.955C208.408 86.0351 147.895 98.2336 149.754 125.153Z" fill="#E1E1E1"/><path fill-rule="evenodd" clip-rule="evenodd" d="M149.754 125.153C150.079 129.856 153.438 133.456 157.726 134.323L154.876 136.2C141.477 148.987 158.916 166.661 171.828 156.942L221.47 121.258C228.406 116.689 227.6 107.797 223.33 102.955C208.408 86.0351 147.895 98.2336 149.754 125.153Z" fill="#BFBFBF"/><path fill-rule="evenodd" clip-rule="evenodd" d="M149.754 125.153C150.079 129.856 153.438 133.456 157.726 134.323L154.876 136.2C141.477 148.987 158.916 166.661 171.828 156.942L221.47 121.258C228.406 116.689 227.6 107.797 223.33 102.955C208.408 86.0351 147.895 98.2336 149.754 125.153Z" fill="#898989"/><path fill-rule="evenodd" clip-rule="evenodd" d="M149.754 125.153C150.079 129.856 153.438 133.456 157.726 134.323L154.876 136.2C141.477 148.987 158.916 166.661 171.828 156.942L221.47 121.258C228.406 116.689 227.6 107.797 223.33 102.955C208.408 86.0351 147.895 98.2336 149.754 125.153Z" fill="#898989"/><path fill-rule="evenodd" clip-rule="evenodd" d="M149.754 125.153C150.079 129.856 153.438 133.456 157.726 134.323L154.876 136.2C141.477 148.987 158.916 166.661 171.828 156.942L221.47 121.258C228.406 116.689 227.6 107.797 223.33 102.955C208.408 86.0351 147.895 98.2336 149.754 125.153Z" fill="#083156"/><path fill-rule="evenodd" clip-rule="evenodd" d="M247.838 157.654C244.239 156.158 241.297 153.583 239.106 151.293C236.18 148.235 233.481 144.491 231.125 140.763C226.398 133.286 222.391 124.819 220.107 119.245C219.805 118.51 219.609 117.757 219.51 117.004C235.668 120.253 247.838 134.525 247.838 151.64V157.654Z" fill="#083156"/><path d="M206.563 142.516C209.548 140.481 217.797 137.306 226.915 140.888" stroke="#083156" stroke-width="1.5468" stroke-linecap="round"/><rect opacity="0.15" x="195.182" y="195.285" width="24.7945" height="8.52312" rx="4.26156" fill="#083156"/><rect opacity="0.15" x="187.435" y="287.488" width="48.0394" height="8.52312" rx="4.26156" fill="#083156"/><rect opacity="0.15" x="165.376" y="157.344" width="69.2511" height="9.35791" rx="4.67896" transform="rotate(-38.824 165.376 157.344)" fill="#083156"/></g><g opacity="0.9"><path d="M431.907 267.839C431.898 267.784 431.888 267.73 431.877 267.675L427.719 246.485C426.73 241.443 421.238 238.055 415.452 238.917C409.666 239.779 405.778 244.564 406.767 249.605L410.892 270.631C410.902 270.685 410.912 270.74 410.923 270.795L415.046 291.809C415.056 291.868 415.067 291.927 415.078 291.986L417.829 306.004C418.818 311.045 424.31 314.433 430.096 313.571C435.881 312.71 439.77 307.924 438.781 302.883L436.065 289.041C436.055 288.982 436.044 288.923 436.032 288.864L431.907 267.839Z" fill="#9A755E"/><path d="M431.906 267.839C431.897 267.784 431.887 267.73 431.876 267.675L427.718 246.485C426.729 241.443 421.237 238.055 415.451 238.917C409.665 239.779 405.777 244.564 406.766 249.605L410.891 270.631C410.901 270.685 410.911 270.74 410.922 270.795L415.045 291.809C415.055 291.868 415.066 291.927 415.077 291.986L417.828 306.004C418.817 311.045 424.309 314.433 430.095 313.571C435.881 312.71 439.769 307.924 438.78 302.883L436.064 289.041C436.054 288.982 436.043 288.923 436.032 288.864L431.906 267.839Z" stroke="#083156" stroke-width="1.5468"/><path d="M353.068 267.5C353.078 267.446 353.088 267.392 353.099 267.337L357.256 246.395C358.245 241.412 363.738 238.064 369.523 238.916C375.309 239.767 379.198 244.497 378.209 249.479L374.084 270.259C374.074 270.313 374.064 270.367 374.053 270.421L369.93 291.19C369.92 291.248 369.909 291.306 369.897 291.365L367.147 305.219C366.158 310.201 360.666 313.55 354.88 312.698C349.094 311.846 345.206 307.117 346.195 302.134L348.911 288.454C348.921 288.396 348.932 288.338 348.943 288.279L353.068 267.5Z" fill="#9A755E"/><path d="M353.068 267.5C353.078 267.446 353.088 267.392 353.099 267.337L357.256 246.395C358.245 241.412 363.738 238.064 369.523 238.916C375.309 239.767 379.198 244.497 378.209 249.479L374.084 270.259C374.074 270.313 374.064 270.367 374.053 270.421L369.93 291.19C369.92 291.248 369.909 291.306 369.897 291.365L367.147 305.219C366.158 310.201 360.666 313.55 354.88 312.698C349.094 311.846 345.206 307.117 346.195 302.134L348.911 288.454C348.921 288.396 348.932 288.338 348.943 288.279L353.068 267.5Z" stroke="#083156" stroke-width="1.5468"/><path d="M362.549 384.73C362.549 382.377 364.33 380.469 366.528 380.469H383.364C385.562 380.469 387.343 382.377 387.343 384.73C387.343 387.084 385.562 388.992 383.364 388.992H366.528C364.33 388.992 362.549 387.084 362.549 384.73Z" fill="#FFE999"/><path opacity="0.4" d="M366.58 387.074C366.58 385.802 367.611 384.771 368.882 384.771H385.588C386.566 384.771 387.358 385.564 387.358 386.542C387.358 388.107 386.09 389.376 384.525 389.376H368.882C367.611 389.376 366.58 388.345 366.58 387.074Z" fill="#FFAA00"/><path d="M362.549 384.73C362.549 382.377 364.33 380.469 366.528 380.469H383.364C385.562 380.469 387.343 382.377 387.343 384.73C387.343 387.084 385.562 388.992 383.364 388.992H366.528C364.33 388.992 362.549 387.084 362.549 384.73Z" stroke="#083156" stroke-width="2.17324"/><path d="M396.641 384.73C396.641 382.377 398.422 380.469 400.62 380.469H417.456C419.654 380.469 421.435 382.377 421.435 384.73C421.435 387.084 419.654 388.992 417.456 388.992H400.62C398.422 388.992 396.641 387.084 396.641 384.73Z" fill="#FFE999"/><path opacity="0.4" d="M406.096 387.074C406.096 385.802 407.126 384.771 408.398 384.771H419.679C420.657 384.771 421.45 385.564 421.45 386.542C421.45 388.107 420.182 389.376 418.617 389.376H408.398C407.126 389.376 406.096 388.345 406.096 387.074Z" fill="#FFAA00"/><path d="M396.641 384.73C396.641 382.377 398.422 380.469 400.62 380.469H417.456C419.654 380.469 421.435 382.377 421.435 384.73C421.435 387.084 419.654 388.992 417.456 388.992H400.62C398.422 388.992 396.641 387.084 396.641 384.73Z" stroke="#083156" stroke-width="2.17324"/><path d="M391.219 290.438C391.219 283.674 399.024 278.191 408.652 278.191C418.281 278.191 426.086 283.674 426.086 290.438V318.605C426.086 325.369 418.281 330.852 408.652 330.852C399.024 330.852 391.219 325.369 391.219 318.605V290.438Z" fill="#083156"/><path d="M357.9 290.927C357.9 283.893 365.706 278.191 375.334 278.191C384.962 278.191 392.768 283.893 392.768 290.927V320.218C392.768 327.251 384.962 332.953 375.334 332.953C365.706 332.953 357.9 327.251 357.9 320.218V290.927Z" fill="#083156"/><path d="M357.901 290.655C357.785 273.758 367.668 265.02 378.722 265.02H405.265C416.319 265.02 426.085 273.915 426.085 290.655C426.085 304.312 416.319 315.383 405.265 315.383H378.722C367.668 315.383 357.901 304.312 357.901 290.655Z" fill="#083156"/><path d="M391.219 314.289C391.219 305.908 399.024 299.113 408.652 299.113C418.281 299.113 426.086 305.908 426.086 314.289L426.086 362.631C426.086 367.753 426.086 370.314 424.495 371.906C422.903 373.497 420.342 373.497 415.22 373.497H406.431C399.26 373.497 395.674 373.497 393.447 371.269C391.219 369.041 391.219 365.455 391.219 358.284L391.219 314.289Z" fill="#083156"/><path d="M357.9 314.294C357.9 305.91 365.699 299.113 375.32 299.113C384.94 299.113 392.739 305.91 392.739 314.294L392.761 360.451C392.764 366.601 392.766 369.675 390.856 371.586C388.946 373.497 385.871 373.497 379.722 373.497H368.79C363.67 373.497 361.11 373.497 359.519 371.906C357.927 370.316 357.926 367.756 357.924 362.636L357.9 314.294Z" fill="#083156"/><path d="M391.994 311.51V367.297" stroke="#031F39" stroke-width="1.5468" stroke-linecap="round"/><path d="M370.105 270.551C366.167 272.512 361.388 278.48 361.186 289.866V365.859" stroke="white" stroke-width="1.5468" stroke-linecap="round"/><path d="M372.622 258.82H411.364V266.569H372.622V258.82Z" fill="#3C5D87"/><path d="M371.848 258.82H373.397V266.569H371.848V258.82Z" fill="#083156"/><path d="M410.589 258.82H412.139V266.569H410.589V258.82Z" fill="#083156"/><path d="M398.192 258.82H402.842V266.569H398.192V258.82Z" fill="#083156"/><path d="M381.146 258.82H385.795V266.569H381.146V258.82Z" fill="#083156"/><rect opacity="0.26" x="371.843" y="258.045" width="37.1918" height="5.4238" rx="2.7119" fill="#083156"/><path d="M408.375 221.359H376.111V232.269C369.755 235.95 365.479 242.826 365.479 250.7C365.479 255.318 369.222 259.062 373.84 259.062H410.557C415.175 259.062 418.918 255.318 418.918 250.7C418.918 242.863 414.682 236.016 408.375 232.322V221.359Z" fill="#FFE999"/><path opacity="0.4" d="M382.073 252.252C382.073 251.562 382.073 251.217 382.105 250.927C382.378 248.387 384.384 246.381 386.924 246.107C387.214 246.076 387.559 246.076 388.249 246.076H413.597C416.221 246.076 418.348 248.203 418.348 250.827C418.348 255.025 414.945 258.429 410.747 258.429H388.249C387.559 258.429 387.214 258.429 386.924 258.397C384.384 258.123 382.378 256.117 382.105 253.578C382.073 253.287 382.073 252.942 382.073 252.252Z" fill="#FFAA00"/><path d="M377.661 221.471L377.671 232.006C377.672 232.453 377.397 232.849 376.999 233.052C370.796 236.222 362.075 250.157 370.297 256.883" stroke="white" stroke-width="2.0624" stroke-linecap="round"/><path d="M408.374 221.361H376.11V232.271C369.754 235.952 365.478 242.828 365.478 250.702C365.478 255.32 369.221 259.064 373.839 259.064H410.556C415.174 259.064 418.917 255.32 418.917 250.702C418.917 242.865 414.681 236.017 408.374 232.323V221.361Z" stroke="#083156" stroke-width="1.5468"/><path d="M357.157 108.596C357.157 132.182 372.839 151.302 392.184 151.302C411.529 151.302 427.211 132.182 427.211 108.596C427.211 85.0092 411.529 65.8887 392.184 65.8887C372.839 65.8887 357.157 85.0092 357.157 108.596Z" fill="#083156"/><path d="M342.017 141.402C355.498 155.312 375.675 157.625 387.084 146.569C398.492 135.512 396.813 115.272 383.332 101.362C369.851 87.4522 349.674 85.1389 338.265 96.1955C326.857 107.252 328.536 127.492 342.017 141.402Z" fill="#083156"/><path d="M443.112 140.001C429.631 153.912 409.454 156.225 398.045 145.168C386.636 134.112 388.316 113.872 401.797 99.9619C415.278 86.0518 435.455 83.7385 446.863 94.7951C458.272 105.852 456.592 126.091 443.112 140.001Z" fill="#083156"/><path d="M434.188 162.696C434.188 153.844 427.012 146.668 418.16 146.668L365.95 146.668C357.098 146.668 349.922 153.844 349.922 162.696V170.639C349.859 170.638 349.796 170.637 349.733 170.637C344.454 170.637 340.176 174.916 340.176 180.194C340.176 185.472 344.454 189.75 349.733 189.75C349.796 189.75 349.859 189.75 349.922 189.749V202.612C349.922 213.013 358.353 221.445 368.754 221.445H415.355C425.757 221.445 434.188 213.013 434.188 202.612V189.749C434.245 189.75 434.301 189.75 434.358 189.75C439.636 189.75 443.915 185.472 443.915 180.194C443.915 174.916 439.636 170.637 434.358 170.637C434.301 170.637 434.245 170.637 434.188 170.638V162.696Z" fill="#9A755E" stroke="#083156" stroke-width="1.5468"/><rect opacity="0.15" x="381.917" y="217.754" width="29.4435" height="9.29794" rx="4.34649" fill="#083156"/><path d="M344.729 142.596L349.794 170.49L391.994 154.483L434.055 170.098L439.259 142.596H344.729Z" fill="#FFE999"/><path d="M344.729 142.596V141.509H343.428L343.66 142.79L344.729 142.596ZM349.794 170.49L348.724 170.684C348.782 171.001 348.978 171.277 349.259 171.436C349.54 171.594 349.877 171.62 350.179 171.506L349.794 170.49ZM391.994 154.483L392.372 153.464L391.99 153.322L391.609 153.467L391.994 154.483ZM434.055 170.098L433.677 171.117C433.977 171.228 434.311 171.202 434.59 171.044C434.868 170.887 435.063 170.615 435.123 170.3L434.055 170.098ZM439.259 142.596L440.326 142.798L440.57 141.509H439.259V142.596ZM350.863 170.295L345.799 142.402L343.66 142.79L348.724 170.684L350.863 170.295ZM391.609 153.467L349.408 169.474L350.179 171.506L392.379 155.499L391.609 153.467ZM391.616 155.501L433.677 171.117L434.433 169.08L392.372 153.464L391.616 155.501ZM435.123 170.3L440.326 142.798L438.191 142.394L432.988 169.896L435.123 170.3ZM344.729 143.682H439.259V141.509H344.729V143.682Z" fill="#083156"/><path d="M346.52 143.756L350.808 168.443" stroke="white" stroke-width="3.25986" stroke-linecap="round"/><rect opacity="0.4" x="352.668" y="158.637" width="33.6448" height="9.87144" rx="4.93572" transform="rotate(-20.6866 352.668 158.637)" fill="#FFAA00"/><path d="M344.729 142.596V141.822H343.803L343.969 142.734L344.729 142.596ZM349.794 170.49L349.033 170.628C349.074 170.854 349.213 171.05 349.413 171.163C349.613 171.276 349.853 171.294 350.068 171.213L349.794 170.49ZM391.994 154.483L392.263 153.758L391.991 153.657L391.72 153.76L391.994 154.483ZM434.055 170.098L433.786 170.823C434 170.903 434.237 170.884 434.436 170.772C434.634 170.66 434.773 170.466 434.815 170.242L434.055 170.098ZM439.259 142.596L440.019 142.739L440.192 141.822H439.259V142.596ZM350.554 170.351L345.49 142.458L343.969 142.734L349.033 170.628L350.554 170.351ZM391.72 153.76L349.519 169.766L350.068 171.213L392.268 155.206L391.72 153.76ZM391.725 155.208L433.786 170.823L434.324 169.373L392.263 153.758L391.725 155.208ZM434.815 170.242L440.019 142.739L438.499 142.452L433.295 169.954L434.815 170.242ZM344.729 143.369H439.259V141.822H344.729V143.369Z" fill="#083156"/><path opacity="0.15" d="M356.882 170.432C356.267 168.812 357.083 167 358.704 166.386L392.033 153.754C392.876 153.434 393.825 153.808 394.224 154.617C394.657 155.495 394.285 156.558 393.399 156.975L361.153 172.159C359.498 172.939 357.53 172.143 356.882 170.432Z" fill="#083156"/><path d="M397.749 140.013C394.8 125.681 381.318 116.21 367.042 118.016C365.851 118.166 365.093 119.325 365.335 120.5L366.478 126.057C369.573 141.104 384.282 150.793 399.33 147.698L397.749 140.013Z" fill="#FFE999"/><path d="M410.25 130.452C410.305 140.431 402.26 148.566 392.281 148.621L392.252 143.525C392.199 133.91 399.665 126.008 409.135 125.394C409.734 125.355 410.225 125.842 410.228 126.442L410.25 130.452Z" fill="#FFE999"/><path d="M398.074 185.496C398.284 190.984 401.824 195.063 406.972 195.108C413.485 195.211 416.967 190.27 416.757 184.781C416.547 179.293 410.917 175.052 406.213 175.232C401.508 175.412 397.864 180.007 398.074 185.496Z" fill="white"/><path d="M416.915 187.157C419.075 173.396 397.87 167.766 398.004 186.691" stroke="#083156" stroke-width="1.5468" stroke-linecap="round"/><path d="M410.447 184.347C410.554 188.124 408.214 191.255 405.218 191.34C402.223 191.425 400.962 186.727 401.055 183.317C401.147 179.718 402.953 176.764 405.949 176.679C408.944 176.594 410.339 180.57 410.447 184.347Z" fill="#083156"/><path d="M386.951 185.496C386.742 190.984 383.201 195.063 378.053 195.108C371.54 195.211 368.059 190.27 368.269 184.781C368.478 179.293 374.108 175.052 378.813 175.232C383.517 175.412 387.161 180.007 386.951 185.496Z" fill="white"/><path d="M368.106 187.157C365.946 173.396 387.151 167.766 387.017 186.692" stroke="#083156" stroke-width="1.5468" stroke-linecap="round"/><path d="M384.206 184.345C384.313 188.122 381.972 191.253 378.977 191.338C375.982 191.423 374.721 186.725 374.813 183.315C374.906 179.716 376.712 176.762 379.707 176.677C382.702 176.592 384.098 180.568 384.206 184.345Z" fill="#083156"/><path d="M395.214 189.283C400.82 190.529 403.311 193.145 402.689 196.135C402.398 197.796 400.571 201.018 395.588 200.62" stroke="#083156" stroke-width="1.5468" stroke-linecap="round"/><path d="M400.513 167.135C402.666 166.3 405.02 165.84 407.486 165.84C410.715 165.84 413.751 166.628 416.397 168.015" stroke="#083156" stroke-width="1.5468" stroke-linecap="round"/><path d="M384.63 167.135C382.476 166.3 380.122 165.84 377.656 165.84C374.428 165.84 371.392 166.628 368.746 168.015" stroke="#083156" stroke-width="1.5468" stroke-linecap="round"/><path d="M391.216 208.455C385.304 208.455 380.166 205.475 377.553 201.094" stroke="#083156" stroke-width="1.5468" stroke-linecap="round"/></g><path opacity="0.16" d="M449.032 108.268C429.798 126.994 421.103 156.3 440.015 183.244" stroke="#083156" stroke-width="12.23" stroke-linecap="round"/><path opacity="0.12" d="M169.205 145.846C173.644 158.616 174.233 172.485 169.339 185.336" stroke="#083156" stroke-width="11.1988" stroke-linecap="round"/><path opacity="0.15" d="M350.148 155.772C355.96 168.17 356.734 179.789 349.956 193.691" stroke="#083156" stroke-width="10.1676" stroke-linecap="round"/><path opacity="0.13" d="M253.385 140.811C245.708 151.94 241.451 165.152 242.75 178.842" stroke="#083156" stroke-width="10.1676" stroke-linecap="round"/><rect x="444.658" y="241.293" width="22.9141" height="84.5618" rx="11.457" transform="rotate(26.6624 444.658 241.293)" fill="#C09485"/><path d="M425.685 279.078L411.853 306.624C409.014 312.279 411.296 319.165 416.95 322.004V322.004C422.605 324.844 429.491 322.561 432.33 316.907L446.162 289.36" stroke="#083156" stroke-width="1.5468"/><rect width="22.9141" height="84.5618" rx="11.457" transform="matrix(-0.893666 0.448733 0.448733 0.893666 521.37 241.293)" fill="#C09485"/><path d="M540.343 279.078L554.174 306.624C557.014 312.279 554.732 319.165 549.077 322.004V322.004C543.422 324.844 536.536 322.561 533.697 316.907L519.865 289.36" stroke="#083156" stroke-width="1.5468"/><rect x="459.845" y="227.08" width="46.4897" height="13.6791" fill="#FFB2B2"/><rect x="433.508" y="234.828" width="100.198" height="71.5406" rx="34.7719" fill="#FFB2B2"/><path d="M438.166 250.353C441.387 243.939 449.198 241.349 455.613 244.571C462.028 247.792 464.617 255.603 461.396 262.018L436.929 310.745C435.99 312.615 433.712 313.37 431.842 312.431L415.385 304.168C413.514 303.228 412.76 300.951 413.699 299.08L438.166 250.353Z" fill="#FFB2B2"/><path d="M531.272 255.784C528.088 249.443 520.366 246.884 514.025 250.068C507.684 253.252 505.125 260.974 508.309 267.315L530.259 311.029C531.118 312.74 533.202 313.431 534.912 312.572L551.68 304.152C553.391 303.293 554.081 301.21 553.222 299.499L531.272 255.784Z" fill="#FFB2B2"/><g opacity="0.3"><path d="M477.669 254.977L480.02 257.327C481.469 258.776 482.193 259.501 483.093 259.501C483.993 259.501 484.718 258.776 486.167 257.327L488.517 254.977" stroke="#CC2F38" stroke-width="2.17324" stroke-linecap="round" stroke-linejoin="round"/><path d="M483.093 265.824L485.444 268.175C486.892 269.624 487.617 270.348 488.517 270.348C489.417 270.348 490.142 269.624 491.59 268.175L493.941 265.824" stroke="#CC2F38" stroke-width="2.17324" stroke-linecap="round" stroke-linejoin="round"/><path d="M488.518 254.977L490.868 257.327C492.317 258.776 493.042 259.501 493.942 259.501C494.842 259.501 495.566 258.776 497.015 257.327L499.366 254.977" stroke="#CC2F38" stroke-width="2.17324" stroke-linecap="round" stroke-linejoin="round"/><path d="M466.822 254.977L469.173 257.327C470.622 258.776 471.346 259.501 472.246 259.501C473.147 259.501 473.871 258.776 475.32 257.327L477.671 254.977" stroke="#CC2F38" stroke-width="2.17324" stroke-linecap="round" stroke-linejoin="round"/><path d="M472.246 265.824L474.597 268.175C476.046 269.624 476.77 270.348 477.67 270.348C478.57 270.348 479.295 269.624 480.744 268.175L483.095 265.824" stroke="#CC2F38" stroke-width="2.17324" stroke-linecap="round" stroke-linejoin="round"/></g><path opacity="0.4" d="M476.277 291.023C476.277 287.731 476.277 286.085 476.858 284.802C477.511 283.361 478.666 282.206 480.107 281.553C481.389 280.973 483.035 280.973 486.328 280.973H526.522C529.814 280.973 531.46 280.973 532.742 281.553C534.184 282.206 535.338 283.361 535.991 284.802C536.572 286.085 536.572 287.731 536.572 291.023C536.572 294.315 536.572 295.961 535.991 297.244C535.338 298.685 534.184 299.84 532.742 300.492C531.46 301.073 529.814 301.073 526.522 301.073H486.328C483.035 301.073 481.389 301.073 480.107 300.492C478.666 299.84 477.511 298.685 476.858 297.244C476.277 295.961 476.277 294.315 476.277 291.023Z" fill="#FF7373"/><path d="M460.623 228.887V234.808C460.623 235.745 460.623 236.214 460.372 236.516C460.121 236.818 459.617 236.911 458.61 237.097C456.705 237.449 454.939 238.062 453.611 238.616C447.475 241.172 442.127 246.048 439.247 251.873C439.205 251.957 439.184 251.999 439.131 252.073C439.077 252.147 439.075 252.149 439.072 252.152C438.926 252.295 439.183 251.684 438.943 252.161L414.476 300.888C414.189 301.461 414.045 301.747 413.967 302.008" stroke="white" stroke-width="2.0624" stroke-linecap="round"/><path d="M459.853 227.08V226.307C459.425 226.307 459.079 226.653 459.079 227.08H459.853ZM506.342 227.08H507.116C507.116 226.653 506.769 226.307 506.342 226.307V227.08ZM459.853 235.584L460.013 236.341C460.371 236.265 460.626 235.949 460.626 235.584H459.853ZM434.253 258.15L434.944 258.497C434.959 258.467 434.972 258.436 434.983 258.404L434.253 258.15ZM413.231 300.017L413.922 300.364H413.922L413.231 300.017ZM414.451 303.698L414.104 304.389H414.104L414.451 303.698ZM432.78 312.901L433.127 312.21L432.78 312.901ZM436.461 311.681L435.77 311.334V311.334L436.461 311.681ZM439.414 305.801L440.029 305.332C439.868 305.12 439.608 305.006 439.342 305.031C439.077 305.055 438.842 305.215 438.723 305.454L439.414 305.801ZM461.167 319.012L461.036 319.774H461.036L461.167 319.012ZM504.735 319.012L504.867 319.774L504.735 319.012ZM526.559 305.709L527.25 305.362C527.13 305.123 526.895 304.963 526.629 304.939C526.363 304.914 526.103 305.029 525.942 305.242L526.559 305.709ZM527.86 308.301L527.169 308.648V308.648L527.86 308.301ZM531.211 312.845L530.967 313.58L531.211 312.845ZM536.612 311.202L536.265 310.51L536.612 311.202ZM548.19 305.388L547.843 304.697L548.19 305.388ZM552.734 302.038L552 301.794L552.734 302.038ZM551.091 296.636L550.399 296.983L551.091 296.636ZM531.349 257.32L530.625 257.593C530.635 257.618 530.646 257.643 530.658 257.667L531.349 257.32ZM506.342 235.648H505.569C505.569 236.01 505.821 236.324 506.175 236.403L506.342 235.648ZM459.853 227.853H506.342V226.307H459.853V227.853ZM460.626 235.584V227.08H459.079V235.584H460.626ZM434.983 258.404C438.857 247.281 448.296 238.831 460.013 236.341L459.692 234.828C447.44 237.431 437.572 246.266 433.523 257.896L434.983 258.404ZM413.922 300.364L434.944 258.497L433.562 257.803L412.54 299.67L413.922 300.364ZM414.798 303.007C413.826 302.519 413.434 301.336 413.922 300.364L412.54 299.67C411.668 301.405 412.369 303.518 414.104 304.389L414.798 303.007ZM433.127 312.21L414.798 303.007L414.104 304.389L432.433 313.593L433.127 312.21ZM435.77 311.334C435.282 312.306 434.098 312.698 433.127 312.21L432.433 313.593C434.168 314.464 436.281 313.764 437.152 312.028L435.77 311.334ZM438.723 305.454L435.77 311.334L437.152 312.028L440.105 306.148L438.723 305.454ZM461.299 318.25C452.636 316.753 445.121 312.022 440.029 305.332L438.798 306.269C444.121 313.262 451.978 318.209 461.036 319.774L461.299 318.25ZM474.666 318.747C467.594 318.747 464.156 318.744 461.299 318.25L461.036 319.774C464.057 320.296 467.659 320.294 474.666 320.294V318.747ZM491.237 318.747H474.666V320.294H491.237V318.747ZM504.604 318.25C501.746 318.744 498.309 318.747 491.237 318.747V320.294C498.244 320.294 501.846 320.296 504.867 319.774L504.604 318.25ZM525.942 305.242C520.849 311.98 513.306 316.746 504.604 318.25L504.867 319.774C513.966 318.202 521.852 313.218 527.176 306.175L525.942 305.242ZM525.868 306.056L527.169 308.648L528.551 307.954L527.25 305.362L525.868 306.056ZM527.169 308.648C527.849 310.002 528.392 311.087 528.933 311.88C529.487 312.691 530.101 313.293 530.967 313.58L531.454 312.111C531.038 311.973 530.667 311.676 530.211 311.008C529.742 310.321 529.251 309.346 528.551 307.954L527.169 308.648ZM530.967 313.58C531.833 313.867 532.685 313.751 533.614 313.431C534.521 313.119 535.606 312.572 536.959 311.893L536.265 310.51C534.872 311.21 533.897 311.698 533.11 311.969C532.345 312.232 531.87 312.249 531.454 312.111L530.967 313.58ZM536.959 311.893L548.537 306.079L547.843 304.697L536.265 310.51L536.959 311.893ZM548.537 306.079C549.891 305.4 550.976 304.856 551.769 304.315C552.58 303.761 553.182 303.147 553.469 302.281L552 301.794C551.863 302.21 551.565 302.581 550.897 303.038C550.21 303.507 549.236 303.998 547.843 304.697L548.537 306.079ZM553.469 302.281C553.756 301.415 553.64 300.563 553.32 299.634C553.008 298.727 552.462 297.643 551.782 296.289L550.399 296.983C551.099 298.376 551.587 299.352 551.858 300.138C552.121 300.903 552.138 301.379 552 301.794L553.469 302.281ZM551.782 296.289L532.04 256.973L530.658 257.667L550.399 296.983L551.782 296.289ZM506.175 236.403C517.474 238.905 526.616 246.96 530.625 257.593L532.073 257.047C527.881 245.931 518.324 237.509 506.509 234.893L506.175 236.403ZM505.569 227.08V235.648H507.116V227.08H505.569Z" fill="#083156"/><rect x="453.651" y="379.725" width="27.8938" height="8.52312" rx="4.26156" fill="#083156" stroke="#083156" stroke-width="2.17324"/><rect x="484.645" y="379.725" width="27.8938" height="8.52312" rx="4.26156" fill="#083156" stroke="#083156" stroke-width="2.17324"/><rect x="459.851" y="309.986" width="46.4897" height="61.9863" rx="3.15175" fill="#3C5D87"/><path fill-rule="evenodd" clip-rule="evenodd" d="M531.437 295.125C524.19 315.044 505.089 329.27 482.664 329.27C460.24 329.27 441.139 315.044 433.892 295.125H531.437Z" fill="#3C5D87"/><path fill-rule="evenodd" clip-rule="evenodd" d="M439.113 303.58C438.341 303.58 437.625 303.173 437.251 302.498C436.444 301.043 435.706 299.544 435.039 298.008C434.439 296.624 435.486 295.125 436.994 295.125H528.332C529.841 295.125 530.888 296.624 530.287 298.008C529.621 299.544 528.882 301.043 528.076 302.498C527.702 303.173 526.985 303.58 526.214 303.58H439.113Z" fill="#083156"/><path d="M473.798 328.195C475.904 328.742 479.609 329.269 483.096 329.269C487.745 329.269 492.393 328.195 495.493 326.645M512.152 320.078C522.293 313.059 529.812 302.52 532.943 290.228C533.203 289.207 533.433 288.173 533.631 287.129M454.039 320.667C443.243 313.514 435.279 302.428 432.188 289.453" stroke="#083156" stroke-width="1.5468" stroke-linecap="round"/><path d="M461.394 325.09V360.732" stroke="white" stroke-width="1.5468" stroke-linecap="round"/><path d="M483.421 329.328V371.169" stroke="#083156" stroke-width="1.5468" stroke-linecap="round"/><path d="M531.388 295.258L532.114 295.524L532.496 294.484H531.388V295.258ZM506.341 323.565L505.987 322.877L505.567 323.093V323.565H506.341ZM433.941 295.258V294.484H432.833L433.215 295.524L433.941 295.258ZM459.851 323.998H460.624V323.515L460.191 323.303L459.851 323.998ZM505.386 371.017L504.839 370.47L505.386 371.017ZM530.662 294.991C526.223 307.09 517.338 317.045 505.987 322.877L506.694 324.253C518.387 318.245 527.54 307.991 532.114 295.524L530.662 294.991ZM433.941 296.031H531.388V294.484H433.941V296.031ZM460.191 323.303C448.435 317.538 439.216 307.39 434.667 294.991L433.215 295.524C437.903 308.3 447.399 318.753 459.51 324.692L460.191 323.303ZM460.624 365.452V323.998H459.077V365.452H460.624ZM461.352 370.47C461.043 370.161 460.844 369.728 460.737 368.926C460.626 368.102 460.624 367.011 460.624 365.452H459.077C459.077 366.967 459.076 368.181 459.204 369.132C459.335 370.106 459.614 370.919 460.259 371.564L461.352 370.47ZM466.371 371.199C464.812 371.199 463.721 371.197 462.897 371.086C462.095 370.978 461.662 370.78 461.352 370.47L460.259 371.564C460.904 372.209 461.717 372.488 462.691 372.619C463.642 372.747 464.856 372.746 466.371 372.746V371.199ZM499.821 371.199H466.371V372.746H499.821V371.199ZM504.839 370.47C504.529 370.78 504.097 370.978 503.295 371.086C502.471 371.197 501.379 371.199 499.821 371.199V372.746C501.336 372.746 502.55 372.747 503.501 372.619C504.474 372.488 505.288 372.209 505.933 371.564L504.839 370.47ZM505.567 365.452C505.567 367.011 505.565 368.102 505.455 368.926C505.347 369.728 505.149 370.161 504.839 370.47L505.933 371.564C506.578 370.919 506.857 370.106 506.988 369.132C507.116 368.181 507.114 366.967 507.114 365.452H505.567ZM505.567 323.565V365.452H507.114V323.565H505.567Z" fill="#083156"/><path d="M535.779 151.124C535.779 180.663 512.19 204.609 483.091 204.609C453.992 204.609 430.402 180.663 430.402 151.124C430.402 121.585 453.992 96.1328 483.091 96.1328C512.19 96.1328 535.779 121.585 535.779 151.124Z" fill="#84D8FF"/><path opacity="0.4" d="M535.866 151.351C535.701 173.667 520.827 193.196 499.358 199.286L494.787 200.583C489.086 202.2 483.421 197.918 483.421 191.993L483.421 140.006C483.421 136.534 483.421 134.799 484.214 133.341C485.007 131.884 486.465 130.942 489.379 129.056L501.121 121.463C501.692 121.094 502.348 120.876 503.026 120.829L503.409 120.803C521.056 119.601 535.997 133.664 535.866 151.351Z" fill="#1CB0F6"/><path d="M483.089 203.052C454.846 203.052 431.95 179.791 431.95 151.096C431.95 122.401 454.846 97.6758 483.089 97.6758" stroke="white" stroke-width="3.25986" stroke-linecap="round"/><path d="M535.779 151.124C535.779 180.663 512.19 204.609 483.091 204.609C453.992 204.609 430.402 180.663 430.402 151.124C430.402 121.585 453.992 96.1328 483.091 96.1328C512.19 96.1328 535.779 121.585 535.779 151.124Z" stroke="#083156" stroke-width="1.5468"/><path d="M452.872 169.484C452.872 161.7 452.872 157.808 454.6 154.5C456.327 151.191 459.52 148.967 465.907 144.518L483.09 132.549L500.273 144.518C506.66 148.967 509.854 151.191 511.581 154.5C513.309 157.808 513.309 161.7 513.309 169.484V196.86C513.309 211.001 513.309 218.071 508.967 222.507C508.892 222.584 508.815 222.661 508.737 222.737C504.302 227.078 497.232 227.078 483.09 227.078C468.949 227.078 461.879 227.078 457.443 222.737C457.366 222.661 457.289 222.584 457.213 222.507C452.872 218.071 452.872 211.001 452.872 196.86V169.484Z" fill="#C09485" stroke="#083156" stroke-width="1.5468"/><path d="M460.358 231.287C452.531 231.287 445.462 226.607 442.406 219.402L441.658 217.638C438.375 209.897 437.671 201.304 439.652 193.132C441.499 185.513 448.32 180.147 456.161 180.147L510.022 180.147C517.862 180.147 524.684 185.513 526.531 193.132C528.511 201.304 527.808 209.897 524.525 217.638L523.777 219.402C520.72 226.607 513.652 231.287 505.825 231.287L460.358 231.287Z" fill="#083156"/><path d="M507.373 168.232C507.373 174.392 502.792 176.609 497.142 176.609C491.492 176.609 486.911 174.392 486.911 168.232C486.911 162.073 491.492 157.08 497.142 157.08C502.792 157.08 507.373 162.073 507.373 168.232Z" fill="white"/><path d="M500.424 168.173C500.526 171.759 498.303 174.732 495.459 174.813C492.615 174.894 491.417 170.433 491.505 167.194C491.593 163.777 493.308 160.972 496.152 160.892C498.996 160.811 500.322 164.586 500.424 168.173Z" fill="#083156"/><path d="M506.797 170.672C508.47 154.061 486.6 152.002 486.737 169.653" stroke="#083156" stroke-width="1.5468" stroke-linecap="round"/><path d="M479.367 168.232C479.367 174.392 474.787 176.609 469.136 176.609C463.486 176.609 458.905 174.392 458.905 168.232C458.905 162.073 463.486 157.08 469.136 157.08C474.787 157.08 479.367 162.073 479.367 168.232Z" fill="white"/><path d="M474.703 168.175C474.805 171.761 472.582 174.734 469.738 174.815C466.894 174.896 465.696 170.435 465.785 167.196C465.873 163.779 467.588 160.974 470.432 160.893C473.276 160.813 474.601 164.588 474.703 168.175Z" fill="#083156"/><path d="M459.363 170.67C457.69 154.059 479.56 152 479.423 169.651" stroke="#083156" stroke-width="1.5468" stroke-linecap="round"/><path d="M491.298 149.131C493.949 147.571 500.924 145.569 507.618 150.04" stroke="#083156" stroke-width="1.5468" stroke-linecap="round"/><path d="M475.424 148.554C472.872 147.413 466.042 145.998 459.136 149.464" stroke="#083156" stroke-width="1.5468" stroke-linecap="round"/><path d="M492.391 180.977C492.391 184.615 489.442 186.014 485.804 186.014C482.167 186.014 479.218 183.065 479.218 179.427C479.218 175.79 482.167 175.553 485.804 175.553C489.291 176.328 492.391 177.339 492.391 180.977Z" fill="#C09485"/><path d="M484.642 175.166C490.381 176.439 492.932 179.114 492.295 182.17C491.997 183.868 490.126 187.162 485.024 186.755" stroke="#083156" stroke-width="1.5468" stroke-linecap="round"/><path d="M470.368 191.293C471.783 193.087 475.916 196.674 481.13 196.674" stroke="white" stroke-width="13.5075" stroke-linecap="round" stroke-linejoin="round"/><path opacity="0.1" d="M472.692 185.869C474.107 187.663 478.24 191.25 483.454 191.25" stroke="#083156" stroke-width="8.90956" stroke-linecap="round" stroke-linejoin="round"/><path d="M460.621 148.435L510.54 113.152" stroke="#083156" stroke-width="1.5468" stroke-linecap="round"/><rect opacity="0.15" x="463.721" y="229.404" width="44.9401" height="8.52312" rx="4.26156" fill="#083156"/><rect opacity="0.15" x="479.276" y="130.691" width="37.9666" height="9.29794" rx="4.34649" transform="rotate(-34.9438 479.276 130.691)" fill="#083156"/><path d="M87.3456 255.75L97.0226 260.676L79.6508 297.204C78.3388 299.963 75.0094 301.096 72.2871 299.71C69.6666 298.376 68.5852 295.198 69.848 292.542L87.3456 255.75Z" fill="#DFA590" stroke="#083156" stroke-width="1.5468"/><path d="M148.54 255.75L138.863 260.676L156.235 297.204C157.547 299.963 160.876 301.096 163.599 299.71C166.219 298.376 167.301 295.198 166.038 292.542L148.54 255.75Z" fill="#DFA590" stroke="#083156" stroke-width="1.5468"/><path d="M96.4101 234.449C97.7676 231.705 98.4464 230.333 99.7207 229.899C100.995 229.466 102.37 230.138 105.119 231.484L106.638 232.227C109.41 233.583 110.795 234.261 111.232 235.543C111.668 236.826 110.984 238.209 109.616 240.974L86.014 288.674C84.6565 291.417 83.9778 292.789 82.7035 293.223C81.4293 293.656 80.0545 292.984 77.305 291.638L75.7865 290.895C73.0146 289.539 71.6287 288.861 71.1922 287.579C70.7557 286.296 71.44 284.914 72.8085 282.148L96.4101 234.449Z" fill="#083156"/><path d="M98.5728 235.605L73.7783 285.582" stroke="white" stroke-width="1.5468" stroke-linecap="round"/><path d="M139.478 234.449C138.12 231.705 137.441 230.333 136.167 229.899C134.893 229.466 133.518 230.138 130.769 231.484L129.25 232.227C126.478 233.583 125.092 234.261 124.656 235.543C124.219 236.826 124.903 238.209 126.272 240.974L149.874 288.674C151.231 291.417 151.91 292.789 153.184 293.223C154.458 293.656 155.833 292.984 158.583 291.638L160.101 290.895C162.873 289.539 164.259 288.861 164.695 287.579C165.132 286.296 164.448 284.914 163.079 282.148L139.478 234.449Z" fill="#083156"/><path d="M110.342 214.258C113.468 208.062 122.315 208.062 125.44 214.258L138.721 240.585C141.815 246.72 137.356 253.963 130.485 253.963H105.297C98.4263 253.963 93.9674 246.72 97.062 240.585L110.342 214.258Z" fill="#083156"/><rect x="98.5723" y="217.008" width="38.7414" height="17.0462" rx="8.52312" fill="#FFB2B2" stroke="#083156" stroke-width="1.5468"/><path d="M172.183 170.522C172.183 201.333 147.9 226.31 117.945 226.31C87.9902 226.31 63.707 201.333 63.707 170.522C63.707 139.711 87.9902 114.734 117.945 114.734C147.9 114.734 172.183 139.711 172.183 170.522Z" fill="#FFB2B2"/><path d="M117.929 115.477C88.8296 115.477 65.2402 139.933 65.2402 170.102C65.2402 191.78 77.4197 210.508 95.0711 219.333" stroke="white" stroke-width="2.17324" stroke-linecap="round"/><path d="M160.56 163.549C160.56 188.727 144.785 210.063 122.979 217.394" stroke="#083156" stroke-width="1.5468" stroke-linecap="round"/><path d="M160.561 165.873C160.561 188.553 141.482 206.938 117.946 206.938C94.4097 206.938 75.3301 188.553 75.3301 165.873C75.3301 143.192 94.4097 124.807 117.946 124.807C141.482 124.807 160.561 143.192 160.561 165.873Z" fill="#DFA590"/><path d="M134.189 175.491C140.418 174.602 144.704 170.488 144.232 165.231C143.689 158.574 137.709 155.631 131.48 156.52C125.251 157.41 120.993 163.675 121.675 168.452C122.357 173.229 127.96 176.381 134.189 175.491Z" fill="white"/><path d="M144.415 167.046C145.451 153.085 122.594 151.923 121.667 166.292" stroke="#083156" stroke-width="1.5468" stroke-linecap="round"/><path d="M134.84 167.692C134.941 171.269 132.596 174.238 129.601 174.323C126.606 174.408 125.351 169.961 125.449 166.731C125.547 163.322 127.358 160.522 130.353 160.437C133.348 160.352 134.738 164.115 134.84 167.692Z" fill="#083156"/><path d="M101.281 175.491C95.0521 174.602 90.7659 170.488 91.2376 165.231C91.7809 158.574 97.7609 155.631 103.99 156.52C110.219 157.41 114.477 163.675 113.795 168.452C113.113 173.229 107.51 176.381 101.281 175.491Z" fill="white"/><path d="M91.0556 167.046C90.0201 153.085 112.877 151.923 113.803 166.292" stroke="#083156" stroke-width="1.5468" stroke-linecap="round"/><path d="M100.632 167.692C100.53 171.269 102.876 174.238 105.871 174.323C108.866 174.408 110.12 169.961 110.022 166.731C109.924 163.322 108.114 160.522 105.119 160.437C102.124 160.352 100.734 164.115 100.632 167.692Z" fill="#083156"/><path fill-rule="evenodd" clip-rule="evenodd" d="M141.235 131.476C134.59 138.62 125.239 144.886 114.098 149.044C101.16 153.874 88.1832 154.974 77.5137 152.86C83.1612 136.558 99.1292 124.807 117.945 124.807C126.54 124.807 134.541 127.259 141.235 131.476Z" fill="#083156"/><path opacity="0.15" d="M135.433 132.249C129.607 137.866 121.642 145.204 113.032 148.942C100.266 154.485 88.4835 156.794 77.668 155.178" stroke="#083156" stroke-width="8.24959" stroke-linecap="round"/><path d="M160.561 165.873C160.561 188.553 141.482 206.938 117.946 206.938C94.4097 206.938 75.3301 188.553 75.3301 165.873C75.3301 143.192 94.4097 124.807 117.946 124.807C141.482 124.807 160.561 143.192 160.561 165.873Z" stroke="#083156" stroke-width="1.5468"/><path opacity="0.1" d="M160.544 167.002C160.544 190.324 141.464 209.23 117.928 209.23C94.3921 209.23 75.3125 190.324 75.3125 167.002C75.3125 143.68 94.3921 124.773 117.928 124.773C141.464 124.773 160.544 143.68 160.544 167.002Z" stroke="#083156" stroke-width="10.312"/><path d="M148.936 282.87C148.936 299.987 135.06 313.863 117.943 313.863C100.826 313.863 86.9502 299.987 86.9502 282.87C86.9502 265.753 100.826 251.877 117.943 251.877C135.06 251.877 148.936 265.753 148.936 282.87Z" fill="#FFB2B2"/><path fill-rule="evenodd" clip-rule="evenodd" d="M101.086 177.509C96.5997 175.93 92.0284 175.534 89.3055 175.646L89.0205 168.734C92.5109 168.591 97.9705 169.079 103.383 170.984C108.795 172.889 114.531 176.349 117.93 182.413L111.896 185.796C109.607 181.714 105.574 179.089 101.086 177.509Z" fill="#DFA590"/><path fill-rule="evenodd" clip-rule="evenodd" d="M135.081 177.509C139.568 175.93 144.139 175.534 146.862 175.646L147.147 168.734C143.656 168.591 138.197 169.079 132.784 170.984C127.372 172.889 121.637 176.349 118.237 182.413L124.272 185.796C126.56 181.714 130.593 179.089 135.081 177.509Z" fill="#DFA590"/><path d="M127.593 221.578C127.593 219.455 129.313 217.734 131.436 217.734H136.686C138.365 217.734 139.849 218.824 140.353 220.425L146.392 239.642C147.17 242.118 145.321 244.637 142.726 244.637H131.436C129.313 244.637 127.593 242.917 127.593 240.794V221.578Z" fill="#FFB2B2"/><path opacity="0.3" d="M168.292 169.457C168.292 172.09 168.101 174.678 167.734 177.205C164.105 202.201 143.188 221.371 117.928 221.371" stroke="#FF7373" stroke-width="8.24959" stroke-linecap="round"/><path d="M140.603 221.223L140.272 220.524L139.664 220.813L139.866 221.455L140.603 221.223ZM127.593 225.43H128.366V224.5L127.452 224.669L127.593 225.43ZM146.392 239.642L147.13 239.41V239.41L146.392 239.642ZM171.41 170.522C171.41 192.712 158.644 211.824 140.272 220.524L140.934 221.922C159.843 212.968 172.956 193.314 172.956 170.522H171.41ZM117.945 115.508C147.452 115.508 171.41 140.118 171.41 170.522H172.956C172.956 139.305 148.347 113.961 117.945 113.961V115.508ZM64.4804 170.522C64.4804 140.118 88.4377 115.508 117.945 115.508V113.961C87.5427 113.961 62.9336 139.305 62.9336 170.522H64.4804ZM117.945 225.536C88.4377 225.536 64.4804 200.926 64.4804 170.522H62.9336C62.9336 201.739 87.5427 227.083 117.945 227.083V225.536ZM127.452 224.669C124.368 225.239 121.19 225.536 117.945 225.536V227.083C121.285 227.083 124.556 226.777 127.733 226.19L127.452 224.669ZM128.366 240.795V225.43H126.819V240.795H128.366ZM131.436 243.864C129.741 243.864 128.366 242.49 128.366 240.795H126.819C126.819 243.344 128.886 245.411 131.436 245.411V243.864ZM142.726 243.864H131.436V245.411H142.726V243.864ZM145.654 239.874C146.276 241.852 144.799 243.864 142.726 243.864V245.411C145.843 245.411 148.065 242.385 147.13 239.41L145.654 239.874ZM139.866 221.455L145.654 239.874L147.13 239.41L141.341 220.991L139.866 221.455Z" fill="#083156"/><path d="M124.142 225.939C128.307 225.438 132.328 224.438 136.152 222.998" stroke="#083156" stroke-width="1.5468" stroke-linecap="round"/><path d="M90.0498 292.167C90.0498 288.315 93.1082 285.193 96.8809 285.193H139.006C142.779 285.193 145.837 288.315 145.837 292.167V365.001C145.837 368.852 142.779 371.974 139.006 371.974H96.8809C93.1082 371.974 90.0498 368.852 90.0498 365.001V292.167Z" fill="#FFB2B2"/><path opacity="0.3" d="M100.882 363.42C100.882 362.279 100.882 361.708 100.953 361.23C101.376 358.393 103.603 356.166 106.44 355.743C106.918 355.672 107.489 355.672 108.63 355.672H138.074C139.215 355.672 139.786 355.672 140.264 355.743C143.1 356.166 145.328 358.393 145.751 361.23C145.822 361.708 145.822 362.279 145.822 363.42C145.822 364.561 145.822 365.132 145.751 365.61C145.328 368.447 143.1 370.674 140.264 371.097C139.786 371.168 139.215 371.168 138.074 371.168H108.63C107.489 371.168 106.918 371.168 106.44 371.097C103.603 370.674 101.376 368.447 100.953 365.61C100.882 365.132 100.882 364.561 100.882 363.42Z" fill="#FF7373"/><path d="M145.837 296.393L145.142 296.055L145.064 296.215V296.393H145.837ZM90.0498 296.395H90.8232V296.217L90.7455 296.057L90.0498 296.395ZM148.163 282.868C148.163 287.598 147.077 292.071 145.142 296.055L146.533 296.731C148.569 292.541 149.71 287.837 149.71 282.868H148.163ZM117.943 252.648C134.633 252.648 148.163 266.178 148.163 282.868H149.71C149.71 265.324 135.488 251.102 117.943 251.102V252.648ZM87.7236 282.868C87.7236 266.178 101.253 252.648 117.943 252.648V251.102C100.399 251.102 86.1768 265.324 86.1768 282.868H87.7236ZM90.7455 296.057C88.8097 292.072 87.7236 287.598 87.7236 282.868H86.1768C86.1768 287.837 87.3183 292.542 89.3542 296.733L90.7455 296.057ZM90.8232 365V296.395H89.2764V365H90.8232ZM96.8809 371.2C93.5503 371.2 90.8232 368.439 90.8232 365H89.2764C89.2764 369.263 92.6661 372.747 96.8809 372.747V371.2ZM139.006 371.2H96.8809V372.747H139.006V371.2ZM145.064 365C145.064 368.439 142.337 371.2 139.006 371.2V372.747C143.221 372.747 146.611 369.263 146.611 365H145.064ZM145.064 296.393V365H146.611V296.393H145.064Z" fill="#083156"/><path d="M94.6938 266.211C91.4372 270.948 89.5312 276.686 89.5312 282.87C89.5312 285.411 89.8533 287.878 90.4588 290.231" stroke="white" stroke-width="1.5468" stroke-linecap="round"/><path d="M117.943 295.266V371.974" stroke="#083156" stroke-width="1.5468" stroke-linecap="round"/><path d="M114.844 294.492H121.043" stroke="#083156" stroke-width="1.5468" stroke-linecap="round"/><path d="M99.3486 254.05C99.3486 252.85 100.322 251.877 101.522 251.877H134.367C135.567 251.877 136.54 252.85 136.54 254.05V255.902C136.54 257.103 135.567 258.076 134.367 258.076H101.522C100.322 258.076 99.3486 257.103 99.3486 255.902V254.05Z" fill="#3C5D87"/><path d="M105.547 251.877H111.746V258.076H105.547V251.877Z" fill="#FFB2B2"/><path d="M124.144 251.877H130.343V258.076H124.144V251.877Z" fill="#FFB2B2"/><path d="M99.3477 384.372C99.3477 381.804 101.702 379.723 104.607 379.723H131.28C134.185 379.723 136.539 381.804 136.539 384.372C136.539 386.939 134.185 389.021 131.28 389.021H104.607C101.702 389.021 99.3477 386.939 99.3477 384.372Z" fill="#083156"/><path d="M125.862 175.385C126.4 178.015 124.475 179.462 121.845 180C119.215 180.538 116.647 178.842 116.109 176.211C115.571 173.581 117.668 172.974 120.298 172.437C122.934 172.481 125.325 172.755 125.862 175.385Z" fill="#DFA590"/><path d="M119.399 172.328C123.738 172.4 125.977 173.957 125.968 176.261C126.004 177.533 125.138 180.191 121.389 180.65" stroke="#083156" stroke-width="1.5468" stroke-linecap="round"/><rect opacity="0.12" x="101.671" y="223.463" width="35.6421" height="7.49192" rx="3.74596" fill="#083156"/><path d="M91.5996 298.365V363.451" stroke="white" stroke-width="1.5468" stroke-linecap="round"/><ellipse cx="80.2578" cy="149.478" rx="3.82667" ry="8.55429" transform="rotate(94.8401 80.2578 149.478)" fill="#083156"/><ellipse cx="81.1955" cy="144.833" rx="3.03946" ry="5.17354" transform="rotate(109.068 81.1955 144.833)" fill="#083156"/><path d="M112.533 187.186C113.536 189.233 115.575 190.634 117.928 190.634C120.281 190.634 122.32 189.233 123.323 187.186" stroke="#083156" stroke-width="1.5468" stroke-linecap="round"/><path d="M130.323 147.502C131.748 146.707 133.57 146.341 135.13 146.45C137.173 146.593 138.736 147.547 140.307 149.143" stroke="#083156" stroke-width="1.5468" stroke-linecap="round"/><path d="M254.877 249.987C257.17 244.385 263.569 241.703 269.171 243.995C274.773 246.288 277.455 252.688 275.162 258.29L252.164 314.476C249.871 320.077 243.471 322.76 237.869 320.467C232.268 318.174 229.585 311.774 231.878 306.172L254.877 249.987Z" fill="#EACAAC" stroke="#083156" stroke-width="1.5468"/><path d="M343.745 249.987C341.452 244.385 335.052 241.703 329.45 243.995C323.848 246.288 321.166 252.688 323.459 258.29L346.457 314.476C348.75 320.077 355.15 322.76 360.752 320.467C366.353 318.174 369.036 311.774 366.743 306.172L343.745 249.987Z" fill="#EACAAC" stroke="#083156" stroke-width="1.5468"/><path d="M251.001 254.635C253.294 249.033 259.693 246.351 265.295 248.644C270.897 250.937 273.579 257.337 271.286 262.938L251.981 310.101C251.55 311.155 250.346 311.66 249.291 311.228L232.823 304.487C231.769 304.056 231.264 302.852 231.696 301.797L251.001 254.635Z" fill="#FFD9AB"/><path d="M347.617 254.635C345.324 249.033 338.924 246.351 333.322 248.644C327.72 250.937 325.038 257.337 327.331 262.938L346.245 309.147C346.892 310.728 348.699 311.485 350.28 310.838L364.84 304.878C366.421 304.231 367.178 302.424 366.531 300.843L347.617 254.635Z" fill="#FFD9AB"/><ellipse cx="299.009" cy="275.091" rx="52.6884" ry="52.6883" fill="#FFFAED" stroke="#083156" stroke-width="1.5468"/><path d="M286.612 206.906H311.407V230.153C311.407 237.382 307.683 244.101 301.553 247.932C299.997 248.905 298.022 248.905 296.467 247.932C290.336 244.101 286.612 237.382 286.612 230.153V206.906Z" fill="#EACAAC" stroke="#083156" stroke-width="1.5468"/><rect x="260.269" y="270.441" width="77.4829" height="100.728" rx="6.51973" fill="#3C5D87"/><rect x="260.269" y="270.441" width="77.4829" height="100.728" rx="6.51973" stroke="#083156" stroke-width="1.5468"/><path d="M299.009 302.984V370.394" stroke="#083156" stroke-width="1.5468" stroke-linecap="round"/><path d="M295.91 302.984H302.109" stroke="#083156" stroke-width="1.5468" stroke-linecap="round"/><path d="M245.039 147.794C245.971 126.581 263.44 109.863 284.673 109.863C304.907 109.863 321.899 125.091 324.108 145.204L324.274 146.713C326.249 164.693 312.17 180.404 294.081 180.404H275.025C257.901 180.404 244.234 166.123 244.986 149.015L245.039 147.794Z" fill="#083156"/><path d="M247.68 176.785C245.787 159.701 259.161 144.764 276.349 144.764H321.986C339.174 144.764 352.548 159.701 350.654 176.785C348.264 198.358 330.031 214.682 308.326 214.682H290.009C268.304 214.682 250.071 198.358 247.68 176.785Z" fill="#EACAAC"/><rect opacity="0.1" x="289.71" y="211.555" width="25.5693" height="9.29794" rx="4.34649" fill="#083156"/><rect opacity="0.1" x="295.135" y="265.793" width="25.5693" height="9.29794" rx="4.34649" fill="#083156"/><ellipse cx="355.051" cy="178.562" rx="7.86918" ry="9.41883" transform="rotate(20 355.051 178.562)" fill="#EACAAC"/><ellipse cx="242.541" cy="178.562" rx="7.86918" ry="9.41883" transform="rotate(-20 242.541 178.562)" fill="#EACAAC"/><path opacity="0.1" fill-rule="evenodd" clip-rule="evenodd" d="M323.37 144.795C323.34 145.3 323.325 145.809 323.325 146.321C323.325 160.436 334.768 171.879 348.884 171.879H350.785C349.94 157.387 338.237 145.494 323.37 144.795Z" fill="#083156"/><path d="M247.546 172.013L246.991 172.551C247.205 172.772 247.529 172.845 247.817 172.737C248.105 172.629 248.302 172.361 248.318 172.054L247.546 172.013ZM350.752 171.358L349.981 171.417C350.003 171.706 350.186 171.959 350.455 172.071C350.723 172.183 351.031 172.135 351.253 171.947L350.752 171.358ZM358.277 169.711L358.012 170.437L358.277 169.711ZM362.45 181.253L361.723 180.988L362.45 181.253ZM351.834 187.412L351.569 188.139L351.834 187.412ZM348.841 185.246L349.444 184.762C349.267 184.54 348.981 184.434 348.702 184.485C348.422 184.536 348.193 184.737 348.106 185.007L348.841 185.246ZM249.272 184.522L250.012 184.297C249.924 184.007 249.675 183.795 249.375 183.755C249.074 183.715 248.778 183.854 248.617 184.111L249.272 184.522ZM245.765 187.413L245.501 186.686H245.501L245.765 187.413ZM235.149 181.253L234.423 181.518H234.423L235.149 181.253ZM239.323 169.711L239.058 168.984L239.323 169.711ZM276.352 143.99C260.369 143.99 247.6 156.568 246.774 171.971L248.318 172.054C249.101 157.457 261.206 145.537 276.352 145.537V143.99ZM321.989 143.99H276.352V145.537H321.989V143.99ZM351.524 171.298C350.367 156.204 337.739 143.99 321.989 143.99V145.537C336.914 145.537 348.886 157.112 349.981 171.417L351.524 171.298ZM358.541 168.984C355.687 167.945 352.6 168.773 350.252 170.768L351.253 171.947C353.268 170.235 355.783 169.626 358.012 170.437L358.541 168.984ZM363.177 181.517C365.055 176.356 363.143 170.659 358.541 168.984L358.012 170.437C361.578 171.735 363.403 176.374 361.723 180.988L363.177 181.517ZM351.569 188.139C356.171 189.814 361.298 186.679 363.177 181.517L361.723 180.988C360.043 185.603 355.664 187.983 352.098 186.686L351.569 188.139ZM348.238 185.73C349.102 186.806 350.226 187.65 351.569 188.139L352.098 186.686C351.039 186.3 350.144 185.632 349.444 184.762L348.238 185.73ZM308.329 215.455C327.432 215.455 343.891 203.038 349.577 185.484L348.106 185.007C342.623 201.934 326.749 213.909 308.329 213.909V215.455ZM290.012 215.455H308.329V213.909H290.012V215.455ZM248.532 184.747C253.991 202.689 270.643 215.455 290.012 215.455V213.909C271.335 213.909 255.276 201.598 250.012 184.297L248.532 184.747ZM248.617 184.111C247.869 185.303 246.809 186.21 245.501 186.686L246.03 188.139C247.692 187.534 249.015 186.388 249.927 184.933L248.617 184.111ZM245.501 186.686C241.935 187.984 237.556 185.603 235.876 180.989L234.423 181.518C236.301 186.679 241.428 189.814 246.03 188.139L245.501 186.686ZM235.876 180.989C234.197 176.374 236.021 171.735 239.587 170.438L239.058 168.984C234.456 170.659 232.544 176.356 234.423 181.518L235.876 180.989ZM239.587 170.438C242.06 169.538 244.893 170.388 246.991 172.551L248.101 171.474C245.681 168.979 242.23 167.83 239.058 168.984L239.587 170.438Z" fill="#083156"/><ellipse cx="243.611" cy="181.724" rx="2.7121" ry="2.7121" fill="#8C96A1"/><ellipse cx="243.611" cy="181.724" rx="2.7121" ry="2.7121" stroke="#083156" stroke-width="1.5468"/><ellipse cx="354.411" cy="181.724" rx="2.7121" ry="2.7121" fill="#8C96A1"/><ellipse cx="354.411" cy="181.724" rx="2.7121" ry="2.7121" stroke="#083156" stroke-width="1.5468"/><path fill-rule="evenodd" clip-rule="evenodd" d="M280.413 302.985V350.75C280.413 353.897 277.862 356.448 274.715 356.448H252.018C248.871 356.448 246.32 353.897 246.32 350.75V275.091H246.322C246.322 275.091 246.322 275.09 246.322 275.09C246.322 252.537 260.492 233.294 280.415 225.777V302.985H280.413Z" fill="#FFD9AB"/><path fill-rule="evenodd" clip-rule="evenodd" d="M317.608 275.09H317.607V350.749C317.607 353.896 320.158 356.447 323.305 356.447H346.001C349.148 356.447 351.699 353.896 351.699 350.749V275.414C351.7 275.306 351.7 275.198 351.7 275.09C351.7 252.537 337.53 233.294 317.608 225.777V275.09Z" fill="#FFD9AB"/><path fill-rule="evenodd" clip-rule="evenodd" d="M280.414 302.985V345.052C280.414 350.424 280.414 353.11 278.745 354.779C277.076 356.448 274.39 356.448 269.018 356.448H257.717C252.345 356.448 249.659 356.448 247.99 354.779C246.321 353.11 246.321 350.424 246.321 345.052V310.202L233.469 304.941C231.802 304.259 231.005 302.356 231.687 300.689L249.134 258.066C254.21 243.189 265.755 231.308 280.415 225.777V302.985H280.414ZM347.142 253.622C347.316 253.948 347.475 254.286 347.618 254.635L366.469 300.689C367.151 302.356 366.353 304.259 364.687 304.941L351.697 310.258V345.053C351.697 350.425 351.697 353.111 350.029 354.78C348.36 356.449 345.674 356.449 340.301 356.449H329.001C323.629 356.449 320.943 356.449 319.274 354.78C317.605 353.111 317.605 350.425 317.605 345.053V275.092H317.608V225.779C330.776 230.747 341.431 240.838 347.142 253.622Z" fill="#FFD9AB"/><path d="M247.871 301.436V348.7" stroke="white" stroke-width="2.17324" stroke-linecap="round"/><rect opacity="0.2" x="319.93" y="353.35" width="20.9204" height="9.29794" rx="4.34649" fill="#083156"/><rect opacity="0.2" x="276.538" y="285.939" width="9.29794" height="63.5359" rx="4.34649" fill="#083156"/><rect opacity="0.1" x="277.313" y="242.549" width="7.74829" height="28.6687" rx="3.87414" fill="#083156"/><path d="M232.107 302.331L249.908 258.845C254.803 244.495 265.717 232.932 279.64 227.166M318.523 349.099V226.555" stroke="white" stroke-width="2.0624" stroke-linecap="round"/><path opacity="0.25" d="M323.806 346.375C323.806 342.33 323.806 340.308 324.672 338.8C325.247 337.799 326.077 336.968 327.078 336.394C328.586 335.527 330.609 335.527 334.653 335.527H340.852C344.897 335.527 346.919 335.527 348.427 336.394C349.428 336.968 350.258 337.799 350.833 338.8C351.699 340.308 351.699 342.33 351.699 346.375C351.699 350.42 351.699 352.442 350.833 353.95C350.258 354.951 349.428 355.781 348.427 356.356C346.919 357.223 344.897 357.223 340.852 357.223H334.653C330.609 357.223 328.586 357.223 327.078 356.356C326.077 355.781 325.247 354.951 324.672 353.95C323.806 352.442 323.806 350.42 323.806 346.375Z" fill="#FF9600"/><path opacity="0.25" d="M259.494 345.6C259.494 342.287 259.494 340.63 260.082 339.341C260.734 337.912 261.879 336.767 263.308 336.115C264.597 335.527 266.254 335.527 269.567 335.527C272.88 335.527 274.537 335.527 275.826 336.115C277.255 336.767 278.4 337.912 279.052 339.341C279.64 340.63 279.64 342.287 279.64 345.6V347.15C279.64 350.463 279.64 352.12 279.052 353.409C278.4 354.837 277.255 355.983 275.826 356.634C274.537 357.223 272.88 357.223 269.567 357.223C266.254 357.223 264.597 357.223 263.308 356.634C261.879 355.983 260.734 354.837 260.082 353.409C259.494 352.12 259.494 350.463 259.494 347.15V345.6Z" fill="#FF9600"/><path d="M280.413 302.985V302.212H279.64V302.985H280.413ZM278.744 354.779L278.197 354.232H278.197L278.744 354.779ZM247.989 354.779L248.536 354.232H248.536L247.989 354.779ZM246.321 310.202H247.094V309.683L246.613 309.487L246.321 310.202ZM233.468 304.941L233.175 305.657H233.175L233.468 304.941ZM231.686 300.689L232.401 300.982H232.401L231.686 300.689ZM249.132 258.068L249.847 258.361L249.856 258.34L249.864 258.318L249.132 258.068ZM280.414 225.777H281.187V224.659L280.141 225.054L280.414 225.777ZM280.414 302.985V303.758H281.187V302.985H280.414ZM349.506 259.996L348.765 260.217L348.776 260.254L348.79 260.289L349.506 259.996ZM317.608 225.778L317.881 225.055L316.835 224.66V225.778H317.608ZM317.608 275.092V275.865H318.381V275.092H317.608ZM317.605 275.092V274.318H316.832V275.092H317.605ZM319.274 354.78L318.727 355.327L319.274 354.78ZM350.029 354.78L350.575 355.327L350.029 354.78ZM351.697 310.577L351.404 309.861L350.924 310.057V310.577H351.697ZM364.537 305.321L364.244 304.605L364.537 305.321ZM366.319 301.069L367.034 300.776L366.319 301.069ZM281.186 345.052V302.985H279.64V345.052H281.186ZM279.291 355.326C280.293 354.324 280.751 353.045 280.971 351.408C281.188 349.792 281.186 347.716 281.186 345.052H279.64C279.64 347.76 279.638 349.713 279.438 351.201C279.241 352.667 278.864 353.566 278.197 354.232L279.291 355.326ZM269.017 357.222C271.681 357.222 273.757 357.223 275.372 357.006C277.01 356.786 278.289 356.328 279.291 355.326L278.197 354.232C277.53 354.899 276.632 355.276 275.166 355.473C273.678 355.673 271.725 355.675 269.017 355.675V357.222ZM257.717 357.222H269.017V355.675H257.717V357.222ZM247.443 355.326C248.445 356.328 249.724 356.786 251.361 357.006C252.976 357.223 255.052 357.222 257.717 357.222V355.675C255.009 355.675 253.055 355.673 251.567 355.473C250.101 355.276 249.203 354.899 248.536 354.232L247.443 355.326ZM245.547 345.052C245.547 347.716 245.545 349.792 245.763 351.408C245.983 353.045 246.44 354.324 247.443 355.326L248.536 354.232C247.869 353.566 247.493 352.667 247.296 351.201C247.096 349.713 247.094 347.76 247.094 345.052H245.547ZM245.547 310.202V345.052H247.094V310.202H245.547ZM233.175 305.657L246.028 310.918L246.613 309.487L233.761 304.226L233.175 305.657ZM230.97 300.396C230.126 302.458 231.113 304.813 233.175 305.657L233.761 304.226C232.49 303.705 231.881 302.253 232.401 300.982L230.97 300.396ZM248.416 257.776L230.97 300.396L232.401 300.982L249.847 258.361L248.416 257.776ZM280.141 225.054C265.265 230.666 253.55 242.722 248.4 257.819L249.864 258.318C254.865 243.659 266.242 231.951 280.687 226.501L280.141 225.054ZM281.187 302.985V225.777H279.641V302.985H281.187ZM280.413 303.758H280.414V302.212H280.413V303.758ZM350.247 259.775C345.469 243.766 333.394 230.908 317.881 225.055L317.335 226.502C332.399 232.185 344.125 244.674 348.765 260.217L350.247 259.775ZM316.835 225.778V275.092H318.381V225.778H316.835ZM317.608 274.318H317.605V275.865H317.608V274.318ZM316.832 275.092V345.053H318.378V275.092H316.832ZM316.832 345.053C316.832 347.717 316.83 349.793 317.047 351.408C317.267 353.045 317.725 354.324 318.727 355.327L319.821 354.233C319.154 353.566 318.777 352.668 318.58 351.202C318.38 349.714 318.378 347.761 318.378 345.053H316.832ZM318.727 355.327C319.729 356.329 321.008 356.786 322.646 357.007C324.261 357.224 326.337 357.222 329.001 357.222V355.675C326.293 355.675 324.34 355.674 322.852 355.473C321.386 355.276 320.488 354.9 319.821 354.233L318.727 355.327ZM329.001 357.222H340.301V355.675H329.001V357.222ZM340.301 357.222C342.966 357.222 345.042 357.224 346.657 357.007C348.294 356.786 349.573 356.329 350.575 355.327L349.482 354.233C348.815 354.9 347.917 355.276 346.451 355.473C344.963 355.674 343.009 355.675 340.301 355.675V357.222ZM350.575 355.327C351.578 354.324 352.035 353.045 352.255 351.408C352.472 349.793 352.471 347.717 352.471 345.053H350.924C350.924 347.761 350.922 349.714 350.722 351.202C350.525 352.668 350.148 353.566 349.482 354.233L350.575 355.327ZM352.471 345.053V310.577H350.924V345.053H352.471ZM351.99 311.292L364.83 306.037L364.244 304.605L351.404 309.861L351.99 311.292ZM364.83 306.037C366.891 305.193 367.878 302.838 367.034 300.776L365.603 301.362C366.123 302.633 365.514 304.085 364.244 304.605L364.83 306.037ZM367.034 300.776L350.222 259.703L348.79 260.289L365.603 301.362L367.034 300.776Z" fill="#083156"/><path d="M305.091 175.422C305.301 180.91 308.841 184.99 313.989 185.034C320.502 185.137 323.983 180.196 323.774 174.708C323.775 172.037 318.046 169.921 313.341 170.1C308.637 170.28 305.088 171.263 305.091 175.422Z" fill="white"/><path d="M324.717 174.044C320.703 168.938 309.16 167.748 304.89 172.701" stroke="#083156" stroke-width="1.5468" stroke-linecap="round"/><path d="M308.305 161.025C309.986 160.132 312.191 159.641 314.116 159.641C316.636 159.641 318.638 160.483 320.703 161.965" stroke="#083156" stroke-width="1.5468" stroke-linecap="round"/><path d="M290.484 161.025C288.803 160.132 286.598 159.641 284.673 159.641C282.153 159.641 280.151 160.483 278.086 161.965" stroke="#083156" stroke-width="1.5468" stroke-linecap="round"/><path fill-rule="evenodd" clip-rule="evenodd" d="M312.233 180.489C315.775 180.805 317.569 177.273 317.461 173.496C317.432 172.445 317.302 171.379 317.066 170.389C315.833 170.16 314.554 170.054 313.342 170.101C311.374 170.176 309.609 170.391 308.221 170.921C308.134 171.417 308.083 171.935 308.069 172.466C307.976 175.877 308.691 180.174 312.233 180.489Z" fill="#083156"/><path d="M293.08 175.422C292.87 180.91 289.33 184.99 284.182 185.034C277.669 185.137 274.187 180.196 274.397 174.708C274.396 172.037 280.125 169.921 284.829 170.1C289.534 170.28 293.083 171.263 293.08 175.422Z" fill="white"/><path d="M273.455 174.044C277.469 168.938 289.012 167.748 293.281 172.701" stroke="#083156" stroke-width="1.5468" stroke-linecap="round"/><path fill-rule="evenodd" clip-rule="evenodd" d="M285.94 180.489C282.399 180.805 280.604 177.273 280.712 173.496C280.742 172.445 280.871 171.379 281.108 170.389C282.34 170.16 283.62 170.054 284.831 170.101C286.799 170.176 288.565 170.391 289.953 170.921C290.039 171.417 290.09 171.935 290.104 172.466C290.197 175.877 289.482 180.174 285.94 180.489Z" fill="#083156"/><path d="M302.885 179.787C307.476 180.891 309.517 183.209 309.007 185.857C308.769 187.329 307.272 190.184 303.191 189.831" stroke="#083156" stroke-width="1.5468" stroke-linecap="round"/><path d="M283.906 190.381C285.014 193.89 288.893 197.399 296.466 196.291" stroke="#083156" stroke-width="1.5468" stroke-linecap="round" stroke-linejoin="round"/><ellipse cx="269.955" cy="150.343" rx="17.4336" ry="30.9931" fill="#083156"/><ellipse cx="290.486" cy="144.919" rx="6.97346" ry="11.6224" fill="#083156"/><path opacity="0.12" d="M269.954 181.337C278.662 181.337 285.879 169.987 287.179 155.154C288.163 156.04 289.29 156.542 290.487 156.542C294.338 156.542 297.461 151.339 297.461 144.92" stroke="#083156" stroke-width="10.0026" stroke-linecap="round" stroke-linejoin="round"/><ellipse cx="251.745" cy="151.893" rx="6.97346" ry="17.8211" fill="#083156"/><rect x="269.566" y="379.691" width="27.8938" height="8.52312" rx="4.26156" fill="#083156" stroke="#083156" stroke-width="2.17324"/><rect x="300.56" y="379.691" width="27.8938" height="8.52312" rx="4.26156" fill="#083156" stroke="#083156" stroke-width="2.17324"/><path d="M246.322 309.957V295.623" stroke="#083156" stroke-width="1.5468" stroke-linecap="round"/><path d="M351.699 309.957V295.623" stroke="#083156" stroke-width="1.5468" stroke-linecap="round"/><path opacity="0.17" d="M494.309 279.432C491.247 288.746 486.968 304.579 487.926 322.897" stroke="#083156" stroke-width="13.0395" stroke-linecap="round"/><path opacity="0.18" d="M471.081 308.853C466.818 313.979 465.024 319.357 466.507 326.74" stroke="#083156" stroke-width="10.8662" stroke-linecap="round"/><path fill-rule="evenodd" clip-rule="evenodd" d="M508.279 385.728C508.34 384.129 509.506 383.145 511.783 383.083C513.393 383.177 514.104 383.067 514.502 382.825C516.288 381.736 515.162 377.849 518.351 378.224C523.098 378.594 521.686 386.054 518.487 388.004C516.767 389.052 513.291 388.722 511.774 388.633C510.552 388.562 508.155 388.311 508.279 385.728Z" fill="#FFC367" stroke="#083156" stroke-width="1.5468" stroke-linecap="round"/><path fill-rule="evenodd" clip-rule="evenodd" d="M533.998 379.49C533.175 377.802 533.875 375.785 535.563 374.961C536.036 374.735 536.551 374.611 537.045 374.611C538.301 374.611 539.494 375.311 540.091 376.505L542.417 381.363C543.241 383.051 542.541 385.068 540.853 385.892C539.165 386.715 537.148 386.015 536.324 384.327L533.998 379.49Z" fill="#FFC367" stroke="#083156" stroke-width="1.5468"/><path fill-rule="evenodd" clip-rule="evenodd" d="M486.703 346.138C476.26 342.266 464.253 327.685 468.094 317.265C471.491 308.057 481.988 301.492 491.31 303.02C492.562 303.225 492.737 304.921 493.976 305.37C504.418 309.242 514.409 331.802 510.568 342.222C506.7 352.638 497.119 350.006 486.703 346.138Z" fill="#7BB48B"/><path d="M487.93 308.13C490.488 295.58 493.938 258.763 510.259 260.747C520.514 261.873 520.097 271.445 527.983 273.022C539.71 275.336 551.911 268.032 563.354 270.373C570.936 271.922 575.815 280.901 574.266 288.483L567.821 319.735L584.98 353.49C586.661 356.786 584.65 360.709 581.024 361.302C571.732 362.778 562.412 360.94 554.49 356.457C549.46 360.962 543.224 364.25 536.159 365.753C536.011 365.786 535.854 365.819 535.698 365.852C535.541 365.885 535.385 365.918 535.236 365.951C514.6 369.808 494.722 356.226 490.832 335.557C489.149 326.693 486.081 317.143 487.93 308.13Z" fill="#7BB48B"/><path d="M529.722 274.28C538.922 276.532 558.005 267.627 566.813 273.399" stroke="white" stroke-width="1.84124" stroke-linecap="round"/><path d="M512.062 262.801C516.554 263.684 518.208 266.376 520.623 269.767" stroke="white" stroke-width="1.84124" stroke-linecap="round"/><path d="M506.528 269.924C505.012 271.502 504.012 273.348 503.588 275.214L502.211 272.989C502.013 272.66 501.683 272.495 501.354 272.495C500.991 272.495 500.562 272.66 500.233 273.022C498.816 274.497 497.849 276.207 497.383 277.948C495.061 279.717 493.353 282.317 492.747 285.418L489.681 301.275C488.395 307.934 492.747 314.428 499.439 315.713C506.131 317.032 512.592 312.648 513.878 305.956L513.899 305.844L522.688 307.548C522.745 314.801 527.912 321.257 535.307 322.702L536.56 322.933C544.999 324.581 553.207 319.076 554.823 310.604L556.669 301.143C557.839 295.149 555.385 289.289 550.842 285.806C550.998 284.253 550.829 282.661 550.305 281.132C550.107 280.506 549.513 280.143 548.92 280.143C548.59 280.143 548.294 280.242 548.03 280.44L544.737 282.919C545.238 280.893 545.172 278.73 544.47 276.682C544.272 276.056 543.811 275.726 543.316 275.726C543.019 275.726 542.723 275.825 542.459 276.023L529.443 285.621C529.348 285.672 529.248 285.736 529.143 285.813C524.857 288.978 519.22 287.231 516.88 283.407C516.768 283.225 516.657 283.056 516.546 282.899C516.528 282.859 516.507 282.819 516.483 282.78L508.506 269.891C508.308 269.561 507.978 269.396 507.649 269.396C507.286 269.396 506.858 269.561 506.528 269.924Z" fill="#ACD3A2"/><path d="M500.762 266.621C494.461 276.772 491.31 291.822 488.86 316.674" stroke="white" stroke-width="2.17324" stroke-linecap="round"/><path d="M487.93 308.13C490.488 295.58 493.938 258.763 510.259 260.747C520.514 261.873 520.097 271.445 527.983 273.022C539.71 275.336 551.911 268.032 563.354 270.373C570.936 271.922 575.815 280.901 574.266 288.483L567.821 319.735L584.98 353.49C586.661 356.786 584.65 360.709 581.024 361.303C571.732 362.778 562.412 360.94 554.49 356.457C549.46 360.962 543.224 364.25 536.159 365.753C536.011 365.786 535.854 365.819 535.698 365.852C535.541 365.885 535.385 365.918 535.236 365.951C514.6 369.808 494.722 356.226 490.832 335.557C489.149 326.693 486.081 317.143 487.93 308.13Z" stroke="#083156" stroke-width="1.5468"/><path fill-rule="evenodd" clip-rule="evenodd" d="M480.113 333.474L477.894 305.787C482.423 303.225 491.777 301.092 497.44 303.556C498.874 304.18 500.212 305.574 500.065 307.223C500.766 320.173 491.112 330.322 480.113 333.474Z" fill="#7BB48B"/><path d="M476.314 307.879C472.798 309.649 465.362 316.4 469.172 327.124" stroke="white" stroke-width="3.25986" stroke-linecap="round"/><path fill-rule="evenodd" clip-rule="evenodd" d="M517.146 326.465C517.601 326.033 518.32 326.051 518.752 326.506L520.808 328.669C521.466 329.361 522.486 329.568 523.361 329.187L526.573 327.791C527.149 327.54 527.818 327.804 528.069 328.38C528.319 328.955 528.055 329.624 527.479 329.875L524.267 331.271C522.516 332.032 520.476 331.618 519.161 330.234L517.105 328.071C516.673 327.616 516.691 326.897 517.146 326.465Z" fill="#ACD3A2"/><path fill-rule="evenodd" clip-rule="evenodd" d="M503.715 324.342C504.17 323.91 504.889 323.928 505.322 324.383L507.377 326.546C508.035 327.238 509.055 327.445 509.931 327.064L513.143 325.668C513.718 325.417 514.388 325.681 514.638 326.257C514.888 326.832 514.624 327.501 514.049 327.752L510.837 329.148C509.086 329.909 507.045 329.495 505.73 328.111L503.675 325.948C503.242 325.493 503.261 324.774 503.715 324.342Z" fill="#ACD3A2"/><path fill-rule="evenodd" clip-rule="evenodd" d="M508.919 333.27C509.373 332.837 510.093 332.856 510.525 333.31L512.58 335.473C513.238 336.165 514.258 336.372 515.134 335.992L518.346 334.595C518.921 334.345 519.591 334.609 519.841 335.184C520.091 335.76 519.827 336.429 519.252 336.679L516.04 338.076C514.289 338.837 512.249 338.423 510.933 337.039L508.878 334.876C508.445 334.421 508.464 333.702 508.919 333.27Z" fill="#ACD3A2"/><path d="M547.6 299.378C548.403 304.45 544.507 308.656 538.764 308.656C531.695 308.656 528.662 305.9 527.859 300.828C527.056 295.756 532.207 289.905 536.555 289.217C543.819 288.067 546.716 293.193 547.6 299.378Z" fill="white"/><path d="M512.905 291.987C512.923 298.61 509.457 302.325 503.875 301.108C497.488 298.966 497.142 296.001 496.912 293.257C496.132 288.001 500.372 282.046 504.279 281.386C508.186 280.726 512.124 286.731 512.905 291.987Z" fill="white"/><path d="M504.112 289.257C504.015 294.053 502.062 295.231 499.851 294.184C497.639 293.137 496.941 289.659 498.292 286.416C499.642 283.174 502.53 281.394 504.742 282.442C506.954 283.489 506.491 286.496 504.112 289.257Z" fill="#083156"/><path d="M536.869 296.312C536.761 300.636 534.623 302.192 532.295 301.184C529.967 300.176 529.203 296.763 530.589 293.562C531.975 290.361 534.986 288.583 537.314 289.591C539.642 290.599 539.36 293.499 536.869 296.312Z" fill="#083156"/><path d="M524.598 308.438C524.937 305.449 522.127 302.14 519.138 301.802C516.318 301.482 512.961 303.383 512.417 306.168L510.773 314.578C510.124 317.896 513.208 321.062 516.568 321.442C519.746 321.802 522.841 319.309 523.177 316.694L524.598 308.438Z" fill="#083156"/><path d="M521.942 308.054C522.397 305.775 520.806 303.594 518.496 303.333C516.447 303.101 514.561 304.477 514.157 306.5L512.541 314.593C512.086 316.872 513.678 319.053 515.987 319.315C518.037 319.547 519.923 318.17 520.327 316.147L521.942 308.054Z" fill="#FFD8AB"/><path d="M509.451 306.209C509.378 306.41 509.466 306.631 509.651 306.737L512.322 308.268L524.174 308.29C524.439 308.291 524.65 308.065 524.613 307.802C524.129 304.336 521.355 301.502 517.717 301.09C514.036 300.673 510.661 302.873 509.451 306.209Z" fill="#083156"/><path opacity="0.6" fill-rule="evenodd" clip-rule="evenodd" d="M521.268 311.437C521.221 311.431 521.174 311.425 521.126 311.419C517.566 311.016 514.352 313.576 513.949 317.137C513.899 317.583 513.895 318.024 513.933 318.454C514.5 318.915 515.203 319.226 515.988 319.315C518.038 319.547 519.924 318.171 520.328 316.148L521.268 311.437Z" fill="#FA811B"/><path opacity="0.4" d="M512.682 305.37C513.437 304.283 514.938 303.623 516.079 303.743" stroke="white" stroke-width="2.17324" stroke-linecap="round"/><path d="M524.394 308.696C524.732 305.715 521.93 302.414 518.949 302.077C516.136 301.758 512.788 303.654 512.245 306.432L510.606 314.819C509.959 318.129 513.035 321.286 516.386 321.665C519.555 322.024 522.642 319.538 522.977 316.929L524.394 308.696Z" fill="#FFC367"/><path d="M521.745 308.312C522.199 306.039 520.612 303.864 518.308 303.603C516.264 303.372 514.383 304.745 513.981 306.762L512.369 314.834C511.915 317.107 513.503 319.282 515.806 319.543C517.85 319.774 519.731 318.401 520.134 316.384L521.745 308.312Z" fill="#FA811B"/><path opacity="0.35" d="M521.745 308.312C522.199 306.039 520.612 303.864 518.308 303.603C516.264 303.372 514.383 304.745 513.981 306.762L512.369 314.834C511.915 317.107 513.503 319.282 515.806 319.543C517.85 319.774 519.731 318.401 520.134 316.384L521.745 308.312Z" fill="#A65D14"/><path d="M509.286 306.472C509.214 306.671 509.302 306.892 509.486 306.998L512.15 308.525L523.97 308.547C524.235 308.548 524.445 308.322 524.408 308.06C523.926 304.604 521.159 301.776 517.531 301.366C513.859 300.95 510.493 303.144 509.286 306.472Z" fill="#FFC367"/><path opacity="0.4" d="M512.509 305.635C513.262 304.551 514.759 303.893 515.896 304.012" stroke="white" stroke-width="1.39635" stroke-linecap="round"/><path d="M509.287 306.472L509.921 306.702L509.287 306.472ZM509.486 306.998L509.151 307.584L509.151 307.584L509.486 306.998ZM522.449 303.884L521.949 304.338L521.961 304.351L521.973 304.363L522.449 303.884ZM524.395 308.696L525.06 308.81L525.063 308.791L525.065 308.772L524.395 308.696ZM522.977 316.93L522.312 316.815L522.31 316.829L522.308 316.844L522.977 316.93ZM510.606 314.819L509.944 314.69L510.606 314.819ZM511.868 308.364L512.53 308.493L512.623 308.019L512.204 307.778L511.868 308.364ZM508.652 306.242C508.461 306.768 508.698 307.325 509.151 307.584L509.822 306.413C509.905 306.46 509.967 306.576 509.921 306.702L508.652 306.242ZM517.607 300.696C513.618 300.244 509.963 302.628 508.652 306.242L509.921 306.702C511.024 303.661 514.101 301.657 517.455 302.037L517.607 300.696ZM522.949 303.431C521.609 301.953 519.745 300.938 517.607 300.696L517.455 302.037C519.255 302.241 520.821 303.094 521.949 304.338L522.949 303.431ZM525.065 308.772C525.288 306.807 524.332 304.806 522.925 303.406L521.973 304.363C523.178 305.562 523.887 307.177 523.724 308.62L525.065 308.772ZM523.643 317.044L525.06 308.81L523.73 308.581L522.312 316.815L523.643 317.044ZM516.31 322.336C518.092 322.538 519.824 321.939 521.148 320.951C522.465 319.968 523.45 318.545 523.647 317.016L522.308 316.844C522.169 317.923 521.443 319.047 520.341 319.869C519.245 320.687 517.849 321.152 516.462 320.995L516.31 322.336ZM509.944 314.69C509.571 316.597 510.279 318.419 511.492 319.789C512.701 321.155 514.458 322.127 516.31 322.336L516.462 320.995C514.964 320.825 513.506 320.028 512.502 318.894C511.5 317.762 510.994 316.352 511.268 314.949L509.944 314.69ZM511.205 308.234L509.944 314.69L511.268 314.949L512.53 308.493L511.205 308.234ZM509.151 307.584L511.532 308.949L512.204 307.778L509.822 306.413L509.151 307.584Z" fill="#083156"/><path d="M512.15 308.525L519.41 308.539L520.865 308.541C521.297 308.542 521.624 308.931 521.552 309.356L520.806 313.767C520.108 317.956 519.061 319.352 515.57 319.003" stroke="#083156" stroke-width="1.35" stroke-linecap="round"/><path opacity="0.2" d="M510.553 318.924C511.663 320.717 513.798 322.07 516.041 322.324C518.483 322.6 520.868 321.384 522.127 319.701" stroke="#083156" stroke-width="4.18905" stroke-linecap="round"/><path opacity="0.12" d="M547.453 361.238C543.78 363.525 539.637 365.176 535.14 366.016C520.997 368.658 507.193 362.559 499.109 351.482" stroke="#3C5D87" stroke-width="10.312" stroke-linecap="round"/><path d="M479.409 333.473C485.179 333.473 491.31 328.223 495.16 323.673C499.602 318.422 502.708 306.963 498.66 304.072C493.76 300.572 474.204 304.071 469.258 312.822C460.443 328.415 479.928 346.291 495.578 348.445" stroke="#083156" stroke-width="1.5468" stroke-linecap="round"/><path d="M512.317 300.221C514.417 285.87 509.606 281.67 504.967 281.67C500.327 281.67 496.566 287.468 496.566 294.621" stroke="#083156" stroke-width="1.5468" stroke-linecap="round"/><path d="M527.718 301.273C529.118 293.222 532.639 288.672 538.277 288.672C543.679 288.672 549.273 292.528 547.487 305.473" stroke="#083156" stroke-width="1.5468" stroke-linecap="round"/><path d="M586.98 389.488H584.527M53.0202 389.488H56.5252M581.022 389.488H570.858M567.703 389.488H61.7826" stroke="#083156" stroke-width="1.61109" stroke-linecap="round"/></svg>